<?xml version="1.0" encoding="utf-8"?>
<!-- Generator: Adobe Illustrator 17.0.0, SVG Export Plug-In . SVG Version: 6.00 Build 0)  -->
<!DOCTYPE svg PUBLIC "-//W3C//DTD SVG 1.1//EN" "http://www.w3.org/Graphics/SVG/1.1/DTD/svg11.dtd">
<svg version="1.1" id="Warstwa_1" xmlns="http://www.w3.org/2000/svg" xmlns:xlink="http://www.w3.org/1999/xlink" x="0px" y="0px"
	 width="542.152px" height="200px" viewBox="0 0 542.152 200" enable-background="new 0 0 542.152 200" xml:space="preserve">
<polygon fill="#5FC5E3" points="0,50 86.603,100 86.603,0 "/>
<polygon fill="#F8CE13" points="0,150 86.603,200 86.603,100 "/>
<polygon fill="#4ABA74" points="86.603,100 0,50 0,150 "/>
<polygon fill="#F16969" points="173.205,150 86.603,100 86.603,200 "/>
<polygon fill="#04A8DA" points="173.205,50 86.603,0 86.603,100 "/>
<polygon fill="#FFFFFF" points="86.603,133.333 57.735,116.667 57.735,83.333 86.603,66.667 115.47,83.333 144.338,66.667 
	86.603,33.333 28.868,66.667 28.868,133.333 86.603,166.667 144.338,133.333 115.47,116.667 "/>
<g>
	<path fill="#333333" d="M242.117,112.167v38.138h-18.158V52.7h29.768c6.659,0,12.363,0.687,17.111,2.059
		c4.747,1.374,8.64,3.297,11.677,5.771c3.038,2.475,5.265,5.434,6.683,8.876c1.417,3.443,2.126,7.234,2.126,11.374
		c0,3.285-0.484,6.39-1.451,9.315c-0.968,2.926-2.363,5.58-4.185,7.965c-1.823,2.386-4.073,4.479-6.75,6.278
		c-2.678,1.8-5.727,3.24-9.146,4.32c2.295,1.306,4.275,3.172,5.94,5.603l24.435,36.045h-16.335c-1.576,0-2.914-0.314-4.016-0.945
		c-1.104-0.63-2.037-1.529-2.801-2.7l-20.52-31.252c-0.766-1.17-1.609-2.002-2.531-2.498c-0.923-0.495-2.285-0.743-4.084-0.743
		H242.117z M242.117,99.14h11.34c3.419,0,6.401-0.427,8.944-1.282c2.542-0.854,4.634-2.036,6.277-3.544
		c1.642-1.507,2.869-3.296,3.679-5.366c0.81-2.069,1.215-4.342,1.215-6.817c0-4.95-1.632-8.752-4.894-11.408
		c-3.263-2.655-8.247-3.982-14.951-3.982h-11.61V99.14z"/>
	<path fill="#333333" d="M373.337,52.7v14.445h-43.268v27.068h34.088v13.972h-34.088v27.607h43.268v14.513h-61.56V52.7H373.337z"/>
	<path fill="#333333" d="M474.856,150.305h-14.04c-1.575,0-2.869-0.394-3.881-1.181c-1.013-0.787-1.745-1.766-2.194-2.937
		l-7.29-19.912h-40.433l-7.29,19.912c-0.36,1.036-1.069,1.981-2.126,2.835c-1.058,0.855-2.352,1.283-3.881,1.283h-14.107
		l38.34-97.605h18.562L474.856,150.305z M411.677,113.45h31.117l-11.88-32.467c-0.54-1.44-1.137-3.139-1.789-5.097
		s-1.294-4.083-1.924-6.378c-0.631,2.295-1.248,4.433-1.855,6.413c-0.608,1.98-1.205,3.712-1.789,5.197L411.677,113.45z"/>
	<path fill="#333333" d="M503.07,135.32h39.082v14.985h-57.239V52.7h18.157V135.32z"/>
</g>
</svg>
