<?xml version="1.0" encoding="utf-8"?>
<!-- Generator: Adobe Illustrator 17.0.0, SVG Export Plug-In . SVG Version: 6.00 Build 0)  -->
<!DOCTYPE svg PUBLIC "-//W3C//DTD SVG 1.1//EN" "http://www.w3.org/Graphics/SVG/1.1/DTD/svg11.dtd">
<svg version="1.1" id="Warstwa_1" xmlns="http://www.w3.org/2000/svg" xmlns:xlink="http://www.w3.org/1999/xlink" x="0px" y="0px"
	 width="710.902px" height="200px" viewBox="0 0 710.902 200" enable-background="new 0 0 710.902 200" xml:space="preserve">
<g id="Warstwa_1_1_">
	<g>
		<path fill="#FFFFFF" d="M290.447,127.287c0.989,0,1.844,0.383,2.565,1.147l7.155,7.763c-3.96,4.905-8.832,8.663-14.614,11.272
			c-5.783,2.61-12.724,3.915-20.824,3.915c-7.246,0-13.759-1.237-19.541-3.712c-5.783-2.475-10.722-5.917-14.816-10.328
			c-4.095-4.41-7.234-9.675-9.416-15.795c-2.184-6.12-3.274-12.802-3.274-20.048c0-7.334,1.215-14.05,3.645-20.148
			c2.43-6.097,5.849-11.351,10.26-15.761c4.41-4.41,9.687-7.841,15.829-10.294c6.142-2.452,12.926-3.679,20.351-3.679
			c7.245,0,13.578,1.159,19.001,3.476c5.422,2.318,10.068,5.39,13.938,9.214l-6.075,8.438c-0.36,0.54-0.821,1.013-1.383,1.417
			c-0.563,0.405-1.34,0.607-2.329,0.607c-1.036,0-2.092-0.405-3.172-1.215s-2.453-1.688-4.118-2.632
			c-1.665-0.945-3.769-1.823-6.311-2.633c-2.543-0.81-5.771-1.215-9.687-1.215c-4.59,0-8.809,0.799-12.656,2.396
			c-3.847,1.598-7.155,3.881-9.922,6.851s-4.927,6.581-6.48,10.833c-1.552,4.253-2.329,9.035-2.329,14.344
			c0,5.491,0.776,10.373,2.329,14.648c1.553,4.275,3.656,7.875,6.312,10.8c2.654,2.926,5.782,5.164,9.382,6.716
			c3.6,1.552,7.469,2.329,11.61,2.329c2.475,0,4.713-0.135,6.716-0.405c2.002-0.27,3.848-0.697,5.535-1.283
			c1.688-0.584,3.284-1.338,4.792-2.261c1.507-0.922,3.004-2.059,4.489-3.409c0.449-0.405,0.922-0.731,1.417-0.979
			C289.322,127.412,289.862,127.287,290.447,127.287z"/>
		<path fill="#FFFFFF" d="M332.025,135.32h39.082v14.985h-57.24V52.7h18.158V135.32z"/>
		<path fill="#FFFFFF" d="M445.223,52.7v14.445h-43.268v27.068h34.088v13.972h-34.088v27.607h43.268v14.513h-61.56V52.7H445.223z"/>
		<path fill="#FFFFFF" d="M451.364,52.7h14.648c1.574,0,2.856,0.383,3.847,1.147c0.989,0.766,1.732,1.755,2.228,2.97l22.95,59.535
			c0.765,1.936,1.496,4.062,2.194,6.379c0.696,2.318,1.36,4.759,1.991,7.324c1.034-5.174,2.316-9.742,3.847-13.703l22.883-59.535
			c0.405-1.035,1.124-1.98,2.16-2.835c1.034-0.854,2.317-1.283,3.848-1.283h14.647l-39.42,97.605h-16.402L451.364,52.7z"/>
		<path fill="#FFFFFF" d="M618.358,52.7v14.445H575.09v27.068h34.088v13.972H575.09v27.607h43.268v14.513h-61.56V52.7H618.358z"/>
		<path fill="#FFFFFF" d="M652.851,112.167v38.138h-18.157V52.7h29.768c6.659,0,12.362,0.687,17.11,2.059
			c4.748,1.374,8.641,3.297,11.678,5.771c3.038,2.475,5.266,5.434,6.683,8.876c1.418,3.443,2.126,7.234,2.126,11.374
			c0,3.285-0.483,6.39-1.451,9.315c-0.968,2.926-2.362,5.58-4.185,7.965c-1.822,2.386-4.073,4.479-6.75,6.278
			c-2.678,1.8-5.728,3.24-9.146,4.32c2.295,1.306,4.274,3.172,5.94,5.603l24.435,36.045h-16.335c-1.575,0-2.914-0.314-4.017-0.945
			c-1.103-0.63-2.036-1.529-2.801-2.7l-20.521-31.252c-0.766-1.17-1.609-2.002-2.531-2.498c-0.923-0.495-2.284-0.743-4.083-0.743
			L652.851,112.167L652.851,112.167z M652.851,99.14h11.34c3.419,0,6.401-0.427,8.943-1.282c2.542-0.854,4.635-2.036,6.278-3.544
			c1.642-1.507,2.868-3.296,3.679-5.366c0.81-2.069,1.215-4.342,1.215-6.817c0-4.95-1.632-8.752-4.894-11.408
			c-3.264-2.655-8.247-3.982-14.951-3.982h-11.61L652.851,99.14L652.851,99.14z"/>
	</g>
</g>
<g id="Warstwa_3">
	<path fill="#FFFFFF" d="M86.603,0L0,50v100l86.603,50l86.603-50V50L86.603,0z M86.603,133.333l28.868-16.667l28.867,16.667
		l-57.735,33.333l-57.735-33.333V66.666l57.735-33.333l57.735,33.333L115.47,83.333L86.603,66.666L57.735,83.333v33.333
		L86.603,133.333z"/>
	<polygon opacity="0.04" stroke="#FFFFFF" stroke-miterlimit="10" enable-background="new    " points="0,50 86.603,100 86.603,0 	
		"/>
	<polygon opacity="0.04" stroke="#FFFFFF" stroke-miterlimit="10" enable-background="new    " points="0,150 86.603,200 
		86.603,100 	"/>
	<polygon opacity="0.08" stroke="#FFFFFF" stroke-miterlimit="10" enable-background="new    " points="86.603,100 173.205,150 
		173.205,50 	"/>
	<polygon fill-opacity="0" points="86.603,100 0,50 0,150 	"/>
	<polygon opacity="0.08" stroke="#FFFFFF" stroke-miterlimit="10" enable-background="new    " points="173.205,150 86.603,100 
		86.603,200 	"/>
	<polygon opacity="0.08" stroke="#FFFFFF" stroke-miterlimit="10" enable-background="new    " points="173.205,50 86.603,0 
		86.603,100 	"/>
</g>
</svg>
