<?xml version="1.0" encoding="utf-8"?>
<!-- Generator: Adobe Illustrator 17.0.0, SVG Export Plug-In . SVG Version: 6.00 Build 0)  -->
<!DOCTYPE svg PUBLIC "-//W3C//DTD SVG 1.1//EN" "http://www.w3.org/Graphics/SVG/1.1/DTD/svg11.dtd">
<svg version="1.1" id="Warstwa_1" xmlns="http://www.w3.org/2000/svg" xmlns:xlink="http://www.w3.org/1999/xlink" x="0px" y="0px"
	 width="562.739px" height="200px" viewBox="0 0 562.739 200" enable-background="new 0 0 562.739 200" xml:space="preserve">
<g id="Warstwa_1_1_">
	<g>
		<path fill="#FFFFFF" d="M309.145,150.305h-14.04c-1.576,0-2.869-0.394-3.881-1.181c-1.012-0.787-1.744-1.766-2.193-2.937
			l-7.29-19.912h-40.433l-7.29,19.912c-0.361,1.036-1.069,1.981-2.126,2.835c-1.058,0.855-2.352,1.283-3.881,1.283h-14.108
			l38.34-97.605h18.563L309.145,150.305z M245.964,113.45h31.118l-11.88-32.467c-0.54-1.44-1.137-3.139-1.789-5.097
			c-0.653-1.958-1.294-4.083-1.923-6.378c-0.631,2.295-1.249,4.433-1.856,6.413s-1.205,3.712-1.789,5.197L245.964,113.45z"/>
		<path fill="#FFFFFF" d="M337.358,135.32h39.082v14.985H319.2V52.7h18.158V135.32z"/>
		<path fill="#FFFFFF" d="M388.996,150.305V52.7h33.682c6.39,0,11.847,0.607,16.369,1.822c4.522,1.215,8.235,2.948,11.138,5.198
			c2.902,2.25,5.028,4.973,6.379,8.167c1.35,3.196,2.024,6.795,2.024,10.8c0,2.295-0.337,4.489-1.013,6.582
			c-0.675,2.092-1.721,4.05-3.139,5.873c-1.417,1.822-3.218,3.476-5.399,4.961c-2.184,1.485-4.782,2.746-7.797,3.78
			c13.41,3.015,20.115,10.26,20.115,21.735c0,4.141-0.788,7.965-2.362,11.475c-1.576,3.51-3.871,6.537-6.885,9.079
			c-3.016,2.543-6.729,4.534-11.138,5.974c-4.411,1.441-9.45,2.16-15.12,2.16h-36.854V150.305z M407.153,94.955h14.513
			c6.164,0,10.844-1.124,14.04-3.375c3.194-2.25,4.792-5.827,4.792-10.732c0-5.084-1.44-8.708-4.32-10.868s-7.38-3.24-13.5-3.24
			h-15.524v28.215H407.153z M407.153,107.51v28.62h18.428c3.375,0,6.198-0.405,8.471-1.215c2.271-0.81,4.095-1.89,5.468-3.24
			c1.372-1.35,2.362-2.925,2.97-4.725c0.607-1.799,0.911-3.712,0.911-5.737c0-2.115-0.337-4.017-1.013-5.704
			c-0.675-1.688-1.732-3.127-3.172-4.32c-1.44-1.192-3.285-2.103-5.535-2.734c-2.251-0.629-4.973-0.945-8.168-0.945H407.153z"/>
		<path fill="#FFFFFF" d="M562.739,150.305h-14.04c-1.575,0-2.869-0.394-3.881-1.181c-1.013-0.787-1.745-1.766-2.194-2.937
			l-7.29-19.912h-40.433l-7.29,19.912c-0.36,1.036-1.069,1.981-2.126,2.835c-1.058,0.855-2.352,1.283-3.881,1.283h-14.107
			l38.34-97.605h18.562L562.739,150.305z M499.56,113.45h31.117l-11.88-32.467c-0.54-1.44-1.137-3.139-1.789-5.097
			s-1.294-4.083-1.924-6.378c-0.631,2.295-1.248,4.433-1.855,6.413c-0.608,1.98-1.205,3.712-1.789,5.197L499.56,113.45z"/>
	</g>
</g>
<g id="Warstwa_3">
	<path fill="#FFFFFF" d="M86.603,0L0,50v100l86.603,50l86.603-50V50L86.603,0z M86.603,133.333l28.868-16.667l28.867,16.667
		l-57.735,33.333l-57.735-33.333V66.666l57.735-33.333l57.735,33.333L115.47,83.333L86.603,66.666L57.735,83.333v33.333
		L86.603,133.333z"/>
	<polygon opacity="0.04" stroke="#FFFFFF" stroke-miterlimit="10" enable-background="new    " points="0,50 86.603,100 86.603,0 	
		"/>
	<polygon opacity="0.04" stroke="#FFFFFF" stroke-miterlimit="10" enable-background="new    " points="0,150 86.603,200 
		86.603,100 	"/>
	<polygon opacity="0.08" stroke="#FFFFFF" stroke-miterlimit="10" enable-background="new    " points="86.603,100 173.205,150 
		173.205,50 	"/>
	<polygon fill-opacity="0" points="86.603,100 0,50 0,150 	"/>
	<polygon opacity="0.08" stroke="#FFFFFF" stroke-miterlimit="10" enable-background="new    " points="173.205,150 86.603,100 
		86.603,200 	"/>
	<polygon opacity="0.08" stroke="#FFFFFF" stroke-miterlimit="10" enable-background="new    " points="173.205,50 86.603,0 
		86.603,100 	"/>
</g>
</svg>
