<?xml version="1.0" encoding="utf-8"?>
<!-- Generator: Adobe Illustrator 22.1.0, SVG Export Plug-In . SVG Version: 6.00 Build 0)  -->
<svg version="1.1" id="Warstwa_1" xmlns="http://www.w3.org/2000/svg" xmlns:xlink="http://www.w3.org/1999/xlink" x="0px" y="0px"
	 viewBox="0 0 271 287.9" style="enable-background:new 0 0 271 287.9;" xml:space="preserve">
<style type="text/css">
	.st0{fill:#E23237;stroke:#FFFFFF;stroke-width:26;stroke-linecap:round;stroke-linejoin:round;stroke-miterlimit:10;}
	.st1{display:none;fill:#B52E31;stroke:#FFFFFF;stroke-width:26;stroke-linecap:round;stroke-linejoin:round;stroke-miterlimit:10;}
	.st2{display:none;fill:#FFFFFF;stroke:#FFFFFF;stroke-width:26;stroke-linecap:round;stroke-linejoin:round;stroke-miterlimit:10;}
	.st3{fill:#E23237;}
	.st4{fill:#B52E31;}
	.st5{fill:#FFFFFF;}
</style>
<g>
	<path class="st0" d="M7.6,53.5L133.4,8.7l129.2,44l-20.9,166.4l-108.3,60L26.8,219.9L7.6,53.5z"/>
	<path class="st1" d="M262.6,52.7l-129.2-44v270.4l108.3-59.9L262.6,52.7L262.6,52.7z"/>
	<path class="st2" d="M133.6,40.2L133.6,40.2L55.2,214.7l29.3-0.5l15.7-39.3h33.5h0.1h36.8l17.2,39.8l28,0.5L133.6,40.2L133.6,40.2z
		 M133.8,96.1l26.5,55.4h-25.4h-1.3h-23.1L133.8,96.1L133.8,96.1z"/>
</g>
<g>
	<path class="st3" d="M8,53.5L133.8,8.7l129.2,44l-20.9,166.4l-108.3,60L27.2,219.9L8,53.5z"/>
	<path class="st4" d="M263,52.7l-129.2-44v270.4l108.3-59.9L263,52.7L263,52.7z"/>
	<path class="st5" d="M134,40.2L134,40.2L55.6,214.7l29.3-0.5l15.7-39.3h33.5h0.1H171l17.2,39.8l28,0.5L134,40.2L134,40.2z
		 M134.2,96.1l26.5,55.4h-25.4H134h-23.1L134.2,96.1L134.2,96.1z"/>
</g>
</svg>
