<?xml version="1.0" encoding="utf-8"?>
<!-- Generator: Adobe Illustrator 17.0.0, SVG Export Plug-In . SVG Version: 6.00 Build 0)  -->
<!DOCTYPE svg PUBLIC "-//W3C//DTD SVG 1.1//EN" "http://www.w3.org/Graphics/SVG/1.1/DTD/svg11.dtd">
<svg version="1.1" id="Warstwa_1" xmlns="http://www.w3.org/2000/svg" xmlns:xlink="http://www.w3.org/1999/xlink" x="0px" y="0px"
	 width="587.924px" height="200px" viewBox="0 0 587.924 200" enable-background="new 0 0 587.924 200" xml:space="preserve">
<g id="Warstwa_1_1_">
	<g>
		<path fill="#FFFFFF" d="M242.117,112.167v38.138h-18.158V52.7h29.768c6.659,0,12.363,0.687,17.111,2.059
			c4.747,1.374,8.64,3.297,11.677,5.771c3.038,2.475,5.265,5.434,6.683,8.876c1.417,3.443,2.126,7.234,2.126,11.374
			c0,3.285-0.484,6.39-1.451,9.315c-0.968,2.926-2.363,5.58-4.185,7.965c-1.823,2.386-4.073,4.479-6.75,6.278
			c-2.678,1.8-5.727,3.24-9.146,4.32c2.295,1.306,4.275,3.172,5.94,5.603l24.435,36.045h-16.335c-1.576,0-2.914-0.314-4.016-0.945
			c-1.104-0.63-2.037-1.529-2.801-2.7l-20.52-31.252c-0.766-1.17-1.609-2.002-2.531-2.498c-0.923-0.495-2.285-0.743-4.084-0.743
			L242.117,112.167L242.117,112.167z M242.117,99.14h11.34c3.419,0,6.401-0.427,8.944-1.282c2.542-0.854,4.634-2.036,6.277-3.544
			c1.642-1.507,2.869-3.296,3.679-5.366c0.81-2.069,1.215-4.342,1.215-6.817c0-4.95-1.632-8.752-4.894-11.408
			c-3.263-2.655-8.247-3.982-14.951-3.982h-11.61L242.117,99.14L242.117,99.14z"/>
		<path fill="#FFFFFF" d="M402.161,101.502c0,7.155-1.193,13.782-3.577,19.879c-2.386,6.098-5.738,11.374-10.058,15.829
			s-9.518,7.932-15.593,10.429c-6.075,2.497-12.803,3.746-20.183,3.746c-7.381,0-14.119-1.249-20.216-3.746
			c-6.098-2.498-11.318-5.974-15.66-10.429c-4.343-4.455-7.707-9.73-10.091-15.829c-2.386-6.097-3.578-12.724-3.578-19.879
			s1.192-13.78,3.578-19.878c2.385-6.097,5.748-11.374,10.091-15.829c4.342-4.455,9.562-7.932,15.66-10.429
			c6.097-2.497,12.835-3.746,20.216-3.746c7.38,0,14.107,1.26,20.183,3.78c6.075,2.521,11.272,5.997,15.593,10.429
			c4.319,4.433,7.672,9.698,10.058,15.795C400.968,87.722,402.161,94.347,402.161,101.502z M383.531,101.502
			c0-5.354-0.709-10.159-2.126-14.411c-1.418-4.252-3.454-7.864-6.109-10.833c-2.655-2.97-5.884-5.242-9.687-6.818
			c-3.803-1.574-8.089-2.362-12.858-2.362c-4.771,0-9.068,0.788-12.893,2.362c-3.825,1.576-7.077,3.848-9.753,6.818
			c-2.678,2.97-4.737,6.581-6.176,10.833c-1.441,4.252-2.16,9.057-2.16,14.411c0,5.356,0.719,10.159,2.16,14.412
			c1.439,4.252,3.498,7.853,6.176,10.8c2.677,2.948,5.928,5.209,9.753,6.784c3.824,1.576,8.122,2.363,12.893,2.363
			c4.77,0,9.056-0.787,12.858-2.363c3.803-1.575,7.031-3.836,9.687-6.784c2.655-2.947,4.691-6.547,6.109-10.8
			C382.822,111.661,383.531,106.858,383.531,101.502z"/>
		<path fill="#FFFFFF" d="M510.094,101.502c0,7.155-1.193,13.782-3.577,19.879c-2.386,6.098-5.738,11.374-10.058,15.829
			s-9.518,7.932-15.593,10.429c-6.075,2.497-12.803,3.746-20.183,3.746c-7.381,0-14.119-1.249-20.216-3.746
			c-6.099-2.498-11.318-5.974-15.66-10.429c-4.344-4.455-7.707-9.73-10.092-15.829c-2.386-6.097-3.577-12.724-3.577-19.879
			s1.191-13.78,3.577-19.878c2.385-6.097,5.748-11.374,10.092-15.829c4.342-4.455,9.562-7.932,15.66-10.429
			c6.097-2.497,12.835-3.746,20.216-3.746c7.38,0,14.107,1.26,20.183,3.78c6.075,2.521,11.272,5.997,15.593,10.429
			c4.319,4.433,7.672,9.698,10.058,15.795C508.9,87.722,510.094,94.347,510.094,101.502z M491.464,101.502
			c0-5.354-0.709-10.159-2.126-14.411c-1.418-4.252-3.454-7.864-6.109-10.833c-2.655-2.97-5.884-5.242-9.687-6.818
			c-3.803-1.574-8.089-2.362-12.858-2.362c-4.771,0-9.068,0.788-12.893,2.362c-3.825,1.576-7.077,3.848-9.754,6.818
			c-2.678,2.97-4.736,6.581-6.176,10.833s-2.16,9.057-2.16,14.411c0,5.356,0.72,10.159,2.16,14.412
			c1.439,4.252,3.498,7.853,6.176,10.8c2.677,2.948,5.929,5.209,9.754,6.784c3.824,1.576,8.122,2.363,12.893,2.363
			c4.77,0,9.056-0.787,12.858-2.363c3.803-1.575,7.031-3.836,9.687-6.784c2.655-2.947,4.691-6.547,6.109-10.8
			C490.755,111.661,491.464,106.858,491.464,101.502z"/>
		<path fill="#FFFFFF" d="M587.924,52.7v14.917h-29.362v82.688h-18.158V67.617h-29.497V52.7H587.924z"/>
	</g>
</g>
<g id="Warstwa_3">
	<path fill="#FFFFFF" d="M86.603,0L0,50v100l86.603,50l86.603-50V50L86.603,0z M86.603,133.333l28.868-16.667l28.867,16.667
		l-57.735,33.333l-57.735-33.333V66.666l57.735-33.333l57.735,33.333L115.47,83.333L86.603,66.666L57.735,83.333v33.333
		L86.603,133.333z"/>
	<polygon opacity="0.04" stroke="#FFFFFF" stroke-miterlimit="10" enable-background="new    " points="0,50 86.603,100 86.603,0 	
		"/>
	<polygon opacity="0.04" stroke="#FFFFFF" stroke-miterlimit="10" enable-background="new    " points="0,150 86.603,200 
		86.603,100 	"/>
	<polygon opacity="0.08" stroke="#FFFFFF" stroke-miterlimit="10" enable-background="new    " points="86.603,100 173.205,150 
		173.205,50 	"/>
	<polygon fill-opacity="0" points="86.603,100 0,50 0,150 	"/>
	<polygon opacity="0.08" stroke="#FFFFFF" stroke-miterlimit="10" enable-background="new    " points="173.205,150 86.603,100 
		86.603,200 	"/>
	<polygon opacity="0.08" stroke="#FFFFFF" stroke-miterlimit="10" enable-background="new    " points="173.205,50 86.603,0 
		86.603,100 	"/>
</g>
</svg>
