
<svg xmlns="http://www.w3.org/2000/svg" xmlns:xlink="http://www.w3.org/1999/xlink" aria-hidden="true" version="1.1">
  <defs>
    <symbol id="full" viewBox="0 0 394 115">
      <g fill="none" fill-rule="nonzero">
        <g style="fill: currentColor">
          <path d="M96 24.124 57 1.608a12 12 0 0 0-12 0L6 24.124a12.034 12.034 0 0 0-6 10.393V79.55a12.033 12.033 0 0 0 6 10.392l39 22.517a12 12 0 0 0 12 0l39-22.517a12.033 12.033 0 0 0 6-10.392V34.517a12.034 12.034 0 0 0-6-10.393ZM94 79.55a4 4 0 0 1-2 3.464l-39 22.517a4 4 0 0 1-4 0L10 83.014a4 4 0 0 1-2-3.464V34.517a4 4 0 0 1 2-3.464L49 8.536a4 4 0 0 1 4 0l39 22.517a4 4 0 0 1 2 3.464V79.55Z"/>
          <path d="M74.022 70.071h-2.866a4 4 0 0 0-1.925.494L51.95 80.05 32 68.531V45.554l19.95-11.519 17.29 9.455a4 4 0 0 0 1.919.49h2.863a2 2 0 0 0 2-2v-2.71a2 2 0 0 0-1.04-1.756L55.793 27.02a8.04 8.04 0 0 0-7.843.09L28 38.626a8.025 8.025 0 0 0-4 6.929V68.53a8 8 0 0 0 4 6.928l19.95 11.519a8.043 8.043 0 0 0 7.843.088l19.19-10.532a2 2 0 0 0 1.038-1.753v-2.71a2 2 0 0 0-2-2Z"/>
          <g transform="translate(118 33)">
            <path d="M50.745.428c-8.28.01-14.99 6.72-15 15v17.277c0 8.285 6.715 15 15 15 8.284 0 15-6.715 15-15V15.428c-.01-8.28-6.72-14.99-15-15Zm7 32.277a7 7 0 0 1-14 0V15.428a7 7 0 0 1 14 0v17.277ZM14.079 8.488a7.01 7.01 0 0 1 7.868 6.075.99.99 0 0 0 .984.865h6.03a1.01 1.01 0 0 0 1-1.097C29.354 6.206 22.38.046 14.243.447 6.161 1-.086 7.762 0 15.864V32.27c-.087 8.101 6.161 14.864 14.244 15.416 8.137.401 15.11-5.759 15.716-13.883a1.01 1.01 0 0 0-.999-1.098h-6.03a.99.99 0 0 0-.985.865 7.01 7.01 0 0 1-7.868 6.076A7.164 7.164 0 0 1 8 32.461V15.672a7.164 7.164 0 0 1 6.079-7.184ZM96.922 27.994a12.158 12.158 0 0 0 7.184-11.077v-3.7c0-6.71-5.44-12.15-12.149-12.15H75a1 1 0 0 0-1 1v44a1 1 0 0 0 1 1h6a1 1 0 0 0 1-1v-17h6.621l7.916 17.413a1 1 0 0 0 .91.587h6.591a1 1 0 0 0 .91-1.414l-8.026-17.659Zm-.816-11.077a4.154 4.154 0 0 1-4.148 4.15h-9.852v-12h9.852a4.154 4.154 0 0 1 4.148 4.15v3.7ZM139 1.067h-26a1 1 0 0 0-1 1v44a1 1 0 0 0 1 1h26a1 1 0 0 0 1-1v-6a1 1 0 0 0-1-1h-19v-12h13a1 1 0 0 0 1-1v-6a1 1 0 0 0-1-1h-13v-10h19a1 1 0 0 0 1-1v-6a1 1 0 0 0-1-1ZM177 1.067h-6a1 1 0 0 0-1 1v22.647a7.007 7.007 0 1 1-14 0V2.067a1 1 0 0 0-1-1h-6a1 1 0 0 0-1 1v22.647a15.003 15.003 0 1 0 30 0V2.067a1 1 0 0 0-1-1Z"/>
            <rect width="8" height="38" x="186" y="1.067" rx="1"/>
          </g>
        </g>
        <path style="fill: currentColor" d="M392 34.067a2 2 0 0 1 2 2v33.916a2 2 0 0 1-2 2h-66a2 2 0 0 1-2-2V36.067a2 2 0 0 1 2-2Zm-11.107 10.711a7.592 7.592 0 0 0-6.853 0 5.697 5.697 0 0 0-2.295 2.314 7.144 7.144 0 0 0-.812 3.464v5.397a7.141 7.141 0 0 0 .812 3.136 5.685 5.685 0 0 0 2.295 2.313 7.584 7.584 0 0 0 6.853 0 5.686 5.686 0 0 0 2.295-2.313 7.141 7.141 0 0 0 .812-3.464V50.227a7.144 7.144 0 0 0-.812-3.135l-.137-.241a5.697 5.697 0 0 0-2.158-2.073Zm-39.72-.633H334v17.891h3.372v-6.94h4.108a6.187 6.187 0 0 0 2.64-.676 4.822 4.822 0 0 0 1.976-1.914 6.249 6.249 0 0 0 0-5.752 4.85 4.85 0 0 0-1.975-1.926l-.276-.134a6.144 6.144 0 0 0-2.671-.549Zm19.13-.012h-7.838v17.903h3.371v-7.198h2.046l4.033 7.198H366l-4.278-7.378.245-.07a4.482 4.482 0 0 0 2.668-2.29 6.732 6.732 0 0 0 0-5.624 4.5 4.5 0 0 0-1.736-1.877 4.998 4.998 0 0 0-2.596-.664Zm15.308 3.587a3.494 3.494 0 0 1 3.2 0c.455.255.825.638 1.064 1.102.258.51.387 1.076.375 1.648v5.242l-.003.244c-.024.488-.15.967-.372 1.404-.239.464-.61.847-1.065 1.102a3.494 3.494 0 0 1-3.199 0 2.655 2.655 0 0 1-1.064-1.102 3.492 3.492 0 0 1-.375-1.648V50.47l.003-.245c.024-.488.15-.966.372-1.404.239-.463.609-.846 1.064-1.101Zm-34.607-.327c.378-.008.75.088 1.077.278.31.187.558.46.714.787.173.367.26.769.252 1.175.008.4-.08.797-.258 1.157l-.088.157a1.9 1.9 0 0 1-.632.624c-.323.189-.691.284-1.065.276h-3.888v-4.454Zm18.773-.012c.326-.007.648.083.923.258.27.182.482.439.609.739.149.35.222.727.215 1.107 0 .38-.078.758-.228 1.108-.126.3-.338.556-.608.738a1.625 1.625 0 0 1-.911.259h-4.196v-4.21Z"/>
      </g>
    </symbol>
    <symbol id="signet" viewBox="0 0 102 115">
      <g style="fill: currentColor">
        <path d="M96 24.124 57 1.608a12 12 0 0 0-12 0L6 24.124a12.034 12.034 0 0 0-6 10.393V79.55a12.033 12.033 0 0 0 6 10.392l39 22.517a12 12 0 0 0 12 0l39-22.517a12.033 12.033 0 0 0 6-10.392V34.517a12.034 12.034 0 0 0-6-10.393ZM94 79.55a4 4 0 0 1-2 3.464l-39 22.517a4 4 0 0 1-4 0L10 83.014a4 4 0 0 1-2-3.464V34.517a4 4 0 0 1 2-3.464L49 8.536a4 4 0 0 1 4 0l39 22.517a4 4 0 0 1 2 3.464V79.55Z"/>
        <path d="M74.022 70.071h-2.866a4 4 0 0 0-1.925.494L51.95 80.05 32 68.531V45.554l19.95-11.519 17.29 9.455a4 4 0 0 0 1.919.49h2.863a2 2 0 0 0 2-2v-2.71a2 2 0 0 0-1.04-1.756L55.793 27.02a8.04 8.04 0 0 0-7.843.09L28 38.626a8.025 8.025 0 0 0-4 6.929V68.53a8 8 0 0 0 4 6.928l19.95 11.519a8.043 8.043 0 0 0 7.843.088l19.19-10.532a2 2 0 0 0 1.038-1.753v-2.71a2 2 0 0 0-2-2Z"/>
      </g>
    </symbol>
  </defs>
</svg>
