<svg xmlns="http://www.w3.org/2000/svg" width="28" height="23" viewBox="0 0 28 23">
    <g fill="#1EA6D6" fill-rule="nonzero">
        <path d="M26.094 10.444A6.562 6.562 0 0 0 22.4 8.54v-.091C22.4 3.79 18.632 0 14 0 9.368 0 5.6 3.79 5.6 8.449v.146a7.118 7.118 0 0 0-3.663 1.92A6.435 6.435 0 0 0 0 15.114v4.13h28v-4.13a6.635 6.635 0 0 0-1.906-4.671zm.04 6.923H1.866v-2.252c0-2.48 2.079-4.571 4.733-4.761l.867-.062V8.449c0-3.63 2.925-6.571 6.533-6.571 3.608 0 6.533 2.942 6.533 6.571v1.878l.92.012c2.58.038 4.68 2.18 4.68 4.776v2.252zM0 21.122h28V23H0z"/>
    </g>
</svg>
