<svg xmlns="http://www.w3.org/2000/svg" width="335" height="500" viewBox="0 0 335 500">
    <g fill="#1EA6D6" fill-rule="nonzero">
        <path d="M98.454 49.24l16.009 13.047-1.22 1.211a10.244 10.244 0 0 0 0 14.505l4.885 4.89a10.224 10.224 0 0 0 14.491 0l1.475-1.477 7.262 7.27v125.922l-19.46 19.479 4.816 4.83 19.46-19.48h81.833c.513 11.57 10.034 20.686 21.604 20.686 11.57 0 21.091-9.116 21.605-20.686h13.323v17.065h6.82v-17.065h17.048v-6.826h-17.049V74.087L307.4 58.02l-4.79-4.82-16.077 16.066h-92.275l-24.03-24.044 1.475-1.476a10.244 10.244 0 0 0 0-14.505l-4.884-4.89a10.224 10.224 0 0 0-14.491 0l-1.193 1.246-13.042-16.032a23.791 23.791 0 0 0-17.5-8.712A29.266 29.266 0 0 0 98.573 9.65a29.298 29.298 0 0 0-8.789 22.04 23.797 23.797 0 0 0 8.67 17.55zm49.696 46.263l52.304 52.364a56.057 56.057 0 0 0 3.964 3.592l-56.26 56.314-.008-112.27zm111.923 133.354a14.821 14.821 0 0 1-19.481 1.331c-5.911-4.5-7.586-12.683-3.918-19.147l12.914-22.841 12.905 22.841a14.908 14.908 0 0 1-2.42 17.816zm24.464-16.212h-14.082a21.616 21.616 0 0 0-2.02-4.932l-13.699-24.266a5.966 5.966 0 0 0-10.305 0l-13.69 24.232a21.266 21.266 0 0 0-2.029 4.932h-75.746l57.061-57.116a53.452 53.452 0 0 0 27.073 8.14l.767.76a10.8 10.8 0 0 0 10.436 2.81 10.813 10.813 0 0 0 7.65-7.64 10.825 10.825 0 0 0-2.785-10.452l-.759-.76a53.476 53.476 0 0 0-8.14-27.099l40.268-40.341v131.732zm-4.825-136.519l-39.51 39.54a56.008 56.008 0 0 0-3.588-3.968l-35.537-35.606 78.635.034zM165.37 50.043l66.395 66.45a46.798 46.798 0 0 1 13.775 33.277v1.407l2.736 2.748a3.987 3.987 0 0 1-.1 5.53 3.978 3.978 0 0 1-5.526.101l-2.736-2.747h-1.415a46.69 46.69 0 0 1-33.244-13.789l-66.37-66.433 13.264-13.276 13.221-13.268zm-8.226-20.845a3.407 3.407 0 0 1 4.816 0l4.919 4.932a3.415 3.415 0 0 1 0 4.829l-1.509 1.425-36.125 36.203-1.475 1.468a3.407 3.407 0 0 1-4.816 0l-4.885-4.89a3.415 3.415 0 0 1 0-4.829l1.705-1.706 35.7-35.734 1.67-1.698zm-53.745-14.693a22.579 22.579 0 0 1 15.83-6.826h1.014a17.042 17.042 0 0 1 12.556 6.178l13.494 16.561-26.954 27.03-16.58-13.497a17.07 17.07 0 0 1-6.17-12.569 22.469 22.469 0 0 1 6.81-16.877z"/>
        <path d="M52.373 410.563v22.449c-10.776-4.079-17.103-15.279-15.04-26.623 2.062-11.345 11.925-19.596 23.444-19.614h84.39c11.298 0 20.458-9.168 20.458-20.478 0-11.31-9.16-20.478-20.458-20.478H41.607l25.777-52.304v-163.37a33.737 33.737 0 0 0-16.445-30.302 33.668 33.668 0 0 0-34.451 0A33.737 33.737 0 0 0 .043 130.145v163.37l27.277 55.29a7.134 7.134 0 0 0 6.47 3.994 7.29 7.29 0 0 0 1.432-.162h109.945c7.532 0 13.638 6.112 13.638 13.651 0 7.54-6.106 13.652-13.638 13.652h-84.39c-15.293.02-28.237 11.308-30.352 26.469-2.115 15.16 7.245 29.566 21.948 33.779v59.104h281.97v-88.737l-281.97.008zM7.527 293.37h52.33l-14.023 28.456H21.558L7.527 293.37zm-.708-6.826V161.305h53.745v125.24H6.82zm26.877-183.302c14.834.02 26.854 12.054 26.868 26.903v24.335H6.82v-24.335c.014-14.852 12.04-26.889 26.877-26.903zm0 242.74a.315.315 0 0 1-.298-.188l-8.456-17.142h17.525l-8.447 17.142h-.094v.076a.4.4 0 0 1-.256.111h.026zm293.828 146.492H59.192V417.39h36.96v30.717h6.82v-30.717h13.639v17.065h6.819v-17.065h13.639v17.065h6.819v-17.065h13.639v30.717h6.82v-30.717h13.638v17.065h6.82v-17.065h13.638v17.065h6.82v-17.065H218.9v30.717h6.82v-30.717h13.638v17.065h6.82v-17.065h13.638v17.065h6.82v-17.065h13.638v30.717h6.82v-30.717h40.43v75.085z"/>
        <path d="M282.636 277.474a58.166 58.166 0 0 0-41.185-17.066 58.166 58.166 0 0 0-41.167 17.11l-26.51 27.593a9.392 9.392 0 0 0 0 12.97l26.544 27.636a58.157 58.157 0 0 0 41.187 17.065 58.158 58.158 0 0 0 41.165-17.116l26.519-27.586a9.392 9.392 0 0 0 0-12.97l-26.519-27.593-.034-.043zm22.359 34.13a2.561 2.561 0 0 1-.708 1.75l-26.467 27.542c-20.045 20.071-52.545 20.094-72.618.051l-26.518-27.594a2.562 2.562 0 0 1 0-3.498l26.425-27.551c20.063-20.07 52.579-20.07 72.643 0l26.561 27.542c.44.476.684 1.101.682 1.75v.008z"/>
        <path d="M241.49 306.374a5.22 5.22 0 0 0-5.217 5.222 5.22 5.22 0 0 0 5.217 5.221 5.22 5.22 0 0 0 5.217-5.221 5.22 5.22 0 0 0-5.217-5.222z"/>
        <path d="M241.49 282.073a29.493 29.493 0 0 0-27.255 18.219 29.543 29.543 0 0 0 6.388 32.176 29.473 29.473 0 0 0 32.143 6.403 29.522 29.522 0 0 0 18.209-27.275c-.019-16.294-13.207-29.5-29.485-29.523zm0 52.219a22.674 22.674 0 0 1-20.955-14.005 22.712 22.712 0 0 1 4.91-24.737 22.658 22.658 0 0 1 24.711-4.924 22.696 22.696 0 0 1 14 20.97c-.014 12.525-10.153 22.677-22.666 22.696z"/>
    </g>
</svg>
