<svg xmlns="http://www.w3.org/2000/svg" width="28" height="27" viewBox="0 0 28 27">
    <g fill="#1EA6D6" fill-rule="nonzero">
        <path d="M26.57 0H1.4C.627 0 0 .648 0 1.446V27h5.133v-1.929H1.867V9.643h24.236V25.07h-3.236V27h5.103V1.446C27.97.648 27.343 0 26.57 0zM1.867 7.714V1.93h24.236v5.785H1.867z"/>
        <path d="M3.733 3.857H5.6v1.929H3.733zM7.467 3.857h1.867v1.929H7.467zM11.2 3.857h1.867v1.929H11.2zM7 17.874V27h6.067v-5.786h1.866V27H21v-9.126l-7-6.122-7 6.122zm12.133 7.197H16.8v-5.785h-5.6v5.785H8.867V18.77L14 14.283l5.133 4.488v6.3z"/>
    </g>
</svg>
