<svg xmlns="http://www.w3.org/2000/svg" width="27" height="28" viewBox="0 0 27 28">
    <g fill="#1EA6D6" fill-rule="nonzero">
        <path d="M11.621 14.83h4.845l2.45-4.281h5.015l3.019-5.274L23.932 0h-6.036l-2.45 4.282h-3.94L9.054 0H3.018L0 5.274 2.51 9.66 0 14.044l2.486 4.34L0 22.725 3.018 28h6.037l3.018-5.274-2.487-4.342 2.035-3.553zm3.777-1.866H11.5L9.586 9.62l1.986-3.472h3.807l1.96 3.426-1.94 3.39zm3.566-11.097h3.9l1.95 3.407-1.95 3.408h-3.879l-1.96-3.426 1.939-3.39zm-14.878 0h3.9L9.9 5.21 7.913 8.682H4.086L2.14 5.274l1.947-3.407zm0 8.769h3.9l1.95 3.408-1.95 3.407h-3.9L2.14 14.044l1.947-3.408zm3.9 15.497h-3.9L2.14 22.726l1.95-3.408h3.9l1.95 3.407-1.953 3.408z"/>
        <path d="M17.896 17.451l-3.018 5.274L17.896 28h6.036l3.019-5.274-3.019-5.275h-6.036zm4.968 8.682h-3.9l-1.95-3.407 1.95-3.408h3.9l1.95 3.407-1.95 3.408z"/>
    </g>
</svg>
