<svg xmlns="http://www.w3.org/2000/svg" width="28" height="28" viewBox="0 0 28 28">
    <g fill="#FFF" fill-rule="nonzero">
        <path d="M6.533 9.8H8.4v1.867H6.533zM19.6 9.8h1.867v1.867H19.6z"/>
        <path d="M26.6 2.8h-5.133V0H19.6v2.8H8.4V0H6.533v2.8H1.4A1.4 1.4 0 0 0 0 4.2v22.4A1.4 1.4 0 0 0 1.4 28h25.2a1.4 1.4 0 0 0 1.4-1.4V4.2a1.4 1.4 0 0 0-1.4-1.4zM6.533 4.667v2.8H8.4v-2.8h11.2v2.8h1.867v-2.8h4.666v13.066H1.867V4.667h4.666zM1.867 26.133V19.6h24.266v6.533H1.867z"/>
        <path d="M10.267 21.933h7.467V23.8h-7.467z"/>
    </g>
</svg>
