<svg xmlns="http://www.w3.org/2000/svg" width="345" height="560" viewBox="0 0 345 560">
    <g fill="#FFF" fill-rule="nonzero">
        <path d="M147.266 442.697a53.332 53.332 0 0 0 5.529 12.476l5.376-3.272a47.156 47.156 0 0 1-4.875-11.002l-6.03 1.798zM145.061 427.416h6.273c.03-26.05 21.075-47.162 47.045-47.191v-6.292c-29.432.034-53.283 23.96-53.318 53.483zM28.191 365.303l120.114-81.5 120.114 81.5 3.513-5.213L153.906 280l118.026-80.09-3.513-5.213-120.114 81.5-120.114-81.5-3.512 5.213L142.705 280 24.679 360.09zM108.877 91.811c13.184 0 23.872-10.72 23.872-23.946 0-13.225-10.688-23.946-23.872-23.946-13.185 0-23.873 10.721-23.873 23.946.015 13.22 10.695 23.931 23.873 23.946zm0-41.6c9.72 0 17.6 7.904 17.6 17.654s-7.88 17.654-17.6 17.654c-9.72 0-17.6-7.904-17.6-17.654.01-9.746 7.884-17.644 17.6-17.654z"/>
        <path d="M294.818 265.169H345V57.529H161.693c-.125-.612-.233-1.223-.367-1.799l9.857-8.09a4.306 4.306 0 0 0 .994-5.474l-9.409-16.395a4.268 4.268 0 0 0-5.215-1.879l-11.954 4.495a53.835 53.835 0 0 0-21.04-12.207l-2.062-12.584A4.27 4.27 0 0 0 118.286 0H99.468a4.27 4.27 0 0 0-4.23 3.596L93.195 16.18a53.835 53.835 0 0 0-21.04 12.207L60.2 23.892a4.268 4.268 0 0 0-5.215 1.879l-9.391 16.323a4.288 4.288 0 0 0 1.003 5.475l9.858 8.09a54.285 54.285 0 0 0 0 24.341l-9.858 8.09a4.306 4.306 0 0 0-.994 5.474l9.39 16.315a4.277 4.277 0 0 0 5.225 1.887l11.954-4.494c.43.404.896.782 1.326 1.168v64.144H0v214.58h135.312c-19.7 31.02-14.03 71.8 13.38 96.228 27.412 24.429 68.45 25.277 96.84 2.001l12.95 31.46.232.576 35.71 35.82c8.236 8.102 21.44 8.037 29.597-.145 8.156-8.182 8.22-21.427.145-29.688L288.93 488l-.44-.45-31.972-13.249c20.126-24.972 22.102-60.048 4.91-87.137h33.39V265.169zM59.573 105.349l-7.715-13.394 11.649-9.627-.538-1.96a47.981 47.981 0 0 1 0-25.006l.538-1.96-11.65-9.627 7.716-13.393 14.14 5.312 1.425-1.447a47.46 47.46 0 0 1 21.587-12.512l1.963-.513 2.473-14.93h15.431l2.482 14.93 1.954.513a47.46 47.46 0 0 1 21.587 12.512l1.425 1.447 14.14-5.312 7.716 13.393-11.65 9.627.53 1.96a47.981 47.981 0 0 1 0 25.007l-.53 1.96 11.65 9.626-7.716 13.393-14.14-5.312-1.425 1.447a47.46 47.46 0 0 1-21.587 12.513l-1.954.512-2.482 14.93h-15.43l-2.474-14.93-1.963-.512a47.46 47.46 0 0 1-21.587-12.513l-1.424-1.447-14.141 5.312zm20.18 7.91a53.78 53.78 0 0 0 13.442 6.292l2.097 12.584a4.27 4.27 0 0 0 4.23 3.595h18.817a4.27 4.27 0 0 0 4.23-3.595l1.99-12.584a53.835 53.835 0 0 0 21.004-12.171l11.954 4.494a4.268 4.268 0 0 0 5.215-1.878l9.4-16.324a4.306 4.306 0 0 0-.976-5.51l-9.857-8.09a54.489 54.489 0 0 0 1.38-12.162c0-1.348-.072-2.697-.17-4.045h176.218v195.011h-43.909v-86.292H79.753v-59.326zM319.757 527.82c5.632 5.803 5.57 15.069-.14 20.796-5.708 5.726-14.945 5.788-20.73.14l-34.823-34.931-13.209-32.081 2.097-2.113 32.009 13.259 34.796 34.93zm-121.378-31.865c-27.684.004-52.645-16.723-63.241-42.378-10.596-25.656-4.741-55.189 14.835-74.825 19.576-19.637 49.017-25.51 74.594-14.881 25.577 10.629 42.252 35.666 42.248 63.437-.045 37.894-30.658 68.602-68.436 68.647zm90.166-115.083h-31.578c-14.144-18.005-35.735-28.512-58.588-28.512-22.852 0-44.443 10.507-58.587 28.512H6.272V178.876h282.273v201.996z"/>
    </g>
</svg>
