<svg xmlns="http://www.w3.org/2000/svg" width="28" height="28" viewBox="0 0 28 28">
    <g fill="#1EA6D6" fill-rule="nonzero">
        <path d="M28 13.171l-3.733-3.88V1.4a1.4 1.4 0 0 0-1.4-1.4H5.6a1.4 1.4 0 0 0-1.4 1.4v7.405L0 13.17v1.685l4.2 4.367V26.6A1.4 1.4 0 0 0 5.6 28h17.267a1.4 1.4 0 0 0 1.4-1.4v-7.863L28 14.857V13.17zM22.4 1.867V7.35l-.162-.169-.013-.012c-4.44-4.44-11.604-4.533-16.158-.282v-5.02H22.4zm0 24.266H6.067v-4.992c4.585 4.267 11.724 4.143 16.158-.282l.175-.181v5.455zm3.733-12.029L20.9 19.546c-3.807 3.799-9.99 3.799-13.798 0l-5.234-5.442v-.181L7.1 8.482c3.807-3.8 9.99-3.8 13.798 0l5.234 5.441v.181z"/>
        <path d="M12.982 12.995h2.037v2.037h-2.037z"/>
        <path d="M14 7.988a6.026 6.026 0 1 0 6.026 6.026A6.033 6.033 0 0 0 14 7.988zm0 10.185a4.16 4.16 0 1 1 0-8.32 4.16 4.16 0 0 1 0 8.32z"/>
    </g>
</svg>
