<svg xmlns="http://www.w3.org/2000/svg" width="28" height="28" viewBox="0 0 28 28">
    <g fill="#1EA6D6" fill-rule="nonzero">
        <path d="M26.6 4.667h-2.333V1.4a1.4 1.4 0 0 0-1.4-1.4H1.4A1.4 1.4 0 0 0 0 1.4v19.133a1.4 1.4 0 0 0 1.4 1.4h11.667V26.6a1.4 1.4 0 0 0 1.4 1.4H26.6a1.4 1.4 0 0 0 1.4-1.4V6.067a1.4 1.4 0 0 0-1.4-1.4zm-24.733 15.4V16.8h11.2v3.267h-11.2zm11.2-14v8.866h-11.2V1.867H22.4v2.8h-7.933a1.4 1.4 0 0 0-1.4 1.4zm13.066 20.066h-11.2v-19.6h11.2v19.6z"/>
        <path d="M18.2 8.4h4.667v1.867H18.2zM19.6 22.4h1.867v1.867H19.6z"/>
    </g>
</svg>
