<svg xmlns="http://www.w3.org/2000/svg" width="28" height="28" viewBox="0 0 28 28">
    <g fill="#1EA6D6" fill-rule="nonzero">
        <path d="M22.376 3.733h1.867V5.6h-1.867z"/>
        <path d="M26.553 0H7.443a1.4 1.4 0 0 0-1.4 1.4v6.067H1.4a1.4 1.4 0 0 0-1.4 1.4V28h22.843v-7.467h5.11V1.4a1.4 1.4 0 0 0-1.4-1.4zm-5.577 26.133H1.866v-16.8h19.11v16.8zm5.11-7.466h-3.243v-9.8a1.4 1.4 0 0 0-1.4-1.4H7.909v-5.6h18.177v16.8z"/>
        <path d="M18.643 3.733h1.867V5.6h-1.867zM9.263 21.26l-3.3-3.3 3.3-3.3-1.32-1.32-4.62 4.62 4.62 4.62zM14.636 22.58l4.62-4.62-4.62-4.62-1.32 1.32 3.3 3.3-3.3 3.3z"/>
    </g>
</svg>
