<svg xmlns="http://www.w3.org/2000/svg" width="331" height="500" viewBox="0 0 331 500">
    <g fill="#1EA6D6" fill-rule="nonzero">
        <path d="M331 257.34v-34.713h-39.129V145.27c0-5.597-4.536-10.135-10.133-10.135H10.133C4.537 135.135 0 139.673 0 145.27v219.358c0 5.598 4.537 10.136 10.133 10.136H27.02v77.939h121.592v-77.94h133.126c5.597 0 10.133-4.537 10.133-10.135v-17.82H331v-73.86h-39.129V257.34H331zm-6.755-6.757h-200.12v-21.2h200.12v21.2zM10.133 141.892h271.605a3.378 3.378 0 0 1 3.378 3.378v50.676H6.756V145.27a3.378 3.378 0 0 1 3.377-3.378zm131.724 304.054H33.776V290.54h108.081v155.405zM324.245 340.05H185.647v-60.347h138.598v60.347zm-39.129-67.103H178.892v73.86h106.224v17.82a3.378 3.378 0 0 1-3.378 3.379H148.612v-84.223H27.02v84.223H10.133a3.378 3.378 0 0 1-3.378-3.379V202.703h278.361v19.924H117.37v34.713h167.746v15.608z"/>
        <path d="M210.227 295.321h95.036v6.757h-95.036zM210.227 317.686h95.036v6.757h-95.036zM264.133 431.014l-1.528-5.65-69.367-18.582-4.137 4.139 18.576 69.383 5.658 1.512 12.767-12.779 30.246 30.254h4.779l19.767-19.772v-4.772l-30.246-30.254 13.485-13.48zm9.618 46.106l-14.988 15-30.246-30.253h-4.754l-11.028 10.98-15.562-58.075 58.069 15.557-11.72 11.723v4.78l30.229 30.288zM47.286 182.432c7.461 0 13.51-6.05 13.51-13.513s-6.049-13.514-13.51-13.514c-7.462 0-13.51 6.05-13.51 13.514 0 7.463 6.048 13.513 13.51 13.513zm0-20.27a6.756 6.756 0 0 1 6.755 6.757 6.756 6.756 0 1 1-13.51 0 6.756 6.756 0 0 1 6.755-6.757zM87.816 182.432c7.462 0 13.51-6.05 13.51-13.513s-6.048-13.514-13.51-13.514c-7.461 0-13.51 6.05-13.51 13.514 0 7.463 6.049 13.513 13.51 13.513zm0-20.27a6.756 6.756 0 0 1 6.755 6.757 6.756 6.756 0 1 1-13.51 0 6.756 6.756 0 0 1 6.755-6.757zM128.347 182.432c7.461 0 13.51-6.05 13.51-13.513s-6.049-13.514-13.51-13.514c-7.462 0-13.51 6.05-13.51 13.514 0 7.463 6.048 13.513 13.51 13.513zm0-20.27a6.756 6.756 0 0 1 6.755 6.757 6.756 6.756 0 1 1-13.51 0 6.756 6.756 0 0 1 6.755-6.757zM218.553 109.341l-21.498-21.503 21.498-21.504-4.78-4.772-26.268 26.276 26.269 26.275zM265.839 114.113l26.269-26.275-26.27-26.275-4.779 4.771 21.498 21.504-21.498 21.503zM33.776 60.228v17.475c0 5.597 4.536 10.135 10.132 10.135h13.51V81.08h-13.51a3.378 3.378 0 0 1-3.377-3.378V60.228a10.077 10.077 0 0 0-2.964-7.162l-9.145-9.147 9.136-9.147a10.052 10.052 0 0 0 2.973-7.162V10.135a3.378 3.378 0 0 1 3.377-3.378h13.51V0h-13.51c-5.596 0-10.132 4.538-10.132 10.135V27.61a3.379 3.379 0 0 1-.988 2.382L18.864 43.919l13.924 13.927c.63.632.986 1.489.988 2.382zM114.837 77.703V60.228c.001-.893.356-1.75.988-2.382l13.924-13.927-13.924-13.927a3.379 3.379 0 0 1-.988-2.382V10.135C114.837 4.538 110.3 0 104.704 0h-13.51v6.757h13.51a3.378 3.378 0 0 1 3.378 3.378V27.61a10.077 10.077 0 0 0 2.963 7.162l9.145 9.147-9.136 9.147a10.052 10.052 0 0 0-2.972 7.162v17.475a3.378 3.378 0 0 1-3.378 3.378h-13.51v6.757h13.51c5.596 0 10.133-4.538 10.133-10.135zM76.096 37.162a5.168 5.168 0 0 0 5.168-5.169 5.168 5.168 0 1 0-5.168 5.17zM76.096 64.19a5.168 5.168 0 0 0 5.168-5.17 5.168 5.168 0 1 0-5.168 5.17z"/>
    </g>
</svg>
