<svg xmlns="http://www.w3.org/2000/svg" width="28" height="26" viewBox="0 0 28 26">
    <g fill="#FFF" fill-rule="nonzero">
        <path d="M26.6 0H1.4C.627 0 0 .624 0 1.393v19.5c0 .77.627 1.393 1.4 1.393h25.2c.773 0 1.4-.624 1.4-1.393v-19.5C28 .623 27.373 0 26.6 0zm-.467 20.429H1.867V1.857h24.266V20.43z"/>
        <path d="M5.202 18.404L14 12.276l8.798 6.128 1.07-1.522-8.24-5.74 8.24-5.738-1.07-1.522L14 10.009 5.202 3.882l-1.07 1.522 8.24 5.739-8.24 5.739zM0 24.143h28V26H0z"/>
    </g>
</svg>
