<svg xmlns="http://www.w3.org/2000/svg" viewBox="0 0 235 210"><defs><style>.cls-1{opacity:0.2;}.cls-2{fill:#fff;}</style></defs><title>x-mas</title><g id="Warstwa_3" data-name="Warstwa 3" class="cls-1"><path class="cls-2" d="M200.83,161.82h-11l.84.84V147.49c0-3.65-.06-7.31,0-11a13.13,13.13,0,0,1,5.48-10.18c6.86-5,16.72-1.76,19.77,6,1.27,3.22.86,6.91.86,10.29v20l.83-.84H206.22a.84.84,0,0,0,0,1.67h11.39a.84.84,0,0,0,.83-.83V138a16,16,0,0,0-2.89-9.76A14.88,14.88,0,0,0,196.8,124a14.51,14.51,0,0,0-6.72,7.47c-1.34,3.38-1.08,6.94-1.08,10.51v20.67a.84.84,0,0,0,.83.83h11a.84.84,0,0,0,0-1.67Z"/><path class="cls-2" d="M205.26,178.88c-.15,1.3-3.08,1.28-3.08-.07V160.7c0-1.3,3.08-1.27,3.08.07v18.11a.83.83,0,0,0,1.66,0v-17.8c0-2.37-1.69-2.94-3.74-2.94s-2.66,1.74-2.66,3.46v14.32c0,1.09-.35,3.14.29,4.15,1.52,2.4,5.77,1.77,6.11-1.19C207.05,177.82,205.38,177.83,205.26,178.88Z"/><path class="cls-2" d="M197.4,130.57a9,9,0,0,1,12.64,0c.78.74,2-.44,1.18-1.18a10.75,10.75,0,0,0-15,0c-.78.74.4,1.92,1.17,1.18Z"/><path class="cls-2" d="M190.35,81.3v23.34a.63.63,0,0,0,1.25,0V81.3a.63.63,0,0,0-1.25,0Z"/><path class="cls-2" d="M202.64,92.35H179.3a.63.63,0,0,0,0,1.25h23.34a.63.63,0,0,0,0-1.25Z"/><path class="cls-2" d="M198.78,84.28l-16.5,16.5a.62.62,0,0,0,.88.88l16.5-16.5a.62.62,0,0,0-.88-.88Z"/><path class="cls-2" d="M199.66,100.78l-16.5-16.5a.62.62,0,0,0-.88.88l16.5,16.5a.62.62,0,0,0,.88-.88Z"/><path class="cls-2" d="M194.1,84.85V89a.63.63,0,0,0,1.25,0V84.85a.63.63,0,0,0-1.25,0Z"/><path class="cls-2" d="M198.87,88.48H194.7a.63.63,0,0,0,0,1.25h4.17a.63.63,0,0,0,0-1.25Z"/><path class="cls-2" d="M198.91,96.1h-4.16a.63.63,0,0,0,0,1.25h4.16a.63.63,0,0,0,0-1.25Z"/><path class="cls-2" d="M195.28,100.87V96.71a.63.63,0,0,0-1.25,0v4.16a.63.63,0,0,0,1.25,0Z"/><path class="cls-2" d="M182.72,89.56h4.16a.63.63,0,0,0,0-1.25h-4.16a.63.63,0,0,0,0,1.25Z"/><path class="cls-2" d="M186.35,84.79V89a.63.63,0,0,0,1.25,0V84.79a.63.63,0,0,0-1.25,0Z"/><path class="cls-2" d="M201,88.67l-3.68,3.69a.62.62,0,0,0,.88.88l3.68-3.69a.62.62,0,0,0-.88-.88Z"/><path class="cls-2" d="M201.78,96.1l-3.69-3.68a.62.62,0,0,0-.88.88L200.89,97a.63.63,0,0,0,.89-.89Z"/><path class="cls-2" d="M180.65,97l3.68-3.69a.62.62,0,0,0-.88-.88l-3.69,3.69a.63.63,0,0,0,.89.88Z"/><path class="cls-2" d="M179.86,89.56l3.68,3.68c.57.57,1.46-.31.89-.88l-3.69-3.69c-.57-.57-1.45.32-.88.89Z"/><path class="cls-2" d="M186.66,82.66l3.68,3.68c.57.57,1.46-.31.89-.88l-3.69-3.69c-.57-.57-1.45.32-.88.89Z"/><path class="cls-2" d="M194.09,81.87l-3.68,3.68c-.57.57.31,1.46.88.89L195,82.75a.62.62,0,0,0-.88-.88Z"/><path class="cls-2" d="M195,103l-3.69-3.68a.62.62,0,0,0-.88.88l3.68,3.69A.63.63,0,0,0,195,103Z"/><path class="cls-2" d="M187.54,103.79l3.69-3.68a.63.63,0,0,0-.89-.89l-3.68,3.69a.62.62,0,0,0,.88.88Z"/><path class="cls-2" d="M188,100.74V96.58a.63.63,0,0,0-1.25,0v4.16a.63.63,0,0,0,1.25,0Z"/><path class="cls-2" d="M183.27,97.12h4.16a.63.63,0,0,0,0-1.25h-4.16a.63.63,0,0,0,0,1.25Z"/><path class="cls-2" d="M96.68,10.8V34.13a.63.63,0,0,0,1.25,0V10.8a.63.63,0,0,0-1.25,0Z"/><path class="cls-2" d="M109,21.84H85.64a.63.63,0,0,0,0,1.25H109a.63.63,0,0,0,0-1.25Z"/><path class="cls-2" d="M105.11,13.77l-16.5,16.5a.63.63,0,0,0,.89.89L106,14.66a.63.63,0,0,0-.89-.89Z"/><path class="cls-2" d="M106,30.27,89.5,13.77a.63.63,0,0,0-.89.89l16.5,16.5a.63.63,0,0,0,.89-.89Z"/><path class="cls-2" d="M100.43,14.35v4.16a.63.63,0,0,0,1.25,0V14.35a.63.63,0,0,0-1.25,0Z"/><path class="cls-2" d="M105.2,18H101a.63.63,0,0,0,0,1.25h4.16a.63.63,0,0,0,0-1.25Z"/><path class="cls-2" d="M105.25,25.59h-4.17a.63.63,0,0,0,0,1.25h4.17a.63.63,0,0,0,0-1.25Z"/><path class="cls-2" d="M101.62,30.36V26.2a.63.63,0,0,0-1.25,0v4.16a.63.63,0,0,0,1.25,0Z"/><path class="cls-2" d="M89.06,19.05h4.16a.63.63,0,0,0,0-1.25H89.06a.63.63,0,0,0,0,1.25Z"/><path class="cls-2" d="M92.68,14.28v4.16a.63.63,0,0,0,1.25,0V14.28a.63.63,0,0,0-1.25,0Z"/><path class="cls-2" d="M107.32,18.16l-3.68,3.69a.62.62,0,0,0,.88.88l3.69-3.68a.63.63,0,0,0-.89-.89Z"/><path class="cls-2" d="M108.11,25.6l-3.68-3.69a.63.63,0,0,0-.89.89l3.69,3.68a.62.62,0,0,0,.88-.88Z"/><path class="cls-2" d="M87,26.48l3.68-3.68c.57-.57-.31-1.46-.88-.89L86.09,25.6c-.57.57.32,1.45.89.88Z"/><path class="cls-2" d="M86.19,19.05l3.69,3.68a.62.62,0,0,0,.88-.88l-3.69-3.69c-.57-.57-1.45.32-.88.89Z"/><path class="cls-2" d="M93,12.15l3.69,3.68a.62.62,0,0,0,.88-.88l-3.68-3.68a.63.63,0,0,0-.89.88Z"/><path class="cls-2" d="M100.42,11.36l-3.68,3.69a.62.62,0,0,0,.88.88l3.69-3.68a.63.63,0,0,0-.89-.89Z"/><path class="cls-2" d="M101.31,32.49l-3.68-3.68a.63.63,0,0,0-.89.88l3.69,3.69c.57.57,1.45-.32.88-.89Z"/><path class="cls-2" d="M93.88,33.28l3.68-3.68c.57-.57-.31-1.46-.88-.89L93,32.4c-.57.57.32,1.45.89.88Z"/><path class="cls-2" d="M94.37,30.24V26.07a.63.63,0,0,0-1.25,0v4.17a.63.63,0,0,0,1.25,0Z"/><path class="cls-2" d="M89.6,26.61h4.16a.63.63,0,0,0,0-1.25H89.6a.63.63,0,0,0,0,1.25Z"/><path class="cls-2" d="M129.45,108.8c3.2-6.25.37-13.06-5.61-16.27l.3,1.14a9.15,9.15,0,0,0-7.47-14.33c-7.41-.19-11.56,8.46-7.47,14.33l.3-1.14c-6,3.21-8.81,10-5.61,16.27l.3-1.14a19.4,19.4,0,0,0-8.33,19.65c1.35,7.05,7,12.47,13.63,14.77a22.58,22.58,0,0,0,21-3.61,19.11,19.11,0,0,0,6.9-19.06,19.74,19.74,0,0,0-8.24-11.75c-.88-.62-1.72.82-.84,1.44,6.83,4.77,9.83,13.49,6.44,21.28-3.08,7.07-10.57,11.11-18.08,11.19a19.78,19.78,0,0,1-18.08-11.19c-3.57-7.69-.26-16.6,6.44-21.28a.86.86,0,0,0,.3-1.14c-2.8-5.47-.14-11.23,5-14a.84.84,0,0,0,.3-1.14,7.46,7.46,0,0,1,6-11.82c6.21-.17,9.4,7,6,11.82A.84.84,0,0,0,123,94c5.15,2.76,7.81,8.52,5,14C127.52,108.91,129,109.75,129.45,108.8Z"/><path class="cls-2" d="M113.51,87.57a.83.83,0,0,0,0-1.66.83.83,0,0,0,0,1.66Z"/><path class="cls-2" d="M119.87,87.57a.83.83,0,0,0,0-1.66.83.83,0,0,0,0,1.66Z"/><path class="cls-2" d="M116.56,103.91a.84.84,0,0,0,0-1.67.84.84,0,0,0,0,1.67Z"/><path class="cls-2" d="M116.56,112.24a.84.84,0,0,0,0-1.67.84.84,0,0,0,0,1.67Z"/><path class="cls-2" d="M116.56,120.91a.84.84,0,0,0,0-1.67.84.84,0,0,0,0,1.67Z"/><path class="cls-2" d="M113.29,90.59a3.8,3.8,0,0,0,6.55,0,.83.83,0,0,0-1.44-.84,2.11,2.11,0,0,1-3.67,0c-.56-.91-2-.07-1.44.85Z"/><path class="cls-2" d="M123.23,83.35c1.6-.14,3.8-1.48,3.08-3.46s-2.27-2.21-4.08-2.21l.83.84c0-2.07.13-4.17,0-6.23-.26-3.29-3.83-3-6.19-3-2.56,0-5.7-.4-6.49,2.8a13.6,13.6,0,0,0-.06,3.06v3.39l.83-.84c-1.5,0-3.34.16-4,1.84-.77,2.13,1,3.66,3,3.83,1.08.09,1.07-1.57,0-1.67-1.84-.16-1.84-2.17,0-2.33.33,0,.67,0,1,0a.84.84,0,0,0,.84-.83V73.23c0-2.74,2.59-2.29,4.56-2.29s4.88-.58,4.88,2.12v5.46a.84.84,0,0,0,.84.83h.89c1.9,0,2,2.17.11,2.33-1.07.1-1.08,1.76,0,1.67Z"/><path class="cls-2" d="M149.6,172.36c-.13,1.14-1.68.75-2.43.75H106.92c-.85,0-.53-1.5.22-1.5h40.32c.73,0,2-.35,2.14.75s1.78,1.07,1.67,0c-.36-3.25-4.12-2.42-6.48-2.42h-37.9c-2.42,0-3,4.35-.59,4.75a14.12,14.12,0,0,0,2.25.09h39.54c1.69,0,3-.42,3.18-2.42C151.38,171.29,149.71,171.3,149.6,172.36Z"/><path class="cls-2" d="M141.91,174.47v12.11a.84.84,0,0,0,1.67,0V174.47a.84.84,0,0,0-1.67,0Z"/><path class="cls-2" d="M112.65,174.47v12.11a.84.84,0,0,0,1.67,0V174.47a.84.84,0,0,0-1.67,0Z"/><path class="cls-2" d="M106,187.78h39.67c4.72,0,9.6-.17,13.21-3.69a8.55,8.55,0,0,0,2.41-6,.83.83,0,0,0-1.66,0c-.17,6.77-7.41,8.06-12.81,8.06H106a.83.83,0,0,0,0,1.66Z"/><path class="cls-2" d="M178.52,50.85h-.47l.83.83V36.15a9.65,9.65,0,0,0-.74-4.53,6.45,6.45,0,0,0-5.78-3.94c-2-.16-4.34-.39-6.2.58-3.51,1.82-2.44,7.42-2.44,10.63l1.42-.59c-1.14-1.14-2.12-2.41-3.9-2.2a3.07,3.07,0,0,0-2.17,4.55c1.06,2.09,3.21,3.24,4,5.55a19.08,19.08,0,0,1,.69,5.48l.83-.83c-1.7,0-3.46.87-3.63,2.77s-.06,3.48,1.54,4.61c.85.6,2.14.44,3.12.44h5.22c2.69,0,5.47.2,8.15,0,2.15-.19,2.77-2.21,2.77-4,0-2.07-1.05-3.57-3.2-3.76-1.07-.1-1.06,1.57,0,1.66,1.64.15,1.93,2.47,1.33,3.73-.42.88-1.47.76-2.25.76H164.68c-1,0-2.13-.27-2.13-1.61,0-1.5.08-2.88,2-2.88a.83.83,0,0,0,.83-.83c0-2.77-.29-5.7-1.78-8.1a10,10,0,0,0-1.54-1.78A17.29,17.29,0,0,1,160.64,40a1.38,1.38,0,0,1,1-2.25c.56-.07.88.32,1.2.65L164,39.48a.84.84,0,0,0,1.42-.59V34.57c0-2-.14-4.23,2.19-5.14,1.53-.6,3.92-.17,5.49,0,2.53.25,4.16,3,4.16,5.39V51.68a.84.84,0,0,0,.83.83h.47A.83.83,0,0,0,178.52,50.85Z"/><path class="cls-2" d="M164.55,52.51h6.74a.83.83,0,0,0,0-1.66h-6.74a.83.83,0,0,0,0,1.66Z"/><path class="cls-2" d="M175.62,52.51h3.17a.83.83,0,0,0,0-1.66h-3.17a.83.83,0,0,0,0,1.66Z"/><path class="cls-2" d="M43,174.72A32.34,32.34,0,0,1,52.66,173a34.53,34.53,0,0,1,9.84.41c1,.24,1.49-1.37.44-1.61a36.9,36.9,0,0,0-10.28-.47,33,33,0,0,0-10.1,1.79c-1,.39-.56,2,.44,1.6Z"/><path class="cls-2" d="M53.39,156.62a13.11,13.11,0,0,1,5-.56c1.05.15,1.51-1.46.45-1.6a14.81,14.81,0,0,0-6,.55.84.84,0,0,0,.45,1.61Z"/><path class="cls-2" d="M72.5,173.72a15.2,15.2,0,0,0-5.22-1.44c-1-.19-1.5,1.41-.44,1.61,1.66.31,3.33.39,4.82,1.27a.83.83,0,0,0,.84-1.44Z"/><path class="cls-2" d="M73,174.17c-.48-7.88-2.69-17.15-11.37-19.44l.5,1.23c1.57-3.7-.23-8.37-4.61-8.6s-6.06,5.34-4.56,8.69l.5-1.22c-6.9,2.11-9.75,9-10.77,15.58-.14.94-.24,1.88-.33,2.83,0,.34-.9.86-1.15,1.12a5.53,5.53,0,0,0-1.33,3.46c-.16,1.43-.28,3.36,1.3,4s3.47.12,5,0a118.23,118.23,0,0,1,11.9-.59,106.58,106.58,0,0,1,11.43.71c1.49.16,3.3.6,4.73,0,1.15-.51,1-2,1-3a6.93,6.93,0,0,0-2.42-5.26c-.77-.75-2,.43-1.18,1.18a5.13,5.13,0,0,1,1.78,2.65c.14.61.42,2.6.13,3-.51.65-3.53,0-4.31-.13a111,111,0,0,0-23.34,0c-.73.07-3.7.68-4.17.07s-.16-1.81-.11-2.43c.11-1.65,1-2.48,2.19-3.46.5-.39.34-1.64.39-2.18.12-1.11.3-2.21.51-3.3a24.19,24.19,0,0,1,1.9-5.82,12.13,12.13,0,0,1,7.36-6.63.85.85,0,0,0,.5-1.22c-1.13-2.53,0-6,3.12-6.19s4.14,3.81,3.17,6.09a.85.85,0,0,0,.5,1.23c7.89,2.08,9.71,10.73,10.14,17.83C71.37,175.24,73,175.25,73,174.17Z"/><path class="cls-2" d="M38.84,104.06v13.81l.83-.83H33.89l.84.83V104.06l-.84.83h5.78a.83.83,0,0,0,0-1.66H33.89a.83.83,0,0,0-.83.83v13.81a.84.84,0,0,0,.83.83h5.78a.84.84,0,0,0,.84-.83V104.06A.84.84,0,0,0,38.84,104.06Z"/><path class="cls-2" d="M32.3,56.81a2.5,2.5,0,0,1-5,0c-.17-3.23,4.83-3.21,5,0,.06,1.07,1.73,1.07,1.67,0a4.27,4.27,0,0,0-4.17-4.17c-2.35-.13-4.05,2-4.16,4.17A4.2,4.2,0,0,0,29.8,61c2.35.13,4.05-2,4.17-4.16C34,55.73,32.36,55.74,32.3,56.81Z"/><path class="cls-2" d="M46.64,72.47a2.5,2.5,0,0,1-5,0c-.18-3.22,4.82-3.2,5,0,0,1.07,1.72,1.08,1.66,0a4.25,4.25,0,0,0-4.16-4.16c-2.35-.13-4,2-4.17,4.16-.13,2.36,2,4,4.17,4.17,2.35.13,4-2,4.16-4.17C48.36,71.4,46.69,71.41,46.64,72.47Z"/><path class="cls-2" d="M33,80.14a2.5,2.5,0,0,1-5,0c-.17-3.22,4.83-3.21,5,0,.06,1.07,1.72,1.08,1.67,0A4.27,4.27,0,0,0,30.47,76c-2.35-.12-4,2-4.17,4.17a4.17,4.17,0,0,0,8.34,0C34.69,79.07,33,79.07,33,80.14Z"/><path class="cls-2" d="M53,96.47a2.5,2.5,0,0,1-5,0c-.17-3.22,4.83-3.2,5,0,.06,1.07,1.72,1.08,1.67,0a4.26,4.26,0,0,0-4.17-4.16c-2.35-.13-4,2-4.17,4.16a4.22,4.22,0,0,0,4.17,4.17c2.35.13,4.05-2,4.17-4.17C54.69,95.4,53,95.41,53,96.47Z"/><path class="cls-2" d="M43.3,48.47a2.5,2.5,0,0,1-5,0c-.17-3.22,4.83-3.2,5,0,.06,1.07,1.73,1.08,1.67,0a4.26,4.26,0,0,0-4.17-4.16,4.2,4.2,0,0,0-4.16,4.16c-.13,2.36,2,4.05,4.16,4.17,2.35.13,4.05-2,4.17-4.17C45,47.4,43.36,47.41,43.3,48.47Z"/><path class="cls-2" d="M40,92.14a2.5,2.5,0,0,1-5,0c-.17-3.22,4.83-3.21,5,0,.06,1.07,1.72,1.08,1.67,0A4.27,4.27,0,0,0,37.47,88c-2.35-.12-4,2-4.17,4.17a4.17,4.17,0,0,0,8.34,0C41.69,91.07,40,91.07,40,92.14Z"/><path class="cls-2" d="M29.8,53.47a3.39,3.39,0,0,1,1,.16L36.83,37c1,2.78,2,5.55,2.93,8.32a3.29,3.29,0,0,1,1-.18,3.08,3.08,0,0,1,.68.07L37.65,34.32a.83.83,0,0,0-1.6,0Q32.53,44,29,53.58A3.42,3.42,0,0,1,29.8,53.47Z"/><path class="cls-2" d="M63.59,103.76,59,91.1a.91.91,0,0,0-.26-.36.87.87,0,0,0-.33-.22L44.75,85.15H55.66a.84.84,0,0,0,.8-1.06L49.8,67.33c-.28-.69-.55-1.38-.82-2.07s-1.56-1.45-2.21-2L41.41,59h3.73a.83.83,0,0,0,.8-1l-2.58-7.34a3.37,3.37,0,0,1-1.4,1c.66,1.91,1.33,3.81,2,5.72h-4.9c-.67,0-1.18.95-.59,1.42l6.9,5.55L47,65.61c.37.3.6.72.36.11L48.27,68q3.09,7.76,6.16,15.5H40.36a.84.84,0,0,0-.22,1.64L57.57,92l4,11.19H12c.51-1.2,1-2.41,1.54-3.61s.92-2.18,1.39-3.26l.43-1a.64.64,0,0,1,0-.07l9.84-3.8A.84.84,0,0,0,25,89.75H17.48l5.11-14,.12-.06,1.4-.81,4.63-2.68q3.5-2,7-4a.84.84,0,0,0-.42-1.55H26q1.24-3.39,2.48-6.78a3.27,3.27,0,0,1-1.37-1.1Q25.57,63,24,67.25a.84.84,0,0,0,.81,1.06h7.37L27.9,70.78l-4.63,2.68c-.61.35-1.89.79-2.16,1.52L15.48,90.37a.84.84,0,0,0,.81,1h4.29l-6,2.31c-.55.22-.67.79-.88,1.29-.48,1.12-1,2.24-1.43,3.37-.74,1.72-1.47,3.44-2.21,5.17a.85.85,0,0,0,.72,1.25h52A.84.84,0,0,0,63.59,103.76Z"/><path class="cls-2" d="M26,98.14a2.5,2.5,0,0,1-5,0c-.17-3.22,4.83-3.21,5,0,.06,1.07,1.72,1.08,1.67,0A4.27,4.27,0,0,0,23.47,94c-2.35-.12-4,2-4.17,4.17a4.17,4.17,0,0,0,8.34,0C27.69,97.07,26,97.07,26,98.14Z"/></g></svg>