<?xml version="1.0" standalone="no"?>
<!DOCTYPE svg PUBLIC "-//W3C//DTD SVG 1.1//EN" "http://www.w3.org/Graphics/SVG/1.1/DTD/svg11.dtd" >
<svg xmlns="http://www.w3.org/2000/svg">
<defs>
  <font id="CoreUI-Icons-Linear" horiz-adv-x="5000">
    <font-face font-family="CoreUI-Icons-Linear"
      units-per-em="5000" ascent="5000"
      descent="0" />
    <missing-glyph horiz-adv-x="0" />
    <glyph glyph-name="cil-3d"
      unicode="&#xEA01;"
      horiz-adv-x="5000" d="M4332.84765625 3736.7392578125L2659.51171875 4702.83984375A313.3427734375 313.3427734375 0 0 1 2347.0068359375 4702.83984375L673.6611328125 3736.7392578125A313.38671875 313.38671875 0 0 1 517.416015625 3466.10546875V1533.89453125A313.37890625 313.37890625 0 0 1 673.666015625 1263.2607421875005L2346.9970703125 297.16796875A313.34375 313.34375 0 0 1 2659.5068359375 297.1630859375L4332.857421875 1263.2685546875A313.38476562500006 313.38476562500006 0 0 1 4489.097656250001 1533.8974609375V3466.10546875A313.38671875 313.38671875 0 0 1 4332.84765625 3736.7392578125zM4176.59765625 3466.10546875V1733.8994140625005L2659.5078125000005 2591.3857421875005V4341.9921875zM829.9179687500002 3466.10546875L2347.0068359375 4341.9921875V2591.953125L829.916015625 1734.47265625zM2503.2578125000005 567.7939453125L968.5439453125 1453.8583984374995L2502.7509765625 2321.0244140624995L4037.469726562501 1453.5693359374995z" />
    <glyph glyph-name="cil-3d-rotate"
      unicode="&#xEA02;"
      horiz-adv-x="5000" d="M2620.296875 3760.99609375A235.03124999999997 235.03124999999997 0 0 1 2385.9453125 3760.9814453125L1419.04296875 3202.734375A235.01464843750003 235.01464843750003 0 0 1 1301.85546875 2999.763671875V1883.2734375A235.01562500000003 235.01562500000003 0 0 1 1419.04296875 1680.2978515625L2385.9375 1122.0595703125005A235.03515625 235.03515625 0 0 1 2620.3222656249995 1122.0546875000005L3587.2363281250005 1680.302734375A235.03222656249997 235.03222656249997 0 0 1 3704.414062500001 1883.2734375V2999.763671875A235.033203125 235.033203125 0 0 1 3587.2265625000005 3202.73828125zM3424.6162109375 1758.8281250000005L3259.69921875 1852.0429687500005L2503.1328125 1415.243164062501L1746.2392578125002 1852.232421875001L1580.9873046875002 1758.828125000001L1427.216796875 2030.8828125L1614.35546875 2136.6552734375V2954.6591796875L2346.8251953125 3377.546875V3588.033203125H2659.3251953125V3377.619140625L3391.91796875 2954.6591796875V2136.2802734374995L3578.3906250000005 2030.8828124999995zM2659.31640625 2550.3515625L2659.31640625 2415.64453125L2346.81640625 2415.64453125L2346.81640625 2550.6640625L1614.35546875 2136.650390625L1427.216796875 2030.87890625L1580.986328125 1758.828125L1746.240234375 1852.236328125L2502.802734375 2279.8632812500005L3259.697265625 1852.041015625L3424.619140625 1758.828125L3578.388671875 2030.87890625L3391.9140625 2136.279296875L2659.31640625 2550.3515625zM2346.81640625 2415.64453125L2659.31640625 2415.64453125L2659.31640625 2550.3515625L2659.31640625 3377.6171875L2659.31640625 3588.037109375L2346.81640625 3588.037109375L2346.81640625 3377.548828125L2346.81640625 2550.6640625L2346.81640625 2415.64453125zM3593.75 4844.09375H2503.130859375L2500 4843.75C1877.1191406249995 4842.828125 1294.7861328124998 4592.982421875 854.2441406250001 4152.44140625A2321.6083984375005 2321.6083984375005 0 0 1 169.7822265625 2500H482.2822265625C482.2822265625 3615.0751953125 1388.5039062499998 4522.4287109375 2503.130859375 4524.357421875V4116.5546875zM4531.078125 2499.6562500000005C4531.078125 1385.3427734375 3620.487304687499 478.4443359375 2499.8749999999995 474.9355468750009V781.25L1409.2568359375 156.25H2499.875C3792.796874999999 159.765625 4843.578125 1213.0244140625 4843.578125 2499.6562499999995z" />
    <glyph glyph-name="cil-4k"
      unicode="&#xEA03;"
      horiz-adv-x="5000" d="M2031.25 3203.125L1718.75 3203.125L1718.75 2343.75L1110.15625 2343.75L1242.96875 3671.875L928.90625 3671.875L764.8437499999999 2031.25L1718.75 2031.25L1718.75 1328.125L2031.25 1328.125L2031.25 2031.25L2343.75 2031.25L2343.75 2343.75L2031.25 2343.75L2031.25 3203.125zM3770.60546875 3671.875L3262.79296875 2656.25L2968.75 2656.25L2968.75 3671.875L2656.25 3671.875L2656.25 1328.125L2968.75 1328.125L2968.75 2343.75L3262.79296875 2343.75L3770.60546875 1328.125L4120.01953125 1328.125L3534.08203125 2500L4120.01953125 3671.875L3770.60546875 3671.875zM4531.25 4843.75H468.75A312.5 312.5 0 0 1 156.25 4531.25V468.75A312.5 312.5 0 0 1 468.75 156.25H4531.25A312.5 312.5 0 0 1 4843.75 468.75V4531.25A312.5 312.5 0 0 1 4531.25 4843.75zM4531.25 468.75H468.75V4531.25H4531.25L4531.25 468.75z" />
    <glyph glyph-name="cil-accessibility"
      unicode="&#xEA04;"
      horiz-adv-x="5000" d="M2500 3593.75A625 625 0 1 1 1875 4218.75A625.708984375 625.708984375 0 0 1 2500 3593.75zM2500 4531.25A312.5 312.5 0 1 0 2187.5 4218.75A312.85253906249994 312.85253906249994 0 0 0 2500 4531.25zM4375 2578.125V3437.5H625V2578.125H1875V2006.9931640625L1132.01171875 146.0361328125L2044.525390625 157.5712890625L2467.2939453125 1191.2626953124995L2890.60546875 156.25H3827.590820312499L3046.875 2041.1494140624995V2578.125zM3359.9091796875005 468.75H3100.423828125L2589.1826171875 1718.75H2345.404296875L1833.6298828125 467.4287109375L1595.611328125 464.419921875L2187.5 1946.9121093750005V2890.625H937.5V3125H4062.5V2890.625H2734.375V1978.98828125z" />
    <glyph glyph-name="cil-accessible"
      unicode="&#xEA05;"
      horiz-adv-x="5000" d="M3709.218749999999 4276.484375A332.890625 332.890625 0 0 1 4375 4276.484375A332.890625 332.890625 0 0 1 3709.218749999999 4276.484375M3890.234375 2741.4990234375H2949.0625000000005L3727.114257812501 3519.55078125A234.37500000000003 234.37500000000003 0 0 1 3727.114257812501 3851.0068359375L3450.904296875 4127.220703125L3446.5400390624995 4122.857421875L2818.403320312499 4767.291015625A246.99902343749997 246.99902343749997 0 0 1 2472.615234374999 4773.8525390625L1777.7822265625002 4113.12109375L1993.1220703125005 3886.6611328125L2640.4140625000005 4502.1884765625L3225.5517578125005 3901.87109375L2374.7314453125005 3051.05078125A1484.64453125 1484.64453125 0 0 1 953.619140625 2805.59375L1176.0986328125 2583.1142578125A1168.7128906249998 1168.7128906249998 0 0 0 1926.9892578125 2820.87890625C2539.6552734375 2799.2294921875 3036.6572265625005 2302.216796875 3058.296875 1689.55078125A1168.7109374999998 1168.7109374999998 0 0 0 2820.529296875 938.68359375L3043.0078125 716.205078125A1483.6425781250002 1483.6425781250002 0 0 1 3148.9052734375 2428.998046875H3823.814453125V1058.1826171874995H4136.314453125V2495.421875A246.076171875 246.076171875 0 0 1 3890.234375 2741.4990234375zM2929.1992187500005 2704.353515625C2926.3017578125005 2707.216796875 2923.3769531250005 2710.0517578125 2920.4560546875005 2712.890625L2929.1992187500005 2721.6337890625zM1884.6845703125 472.9130859375A1173.6953125000002 1173.6953125000002 0 0 0 954.3017578125 2362.9775390625L731.974609375 2585.3046875A1479.826171875 1479.826171875 0 0 1 397.8251953125 1647.2724609375C397.8251953125 827.4169921875 1064.830078125 160.4130859375 1884.6845703125 160.4130859375A1479.828125 1479.828125 0 0 1 2822.7177734374995 494.5615234374991L2600.3906249999995 716.888671875A1168.359375 1168.359375 0 0 0 1884.6845703125 472.9130859375z" />
    <glyph glyph-name="cil-account-logout"
      unicode="&#xEA06;"
      horiz-adv-x="5000" d="M753.466796875 2343.41796875L3435.05859375 2343.41796875L3435.05859375 2343.427734375L3435.05859375 2655.91796875L3435.05859375 2655.927734375L753.466796875 2655.927734375L1486.40625 3388.8671875L1486.40625 3388.8671875L1486.40625 3388.876953125L1265.4296875000002 3609.833984375L155.263671875 2499.677734375L155.2734375 2499.66796875L155.263671875 2499.66796875L1265.4296875000002 1389.5019531250005L1486.40625 1610.46875L1486.40625 1610.478515625L1486.40625 1610.478515625L753.466796875 2343.41796875zM1562.5 4843.75L1562.5 4531.25L4531.25 4531.25L4531.25 468.75L1562.5 468.75L1562.5 156.25L4843.75 156.25L4843.75 4843.75L1562.5 4843.75z" />
    <glyph glyph-name="cil-action-redo"
      unicode="&#xEA07;"
      horiz-adv-x="5000" d="M3529.0624999999995 164.423828125L2214.384765625 1479.1015625L2435.3515625 1700.068359375L3529.0624999999995 606.357421875L4622.783203125 1700.068359375L4843.75 1479.1015625L3529.0624999999995 164.423828125zM3685.326171875 385.546875H3372.826171875V3081.779296875C3372.826171875 3881.015625 2722.5966796875 4531.25 1923.3603515625 4531.25C1110.5732421875 4531.25 473.890625 3914.9765625 473.890625 3128.251953125H161.390625C161.390625 3597.240234375 345.4726562500001 4032.2490234375 679.736328125 4353.1416015625C1009.27734375 4669.513671875 1450.939453125 4843.75 1923.3564453124995 4843.75C2894.9121093749995 4843.75 3685.326171874999 4053.3349609375 3685.326171874999 3081.779296875z" />
    <glyph glyph-name="cil-action-undo"
      unicode="&#xEA08;"
      horiz-adv-x="5000" d="M4838.6005859375 3073.6162109375C4838.6005859375 3787.0927734375 4412.32421875 4402.890625 3801.0791015625 4679.689453125Q3781.571289062501 4688.5224609375 3761.814453125001 4696.8935546875Q3722.304687500001 4713.6337890625 3681.833984375001 4728.486328125Q3661.6044921875 4735.908203125 3641.145507812501 4742.8466796875Q3600.2275390625005 4756.71875 3558.4433593750005 4768.6220703125A1767.0380859375 1767.0380859375 0 0 1 2594.8222656250005 4768.6220703125Q2553.0439453125005 4756.7275390625 2512.1201171875 4742.8466796875Q2491.6650390625 4735.9072265625 2471.431640625 4728.486328125Q2430.97265625 4713.642578125 2391.451171875 4696.8935546875Q2371.6943359375 4688.5244140625 2352.1875 4679.689453125C1740.9404296875 4402.890625 1314.6640625 3787.095703125 1314.6640625 3073.6162109375V754.447265625L377.216796875 1691.89453125L156.25 1470.927734375L1470.927734375 156.25L2785.6064453125 1470.927734375L2564.6396484375 1691.89453125L1627.1640625 754.41796875V3073.6064453125C1627.1640625 3785.4228515625 2142.9345703125 4379.0556640625 2820.38671875 4500.396484375A1458.8798828125002 1458.8798828125002 0 0 0 3332.8798828125 4500.396484375C4010.3291015625 4379.0556640625 4526.1005859375 3785.4267578125 4526.1005859375 3073.6064453125H4838.6005859375V3073.6162109375z" />
    <glyph glyph-name="cil-address-book"
      unicode="&#xEA09;"
      horiz-adv-x="5000" d="M4843.75 3586.2490234375V3913.7509765625H4460.6259765625V4589.84375A244.18066406250003 244.18066406250003 0 0 1 4214.740234375 4831.7197265625H785.259765625A244.18066406250003 244.18066406250003 0 0 1 539.3740234375 4589.84375V390.625A244.18066406250003 244.18066406250003 0 0 1 785.259765625 148.7490234375H4214.740234375A244.18066406250003 244.18066406250003 0 0 1 4460.6259765625 390.625V1086.2490234375H4843.75V1413.7509765625H4460.6259765625V2336.2490234375H4843.75V2663.7509765625H4460.6259765625V3586.2490234375zM4133.1240234375 2663.7509765625H3671.875V2336.2490234375H4133.1240234375V1413.7509765625H3671.875V1086.2490234375H4133.1240234375V476.2509765625H866.8759765625V4504.2177734375H4133.1240234375V3913.7509765625H3671.875V3586.2490234375H4133.1240234375zM3062.8779296874995 2002.6826171875L3062.8828124999995 2002.6826171875L2782.1640624999995 2185.154296875L2917.1328124999995 2513.814453125V3030.1328125A641.7421875 641.7421875 0 0 1 1633.6484374999995 3030.1328125V2516.8896484374995L1757.8837890624995 2178.1728515625L1487.9033203124998 2002.6845703124995A478.2412109374999 478.2412109374999 0 0 1 1269.53125 1600.3037109375V1093.75H3281.25V1600.3037109375A478.2412109374999 478.2412109374999 0 0 1 3062.8779296874995 2002.6826171875zM2968.75 1406.25H1582.03125V1600.3037109375A166.8291015625 166.8291015625 0 0 0 1658.203125 1740.6650390625L2137.04296875 2051.916015625L1946.1455078125 2572.3935546875V3030.1328125A329.2421875 329.2421875 0 0 0 2604.6298828125005 3030.1328125V2575.4736328125L2394.7021484375005 2064.2802734375L2892.578125 1740.6650390625L2892.578125 1740.6650390625A166.82421874999997 166.82421874999997 0 0 0 2968.75 1600.3076171875005z" />
    <glyph glyph-name="cil-address-card"
      unicode="&#xEA0A;"
      horiz-adv-x="5000" d="M2792.96875 1756.5537109375A478.2412109374999 478.2412109374999 0 0 1 2574.5966796874995 2158.9326171875L2574.6015624999995 2158.9326171875L2293.8828124999995 2341.404296875L2428.8515624999995 2670.064453125V3186.3828125A641.7421875 641.7421875 0 0 1 1145.3671874999995 3186.3828125V2673.1396484374995L1269.6025390624995 2334.4228515625L999.6220703124995 2158.9345703124995A478.2412109374999 478.2412109374999 0 0 1 781.25 1756.5537109375V1250H2792.96875zM2480.46875 1562.5H1093.75V1756.5537109375A166.8291015625 166.8291015625 0 0 0 1169.921875 1896.9150390625L1648.76171875 2208.166015625L1457.8642578125 2728.6435546875V3186.3828125A329.2421875 329.2421875 0 0 0 2116.3486328125 3186.3828125V2731.7236328125L1906.4208984375 2220.5302734375L2404.296875 1896.9150390625L2404.296875 1896.9150390625A166.82421874999997 166.82421874999997 0 0 0 2480.46875 1756.5576171875005zM4609.375 4375H390.625A234.6435546875 234.6435546875 0 0 1 156.25 4140.625V859.375A234.6435546875 234.6435546875 0 0 1 390.625 625H4609.375A234.6435546875 234.6435546875 0 0 1 4843.75 859.375V4140.625A234.6435546875 234.6435546875 0 0 1 4609.375 4375zM4531.25 937.5H468.75V4062.5H4531.25zM2890.625 3671.875H4218.75V3359.375H2890.625V3671.875zM2890.625 3046.875H4218.75V2734.375H2890.625V3046.875z" />
    <glyph glyph-name="cil-airplane-mode"
      unicode="&#xEA0B;"
      horiz-adv-x="5000" d="M4655.828125 1701.171875L4785.9951171875 2352.0068359375L3125 3182.5068359375V3887.8056640625A1026.884765625 1026.884765625 0 0 1 2754.5263671874995 4678.79296875A397.52734375 397.52734375 0 0 1 2245.4736328124995 4678.79296875A1026.884765625 1026.884765625 0 0 1 1875 3887.8056640625V3182.5068359375L214.0048828125 2352.0087890625L344.171875 1701.171875L1879.21484375 1901.3955078125L1954.765625 1108.1962890624995L1250 806.15234375V156.25H3750V806.15234375L3045.234375 1108.203125L3120.78515625 1901.4023437500005zM3437.5 600.08984375V468.75H1562.5V600.08984375L2287.4833984375 910.8066406250005L2187.5 1960.546875V2256.7578125L593.328125 2048.828125L567.2451171875 2179.2431640625L2187.5 2989.3681640625V3887.8056640625A715.2001953125001 715.2001953125001 0 0 0 2445.5361328125 4438.71484375A85.0478515625 85.0478515625 0 0 0 2554.4638671874995 4438.71484375A715.2001953125001 715.2001953125001 0 0 0 2812.5 3887.8056640625V2989.3681640625L4432.7548828125 2179.2412109375005L4406.671875 2048.828125L2812.5 2256.755859375V1960.546875L2712.5166015625 910.806640625z" />
    <glyph glyph-name="cil-airplane-mode-off"
      unicode="&#xEA0C;"
      horiz-adv-x="5000" d="M2187.5 3887.8056640625A715.19140625 715.19140625 0 0 0 2445.5400390625 4438.71484375A85.03710937500001 85.03710937500001 0 0 0 2554.4599609375 4438.71484375A715.19140625 715.19140625 0 0 0 2812.5 3887.8056640625V2989.3681640625L4432.7548828125 2179.2412109375005L4406.671875 2048.828125L3557.681640625 2159.560546875L3920.127929687501 1797.1347656250005L4655.828125 1701.171875L4785.9951171875 2352.0068359375L3125 3182.5068359375V3887.8056640625A1026.904296875 1026.904296875 0 0 1 2754.521484375 4678.79296875A397.51367187499994 397.51367187499994 0 0 1 2245.478515625 4678.79296875A1026.904296875 1026.904296875 0 0 1 1875 3887.8056640625V3842.1484375L2187.5 3529.666015625zM376.138671875 4843.75H156.53125V4622.5078125L1689.412109375 3089.712890625L214.0048828125 2352.0087890625L344.171875 1701.171875L1879.2197265625 1901.3955078125L1954.7607421875 1108.1962890624995L1250 806.15234375V156.25H3750V806.15234375L3045.2392578125 1108.203125L3099.6513671875 1679.556640625L4623.041015625 156.25H4843.75V376.390625zM3437.5 600.09765625V468.75H1562.5V600.09765625L2287.478515625 910.8046874999995L2187.5 1960.546875V2256.7578125L593.328125 2048.828125L567.2451171875 2179.2431640625L1922.3476562499995 2856.7939453125L2812.5 1966.6884765625V1960.544921875L2712.521484375 910.806640625z" />
    <glyph glyph-name="cil-airplay"
      unicode="&#xEA0D;"
      horiz-adv-x="5000" d="M4531.25 4541.015625H468.75A312.5 312.5 0 0 1 156.25 4228.515625V1328.125A312.5 312.5 0 0 1 468.75 1015.625H1215.33203125L1458.3984375 1328.125H468.75V4228.515625H4531.25L4531.25 1328.125H3541.6015625000005L3784.66796875 1015.625H4531.25A312.5 312.5 0 0 1 4843.75 1328.125V4228.515625A312.5 312.5 0 0 1 4531.25 4541.015625zM965.13671875 156.25H4034.86328125L2500 2129.4921875zM1604.1015625 468.75L2500 1620.5078125L3395.8984375 468.75z" />
    <glyph glyph-name="cil-alarm"
      unicode="&#xEA0E;"
      horiz-adv-x="5000" d="M2500 4218.75C1378.171875 4218.75 468.75 3309.328125 468.75 2187.5S1378.171875 156.25 2500 156.25S4531.25 1065.671875 4531.25 2187.5S3621.828125 4218.75 2500 4218.75zM3715.33984375 972.16015625A1718.75 1718.75 0 1 0 4218.75 2187.5A1707.4970703125002 1707.4970703125002 0 0 0 3715.33984375 972.16015625zM2656.25 3437.5L2343.75 3437.5L2343.75 2112.40234375L3183.642578125 1440.4882812499995L3378.857421875 1684.5117187500005L2656.25 2262.59765625L2656.25 3437.5zM224.2651774597707 3878.958789690949L1708.6476506445802 4894.575791150613L1885.115336983101 4636.65815063465L400.7328637982916 3621.0411491749846L224.2651774597707 3878.958789690949zM3114.8967898308792 4636.680703855059L3291.3689776545484 4894.59526438959L4775.73372475266 3878.9523557230978L4599.261536928991 3621.037795188566L3114.896789830879 4636.680703855059z" />
    <glyph glyph-name="cil-alarm-add"
      unicode="&#xEA0F;"
      horiz-adv-x="5000" d="M2500 4218.75C1378.171875 4218.75 468.75 3309.328125 468.75 2187.5S1378.171875 156.25 2500 156.25S4531.25 1065.671875 4531.25 2187.5S3621.828125 4218.75 2500 4218.75zM3715.33984375 972.16015625A1718.75 1718.75 0 1 0 4218.75 2187.5A1707.4970703125002 1707.4970703125002 0 0 0 3715.33984375 972.16015625zM224.2651774597707 3878.958789690949L1708.6476506445802 4894.575791150613L1885.115336983101 4636.65815063465L400.7328637982916 3621.0411491749846L224.2651774597707 3878.958789690949zM3114.8967898308792 4636.680703855059L3291.3689776545484 4894.59526438959L4775.73372475266 3878.9523557230978L4599.261536928991 3621.037795188566L3114.896789830879 4636.680703855059zM2656.25 3046.875L2343.75 3046.875L2343.75 2343.75L1640.625 2343.75L1640.625 2031.25L2343.75 2031.25L2343.75 1328.125L2656.25 1328.125L2656.25 2031.25L3359.375 2031.25L3359.375 2343.75L2656.25 2343.75L2656.25 3046.875z" />
    <glyph glyph-name="cil-alarm-off"
      unicode="&#xEA10;"
      horiz-adv-x="5000" d="M3114.8901774597703 4636.66621030905L3291.357863798291 4894.583850825014L4775.740336983101 3878.9668493653494L4599.272650644581 3621.0492088493856L3114.8901774597703 4636.66621030905zM1885.107421875 4636.669921875L1708.642578125 4894.580078125L1150.33203125 4512.578125L1375.15625 4287.75390625L1885.107421875 4636.669921875zM1873.853515625 3789.0546875A1720.7275390625 1720.7275390625 0 0 0 4101.5556640625 1561.3525390625L4338.93359375 1323.974609375A2023.224609375 2023.224609375 0 0 1 4531.25 2187.5C4531.25 3309.328125 3621.828125 4218.75 2500 4218.75A2023.224609375 2023.224609375 0 0 1 1636.474609375 4026.43359375zM377.216796875 4843.75H156.25V4622.783203125L625.529296875 4153.5048828125L224.265625 3878.9560546875L400.7304687500001 3621.0458984375L850.3505859375 3928.681640625L1110.4091796875 3668.623046875A2025.0791015625 2025.0791015625 0 0 1 468.75 2187.5C468.75 1065.671875 1378.171875 156.25 2500 156.25A2024.9814453124998 2024.9814453124998 0 0 1 3981.046875 797.9873046875L4622.783203125 156.25H4843.75V377.216796875zM3715.33984375 972.16015625A1718.75 1718.75 0 0 0 1284.6601562500002 3402.83984375C1299.9687500000002 3418.1484375 1315.6005859375 3433.015625 1331.3935546875002 3447.640625L3760.1611328125 1018.873046875Q3738.232421875 995.1728515625005 3715.33984375 972.16015625z" />
    <glyph glyph-name="cil-alarm-on"
      unicode="&#xEA11;"
      horiz-adv-x="5000" d="M2500 4179.6875C1378.171875 4179.6875 468.75 3270.265625 468.75 2148.4375S1378.171875 117.1875 2500 117.1875S4531.25 1026.609375 4531.25 2148.4375S3621.828125 4179.6875 2500 4179.6875zM3715.33984375 933.09765625A1718.75 1718.75 0 1 0 4218.75 2148.4375A1707.4990234375 1707.4990234375 0 0 0 3715.33984375 933.09765625zM224.2651774597708 3839.896289690949L1708.6476506445802 4855.513291150613L1885.115336983101 4597.59565063465L400.7328637982916 3581.978649174985L224.2651774597707 3839.896289690949zM3114.8967898308792 4597.618203855059L3291.3689776545484 4855.532764389589L4775.73372475266 3839.889855723097L4599.261536928991 3581.975295188566L3114.896789830879 4597.618203855059zM2407.6953125 1908.9550781249995L1876.591796875 2440.048828125L1655.625 2219.08203125L2407.6953125 1467.01171875L3634.404296875 2693.720703125L3413.4277343750005 2914.6875L2407.6953125 1908.9550781249995z" />
    <glyph glyph-name="cil-alarm-snooze"
      unicode="&#xEA12;"
      horiz-adv-x="5000" d="M2500 4179.6875C1378.171875 4179.6875 468.75 3270.265625 468.75 2148.4375S1378.171875 117.1875 2500 117.1875S4531.25 1026.609375 4531.25 2148.4375S3621.828125 4179.6875 2500 4179.6875zM3715.3388671875 933.09765625A1718.75 1718.75 0 1 0 4218.75 2148.4375A1707.498046875 1707.498046875 0 0 0 3715.3388671875 933.09765625zM224.2651774597708 3839.896289690949L1708.6476506445802 4855.513291150613L1885.115336983101 4597.59565063465L400.7328637982916 3581.978649174985L224.2651774597707 3839.896289690949zM3114.8967898308792 4597.618203855059L3291.3689776545484 4855.532764389589L4775.73372475266 3839.889855723097L4599.261536928991 3581.975295188566L3114.896789830879 4597.618203855059zM1875 2695.3125L2861.71875 2695.3125L1796.875 1711.6015624999995L1796.875 1289.0625L3203.125 1289.0625L3203.125 1601.5625L2138.28125 1601.5625L3203.125 2585.2734375L3203.125 3007.8125L1875 3007.8125L1875 2695.3125z" />
    <glyph glyph-name="cil-album"
      unicode="&#xEA13;"
      horiz-adv-x="5000" d="M4157.32421875 4157.32421875A2343.75 2343.75 0 0 1 842.6757812500001 842.67578125A2343.75 2343.75 0 0 1 4157.32421875 4157.32421875zM2500 468.75C1379.98046875 468.75 468.75 1379.98046875 468.75 2500S1379.98046875 4531.25 2500 4531.25S4531.25 3620.01953125 4531.25 2500S3620.01953125 468.75 2500 468.75zM2500 3515.625A1015.6249999999999 1015.6249999999999 0 1 1 3515.625 2500A1016.6992187499999 1016.6992187499999 0 0 1 2500 3515.625zM2500 1796.875A703.125 703.125 0 1 0 3203.125 2500A703.90625 703.90625 0 0 0 2500 1796.875zM2343.75 2656.25H2656.25V2343.75H2343.75V2656.25zM2500 3906.25V4218.75A1700.1953125 1700.1953125 0 0 1 1718.75 4031.4453125A1734.1796875 1734.1796875 0 0 1 1124.70703125 3531.34765625L1374.51171875 3343.65234375A1395.80078125 1395.80078125 0 0 0 2500 3906.25z" />
    <glyph glyph-name="cil-align-center"
      unicode="&#xEA14;"
      horiz-adv-x="5000" d="M156.25 4375H4843.75V4062.5H156.25V4375zM937.5 3515.625H4062.5V3203.125H937.5V3515.625zM156.25 2656.25H4843.75V2343.75H156.25V2656.25zM937.5 1796.875H4062.5V1484.375H937.5V1796.875zM156.25 937.5H4843.75V625H156.25V937.5z" />
    <glyph glyph-name="cil-align-left"
      unicode="&#xEA15;"
      horiz-adv-x="5000" d="M156.25 4375H4843.75V4062.5H156.25V4375zM156.25 3515.625H3359.375V3203.125H156.25V3515.625zM156.25 2656.25H4843.75V2343.75H156.25V2656.25zM156.25 1796.875H3359.375V1484.375H156.25V1796.875zM156.25 937.5H4843.75V625H156.25V937.5z" />
    <glyph glyph-name="cil-align-right"
      unicode="&#xEA16;"
      horiz-adv-x="5000" d="M156.25 4375H4843.75V4062.5H156.25V4375zM1640.625 3515.625H4843.75V3203.125H1640.625V3515.625zM156.25 2656.25H4843.75V2343.75H156.25V2656.25zM1640.625 1796.875H4843.75V1484.375H1640.625V1796.875zM156.25 937.5H4843.75V625H156.25V937.5z" />
    <glyph glyph-name="cil-american-football"
      unicode="&#xEA17;"
      horiz-adv-x="5000" d="M4621.8203125 4539.6904296875L4599.6806640625 4580.59765625L4558.77734375 4602.734375C4070.80078125 4866.8291015625 3464.5029296875 4939.7705078125 2851.5908203125 4808.1396484375C2228.07421875 4674.2294921875 1642.7373046875 4347.6904296875 1158.8671875 3863.8115234375S348.4443359375 2794.6044921875 214.53125 2171.0869140625C82.8955078125 1558.1611328125 155.83984375 951.8671875 419.9384765625 463.8955078125L442.0771484375 422.9931640625L482.98046875 400.853515625C812.298828125 222.630859375 1195.3994140625 131.46875 1598.1640624999998 131.46875A2822.4228515625 2822.4228515625 0 0 1 2190.171875 195.4462890625C2813.6845703125 329.3564453125 3399.021484375 655.904296875 3882.8916015625 1139.7744140625005S4693.314453125 2208.9863281250005 4827.2275390625 2832.4990234375005C4958.86328125 3445.4248046875 4885.9169921875 4051.71875 4621.8203125 4539.6904296875zM4368.6962890625 4349.609375C4561.8603515625 3970.138671875 4621.040039062499 3531.185546875 4558.12890625 3084.7138671875L3103.7958984375005 4539.044921875C3550.2724609375005 4601.953125 3989.2275390625 4542.7734375 4368.6962890625 4349.609375zM673.0654296874999 653.9775390625C475.78125 1041.5439453125005 418.26171875 1491.1562499999995 487.826171875 1947.4609375L1966.54296875 468.7412109375C1510.2412109375 399.171875 1060.62890625 456.6953125 673.0654296874999 653.9775390625zM3661.9326171875 1360.7500000000005H3661.9326171875C3267.0703125 965.884765625001 2801.4677734375 690.9384765625 2327.3505859375 549.8750000000009L568.9599609375 2308.255859375C710.0244140625 2782.3769531250005 984.9755859375002 3247.9765625 1379.837890625 3642.8408203125C1781.751953125 4044.7578125 2256.9580078125 4322.3662109375 2739.83203125 4461.076171875L4480.164062500001 2720.744140625C4341.4521484375 2237.8720703125 4063.8447265625 1762.6650390625 3661.927734375 1360.75zM3391.728515625 3170.771484375L3170.771484375 3391.728515625L2968.75 3189.716796875L2688.603515625 3469.853515625L2467.646484375 3248.896484375L2747.783203125 2968.75L2500 2720.966796875L2219.853515625 3001.103515625L1998.8964843750005 2780.146484375L2279.033203125 2500L2031.25 2252.216796875L1751.1035156249998 2532.353515625L1530.1464843750002 2311.396484375L1810.283203125 2031.25L1608.2714843750002 1829.228515625L1829.2285156249995 1608.271484375L2031.25 1810.283203125L2311.396484375 1530.146484375L2532.353515625 1751.103515625L2252.216796875 2031.25L2500 2279.033203125L2780.146484375 1998.896484375L3001.103515625 2219.853515625L2720.966796875 2500L2968.75 2747.783203125L3248.896484375 2467.646484375L3469.853515625 2688.603515625L3189.716796875 2968.75L3391.728515625 3170.771484375z" />
    <glyph glyph-name="cil-animal"
      unicode="&#xEA18;"
      horiz-adv-x="5000" d="M3738.52734375 2025.6230468750005A1284.7890624999998 1284.7890624999998 0 0 1 1261.4765625 2025.6230468750005L1083.2734374999998 1379.6328125A781.25 781.25 0 0 1 1836.3857421875 390.625H3163.6142578125A781.25 781.25 0 0 1 3916.73046875 1379.6328125zM3536.548828125 887.890625A465.189453125 465.189453125 0 0 0 3163.6142578125 703.125H1836.3857421875A468.75000000000006 468.75000000000006 0 0 0 1384.5156249999998 1296.5292968749995L1562.7197265624998 1942.5253906249995A972.2900390624999 972.2900390624999 0 0 0 3437.2802734374995 1942.5253906249995L3615.484375 1296.5292968749995A465.1689453125 465.1689453125 0 0 0 3536.548828125 887.890625zM1426.7158203125 2750.87890625C1453.9052734375 2920.7568359375 1417.8466796875 3102.7041015625 1325.1777343749998 3263.20703125S1092.96875 3545.9189453125 932.2548828125 3607.3115234375C760.1455078125001 3673.0478515625 584.5546875 3662.5849609375 437.7841796875001 3577.84765625C145.921875 3409.337890625 69.1123046875 2994.017578125 266.5615234375001 2652.0205078125C359.2304687500001 2491.5126953125 498.7714843750001 2369.3056640625 659.4853515625 2307.9208984375A625.41796875 625.41796875 0 0 1 882.7500000000001 2265.234375A538.3916015625 538.3916015625 0 0 1 1153.955078125 2337.3886718749995C1300.7255859375 2422.1279296875 1397.6005859374998 2568.974609375 1426.7158203125 2750.87890625zM1118.14453125 2800.2734375C1104.1796875 2713.0791015625 1061.4111328125 2644.8046875 997.7050781250002 2608.0224609375S853.4814453125 2568.3447265625 770.9980468750001 2599.849609375C677.1181640625001 2635.7080078125 594.0917968750001 2709.7275390625 537.1953125000001 2808.2705078125C427.7900390625001 2997.7705078125 453.8154296875001 3226.2607421875 594.0312500000001 3307.2138671875A229.2685546875 229.2685546875 0 0 0 709.7216796875001 3337.078125A311.9228515625 311.9228515625 0 0 0 820.7382812500001 3315.38671875C914.6181640625002 3279.5234375 997.6455078125002 3205.5048828125 1054.5419921875002 3106.9609375S1134.0234375 2899.50390625 1118.14453125 2800.2734375zM1460.6093749999998 3398.2705078125C1571.5595703124998 3309.5693359375 1698.2744140625 3263.3828125 1826.4101562499995 3263.3876953125A536.62109375 536.62109375 0 0 1 1940.5556640625 3275.7041015625C2269.8779296875 3347.2919921875 2469.5595703125 3719.4775390625 2385.6728515624995 4105.3671875V4105.3671875C2346.3173828124995 4286.474609375 2250.6318359374995 4445.3759765625 2116.259765625 4552.806640625C1972.3593749999995 4667.845703125 1801.9091796874995 4711.3935546875 1636.3037109374998 4675.3779296875C1306.9902343749998 4603.7900390625 1107.3105468749998 4231.609375 1191.1865234374998 3845.71484375C1230.5546875 3664.603515625 1326.236328125 3505.7021484375 1460.6093749999998 3398.2705078125zM1702.6806640624998 4370.0078125A217.3828125 217.3828125 0 0 0 1748.8857421874998 4374.9423828125C1806.9746093749995 4374.9423828125 1866.7216796874995 4352.2119140625 1921.1201171874995 4308.724609375C1999.6074218749995 4245.97265625 2056.1406249999995 4150.1806640625 2080.306640625 4038.9873046875V4038.9873046875C2126.7910156249995 3825.1689453125 2032.3945312499995 3615.4697265625 1874.1796875 3581.0771484375C1802.2919921875 3565.4521484375 1724.7197265625 3587.2138671875 1655.75 3642.35546875C1577.2626953125 3705.111328125 1520.7294921875 3800.908203125 1496.5537109375 3912.0966796875C1450.0810546875 4125.9150390625 1544.4755859375 4335.61328125 1702.6806640625 4370.0078125zM4562.2158203125 3577.84765625C4415.455078125 3662.5810546875 4239.826171875 3673.0478515625 4067.7451171875 3607.3115234375C3907.0322265625 3545.9189453125 3767.490234375 3423.7177734375 3674.822265625 3263.2109375S3546.09375 2920.7607421875 3573.2841796875 2750.87890625C3602.3994140625 2568.970703125 3699.2744140625 2422.1240234375 3846.044921875 2337.384765625A538.3417968749999 538.3417968749999 0 0 1 4117.25 2265.23046875A625.4931640625001 625.4931640625001 0 0 1 4340.515625 2307.9169921875005C4501.228515625 2369.3046875 4640.76953125 2491.5107421875005 4733.4384765625 2652.0166015625C4930.8876953125 2994.017578125 4854.078125 3409.337890625 4562.2158203125 3577.84765625zM4462.8017578125 2808.2705078125C4405.9052734375 2709.7275390625 4322.87890625 2635.7119140625 4228.9990234375 2599.849609375C4146.515625 2568.326171875 4065.997070312501 2571.236328125 4002.2919921875 2608.0224609375005S3895.8134765625 2713.0791015625005 3881.852539062499 2800.2734375C3865.9736328125 2899.5039062500005 3888.556640625 3008.41796875 3945.4521484375 3106.9609375S4085.375976562499 3279.51953125 4179.255859375 3315.38671875A311.9638671875 311.9638671875 0 0 0 4290.2724609375 3337.078125A229.2685546875 229.2685546875 0 0 0 4405.962890625 3307.2138671875005C4546.1845703125 3226.2607421875 4572.2099609375 2997.7705078125 4462.8046875 2808.2705078125zM3059.4443359375 3275.7041015625A536.62109375 536.62109375 0 0 1 3173.58984375 3263.3876953125C3301.71484375 3263.3876953125 3428.44921875 3309.5791015625 3539.3906249999995 3398.2705078125C3673.765624999999 3505.7021484375 3769.445312499999 3664.603515625 3808.8134765625 3845.7158203125C3892.688476562499 4231.60546875 3693.008789062499 4603.7861328125 3363.6962890625 4675.3740234375C3198.1005859375 4711.365234375 3027.640625 4667.8544921875 2883.740234375 4552.802734375C2749.3652343750005 4445.3720703125 2653.6855468750005 4286.470703125 2614.3271484375005 4105.3671875C2530.4414062500005 3719.4775390625 2730.1220703125 3347.2919921875 3059.4443359375 3275.7041015625zM2919.6982421875 4038.9853515625V4038.9853515625C2943.8642578125 4150.1787109375 3000.3974609375 4245.970703125 3078.884765625 4308.72265625C3133.2919921875 4352.21484375 3193.0302734375 4374.9404296875 3251.119140625 4374.9404296875A217.3828125 217.3828125 0 0 0 3297.32421875 4370.005859375C3455.52734375 4335.611328125 3549.923828125 4125.9130859375 3503.451171875 3912.095703125C3479.275390625 3800.90234375 3422.7421875000005 3705.10546875 3344.2548828125 3642.349609374999C3275.2939453125 3587.2177734374995 3197.7607421875005 3565.4541015624995 3125.8251953125 3581.0712890624995C2967.6054687499995 3615.46484375 2873.2109375 3825.1640625 2919.693359375 4038.982421875z" />
    <glyph glyph-name="cil-aperture"
      unicode="&#xEA19;"
      horiz-adv-x="5000" d="M2506.6806640625 4836.5595703125A2336.9013671875 2336.9013671875 0 0 1 854.244140625 847.220703125A2336.8994140624995 2336.8994140624995 0 0 1 4159.1171875 4152.09765625A2321.60546875 2321.60546875 0 0 1 2506.6806640625 4836.5595703125zM4531.078125 2499.6562500000005A2012.0283203125 2012.0283203125 0 0 0 4307.8623046875 1576.1523437500005L4439.6005859375 1348.294921875L4169.0625 1191.8828125000005L4119.4970703125 1277.6152343750005A2023.1025390624998 2023.1025390624998 0 0 0 2609.93359375 477.869140625L2477.20703125 245.78125L2205.9345703125 400.9150390625L2257.240234375 490.6318359375A2027.21484375 2027.21484375 0 0 0 805.0712890625 1404.1279296875H540.4521484375V1716.6279296875H639.900390625A2022.419921875 2022.419921875 0 0 0 709.451171875 3430.6435546875L579.78515625 3656.4453125L850.78125 3812.06640625L898.90234375 3728.267578125A2022.8515624999998 2022.8515624999998 0 0 0 2410.0283203125 4521.701171875L2542.578125 4752.2734375L2813.4970703125 4596.529296875L2762.572265625 4507.9453125A2027.3789062499998 2027.3789062499998 0 0 0 4209.318359375001 3593.62109375H4479.16015625V3281.12109375H4374.1015625A2013.259765625 2013.259765625 0 0 0 4531.078125 2499.6562500000005zM4479.16015625 3593.623046875L4209.326171875 3593.623046875L2236.943359375 3593.623046875L2057.294921875 3281.123046875L2961.171875 3281.123046875L2912.236328125 3365.76171875L3182.7734375 3522.16796875L3322.138671875 3281.123046875L4374.1015625 3281.123046875L4479.16015625 3281.123046875L4479.16015625 3593.623046875zM3182.7734375 3522.16796875L2912.236328125 3365.76171875L2961.171875 3281.123046875L3409.5312500000005 2505.60546875L3452.861328125 2581.38671875L3724.140624999999 2426.25L3590.5078125 2192.578125L4119.4921875 1277.6171874999995L4169.0625 1191.884765625L4439.599609375 1348.291015625L4307.861328125 1576.1523437500005L3322.138671875 3281.123046875L3182.7734375 3522.16796875zM3724.140624999999 2426.25L3452.861328125 2581.38671875L3409.5312500000005 2505.60546875L2958.3398437500005 1716.630859375L3044.2089843749995 1716.630859375L3044.2089843749995 1404.130859375L2779.638671875 1404.130859375L2257.236328125 490.634765625L2205.9375 400.91796875L2477.20703125 245.78125L2609.931640625 477.87109375L3590.5078125 2192.578125L3724.140624999999 2426.25zM3044.2089843749995 1404.130859375L3044.2089843749995 1716.630859375L2958.3398437500005 1716.630859375L2054.072265625 1716.630859375L2101.015625 1634.892578125L1830.01953125 1479.2675781249995L1693.7109375 1716.630859375L639.90234375 1716.630859375L540.44921875 1716.630859375L540.44921875 1404.130859375L805.0683593749999 1404.130859375L2779.638671875 1404.130859375L3044.2089843749995 1404.130859375zM1830.01953125 1479.2675781249995L2101.015625 1634.892578125L2054.072265625 1716.630859375L1606.23046875 2496.50390625L1559.98046875 2416.044921875L1289.0625 2571.796875L1426.1035156249998 2810.185546875L898.90625 3728.26171875L850.78125 3812.060546875L579.78515625 3656.4453125L709.453125 3430.64453125L1693.7109375 1716.630859375L1830.01953125 1479.2675781249995zM1289.0625 2571.796875L1559.98046875 2416.044921875L1606.23046875 2496.50390625L2057.294921875 3281.123046875L2236.943359375 3593.623046875L2762.578125 4507.94921875L2813.505859375 4596.533203125L2542.578125 4752.275390625L2410.029296875 4521.69921875L1426.1035156249998 2810.185546875L1289.0625 2571.796875z" />
    <glyph glyph-name="cil-apple"
      unicode="&#xEA1A;"
      horiz-adv-x="5000" d="M4418.115234375 2919.4541015625C4314.501953125 3185.0029296875 4149.4541015625 3390.701171875 3940.380859375 3515.9208984375A1539.6337890625 1539.6337890625 0 0 0 3768.673828125 3254.6171875C3769.043945312499 3254.4052734375 3769.42578125 3254.220703125 3769.796875 3254.0078125C4081.1328125 3075.0703125 4262.2119140625 2617.79296875 4210.1416015625 2141.9814453125005C4123.8818359375 1353.6884765625 3884.4521484375 813.4365234375 3535.9599609374995 620.7421875C3309.4052734374995 495.4765625 3026.8457031249995 513.30078125 2696.1162109374995 673.7138671875L2663.8203125 689.3779296875H2425.63671875L2393.3447265625 673.7138671875C2062.6103515625 513.2958984375 1780.0419921875 495.4765625 1553.4912109374998 620.7421875C1204.99609375 813.4365234375 965.56640625 1353.693359375 879.306640625 2141.9814453125005C827.2460937499999 2617.79296875 1008.3203125 3075.0751953125 1319.6513671874998 3254.00390625A650.6494140624999 650.6494140624999 0 0 0 1649.1435546875 3339.6201171875C1884.9101562499995 3339.6201171875 2156.626953125 3229.1708984375 2451.8505859375 3010.9560546875L2462.375 3003.17578125S2888.0302734375 3054.89453125 3056.640625 3131.4453125C3564.6611328125 3362.0791015625 3676.740234375 3728.6767578125 3696.63671875 3778.4560546875A1190.265625 1190.265625 0 0 1 3686.666015624999 4692.119140625L3646.898437499999 4791.4248046875L3539.9726562499995 4790.3505859375A1198.9814453125 1198.9814453125 0 0 1 2363.6621093749995 3440.4482421875C2179.0458984374995 3543.8662109375 1999.623046874999 3609.80859375 1827.683593749999 3637.1279296875C1584.1005859374993 3675.84765625 1360.7792968749993 3638.091796875001 1163.9355468749993 3524.95703125C947.7470703124994 3400.7070312500005 777.4062499999995 3191.328125 671.3339843749993 2919.4638671875005C574.9082031249993 2672.3242187500005 538.4443359374993 2384.1435546875 568.6621093749994 2108.0019531250005C667.701171875 1202.8984375 955.95703125 594.048828125 1402.2685546875 347.265625A975.669921875 975.669921875 0 0 1 1881.73828125 224.771484375C2073.0029296875 224.7763671875 2278.5048828125 275.501953125 2496.7294921875 376.8779296875H2592.7255859375C3006.7304687499995 184.564453125 3374.810546875 174.5458984375 3687.176757812499 347.26171875C4133.4912109375 594.048828125 4421.747070312499 1202.8984374999995 4520.79296875 2107.9921874999995C4551.0048828125 2384.12890625 4514.5419921875 2672.314453125 4418.115234375 2919.4541015625zM3203.306640625 4405.994140625A884.0488281249999 884.0488281249999 0 0 0 3434.6865234375 4470.1005859375A886.7646484375 886.7646484375 0 0 0 2701.716796875 3345.05078125A887.0986328125 887.0986328125 0 0 0 3203.306640625 4405.994140625z" />
    <glyph glyph-name="cil-applications"
      unicode="&#xEA1B;"
      horiz-adv-x="5000" d="M859.375 4687.5A625 625 0 1 1 1484.375 4062.5A625.7070312500001 625.7070312500001 0 0 1 859.375 4687.5zM859.375 3750A312.5 312.5 0 1 0 1171.875 4062.5A312.85546875 312.85546875 0 0 0 859.375 3750zM2500 4687.5A625 625 0 1 1 3125 4062.5A625.7070312500001 625.7070312500001 0 0 1 2500 4687.5zM2500 3750A312.5 312.5 0 1 0 2812.5 4062.5A312.85546875 312.85546875 0 0 0 2500 3750zM4140.625 3437.5A625 625 0 1 1 3515.625 4062.5A625.7070312500001 625.7070312500001 0 0 1 4140.625 3437.5zM4140.625 4375A312.5 312.5 0 1 0 3828.125 4062.5A312.85546875 312.85546875 0 0 0 4140.625 4375zM859.375 3125A625 625 0 1 1 1484.375 2500A625.7070312500001 625.7070312500001 0 0 1 859.375 3125zM859.375 2187.5A312.5 312.5 0 1 0 1171.875 2500A312.85546875 312.85546875 0 0 0 859.375 2187.5zM2500 3125A625 625 0 1 1 3125 2500A625.7070312500001 625.7070312500001 0 0 1 2500 3125zM2500 2187.5A312.5 312.5 0 1 0 2812.5 2500A312.85546875 312.85546875 0 0 0 2500 2187.5zM4140.625 3125A625 625 0 1 1 4765.625 2500A625.7070312500001 625.7070312500001 0 0 1 4140.625 3125zM4140.625 2187.5A312.5 312.5 0 1 0 4453.125 2500A312.85546875 312.85546875 0 0 0 4140.625 2187.5zM859.375 1562.5A625 625 0 1 1 1484.375 937.5A625.7070312500001 625.7070312500001 0 0 1 859.375 1562.5zM859.375 625A312.5 312.5 0 1 0 1171.875 937.5A312.85546875 312.85546875 0 0 0 859.375 625zM2500 1562.5A625 625 0 1 1 3125 937.5A625.7070312500001 625.7070312500001 0 0 1 2500 1562.5zM2500 625A312.5 312.5 0 1 0 2812.5 937.5A312.85546875 312.85546875 0 0 0 2500 625zM4140.625 1562.5A625 625 0 1 1 4765.625 937.5A625.7070312500001 625.7070312500001 0 0 1 4140.625 1562.5zM4140.625 625A312.5 312.5 0 1 0 4453.125 937.5A312.85546875 312.85546875 0 0 0 4140.625 625z" />
    <glyph glyph-name="cil-applications-settings"
      unicode="&#xEA1C;"
      horiz-adv-x="5000" d="M859.375 3437.5A625 625 0 1 1 234.375 4062.5A625.7070312500001 625.7070312500001 0 0 1 859.375 3437.5zM859.375 4375A312.5 312.5 0 1 0 546.875 4062.5A312.85546875 312.85546875 0 0 0 859.375 4375zM2500 4687.5A625 625 0 1 1 3125 4062.5A625.7070312500001 625.7070312500001 0 0 1 2500 4687.5zM2500 3750A312.5 312.5 0 1 0 2812.5 4062.5A312.85546875 312.85546875 0 0 0 2500 3750zM4140.625 3437.5A625 625 0 1 1 3515.625 4062.5A625.7070312500001 625.7070312500001 0 0 1 4140.625 3437.5zM4140.625 4375A312.5 312.5 0 1 0 3828.125 4062.5A312.85546875 312.85546875 0 0 0 4140.625 4375zM859.375 3125A625 625 0 1 1 1484.375 2500A625.7070312500001 625.7070312500001 0 0 1 859.375 3125zM859.375 2187.5A312.5 312.5 0 1 0 1171.875 2500A312.85546875 312.85546875 0 0 0 859.375 2187.5zM2500 3125A625 625 0 1 1 3125 2500A625.7070312500001 625.7070312500001 0 0 1 2500 3125zM2500 2187.5A312.5 312.5 0 1 0 2812.5 2500A312.85546875 312.85546875 0 0 0 2500 2187.5zM4140.625 3125A625 625 0 1 1 4765.625 2500A625.7070312500001 625.7070312500001 0 0 1 4140.625 3125zM4140.625 2187.5A312.5 312.5 0 1 0 4453.125 2500A312.85546875 312.85546875 0 0 0 4140.625 2187.5zM4140.625 1562.5A625 625 0 1 1 4765.625 937.5A625.7070312500001 625.7070312500001 0 0 1 4140.625 1562.5zM4140.625 625A312.5 312.5 0 1 0 4453.125 937.5A312.85546875 312.85546875 0 0 0 4140.625 625zM546.875 1015.625H859.375V703.125H546.875V1015.625zM1484.375 1015.625H1796.875V703.125H1484.375V1015.625zM2421.875 1015.625H2734.375V703.125H2421.875V1015.625z" />
    <glyph glyph-name="cil-apps"
      unicode="&#xEA1D;"
      horiz-adv-x="5000" d="M859.375 4687.5A625 625 0 1 1 1484.375 4062.5A625.7070312500001 625.7070312500001 0 0 1 859.375 4687.5zM859.375 3750A312.5 312.5 0 1 0 1171.875 4062.5A312.85546875 312.85546875 0 0 0 859.375 3750zM2500 4687.5A625 625 0 1 1 3125 4062.5A625.7070312500001 625.7070312500001 0 0 1 2500 4687.5zM2500 3750A312.5 312.5 0 1 0 2812.5 4062.5A312.85546875 312.85546875 0 0 0 2500 3750zM4140.625 3437.5A625 625 0 1 1 3515.625 4062.5A625.7070312500001 625.7070312500001 0 0 1 4140.625 3437.5zM4140.625 4375A312.5 312.5 0 1 0 3828.125 4062.5A312.85546875 312.85546875 0 0 0 4140.625 4375zM859.375 3125A625 625 0 1 1 1484.375 2500A625.7070312500001 625.7070312500001 0 0 1 859.375 3125zM859.375 2187.5A312.5 312.5 0 1 0 1171.875 2500A312.85546875 312.85546875 0 0 0 859.375 2187.5zM2500 3125A625 625 0 1 1 3125 2500A625.7070312500001 625.7070312500001 0 0 1 2500 3125zM2500 2187.5A312.5 312.5 0 1 0 2812.5 2500A312.85546875 312.85546875 0 0 0 2500 2187.5zM4140.625 3125A625 625 0 1 1 4765.625 2500A625.7070312500001 625.7070312500001 0 0 1 4140.625 3125zM4140.625 2187.5A312.5 312.5 0 1 0 4453.125 2500A312.85546875 312.85546875 0 0 0 4140.625 2187.5zM859.375 1562.5A625 625 0 1 1 1484.375 937.5A625.7070312500001 625.7070312500001 0 0 1 859.375 1562.5zM859.375 625A312.5 312.5 0 1 0 1171.875 937.5A312.85546875 312.85546875 0 0 0 859.375 625zM2500 1562.5A625 625 0 1 1 3125 937.5A625.7070312500001 625.7070312500001 0 0 1 2500 1562.5zM2500 625A312.5 312.5 0 1 0 2812.5 937.5A312.85546875 312.85546875 0 0 0 2500 625zM4140.625 1562.5A625 625 0 1 1 4765.625 937.5A625.7070312500001 625.7070312500001 0 0 1 4140.625 1562.5zM4140.625 625A312.5 312.5 0 1 0 4453.125 937.5A312.85546875 312.85546875 0 0 0 4140.625 625z" />
    <glyph glyph-name="cil-apps-settings"
      unicode="&#xEA1E;"
      horiz-adv-x="5000" d="M859.375 3437.5A625 625 0 1 1 234.375 4062.5A625.7070312500001 625.7070312500001 0 0 1 859.375 3437.5zM859.375 4375A312.5 312.5 0 1 0 546.875 4062.5A312.85546875 312.85546875 0 0 0 859.375 4375zM2500 4687.5A625 625 0 1 1 3125 4062.5A625.7070312500001 625.7070312500001 0 0 1 2500 4687.5zM2500 3750A312.5 312.5 0 1 0 2812.5 4062.5A312.85546875 312.85546875 0 0 0 2500 3750zM4140.625 3437.5A625 625 0 1 1 3515.625 4062.5A625.7070312500001 625.7070312500001 0 0 1 4140.625 3437.5zM4140.625 4375A312.5 312.5 0 1 0 3828.125 4062.5A312.85546875 312.85546875 0 0 0 4140.625 4375zM859.375 3125A625 625 0 1 1 1484.375 2500A625.7070312500001 625.7070312500001 0 0 1 859.375 3125zM859.375 2187.5A312.5 312.5 0 1 0 1171.875 2500A312.85546875 312.85546875 0 0 0 859.375 2187.5zM2500 3125A625 625 0 1 1 3125 2500A625.7070312500001 625.7070312500001 0 0 1 2500 3125zM2500 2187.5A312.5 312.5 0 1 0 2812.5 2500A312.85546875 312.85546875 0 0 0 2500 2187.5zM4140.625 3125A625 625 0 1 1 4765.625 2500A625.7070312500001 625.7070312500001 0 0 1 4140.625 3125zM4140.625 2187.5A312.5 312.5 0 1 0 4453.125 2500A312.85546875 312.85546875 0 0 0 4140.625 2187.5zM4140.625 1562.5A625 625 0 1 1 4765.625 937.5A625.7070312500001 625.7070312500001 0 0 1 4140.625 1562.5zM4140.625 625A312.5 312.5 0 1 0 4453.125 937.5A312.85546875 312.85546875 0 0 0 4140.625 625zM546.875 1015.625H859.375V703.125H546.875V1015.625zM1484.375 1015.625H1796.875V703.125H1484.375V1015.625zM2421.875 1015.625H2734.375V703.125H2421.875V1015.625z" />
    <glyph glyph-name="cil-archive"
      unicode="&#xEA1F;"
      horiz-adv-x="5000" d="M312.5 4843.75V156.25H4687.5V4843.75zM4375 4531.25V4062.5H625V4531.25zM3184.6806640625005 3750L3028.4306640625005 3437.5H1971.5693359375L1815.3193359375 3750zM4375 468.75H625V1953.125H1465.9306640625L1778.4306640625 1328.125H3221.5693359374995L3534.0693359374995 1953.125H4375zM1815.3193359375 1953.125H3184.6806640625005L3028.4306640625005 1640.625H1971.5693359375zM625 2265.625V3750H1465.9306640625L1778.4306640625 3125H3221.5693359374995L3534.0693359374995 3750H4375V2265.625z" />
    <glyph glyph-name="cil-arrow-bottom"
      unicode="&#xEA20;"
      horiz-adv-x="5000" d="M3593.720703125 1691.89453125L2656.2402343750005 754.423828125L2656.2402343750005 4829.072265625L2343.740234375 4829.072265625L2343.740234375 754.443359375L1406.2792968749998 1691.89453125L1185.3125 1470.927734375L2500 156.25L3814.687500000001 1470.927734375L3593.720703125 1691.89453125z" />
    <glyph glyph-name="cil-arrow-circle-bottom"
      unicode="&#xEA21;"
      horiz-adv-x="5000" d="M2500 4843.75C1205.5830078125 4843.75 156.25 3794.4169921875 156.25 2500S1205.5830078125 156.25 2500 156.25S4843.75 1205.5830078125 4843.75 2500S3794.4169921875 4843.75 2500 4843.75zM3936.3095703125 1063.6904296875A2023.908203125 2023.908203125 0 1 0 4371.7529296875 1709.4423828125A2024.8388671875 2024.8388671875 0 0 0 3936.3095703125 1063.6904296875zM2657.34375 1928.896484375L2657.34375 3750L2344.84375 3750L2344.84375 1928.896484375L1611.904296875 2661.826171875L1390.9374999999998 2440.859375L2501.09375 1330.703125L3611.259765625 2440.859375L3390.29296875 2661.826171875L2657.34375 1928.896484375z" />
    <glyph glyph-name="cil-arrow-circle-left"
      unicode="&#xEA22;"
      horiz-adv-x="5000" d="M2500 4843.3447265625C1205.5830078124998 4843.3447265625 156.25 3794.01171875 156.25 2499.5947265625S1205.5830078125 155.8447265625 2500 155.8447265625S4843.75 1205.1777343750005 4843.75 2499.5947265625S3794.4169921875 4843.3447265625 2500 4843.3447265625zM3936.3095703125 1063.28125A2023.9189453124998 2023.9189453124998 0 1 0 4371.751953125 1709.033203125A2024.8388671875 2024.8388671875 0 0 0 3936.3095703125 1063.28125zM2662.2460937499995 3388.798828125L2441.26953125 3609.765625L1331.103515625 2499.599609375L2441.26953125 1389.43359375L2662.2460937499995 1610.4003906249995L1929.296875 2343.349609375L3759.765625 2343.349609375L3759.765625 2655.849609375L1929.296875 2655.849609375L2662.2460937499995 3388.798828125z" />
    <glyph glyph-name="cil-arrow-circle-right"
      unicode="&#xEA23;"
      horiz-adv-x="5000" d="M2502.44140625 4843.3447265625C1208.0244140624998 4843.3447265625 158.69140625 3794.01171875 158.69140625 2499.5947265625S1208.0244140625 155.8447265625 2502.44140625 155.8447265625S4846.19140625 1205.1777343750005 4846.19140625 2499.5947265625S3796.8583984375 4843.3447265625 2502.44140625 4843.3447265625zM3938.751953125 1063.28125A2023.92578125 2023.92578125 0 1 0 4374.193359375 1709.033203125A2024.8652343750002 2024.8652343750002 0 0 0 3938.751953125 1063.28125zM2340.205078125 3388.798828125L3073.14453125 2655.849609375L1251.337890625 2655.849609375L1251.337890625 2343.349609375L3073.14453125 2343.349609375L2340.205078125 1610.4003906249995L2561.171875 1389.43359375L3671.337890625 2499.599609375L2561.171875 3609.765625L2340.205078125 3388.798828125z" />
    <glyph glyph-name="cil-arrow-circle-top"
      unicode="&#xEA24;"
      horiz-adv-x="5000" d="M2500 4843.75C1205.5830078125 4843.75 156.25 3794.4169921875 156.25 2500S1205.5830078125 156.25 2500 156.25S4843.75 1205.5830078125 4843.75 2500S3794.4169921875 4843.75 2500 4843.75zM3936.3095703125 1063.6904296875A2023.9189453124998 2023.9189453124998 0 1 0 4371.751953125 1709.4423828125A2024.8496093750002 2024.8496093750002 0 0 0 3936.3095703125 1063.6904296875zM1389.833984375 2646.220703125L1610.810546875 2425.25390625L2343.75 3158.18359375L2343.75 1328.125L2656.25 1328.125L2656.25 3158.18359375L3389.189453125 2425.25390625L3610.166015625 2646.220703125L2500 3756.376953125L1389.833984375 2646.220703125z" />
    <glyph glyph-name="cil-arrow-left"
      unicode="&#xEA25;"
      horiz-adv-x="5000" d="M4856.767578125 2656.259765625L782.1484375 2656.259765625L1719.599609375 3593.7109375L1498.6328125 3814.677734375L183.955078125 2500L1498.6328125 1185.322265625L1719.599609375 1406.2890625L782.12890625 2343.7597656249995L4856.767578125 2343.7597656249995L4856.767578125 2656.259765625z" />
    <glyph glyph-name="cil-arrow-right"
      unicode="&#xEA26;"
      horiz-adv-x="5000" d="M3514.384765625 3814.677734375L3293.41796875 3593.7109375L4230.888671875 2656.240234375L156.25 2656.240234375L156.25 2656.23046875L156.25 2343.7402343750005L156.25 2343.73046875L4230.859375 2343.73046875L3293.41796875 1406.2890625L3514.384765625 1185.322265625L4829.08203125 2500L3514.384765625 3814.677734375z" />
    <glyph glyph-name="cil-arrow-thick-bottom"
      unicode="&#xEA27;"
      horiz-adv-x="5000" d="M2496.890625 169.5732421875L156.25 2516.583984375V2890.38671875L1561.8896484375 2890.462890625V4843.75H3436.8896484375V2890.55859375L4843.2822265625 2890.634765625L4842.939453125 2512.8271484375zM536.4326171875 2577.9052734375L2497.330078125 611.6767578125L4466.0947265625 2578.115234375L3124.3896484375 2578.0390625V4531.25H1874.3896484375V2577.982421875z" />
    <glyph glyph-name="cil-arrow-thick-circle-down"
      unicode="&#xEA28;"
      horiz-adv-x="5000" d="M3125 3593.75H1875V2812.40234375L1093.75 2812.3603515625V2437.322265625L2498.302734375 1028.9433593750005L3906.1455078125 2435.1025390624995L3906.326171875001 2812.5097656249995L3125 2812.466796875zM3528.900390625 2499.9853515625005L2498.7412109375 1471.0566406249995L1472.7021484375 2499.880859375L2187.5 2499.9189453125V3281.25H2812.5V2499.947265625zM4157.2861328125 4157.28125A2343.75 2343.75 0 0 1 842.7138671874999 842.71875A2343.75 2343.75 0 0 1 4157.2861328125 4157.28125zM2500 468.75C1379.9667968750002 468.75 468.75 1379.966796875 468.75 2500S1379.9667968750002 4531.25 2500 4531.25S4531.25 3620.033203125 4531.25 2500S3620.033203125 468.75 2500 468.75z" />
    <glyph glyph-name="cil-arrow-thick-circle-left"
      unicode="&#xEA29;"
      horiz-adv-x="5000" d="M2812.3574218750005 3906.25H2431.2734375000005L1022.896484375 2501.697265625L2429.048828125 1093.8740234375L2812.5068359375 1093.6640625L2812.466796875 1875H3593.75V3125H2812.40234375zM3281.25 2187.5H2499.947265625L2499.990234375 1465.0537109375L1465.0107421875 2501.2587890625L2499.880859375 3533.3251953125L2499.9189453125 2812.5H3281.25zM4157.28125 4157.2861328125A2343.75 2343.75 0 0 1 842.71875 842.7138671875A2343.75 2343.75 0 0 1 4157.28125 4157.2861328125zM2500 468.75C1379.9667968750002 468.75 468.75 1379.966796875 468.75 2500S1379.9667968750002 4531.25 2500 4531.25S4531.25 3620.033203125 4531.25 2500S3620.033203125 468.75 2500 468.75z" />
    <glyph glyph-name="cil-arrow-thick-circle-right"
      unicode="&#xEA2A;"
      horiz-adv-x="5000" d="M2570.953125 3906.1357421875L2187.4902343750005 3906.3310546875L2187.5283203125 3125H1406.25V1875H2187.6044921875L2187.6425781249995 1093.75H2568.7216796874995L3977.0986328125 2498.3076171875zM2500.1240234375 1466.6748046875L2500.0859375 2187.5H1718.75V2812.5H2500.0478515625L2500.0097656250005 3534.9560546875L3534.994140625 2498.7363281250005zM4157.2861328125 4157.28125A2343.75 2343.75 0 0 1 842.7138671874999 842.71875A2343.75 2343.75 0 0 1 4157.2861328125 4157.28125zM2500 468.75C1379.9667968750002 468.75 468.75 1379.966796875 468.75 2500S1379.9667968750002 4531.25 2500 4531.25S4531.25 3620.033203125 4531.25 2500S3620.033203125 468.75 2500 468.75z" />
    <glyph glyph-name="cil-arrow-thick-circle-up"
      unicode="&#xEA2B;"
      horiz-adv-x="5000" d="M1093.8642578125 2564.9072265625L1093.6689453125 2187.3574218750005L1875 2187.3955078125V1406.25H3125V2187.4716796875L3906.25 2187.5097656249995V2562.67578125L2501.6923828125 3971.0517578125zM2812.5 2499.9521484375V1718.75H2187.5V2499.9140625L1470.966796875 2499.8759765625L2501.2636718750005 3528.9482421875L3527.4267578125 2499.9902343750005zM4157.28125 4157.2861328125A2343.75 2343.75 0 0 1 842.71875 842.7138671875A2343.75 2343.75 0 0 1 4157.28125 4157.2861328125zM2500 468.75C1379.9667968750002 468.75 468.75 1379.966796875 468.75 2500S1379.9667968750002 4531.25 2500 4531.25S4531.25 3620.033203125 4531.25 2500S3620.033203125 468.75 2500 468.75z" />
    <glyph glyph-name="cil-arrow-thick-from-bottom"
      unicode="&#xEA2C;"
      horiz-adv-x="5000" d="M2501.921875 4843.75L546.875 2890.69140625V2513.427734375H1718.75V1107.177734375H3281.25V2513.427734375H4453.125V2890.60546875zM2968.75 2825.927734375V1419.677734375H2031.25V2825.927734375H924.2109375L2501.7021484375 4401.8173828125L4076.018554687501 2825.927734375zM546.875 482.177734375H4453.125V169.677734375H546.875V482.177734375z" />
    <glyph glyph-name="cil-arrow-thick-from-left"
      unicode="&#xEA2D;"
      horiz-adv-x="5000" d="M2890.6962890625 4453.125H2513.427734375V3281.25H1107.177734375V1718.75H2513.427734375V546.875H2890.6015625L4843.75 2498.0732421875zM2825.927734375 923.986328125V2031.25H1419.677734375V2968.75H2825.927734375V4075.7939453125L4401.806640625 2498.3027343749995zM169.677734375 4453.125H482.177734375V546.875H169.677734375V4453.125z" />
    <glyph glyph-name="cil-arrow-thick-from-right"
      unicode="&#xEA2E;"
      horiz-adv-x="5000" d="M2486.572265625 4453.125H2109.3037109375L156.25 2498.0732421875L2109.3984375 546.875H2486.572265625V1718.75H3892.822265625V3281.25H2486.572265625zM3580.322265625 2968.75V2031.25H2174.072265625V923.986328125L598.193359375 2498.3027343749995L2174.072265625 4075.7939453125V2968.75zM4517.822265625 4453.125H4830.322265625V546.875H4517.822265625V4453.125z" />
    <glyph glyph-name="cil-arrow-thick-from-top"
      unicode="&#xEA2F;"
      horiz-adv-x="5000" d="M3281.25 3892.822265625H1718.75V2486.572265625H546.875V2109.39453125L2498.0732421875 156.25L4453.125 2109.30859375V2486.572265625H3281.25zM4075.793945312501 2174.072265625L2498.302734375 598.1826171875L923.9863281250002 2174.072265625H2031.25V3580.322265625H2968.75V2174.072265625zM546.875 4830.3125H4453.125V4517.8125H546.875V4830.3125z" />
    <glyph glyph-name="cil-arrow-thick-left"
      unicode="&#xEA30;"
      horiz-adv-x="5000" d="M2877.3115234375 156.25L2499.50390625 156.59375L156.25 2502.6513671875L2503.26171875 4843.2822265625H2877.0634765625005L2877.1396484375 3437.642578125H4830.4267578125V1562.6425781249995H2877.2353515625zM598.3544921875 2502.212890625L2564.79296875 533.4375L2564.716796875 1875.1425781250005H4517.9267578125V3125.142578125H2564.6591796875L2564.5830078125005 4463.1005859375z" />
    <glyph glyph-name="cil-arrow-thick-right"
      unicode="&#xEA31;"
      horiz-adv-x="5000" d="M2483.419921875 156.25H2109.6181640625L2109.5419921875 1561.8896484375H156.25V3436.8896484375H2109.44140625L2109.365234375 4843.2822265625L2487.177734375 4842.939453125L4830.431640625 2496.890625zM468.75 1874.3896484375H2422.0224609375L2422.0947265625 536.4326171875L4388.318359375 2497.330078125L2421.8896484375 4466.0947265625L2421.9609375 3124.3896484375H468.75z" />
    <glyph glyph-name="cil-arrow-thick-square-down"
      unicode="&#xEA32;"
      horiz-adv-x="5000" d="M3906.1259765625 2435.0927734375L3906.3359375 2812.509765625L3125 2812.4716796875V3750H1875V2812.3955078125L1093.75 2812.3574218750005V2437.32421875L2498.302734375 1028.9482421875zM2187.5 2499.9140625V3437.5H2812.5V2499.9521484375L3528.900390625 2499.9902343749995L2498.7412109375 1471.0517578125L1472.7021484375 2499.8759765625zM4609.375 4843.75H390.625A234.6435546875 234.6435546875 0 0 1 156.25 4609.375V390.625A234.6435546875 234.6435546875 0 0 1 390.625 156.25H4609.375A234.6435546875 234.6435546875 0 0 1 4843.75 390.625V4609.375A234.6435546875 234.6435546875 0 0 1 4609.375 4843.75zM4531.25 468.75H468.75V4531.25H4531.25z" />
    <glyph glyph-name="cil-arrow-thick-square-left"
      unicode="&#xEA33;"
      horiz-adv-x="5000" d="M2812.5097656249995 1093.6640625L2812.4716796875 1875H3750V3125H2812.3955078125L2812.3574218750005 3906.25H2437.32421875L1028.9482421875 2501.697265625L2435.0927734375 1093.8740234375zM2499.8759765625 3527.2978515625L2499.9140625 2812.5H3437.5V2187.5H2499.9521484375L2499.990234375 1471.099609375L1471.0517578125002 2501.2587890625zM4609.375 4843.75H390.625A234.6435546875 234.6435546875 0 0 1 156.25 4609.375V390.625A234.6435546875 234.6435546875 0 0 1 390.625 156.25H4609.375A234.6435546875 234.6435546875 0 0 1 4843.75 390.625V4609.375A234.6435546875 234.6435546875 0 0 1 4609.375 4843.75zM4531.25 468.75H468.75V4531.25H4531.25z" />
    <glyph glyph-name="cil-arrow-thick-square-right"
      unicode="&#xEA34;"
      horiz-adv-x="5000" d="M2187.642578125 1093.75H2562.67578125L3971.0517578125 2498.3027343749995L2564.9072265625 3906.1455078125L2187.490234375 3906.326171875L2187.5283203125 3125H1250V1875H2187.6044921875zM1562.5 2812.5H2500.0478515625L2500.0097656250005 3528.90625L3528.9482421875 2498.7412109375L2500.1240234375 1472.7021484375005L2500.0859375 2187.5H1562.5zM4609.375 4843.75H390.625A234.6435546875 234.6435546875 0 0 1 156.25 4609.375V390.625A234.6435546875 234.6435546875 0 0 1 390.625 156.25H4609.375A234.6435546875 234.6435546875 0 0 1 4843.75 390.625V4609.375A234.6435546875 234.6435546875 0 0 1 4609.375 4843.75zM4531.25 468.75H468.75V4531.25H4531.25z" />
    <glyph glyph-name="cil-arrow-thick-square-up"
      unicode="&#xEA35;"
      horiz-adv-x="5000" d="M1875 1250H3125V2187.6044921875L3906.25 2187.6425781249995V2562.67578125L2501.6972656250005 3971.0517578125L1093.8544921875 2564.9072265625L1093.673828125 2187.4902343750005L1875 2187.5283203125zM1471.0937499999998 2500.009765625L2501.2587890625 3528.9482421875L3527.2978515624995 2500.1240234375L2812.5 2500.0859375V1562.5H2187.5V2500.0478515625zM4609.375 4843.75H390.625A234.6435546875 234.6435546875 0 0 1 156.25 4609.375V390.625A234.6435546875 234.6435546875 0 0 1 390.625 156.25H4609.375A234.6435546875 234.6435546875 0 0 1 4843.75 390.625V4609.375A234.6435546875 234.6435546875 0 0 1 4609.375 4843.75zM4531.25 468.75H468.75V4531.25H4531.25z" />
    <glyph glyph-name="cil-arrow-thick-to-bottom"
      unicode="&#xEA36;"
      horiz-adv-x="5000" d="M3281.25 3281.2021484375V4843.7216796875H1718.75V3281.2021484375H546.875V2904.0244140625L2498.078125 950.87890625L4453.125 2903.9384765625V3281.2021484375zM2498.2978515625 1392.8125000000005L923.9863281250002 2968.7021484375H2031.25V4531.2216796875H2968.75V2968.7021484375H4075.793945312501zM546.875 468.75H4453.125V156.25H546.875V468.75z" />
    <glyph glyph-name="cil-arrow-thick-to-left"
      unicode="&#xEA37;"
      horiz-adv-x="5000" d="M3281.2021484375 3281.25V4453.125H2904.029296875L950.87890625 2501.9267578125L2903.93359375 546.875H3281.2021484375V1718.75H4843.7265625V3281.25zM4531.2265625 2031.25H2968.7021484375V924.2060546874995L1392.822265625 2501.697265625L2968.701171875 4076.013671875V2968.75H4531.2265625zM156.25 4453.125H468.75V546.875H156.25V4453.125z" />
    <glyph glyph-name="cil-arrow-thick-to-right"
      unicode="&#xEA38;"
      horiz-adv-x="5000" d="M1718.7734375 4453.125V3281.25H156.25V1718.75H1718.7734375V546.875H2095.947265625L4049.095703125 2498.0732421875L2096.04296875 4453.125zM2031.2734375 923.986328125V2031.25H468.75V2968.75H2031.2734375V4075.7939453125L3607.152343749999 2498.3027343749995zM4531.23046875 4453.125H4843.73046875V546.875H4531.23046875V4453.125z" />
    <glyph glyph-name="cil-arrow-thick-to-top"
      unicode="&#xEA39;"
      horiz-adv-x="5000" d="M546.875 2096.04296875V1718.7783203124995H1718.75V156.25H3281.25V1718.7783203125H4453.125V2095.9570312499995L2501.921875 4049.091796875zM2968.75 2031.2783203125V468.75H2031.25V2031.2783203125H924.2109375L2501.7021484375 3607.1572265625L4076.018554687501 2031.2783203125zM546.875 4843.73046875H4453.125V4531.23046875H546.875V4843.73046875z" />
    <glyph glyph-name="cil-arrow-thick-top"
      unicode="&#xEA3A;"
      horiz-adv-x="5000" d="M3438.1103515625 156.25H1563.1103515625V2109.44140625L156.7128906250001 2109.3652343750005L157.0703125000001 2487.1826171875L2503.109375 4830.4267578125L4843.75 2483.416015625V2109.61328125L3438.1103515625 2109.546875zM1875.6103515625 468.75H3125.6103515625V2422.02734375L4463.5673828125 2422.0947265625L2502.6796875 4388.3232421875L533.9052734375 2421.8847656249995L1875.6103515625 2421.9609374999995z" />
    <glyph glyph-name="cil-arrow-top"
      unicode="&#xEA3B;"
      horiz-adv-x="5000" d="M3814.687500000001 3529.052734375L2500 4843.75L1185.3125 3529.052734375L1406.2890625 3308.0859375L2343.759765625 4245.56640625L2343.759765625 163.7109375L2656.2597656249995 163.7109375L2656.2597656249995 4245.537109375L3593.7109375 3308.0859375L3814.687500000001 3529.052734375z" />
    <glyph glyph-name="cil-art-track"
      unicode="&#xEA3C;"
      horiz-adv-x="5000" d="M156.25 1171.875H2812.5V3828.125H156.25zM468.75 3515.625H1619.921875A1331.15234375 1331.15234375 0 0 0 468.75 2431.15234375zM468.75 2116.89453125C1222.65625 2188.4765625 1829.4921875 2772.36328125 1936.328125 3515.625H2500V1484.375H468.75zM3359.375 3828.125H4843.75V3515.625H3359.375V3828.125zM3359.375 2656.25H4843.75V2343.75H3359.375V2656.25zM3359.375 1562.5H4296.875V1250H3359.375V1562.5z" />
    <glyph glyph-name="cil-assistive-listening-system"
      unicode="&#xEA3D;"
      horiz-adv-x="5000" d="M2706.4384765625 4165.8759765625L2624.1259765624995 3862.9365234375A1508.7246093750002 1508.7246093750002 0 0 0 3850.257812499999 2691.4921875L4161.9853515625 2726.6923828125A1822.1513671875 1822.1513671875 0 0 1 2706.4384765625 4165.8759765625zM4121.6845703125 4121.6796875A2448.0234375 2448.0234375 0 0 1 2876.9697265625 4793.494140625L2794.701171875 4490.716796875C3658.568359374999 4320.7900390625 4338.721679687499 3632.57421875 4496.525390625 2764.4697265625L4808.090820312499 2799.6513671875A2447.2031250000005 2447.2031250000005 0 0 1 4121.6845703125 4121.6796875zM2276.42578125 3547.3349609375Q2261.0341796875 3547.544921875 2245.701171875 3547.3740234375A1211.7470703125 1211.7470703125 0 0 1 1045.1416015625 2335.64453125H1359.9541015625A899.33203125 899.33203125 0 0 0 2249.2275390625 3234.912109375C2256.0634765625 3234.962890625 2262.9091796875 3234.9609375 2269.7685546875 3234.859375C2755.4033203125 3228.12109375 3153.0693359375 2827.4208984375 3156.232421875 2341.6435546874995A890.9472656250001 890.9472656250001 0 0 0 2876.7343749999995 1684.11328125A234.583984375 234.583984375 0 0 1 2804.3984374999995 1514.8457031249995V1019.8652343749995A551.7421875 551.7421875 0 0 0 2253.279296875 468.75H2168.9794921875V156.25H2255.5927734375A864.5947265625 864.5947265625 0 0 1 3119.2109375 1019.869140625V1481.9619140625A1216.935546875 1216.935546875 0 0 1 3471.0361328125 2343.6806640625A1215.2080078125 1215.2080078125 0 0 1 2276.42578125 3547.3349609375zM2765.044921875 2335.64453125A508.10546874999994 508.10546874999994 0 1 1 1748.8427734375 2335.64453125H2061.3427734375A195.60546875 195.60546875 0 1 0 2452.544921875 2335.64453125zM2109.375 2031.25H2421.875V1718.75H2109.375V2031.25zM1093.75 1015.625H1406.25V703.125H1093.75V1015.625zM1207.5153519695539 1676.2598726596502L1428.4793157506901 1897.2238364407865L2287.855741780446 1037.84741041103L2066.89177799931 816.883446629894L1207.5153519695539 1676.2598726596502z" />
    <glyph glyph-name="cil-asterisk"
      unicode="&#xEA3E;"
      horiz-adv-x="5000" d="M2801.787109375 2500L4062.5 3262.919921875L4062.5 3621.923828125L4059.736328125 3626.50390625L2656.25 2777.177734375L2656.25 4296.875L2343.75 4296.875L2343.75 2777.177734375L940.263671875 3626.50390625L937.5 3621.923828125L937.5 3262.919921875L2198.212890625 2500L937.5 1737.080078125L937.5 1378.076171875L940.263671875 1373.49609375L2343.75 2222.822265625L2343.75 703.125L2656.25 703.125L2656.25 2222.822265625L4059.736328125 1373.49609375L4062.5 1378.076171875L4062.5 1737.080078125L2801.787109375 2500z" />
    <glyph glyph-name="cil-asterisk-circle"
      unicode="&#xEA3F;"
      horiz-adv-x="5000" d="M2656.25 2777.1875L2656.25 3814.5703125L2343.75 3814.5703125L2343.75 2777.177734375L1380.634765625 3360.009765625L1356.89453125 3320.78125L1356.89453125 3009.111328125L2198.203125 2500L1356.89453125 1990.888671875L1356.89453125 1679.21875L1380.634765625 1639.990234375L2343.75 2222.822265625L2343.75 1185.4296875L2656.25 1185.4296875L2656.25 2222.8125L3619.365234375 1639.990234375L3643.105468749999 1679.208984375L3643.105468749999 1990.87890625L2801.787109375 2500L3643.105468749999 3009.12109375L3643.105468749999 3320.791015625L3619.365234375 3360.009765625L2656.25 2777.1875zM4158.7568359375 4146.6904296875A2337.544921875 2337.544921875 0 1 1 852.9687499999999 840.90234375A2337.544921875 2337.544921875 0 1 1 4158.7568359375 4146.6904296875zM2505.859375 468.75C1389.2490234375 468.75 480.81640625 1377.181640625 480.81640625 2493.7919921875S1389.2490234375 4518.8427734375 2505.859375 4518.8427734375S4530.91015625 3610.4111328125 4530.91015625 2493.7919921875S3622.477539062501 468.75 2505.859375 468.75z" />
    <glyph glyph-name="cil-at"
      unicode="&#xEA40;"
      horiz-adv-x="5000" d="M4842.052734375 2734.375A2018.0429687500002 2018.0429687500002 0 0 1 4657.654296874999 3500.1181640625A2217.1875 2217.1875 0 0 1 4153.657226562499 4196.0244140625C3708.0908203125 4613.71875 3120.80859375 4843.75 2500 4843.75A2343.75 2343.75 0 0 1 842.71875 842.71875A2343.7421875 2343.7421875 0 0 1 4140.2861328125 825.9013671875L3921.5703125 1049.0986328124995A2019.7705078125 2019.7705078125 0 0 0 2500 468.75C1379.9667968750002 468.75 468.75 1379.966796875 468.75 2500S1379.9667968750002 4531.25 2500 4531.25C3601.0507812500005 4531.25 4531.25 3672.6044921875 4531.25 2656.25V2304.6875C4531.25 2024.6787109374995 4285.921875 1796.875 3984.375 1796.875S3437.5 2024.6787109374995 3437.5 2304.6875V3437.5H3125V3176.2548828125A976.4414062500001 976.4414062500001 0 1 1 3247.55859375 1882.9306640625C3398.0097656250005 1644.3359375 3671.97265625 1484.375 3984.375 1484.375C4458.236328125 1484.375 4843.75 1852.3642578125 4843.75 2304.6875V2734.375zM2460.9375 1796.875A664.0625 664.0625 0 1 0 3125 2460.9375A664.8173828124999 664.8173828124999 0 0 0 2460.9375 1796.875z" />
    <glyph glyph-name="cil-audio"
      unicode="&#xEA41;"
      horiz-adv-x="5000" d="M1081.640625 3918.359375L860.0585937499999 4139.94140625A37.40234375 37.40234375 0 0 1 857.2265624999999 4137.20703125A2328.80859375 2328.80859375 0 0 1 850.3906249999999 850.390625L1071.9726562499998 1071.9726562500005A2013.1835937500002 2013.1835937500002 0 0 0 1081.7382812499998 3918.359375000001zM4151.07421875 4137.20703125C4147.16796875 4141.2109375 4143.06640625 4145.01953125 4139.16015625 4148.92578125L3917.48046875 3927.24609375A2013.0859374999998 2013.0859374999998 0 0 0 3932.12890625 1067.87109375L4153.80859375 846.19140625A2329.1015625 2329.1015625 0 0 1 4151.07421875 4137.20703125zM1499.21875 3500.78125A1423.33984375 1423.33984375 0 0 1 1489.453125 1489.0625L1710.3515625000002 1709.9609375A1111.23046875 1111.23046875 0 0 0 1720.1171875000002 3279.39453125zM3279.00390625 3288.76953125A1111.42578125 1111.42578125 0 0 0 3293.7499999999995 1706.73828125L3514.55078125 1485.9374999999995A1423.2421875 1423.2421875 0 0 1 3499.90234375 3510.15625zM2878.61328125 2888.37890625A546.19140625 546.19140625 0 1 1 3050.9765625 2490.234375A544.82421875 544.82421875 0 0 1 2878.61328125 2888.37890625zM2504.1015625 2255.859375A234.37500000000003 234.37500000000003 0 1 0 2738.4765625 2490.234375A234.37500000000003 234.37500000000003 0 0 0 2504.1015625 2255.859375z" />
    <glyph glyph-name="cil-audio-description"
      unicode="&#xEA42;"
      horiz-adv-x="5000" d="M4609.375 4375H390.625A234.37500000000003 234.37500000000003 0 0 1 156.25 4140.625V859.375A234.37500000000003 234.37500000000003 0 0 1 390.625 625H4609.375A234.37500000000003 234.37500000000003 0 0 1 4843.75 859.375V4140.625A234.37500000000003 234.37500000000003 0 0 1 4609.375 4375zM4531.25 937.5H468.75V4062.5H4531.25zM1310.546875 2187.5H1892.5781249999995L2074.9023437499995 1640.625H2404.296875L1831.34765625 3359.375H1371.77734375L798.828125 1640.625H1128.22265625zM1596.9726562499998 3046.875H1606.1523437499998L1788.3789062499998 2500H1414.74609375zM4140.625 2428.41796875V2571.58203125A788.671875 788.671875 0 0 1 3352.83203125 3359.375H2734.375V1640.625H3352.83203125A788.671875 788.671875 0 0 1 4140.625 2428.41796875zM3046.875 3046.875H3352.83203125A475.78125 475.78125 0 0 0 3828.125 2571.58203125V2428.41796875A475.78125 475.78125 0 0 0 3352.83203125 1953.125H3046.875z" />
    <glyph glyph-name="cil-audio-spectrum"
      unicode="&#xEA43;"
      horiz-adv-x="5000" d="M156.25 3437.5H468.75V1562.5H156.25V3437.5zM3671.875 3437.5H3984.375V1562.5H3671.875V3437.5zM1015.625 4140.625H1328.125V937.5H1015.625V4140.625zM2812.5 4062.5H3125V937.5H2812.5V4062.5zM4531.25 4062.5H4843.75V937.5H4531.25V4062.5zM1875 4843.75H2187.5V156.25H1875V4843.75z" />
    <glyph glyph-name="cil-av-timer"
      unicode="&#xEA44;"
      horiz-adv-x="5000" d="M2343.75 1250H2656.25V937.5H2343.75V1250zM937.5 2656.25H1250V2343.75H937.5V2656.25zM3750 2656.25H4062.5V2343.75H3750V2656.25zM4046.77734375 4046.77734375A2170.60546875 2170.60546875 0 0 1 2656.25 4681.93359375V4687.5H2343.75V3750H2656.25V4368.45703125C3617.285156250001 4288.76953125 4375 3481.25 4375 2500C4375 1466.11328125 3533.88671875 625 2500 625S625 1466.11328125 625 2500A1871.2890625000002 1871.2890625000002 0 0 0 1175.87890625 3827.5390625L2304.6875 2402.9296875L2549.609375 2597.0703125L1216.796875 4279.00390625L1093.75 4175.5859375A2187.5 2187.5 0 1 1 4046.875 4046.77734375z" />
    <glyph glyph-name="cil-baby"
      unicode="&#xEA45;"
      horiz-adv-x="5000" d="M4154.19921875 3046.53125A1799.8300781250002 1799.8300781250002 0 0 1 2839.9619140625 4108.5048828125L3101.2490234375 4526.5625L2836.2509765625 4692.1875L2491.474609375 4140.544921875A1797.31640625 1797.31640625 0 0 1 845.80078125 3046.53125A702.908203125 702.908203125 0 0 1 845.80078125 1640.96484375A1797.5673828125 1797.5673828125 0 0 1 4154.19921875 1640.96484375A702.908203125 702.908203125 0 0 1 4154.19921875 3046.53125zM4419.3564453125 2070.21484375A388.37890625000006 388.37890625000006 0 0 0 4148.2626953125 1953.4179687500005L3945.875000000001 1949.5703125000005L3866.637695312501 1763.2998046875005A1485.0244140624998 1485.0244140624998 0 0 0 1133.3681640625005 1763.2998046875005L1054.1298828125005 1949.5703125000005L851.7431640625003 1953.4179687500005A390.4091796875 390.4091796875 0 0 0 851.7431640625003 2734.09375L1054.1298828125005 2737.94140625L1133.3681640625005 2924.2119140625A1485.025390625 1485.025390625 0 0 0 3866.637695312501 2924.2119140625L3945.875000000001 2737.94140625L4148.2626953125 2734.09375A390.37500000000006 390.37500000000006 0 0 0 4419.3564453125 2070.2177734375zM1640.625 2734.375H2031.25V2343.75H1640.625V2734.375zM2968.75 2734.375H3359.375V2343.75H2968.75V2734.375zM2500 1250A781.25 781.25 0 0 1 3281.25 2031.25H1718.75A781.25 781.25 0 0 1 2500 1250z" />
    <glyph glyph-name="cil-baby-carriage"
      unicode="&#xEA46;"
      horiz-adv-x="5000" d="M4346.2578125 1629.5517578125L4531.25 2323.2744140625V2734.375C4451.7978515625 3652.27734375 3672.52734375 4375 2734.375 4375H2421.875V2734.375H1290.607421875L1116.34765625 3503.58984375A314.0146484375 314.0146484375 0 0 1 810.9189453125 3750H156.25V3437.5L810.9140625 3437.5L1206.185546875 1692.67578125A781.2402343749999 781.2402343749999 0 1 1 2187.5 937.5C2187.5 963.8671875 2186.1484375 989.9208984375 2183.583984375 1015.625H3207.041015625C3204.4765625 989.9208984375 3203.125 963.8671875 3203.125 937.5A781.25 781.25 0 1 1 4346.2578125 1629.5517578125zM2734.375 4062.5C3500.1083984375005 4062.5 4132.275390625 3479.7099609375 4210.5869140625 2734.375H2734.375zM1406.25 468.75A468.75000000000006 468.75000000000006 0 1 0 1875 937.5A469.2802734375 469.2802734375 0 0 0 1406.25 468.75zM3308.2294921875 1328.125H2082.3955078125A782.8642578125 782.8642578125 0 0 1 1522.6669921875 1710.0380859374995L1361.4033203125 2421.875H4218.75V2364.2255859375L4045.916015625 1716.0986328125C4025.585937500001 1717.69140625 4005.107421875 1718.75 3984.375 1718.75A781.5214843749999 781.5214843749999 0 0 1 3308.2294921875 1328.125zM3984.375 468.75A468.75000000000006 468.75000000000006 0 1 0 4453.125 937.5A469.2802734375 469.2802734375 0 0 0 3984.375 468.75z" />
    <glyph glyph-name="cil-backspace"
      unicode="&#xEA47;"
      horiz-adv-x="5000" d="M2219.853515625 1452.021484375L3046.875 2279.033203125L3873.896484375 1452.021484375L4094.853515625 1672.978515625L3267.841796875 2500L4094.853515625 3327.021484375L3873.896484375 3547.978515625L3046.875 2720.966796875L2219.853515625 3547.978515625L1998.8964843750005 3327.021484375L2825.908203125 2500L1998.8964843750005 1672.978515625L2219.853515625 1452.021484375zM4609.375 4375H1900.81640625A235.3154296875 235.3154296875 0 0 1 1730.6992187499998 4301.8388671875L156.25 2640.400390625V2359.599609375L1730.69921875 698.1611328125A235.3154296875 235.3154296875 0 0 1 1900.81640625 625H4609.375A234.6435546875 234.6435546875 0 0 1 4843.75 859.375V4140.625A234.6435546875 234.6435546875 0 0 1 4609.375 4375zM4531.25 937.5H1934.4140625L468.75 2484.150390625V2515.849609375L1934.4140625 4062.5H4531.25z" />
    <glyph glyph-name="cil-badge"
      unicode="&#xEA48;"
      horiz-adv-x="5000" d="M3206.787109375 1250L3242.900390625 517.587890625L2502.060546875 1032.4218750000005L1757.0703125 517.099609375L1793.212890625 1250L1480.3320312500002 1250L1426.40625 156.25L1784.7265625 156.25L2501.650390625 652.1484375L3215.25390625 156.25L3573.59375 156.25L3519.66796875 1250L3206.787109375 1250zM4056.73046875 3487.1669921875L4035.300781250001 3956.4453125L3639.607421875 4209.646484375L3386.4072265625 4605.3310546875L2917.123046875 4626.76953125L2500 4842.84375L2082.876953125 4626.76953125L1613.5927734375 4605.3310546875L1360.392578125 4209.642578125L964.69921875 3956.4453125L943.26953125 3487.1708984375L727.19140625 3070.0400390625L943.26953125 2652.90234375L964.703125 2183.6279296875L1360.392578125 1930.4375L1613.5927734375 1534.7343750000005L2082.876953125 1513.2958984375005L2500 1297.2255859375L2917.123046875 1513.2998046874995L3386.4072265625 1534.7382812499995L3639.607421875 1930.441406249999L4035.296875 2183.631835937499L4056.73046875 2652.906249999999L4272.80859375 3070.043945312499zM3747.6826171875 2735.7099609375L3730.5068359375 2359.5996093750005L3413.3720703125 2156.669921875001L3210.4345703125 1839.5351562500005L2834.3154296874995 1822.347656250001L2500 1649.169921875L2165.6845703125 1822.34765625L1789.5654296875 1839.53515625L1586.6279296875 2156.669921875L1269.4931640624998 2359.5996093750005L1252.3173828124998 2735.7099609375005L1079.1298828124998 3070.0400390625005L1252.3173828124998 3404.350585937501L1269.4931640624998 3780.469726562501L1586.6279296875 3983.412109375001L1789.5654296875 4300.537109375L2165.6845703125 4317.724609375L2500 4490.900390625L2834.3154296875 4317.72265625L3210.4345703125005 4300.53515625L3413.3720703125005 3983.41015625L3730.5068359375 3780.46875L3747.6826171875 3404.349609375L3920.8701171875 3070.0390625z" />
    <glyph glyph-name="cil-balance-scale"
      unicode="&#xEA49;"
      horiz-adv-x="5000" d="M1984.8349609375 1226.4248046875L2031.25 1277.4990234375V1529.2744140624995L1270.751953125 3134.765625H916.748046875L156.25 1529.2744140624995V1265.1923828125L197.6015625 1220.3212890625A1214.314453125 1214.314453125 0 0 1 1088.45703125 829.8681640625C1089.82421875 829.8681640625 1091.19140625 829.8681640625 1092.55859375 829.8779296875A1214.2900390625 1214.2900390625 0 0 1 1984.8349609375 1226.4248046875zM1718.75 1400.30859375A887.966796875 887.966796875 0 0 0 1091.490234375 1142.3779296874995C1090.4218750000002 1142.3681640625 1089.353515625 1142.3681640625 1088.2763671875 1142.3681640625A887.7666015625001 887.7666015625001 0 0 0 468.75 1389.9707031250005V1459.0068359375005L1093.75 2778.4541015625005L1718.75 1459.0068359375005zM4083.251953125 3134.765625H3729.248046875L2968.75 1529.2744140624995V1265.1923828125L3010.1015625 1220.3212890625A1214.314453125 1214.314453125 0 0 1 3900.957031249999 829.8681640625C3902.324218749999 829.8681640625 3903.691406249999 829.8681640625 3905.05859375 829.8779296875A1214.2900390625 1214.2900390625 0 0 1 4797.3359375 1226.4248046875L4843.7509765625 1277.4990234375V1529.2744140624995zM4531.25 1400.30859375A887.966796875 887.966796875 0 0 0 3903.990234375 1142.3779296874995C3902.921875 1142.3681640625 3901.853515625 1142.3681640625 3900.7763671875 1142.3681640625A887.7666015625001 887.7666015625001 0 0 0 3281.25 1389.9707031250005V1459.0068359375005L3906.25 2778.4541015625005L4531.25 1459.0068359375005zM2656.25 3079.5048828125A549.0595703124999 549.0595703124999 0 0 1 3024.0107421875 3447.265625H4062.5V3759.765625H3024.0107421875A546.7841796875 546.7841796875 0 0 1 1975.9892578125 3759.765625H937.5V3447.265625H1975.9892578125A549.0595703124999 549.0595703124999 0 0 1 2343.75 3079.5048828125V478.515625H1328.125V166.015625H3671.875V478.515625H2656.25zM2265.625 3603.515625A234.37500000000003 234.37500000000003 0 1 0 2500 3369.140625A234.37500000000003 234.37500000000003 0 0 0 2265.625 3603.515625z" />
    <glyph glyph-name="cil-balance-scale-left"
      unicode="&#xEA4A;"
      horiz-adv-x="5000" d="M916.748046875 2509.765625L156.25 904.2744140624995V640.1923828125L197.6015625 595.3212890625A1214.314453125 1214.314453125 0 0 1 1088.45703125 204.8681640625C1089.82421875 204.8681640625 1091.19140625 204.8681640625 1092.55859375 204.8779296875A1214.2900390625 1214.2900390625 0 0 1 1984.8359375000005 601.4248046875L2031.2509765625005 652.4990234375V904.2744140624995L1270.751953125 2509.765625zM1718.75 775.30859375A887.966796875 887.966796875 0 0 0 1091.490234375 517.3779296875C1090.4218750000002 517.3681640625 1089.353515625 517.3681640625 1088.2763671875 517.3681640625A887.7666015625001 887.7666015625001 0 0 0 468.75 764.970703125V834.0068359375L1093.75 2153.4541015625005L1718.75 834.0068359375zM4083.251953125 3681.640625H3729.248046875L2968.75 2076.1494140624995V1812.0673828125L3010.1015625 1767.1962890625A1214.314453125 1214.314453125 0 0 1 3900.957031249999 1376.7431640625C3902.324218749999 1376.7431640625 3903.691406249999 1376.7431640625 3905.05859375 1376.7529296874995A1214.2900390625 1214.2900390625 0 0 1 4797.3359375 1773.2998046875L4843.7509765625 1824.3740234375V2076.1494140624995zM4531.25 1947.18359375A887.966796875 887.966796875 0 0 0 3903.990234375 1689.2529296874995C3902.921875 1689.2431640625 3901.853515625 1689.2431640625 3900.7763671875 1689.2431640625A887.7666015625001 887.7666015625001 0 0 0 3281.25 1936.8457031250005V2005.8818359375005L3906.25 3325.3291015625L4531.25 2005.8818359375005zM2656.25 3079.5048828125A546.462890625 546.462890625 0 0 1 3043.7255859375 3661.861328125L4062.5 4102.599609375V4443.0849609375L2922.75390625 3950.01171875A546.79296875 546.79296875 0 0 1 1955.9208984375005 3548.07421875L937.5 3132.833984375V2795.3623046875L2075.4287109375 3259.3271484375A548.3759765625 548.3759765625 0 0 1 2343.75 3079.5048828125V166.015625H3671.875V478.515625H2656.25zM2265.625 3603.515625A234.37500000000003 234.37500000000003 0 1 0 2500 3369.140625A234.37500000000003 234.37500000000003 0 0 0 2265.625 3603.515625z" />
    <glyph glyph-name="cil-balance-scale-right"
      unicode="&#xEA4B;"
      horiz-adv-x="5000" d="M2924.5712890624995 3259.3271484375L4062.5 2795.3623046875V3132.833984375L3044.076171875 3548.07421875A546.6708984375001 546.6708984375001 0 0 1 2077.24609375 3950.01171875L937.5 4443.0849609375V4102.599609375L1956.2744140625 3661.861328125A546.462890625 546.462890625 0 0 1 2343.75 3079.5048828125V478.515625H1328.125V166.015625H2656.25V3079.5048828125A548.3759765625 548.3759765625 0 0 1 2924.5712890624995 3259.3271484375zM2500 3369.140625A234.37500000000003 234.37500000000003 0 1 0 2734.375 3603.515625A234.37500000000003 234.37500000000003 0 0 0 2500 3369.140625zM4083.251953125 2509.765625H3729.248046875L2968.75 904.2744140624995V652.494140625L3015.1845703125 601.4062499999991A1214.265625 1214.265625 0 0 1 3907.442382812501 204.8779296874991C3908.825195312501 204.8681640624991 3910.160156250001 204.8681640624991 3911.543945312501 204.8681640624991A1214.3896484375 1214.3896484375 0 0 1 4802.3994140625 595.3212890624991L4843.75 640.1923828125V904.2744140625005zM4531.25 764.970703125A887.7089843749999 887.7089843749999 0 0 0 3911.71875 517.3681640625009C3910.6513671875 517.3681640625009 3909.5634765625 517.3681640625009 3908.5048828125 517.3779296875A888.0605468749999 888.0605468749999 0 0 0 3281.25 775.298828125V834.0068359375L3906.25 2153.4541015625005L4531.25 834.0068359375zM1989.8984375 1767.1962890625L2031.25 1812.0673828125V2076.1494140625005L1270.751953125 3681.640625H916.748046875L156.25 2076.1494140624995V1824.3691406249995L202.6845703125 1773.2812499999995A1214.265625 1214.265625 0 0 1 1094.9423828125 1376.752929687499C1096.3251953124998 1376.7431640624995 1097.66015625 1376.7431640624995 1099.0439453125 1376.7431640624995A1214.3896484375 1214.3896484375 0 0 1 1989.8984375 1767.1962890625zM1718.75 1936.8457031250005A887.7089843749999 887.7089843749999 0 0 0 1099.2236328125 1689.2431640625005C1098.1562499999998 1689.2431640625005 1097.068359375 1689.2431640625005 1096.009765625 1689.2529296875005A888.0605468749999 888.0605468749999 0 0 0 468.75 1947.173828125V2005.8818359375005L1093.75 3325.3291015625L1718.75 2005.8818359375005z" />
    <glyph glyph-name="cil-ban"
      unicode="&#xEA4C;"
      horiz-adv-x="5000" d="M4157.2861328125 4157.2861328125A2343.75 2343.75 0 0 1 842.7138671874999 842.7236328125A2343.75 2343.75 0 0 1 4157.2861328125 4157.2861328125zM2500 4531.25A2022.4726562500002 2022.4726562500002 0 0 0 3823.513671875 4039.59765625L960.40234375 1176.486328125A2022.4726562500002 2022.4726562500002 0 0 0 468.75 2500C468.75 3620.033203125 1379.9667968750002 4531.25 2500 4531.25zM2500 468.75A2022.3300781250002 2022.3300781250002 0 0 0 1181.7763671875 955.927734375L4044.072265625 3818.2236328125A2022.3251953125 2022.3251953125 0 0 0 4531.25 2500C4531.25 1379.966796875 3620.033203125 468.75 2500 468.75z" />
    <glyph glyph-name="cil-bank"
      unicode="&#xEA4D;"
      horiz-adv-x="5000" d="M2419.5244140625 4859.7861328125L156.25 3770.060546875V3203.125H4843.75V3773.064453125zM4531.25 3515.625H468.75V3573.689453125L2424.2255859375 4515.2138671875L4531.25 3570.685546875zM468.75 1015.625H4531.25V703.125H468.75V1015.625zM156.25 468.75H4843.75V156.25H156.25V468.75zM546.875 2890.625H859.375V1328.125H546.875V2890.625zM4140.625 2890.625H4453.125V1328.125H4140.625V2890.625zM3203.125 2890.625H3515.625V1328.125H3203.125V2890.625zM1484.375 2890.625H1796.875V1328.125H1484.375V2890.625zM2343.75 2890.625H2656.25V1328.125H2343.75V2890.625z" />
    <glyph glyph-name="cil-bar-chart"
      unicode="&#xEA4E;"
      horiz-adv-x="5000" d="M1328.125 937.5H2187.5A234.6435546875 234.6435546875 0 0 1 2421.875 1171.875V3203.125A234.6435546875 234.6435546875 0 0 1 2187.5 3437.5H1328.125A234.6435546875 234.6435546875 0 0 1 1093.75 3203.125V1171.875A234.6435546875 234.6435546875 0 0 1 1328.125 937.5zM1406.25 3125H2109.375V1250H1406.25zM4140.625 4843.75H3281.25A234.6435546875 234.6435546875 0 0 1 3046.875 4609.375V1171.875A234.6435546875 234.6435546875 0 0 1 3281.25 937.5H4140.625A234.6435546875 234.6435546875 0 0 1 4375 1171.875V4609.375A234.6435546875 234.6435546875 0 0 1 4140.625 4843.75zM4062.5 1250H3359.375V4531.25H4062.5zM468.75 4843.75L156.25 4843.75L156.25 156.25L4843.75 156.25L4843.75 468.75L468.75 468.75L468.75 4843.75z" />
    <glyph glyph-name="cil-barcode"
      unicode="&#xEA4F;"
      horiz-adv-x="5000" d="M156.25 4453.125V468.75H4843.75V4453.125zM4531.25 781.25H468.75V4140.625H4531.25zM781.25 3750H1093.75V1250H781.25V3750zM1406.25 3750H1718.75V1875H1406.25V3750zM2031.25 3750H2343.75V1250H2031.25V3750zM2656.25 3750H2968.75V1875H2656.25V3750zM3281.25 3750H3593.75V1875H3281.25V3750zM3906.25 3750H4218.75V1250H3906.25V3750zM1406.25 1562.5H1718.75V1250H1406.25V1562.5zM2656.25 1562.5H2968.75V1250H2656.25V1562.5zM3281.25 1562.5H3593.75V1250H3281.25V1562.5z" />
    <glyph glyph-name="cil-baseball"
      unicode="&#xEA50;"
      horiz-adv-x="5000" d="M1054.6875 3046.875A898.4375000000001 898.4375000000001 0 1 1 156.25 3945.3125A899.4550781250001 899.4550781250001 0 0 1 1054.6875 3046.875zM1054.6875 4531.25A585.9375 585.9375 0 1 0 468.75 3945.3125A586.6025390624999 586.6025390624999 0 0 0 1054.6875 4531.25zM4657.5830078125 4626.3671875H4657.578125A742.1796875 742.1796875 0 0 1 3607.96875 4626.3671875L3554.505859375 4572.904296875C3348.9072265625005 4367.306640625 3148.7119140625005 4151.1044921875 2959.486328125 3930.3095703125L2956.3818359375 3926.6904296875L1600.6386718749998 2134.1123046875L767.0693359375 1300.5400390625A373.65820312499994 373.65820312499994 0 0 1 316.6630859375 712.3662109375L712.3662109375001 316.66796875A373.751953125 373.751953125 0 0 1 1300.6259765625 767.15625L2133.0478515625 1599.578125L3889.892578125001 2876.53125L3898.095703125 2882.92578125C4160.45703125 3101.72265625 4415.9794921875 3335.1630859375 4657.578125 3576.7626953125A743.0273437500001 743.0273437500001 0 0 1 4657.5830078125 4626.3671875zM4436.6025390625 3797.7294921875C4202.8662109375 3563.984375 3955.7119140625 3338.0869140625 3701.9345703125 3126.23828125L1929.4501953125005 1837.9208984375L867.7099609375 776.181640625L1019.7880859375 624.0888671875A61.1328125 61.1328125 0 1 0 933.3369140625 537.6337890625L537.6337890625 933.33203125A61.1328125 61.1328125 0 0 0 624.09375 1019.7929687499995L776.1767578125001 867.705078125L1836.8623046875 1928.3916015625L3199.8505859375 3730.5400390625C3382.984375 3944.0439453125 3576.623046875 4153.0751953125 3775.4736328125 4351.9267578125L3828.9365234375 4405.384765625A429.6875 429.6875 0 1 0 4436.603515625 3797.7177734375z" />
    <glyph glyph-name="cil-basket"
      unicode="&#xEA51;"
      horiz-adv-x="5000" d="M1171.875 2031.25H1484.375V781.25H1171.875V2031.25zM1953.125 2031.25H2265.625V781.25H1953.125V2031.25zM2734.375 2031.25H3046.875V781.25H2734.375V2031.25zM3515.625 2031.25H3828.125V781.25H3515.625V2031.25zM4625.7900390625 3359.375L3848.26171875 4843.75H3495.490234375L4273.0185546875 3359.375H726.9814453125L1504.509765625 4843.75H1151.73828125L374.2099609375 3359.375H156.25V2270.822265625L574.76953125 156.25H4424.97265625L4843.75 2250.1513671875V3359.375zM4531.25 2281.0986328125L4168.77734375 468.75H831.4804687500001L468.75 2301.4501953125V2343.75H4531.25zM4531.25 2656.25H468.75V3046.875H4531.25z" />
    <glyph glyph-name="cil-basket-arrow-down"
      unicode="&#xEA52;"
      horiz-adv-x="5000" d="M3235.478515625 1452.01171875L3014.521484375 1672.98828125L2656.25 1314.716796875L2656.25 2031.25L2343.75 2031.25L2343.75 1314.716796875L1985.4785156249995 1672.98828125L1764.5214843750002 1452.01171875L2500 716.533203125L3235.478515625 1452.01171875zM4625.7900390625 3359.375L3848.26171875 4843.75H3495.490234375L4273.0185546875 3359.375H726.9814453125L1504.509765625 4843.75H1151.73828125L374.2099609375 3359.375H156.25V2270.822265625L574.76953125 156.25H4424.97265625L4843.75 2250.1513671875V3359.375zM4531.25 2281.0986328125L4168.77734375 468.75H831.4804687500001L468.75 2301.4501953125V2343.75H4531.25zM4531.25 2656.25H468.75V3046.875H4531.25z" />
    <glyph glyph-name="cil-basket-loaded"
      unicode="&#xEA53;"
      horiz-adv-x="5000" d="M1171.875 2031.25H1484.375V781.25H1171.875V2031.25zM1953.125 2031.25H2265.625V781.25H1953.125V2031.25zM2734.375 2031.25H3046.875V781.25H2734.375V2031.25zM3515.625 2031.25H3828.125V781.25H3515.625V2031.25zM4625.7880859375 3359.375L3848.26171875 4843.75H3495.4931640624995L4273.0185546875 3359.375H726.9814453125L1504.509765625 4843.75H1151.73828125L374.2099609375 3359.375H156.25V2270.822265625L574.76953125 156.25H4424.97265625L4843.75 2250.1513671875V3359.375zM4531.25 2281.0986328125L4168.77734375 468.75H831.4804687500001L468.75 2301.4501953125V2343.75H4531.25zM4531.25 2656.25H468.75V3046.875H4531.25zM1672.9833984375 3671.875L1941.1376953125 3962.3740234375A796.88671875 796.88671875 0 0 0 3135.0234375000005 3936.6103515625L3359.029296875 3671.875H3768.386718750001L3373.5751953125 4138.4697265625A1109.3828125000002 1109.3828125000002 0 0 1 1711.5117187499998 4174.3369140625L1247.697265625 3671.875z" />
    <glyph glyph-name="cil-basket-plus"
      unicode="&#xEA54;"
      horiz-adv-x="5000" d="M4625.7939453125 3359.375L3848.265625000001 4843.75H3495.486328125L4273.015624999999 3359.375H726.984375L1504.5136718750002 4843.75H1151.734375L374.2060546875 3359.375H156.25V2270.822265625L574.76953125 156.25H4424.96484375L4843.75 2250.1513671875V3359.375zM4531.25 2281.0986328125L4168.7822265625 468.75H831.4804687500001L468.75 2301.4501953125V2343.75H4531.25zM4531.25 2656.25H468.75V3046.875H4531.25zM2265.625 703.125L2578.125 703.125L2578.125 1250L3125 1250L3125 1562.5L2578.125 1562.5L2578.125 2109.375L2265.625 2109.375L2265.625 1562.5L1718.75 1562.5L1718.75 1250L2265.625 1250L2265.625 703.125z" />
    <glyph glyph-name="cil-basketball"
      unicode="&#xEA55;"
      horiz-adv-x="5000" d="M2500 4843.75A2343.75 2343.75 0 0 1 842.71875 842.71875A2343.75 2343.75 0 1 1 4157.28125 4157.28125A2328.4072265624995 2328.4072265624995 0 0 1 2500 4843.75zM1052.3544921875 3923.33984375Q1093.4677734375 3866.451171875 1131.8974609375 3801.59765625C1314.1484375 3493.0751953125 1423.1357421874998 3091.005859375 1444.2490234375 2656.25H474.701171875A2025.23046875 2025.23046875 0 0 0 1052.3544921875 3923.33984375zM1052.3544921875 1076.66015625A2025.23046875 2025.23046875 0 0 0 474.701171875 2343.75H1444.2490234375C1423.1357421874998 1908.994140625 1314.1484374999998 1506.9248046875 1131.8974609374998 1198.4013671875Q1093.5546875 1133.4902343749995 1052.3544921875 1076.66015625zM2343.75 474.701171875A2020.1171875 2020.1171875 0 0 0 1288.5888671875 870.5185546875A1863.7998046875 1863.7998046875 0 0 1 1400.9619140625002 1039.4638671875C1610.75390625 1394.6220703125 1735.2685546875002 1852.96484375 1757.1142578125002 2343.751953125H2343.75zM2343.75 2656.25H1757.1171875C1735.2685546875 3147.037109375 1610.7539062499998 3605.3798828125 1400.96484375 3960.5380859375A1863.7998046875 1863.7998046875 0 0 1 1288.591796875 4129.4833984375A2020.1171875 2020.1171875 0 0 0 2343.75 4525.298828125zM2656.25 4525.298828125A2020.1171875 2020.1171875 0 0 0 3711.4111328125 4129.4814453125A1863.7998046875 1863.7998046875 0 0 1 3599.0380859375 3960.5361328125C3389.2460937499995 3605.3779296875 3264.7314453125 3147.03515625 3242.8857421875 2656.248046875H2656.25zM2656.25 474.701171875V2343.75H3242.8828124999995C3264.7314453125 1852.962890625 3389.2460937499995 1394.6201171875 3599.03515625 1039.4619140625A1863.7998046875 1863.7998046875 0 0 1 3711.408203125 870.5166015625A2020.1171875 2020.1171875 0 0 0 2656.25 474.701171875zM3947.6455078125 1076.66015625Q3906.5322265625 1133.548828125 3868.103515625 1198.40234375C3685.8515625 1506.9248046875 3576.8642578125 1908.994140625 3555.7509765625 2343.75H4525.298828125A2025.23046875 2025.23046875 0 0 0 3947.6455078125 1076.66015625zM3555.7509765625 2656.25C3576.8642578125 3091.005859375 3685.8515625 3493.0751953125 3868.103515625 3801.5986328125Q3906.447265625 3866.5107421875 3947.6455078125 3923.3408203125A2025.23046875 2025.23046875 0 0 0 4525.298828125 2656.25z" />
    <glyph glyph-name="cil-bath"
      unicode="&#xEA56;"
      horiz-adv-x="5000" d="M4531.25 2265.625H781.25V4023.4375A500.59472656249994 500.59472656249994 0 0 0 928.8359374999998 4379.740234375L932.7597656249998 4383.6640625A504.79101562500006 504.79101562500006 0 0 0 1505.025390625 4482.896484375A772.4912109375 772.4912109375 0 0 1 1620.0439453124998 3539.2763671875L1726.9892578124998 3432.330078125L1530.140625 3235.4833984375L1751.107421875 3014.5166015625L1947.9531250000005 3211.3623046875L1947.9531250000005 3211.3623046875L3038.63671875 4302.0458984375L3038.63671875 4302.0458984375L3235.482421875 4498.8916015625L3014.515625 4719.8583984375L2817.6689453125 4523.0107421875L2710.7236328125 4629.955078125A772.3271484374999 772.3271484374999 0 0 1 1725.0917968750002 4717.611328125A816.51171875 816.51171875 0 0 1 711.7890625000001 4604.634765625L707.8652343750001 4600.7109375A811.0400390625001 811.0400390625001 0 0 1 468.75 4023.4375V2265.625H156.25V1953.125H468.75V1653.3037109375A233.7890625 233.7890625 0 0 1 480.7802734375001 1579.189453125L771.46484375 707.134765625A234.0654296875 234.0654296875 0 0 1 993.8095703125 546.875H1119.7919921875L1005.859375 156.25H1331.37890625L1445.3125 546.875H3477.4951171875L3594.6826171875 156.25H3920.941406250001L3803.753906250001 546.875H4006.195312500001A234.0654296875 234.0654296875 0 0 1 4228.540039062501 707.134765625L4519.219726562501 1579.1611328125A233.95703125 233.95703125 0 0 1 4531.25 1653.3037109375V1953.125H4843.75V2265.625zM1841.015625 4408.984375A459.2392578125 459.2392578125 0 0 0 2489.7578125000005 4408.984375L2596.6982421875 4302.0439453125L1947.9560546875005 3653.3017578125L1841.015625 3760.2421875A459.24511718749994 459.24511718749994 0 0 0 1841.015625 4408.984375zM4218.75 1665.9833984375L3949.880859375 859.375H1050.119140625L781.25 1665.9833984375V1953.125H4218.75z" />
    <glyph glyph-name="cil-bathroom"
      unicode="&#xEA57;"
      horiz-adv-x="5000" d="M4531.25 2265.625H781.25V4023.4375A500.59472656249994 500.59472656249994 0 0 0 928.8359374999998 4379.740234375L932.7597656249998 4383.6640625A504.79101562500006 504.79101562500006 0 0 0 1505.025390625 4482.896484375A772.4912109375 772.4912109375 0 0 1 1620.0439453124998 3539.2763671875L1726.9892578124998 3432.330078125L1530.140625 3235.4833984375L1751.107421875 3014.5166015625L1947.9531250000005 3211.3623046875L1947.9531250000005 3211.3623046875L3038.63671875 4302.0458984375L3038.63671875 4302.0458984375L3235.482421875 4498.8916015625L3014.515625 4719.8583984375L2817.6689453125 4523.0107421875L2710.7236328125 4629.955078125A772.3271484374999 772.3271484374999 0 0 1 1725.0917968750002 4717.611328125A816.51171875 816.51171875 0 0 1 711.7890625000001 4604.634765625L707.8652343750001 4600.7109375A811.0400390625001 811.0400390625001 0 0 1 468.75 4023.4375V2265.625H156.25V1953.125H468.75V1653.3037109375A233.7890625 233.7890625 0 0 1 480.7802734375001 1579.189453125L771.46484375 707.134765625A234.0654296875 234.0654296875 0 0 1 993.8095703125 546.875H1119.7919921875L1005.859375 156.25H1331.37890625L1445.3125 546.875H3477.4951171875L3594.6826171875 156.25H3920.941406250001L3803.753906250001 546.875H4006.195312500001A234.0654296875 234.0654296875 0 0 1 4228.540039062501 707.134765625L4519.219726562501 1579.1611328125A233.95703125 233.95703125 0 0 1 4531.25 1653.3037109375V1953.125H4843.75V2265.625zM1841.015625 4408.984375A459.2392578125 459.2392578125 0 0 0 2489.7578125000005 4408.984375L2596.6982421875 4302.0439453125L1947.9560546875005 3653.3017578125L1841.015625 3760.2421875A459.24511718749994 459.24511718749994 0 0 0 1841.015625 4408.984375zM4218.75 1665.9833984375L3949.880859375 859.375H1050.119140625L781.25 1665.9833984375V1953.125H4218.75z" />
    <glyph glyph-name="cil-battery-0"
      unicode="&#xEA58;"
      horiz-adv-x="5000" d="M390.486328125 859.375H3984.375A232.66015625000003 232.66015625000003 0 0 1 4218.75 1089.7460937499995V1640.625H4843.75V3281.25H4218.75V3832.12890625A232.66015625000003 232.66015625000003 0 0 1 3984.375 4062.5H390.486328125A232.6611328125 232.6611328125 0 0 1 156.111328125 3832.12890625V1089.7460937499995A232.6611328125 232.6611328125 0 0 1 390.486328125 859.375zM468.611328125 3750H3906.25V2968.75H4531.25V1953.125H3906.25V1171.875H468.611328125z" />
    <glyph glyph-name="cil-battery-1"
      unicode="&#xEA59;"
      horiz-adv-x="5000" d="M781.25 3437.5H1093.75V1484.375H781.25V3437.5zM4218.75 3281.25V3832.12890625A232.66015625000003 232.66015625000003 0 0 1 3984.375 4062.5H390.486328125A232.6611328125 232.6611328125 0 0 1 156.111328125 3832.12890625V1089.7460937499995A232.6611328125 232.6611328125 0 0 1 390.486328125 859.375H3984.375A232.66015625000003 232.66015625000003 0 0 1 4218.75 1089.7460937499995V1640.625H4843.75V3281.25zM4531.25 1953.125H3906.25V1171.875H468.611328125V3750H3906.25V2968.75H4531.25z" />
    <glyph glyph-name="cil-battery-2"
      unicode="&#xEA5A;"
      horiz-adv-x="5000" d="M781.25 3437.5H1093.75V1484.375H781.25V3437.5zM1406.25 3437.5H1718.75V1484.375H1406.25V3437.5zM4218.75 3281.25V3832.12890625A232.66015625000003 232.66015625000003 0 0 1 3984.375 4062.5H390.486328125A232.6611328125 232.6611328125 0 0 1 156.111328125 3832.12890625V1089.7460937499995A232.6611328125 232.6611328125 0 0 1 390.486328125 859.375H3984.375A232.66015625000003 232.66015625000003 0 0 1 4218.75 1089.7460937499995V1640.625H4843.75V3281.25zM4531.25 1953.125H3906.25V1171.875H468.611328125V3750H3906.25V2968.75H4531.25z" />
    <glyph glyph-name="cil-battery-3"
      unicode="&#xEA5B;"
      horiz-adv-x="5000" d="M781.25 3437.5H1093.75V1484.375H781.25V3437.5zM1406.25 3437.5H1718.75V1484.375H1406.25V3437.5zM2031.25 3437.5H2343.75V1484.375H2031.25V3437.5zM4218.75 3281.25V3832.12890625A232.66015625000003 232.66015625000003 0 0 1 3984.375 4062.5H390.486328125A232.6611328125 232.6611328125 0 0 1 156.111328125 3832.12890625V1089.7460937499995A232.6611328125 232.6611328125 0 0 1 390.486328125 859.375H3984.375A232.66015625000003 232.66015625000003 0 0 1 4218.75 1089.7460937499995V1640.625H4843.75V3281.25zM4531.25 1953.125H3906.25V1171.875H468.611328125V3750H3906.25V2968.75H4531.25z" />
    <glyph glyph-name="cil-battery-4"
      unicode="&#xEA5C;"
      horiz-adv-x="5000" d="M781.25 3437.5H1093.75V1484.375H781.25V3437.5zM1406.25 3437.5H1718.75V1484.375H1406.25V3437.5zM2031.25 3437.5H2343.75V1484.375H2031.25V3437.5zM2656.25 3437.5H2968.75V1484.375H2656.25V3437.5zM4218.75 3281.25V3832.12890625A232.6640625 232.6640625 0 0 1 3984.375 4062.5H390.4912109375A232.6640625 232.6640625 0 0 1 156.1162109375 3832.12890625V1089.7460937499995A232.6640625 232.6640625 0 0 1 390.4912109375 859.375H3984.375A232.6640625 232.6640625 0 0 1 4218.75 1089.7460937499995V1640.625H4843.75V3281.25zM4531.25 1953.125H3906.25V1171.875H468.6162109375V3750H3906.25V2968.75H4531.25z" />
    </font>
</defs>
</svg>
