<?xml version="1.0" encoding="utf-8"?>
<!-- Generator: Adobe Illustrator 17.0.0, SVG Export Plug-In . SVG Version: 6.00 Build 0)  -->
<!DOCTYPE svg PUBLIC "-//W3C//DTD SVG 1.1//EN" "http://www.w3.org/Graphics/SVG/1.1/DTD/svg11.dtd">
<svg version="1.1" id="Warstwa_1" xmlns="http://www.w3.org/2000/svg" xmlns:xlink="http://www.w3.org/1999/xlink" x="0px" y="0px"
	 width="625.65px" height="200px" viewBox="0 0 625.65 200" enable-background="new 0 0 625.65 200" xml:space="preserve">
<polygon fill="#5FC5E3" points="0,50 86.603,100 86.603,0 "/>
<polygon fill="#F8CE13" points="0,150 86.603,200 86.603,100 "/>
<polygon fill="#4ABA74" points="86.603,100 0,50 0,150 "/>
<polygon fill="#F16969" points="173.205,150 86.603,100 86.603,200 "/>
<polygon fill="#04A8DA" points="173.205,50 86.603,0 86.603,100 "/>
<polygon fill="#FFFFFF" points="86.603,133.333 57.735,116.667 57.735,83.333 86.603,66.667 115.47,83.333 144.338,66.667 
	86.603,33.333 28.868,66.667 28.868,133.333 86.603,166.667 144.338,133.333 115.47,116.667 "/>
<rect x="213.497" y="50" fill="none" width="505.277" height="104.085"/>
<g enable-background="new    ">
	<path fill="#333333" d="M242.117,115.947v34.357h-18.158V52.699h31.792c6.524,0,12.172,0.767,16.942,2.296
		c4.77,1.53,8.708,3.668,11.812,6.412c3.105,2.745,5.4,6.03,6.885,9.854c1.485,3.826,2.228,8.011,2.228,12.556
		c0,4.725-0.788,9.057-2.363,12.993c-1.576,3.938-3.938,7.324-7.087,10.159c-3.15,2.835-7.087,5.04-11.812,6.615
		s-10.26,2.362-16.605,2.362H242.117z M242.117,101.772h13.635c3.33,0,6.232-0.416,8.708-1.249c2.475-0.832,4.522-2.025,6.143-3.577
		c1.62-1.553,2.835-3.442,3.645-5.67s1.215-4.714,1.215-7.459c0-2.609-0.405-4.972-1.215-7.088c-0.81-2.114-2.025-3.915-3.645-5.399
		c-1.62-1.485-3.668-2.621-6.143-3.409c-2.475-0.787-5.378-1.182-8.708-1.182h-13.635V101.772z"/>
	<path fill="#333333" d="M326.492,112.167v38.138h-18.157V52.699h29.768c6.659,0,12.362,0.688,17.11,2.06
		c4.748,1.373,8.641,3.297,11.678,5.771c3.038,2.476,5.266,5.435,6.683,8.877c1.418,3.442,2.126,7.233,2.126,11.373
		c0,3.286-0.483,6.391-1.451,9.315c-0.968,2.926-2.362,5.58-4.185,7.965c-1.822,2.386-4.073,4.479-6.75,6.277
		c-2.678,1.801-5.728,3.24-9.146,4.32c2.295,1.306,4.274,3.173,5.94,5.603l24.435,36.045h-16.335c-1.575,0-2.914-0.314-4.017-0.945
		c-1.103-0.629-2.036-1.529-2.801-2.699l-20.521-31.253c-0.766-1.17-1.609-2.002-2.531-2.497c-0.923-0.495-2.284-0.743-4.083-0.743
		H326.492z M326.492,99.14h11.34c3.419,0,6.401-0.427,8.943-1.282c2.542-0.854,4.635-2.036,6.278-3.544
		c1.642-1.507,2.868-3.296,3.679-5.366c0.81-2.069,1.215-4.342,1.215-6.817c0-4.95-1.632-8.752-4.894-11.407
		c-3.264-2.655-8.247-3.983-14.951-3.983h-11.61V99.14z"/>
	<path fill="#333333" d="M416.604,150.305h-18.226V52.699h18.226V150.305z"/>
	<path fill="#333333" d="M489.673,114.293c0.651,1.553,1.293,3.117,1.924,4.691c0.63-1.62,1.282-3.217,1.957-4.792
		c0.676-1.575,1.395-3.082,2.16-4.522l28.891-54.067c0.359-0.676,0.73-1.216,1.113-1.62c0.382-0.405,0.81-0.697,1.282-0.878
		c0.473-0.179,1.001-0.292,1.587-0.337c0.584-0.045,1.282-0.068,2.092-0.068h13.703v97.605h-15.998V87.26
		c0-1.17,0.034-2.452,0.102-3.848c0.067-1.395,0.169-2.812,0.304-4.252l-29.497,55.35c-0.676,1.261-1.553,2.239-2.633,2.937
		c-1.08,0.698-2.341,1.046-3.78,1.046h-2.497c-1.441,0-2.7-0.348-3.78-1.046c-1.08-0.697-1.958-1.676-2.633-2.937l-29.902-55.553
		c0.18,1.485,0.304,2.937,0.371,4.354c0.067,1.418,0.102,2.734,0.102,3.949v63.045h-15.997V52.699h13.702
		c0.81,0,1.507,0.023,2.093,0.068c0.584,0.045,1.113,0.158,1.586,0.337c0.473,0.181,0.911,0.473,1.316,0.878
		c0.404,0.404,0.786,0.944,1.147,1.62l29.16,54.202C488.311,111.245,489.019,112.741,489.673,114.293z"/>
	<path fill="#333333" d="M625.65,52.699v14.445h-43.268v27.067h34.088v13.973h-34.088v27.607h43.268v14.513h-61.56V52.699H625.65z"
		/>
</g>
</svg>
