<svg xmlns="http://www.w3.org/2000/svg" xmlns:xlink="http://www.w3.org/1999/xlink" width="152" height="167.142" viewBox="0 0 152 167.142"><defs><style>.br-a{fill:none;}.br-b{fill:url(#br-a);}.br-c{opacity:0.5;}.br-d{clip-path:url(#br-d);}.br-e{fill:#007fbf;}.br-f{filter:url(#br-b);}</style><linearGradient id="br-a" x1="0.269" y1="0.195" x2="0.902" y2="1.03" gradientUnits="objectBoundingBox"><stop offset="0" stop-color="#00a1ff"/><stop offset="1" stop-color="#80d0ff"/></linearGradient><filter id="br-b" x="0" y="0" width="152" height="167.142" filterUnits="userSpaceOnUse"><feOffset dy="2" input="SourceAlpha"/><feGaussianBlur stdDeviation="4" result="br-c"/><feFlood flood-color="#3c4b64" flood-opacity="0.349"/><feComposite operator="in" in2="br-c"/><feComposite in="SourceGraphic"/></filter><clipPath id="br-d"><path class="br-a" d="M763.47,44.208,714.529,15.951a15.061,15.061,0,0,0-15.059,0L650.53,44.208A15.1,15.1,0,0,0,643,57.249v56.512a15.1,15.1,0,0,0,7.53,13.042l48.94,28.256a15.061,15.061,0,0,0,15.059,0L763.47,126.8A15.1,15.1,0,0,0,771,113.761V57.249A15.1,15.1,0,0,0,763.47,44.208Z" transform="translate(-643 -13.934)"/></clipPath></defs><g transform="translate(-631 -3.934)"><g class="br-f" transform="matrix(1, 0, 0, 1, 631, 3.93)"><path class="br-b" d="M763.47,44.208,714.529,15.951a15.061,15.061,0,0,0-15.059,0L650.53,44.208A15.1,15.1,0,0,0,643,57.249v56.512a15.1,15.1,0,0,0,7.53,13.042l48.94,28.256a15.061,15.061,0,0,0,15.059,0L763.47,126.8A15.1,15.1,0,0,0,771,113.761V57.249A15.1,15.1,0,0,0,763.47,44.208Z" transform="translate(-631 -3.93)"/></g><g class="br-c" transform="translate(643 13.934)"><g class="br-d"><g transform="translate(16.446 41.096)"><path class="br-e" d="M776.688,115.06c-.924-.363-1.88-.714-2.857-1.054q.291-1.519.516-3c2.175-14.467-.912-24.908-8.692-29.4a16.592,16.592,0,0,0-8.41-2.174c-7.009,0-15.184,3.9-23.738,11.293-8.553-7.4-16.729-11.293-23.738-11.293a16.591,16.591,0,0,0-8.41,2.174c-7.78,4.493-10.867,14.933-8.692,29.4.147.981.326,1.985.52,3q-1.463.508-2.861,1.055c-13.616,5.35-21.115,13.244-21.115,22.227s7.5,16.878,21.115,22.227q1.387.545,2.857,1.055-.291,1.519-.516,3c-2.175,14.467.912,24.908,8.692,29.4a16.585,16.585,0,0,0,8.41,2.175c7.009,0,15.184-3.9,23.738-11.293,8.554,7.4,16.729,11.293,23.738,11.293a16.586,16.586,0,0,0,8.41-2.175c7.78-4.492,10.867-14.933,8.692-29.4-.148-.981-.322-1.986-.516-3q1.462-.508,2.857-1.053c13.616-5.35,21.115-13.244,21.115-22.227S790.3,120.41,776.688,115.06Zm-19.443-27.4a8.47,8.47,0,0,1,4.3,1.072c4.58,2.645,6.282,10.317,4.668,21.048a89.428,89.428,0,0,1-4.707,17.542q-1.255-2.36-2.6-4.7a135.349,135.349,0,0,0-19.393-26.2C746.212,90.754,752.447,87.661,757.245,87.661Zm.052,49.628c-1.655,3.508-3.5,7.038-5.525,10.543-2.014,3.489-4.154,6.868-6.365,10.058-3.868.321-7.849.487-11.9.487-4.018,0-8.008-.166-11.9-.49-2.214-3.194-4.349-6.566-6.364-10.054s-3.862-7.021-5.525-10.547c1.655-3.507,3.5-7.037,5.525-10.542,2.013-3.486,4.154-6.866,6.365-10.057,3.867-.321,7.849-.487,11.9-.487,4.02,0,8.01.166,11.9.49,2.206,3.182,4.334,6.544,6.361,10.054C753.778,130.219,755.632,133.761,757.3,137.289ZM705.474,88.733a8.47,8.47,0,0,1,4.3-1.072c5.3,0,12.348,3.771,19.853,10.619a97.649,97.649,0,0,1,9.258,9.783q-2.674-.092-5.373-.095a136.168,136.168,0,0,0-32.389,3.693c-.114-.634-.22-1.262-.312-1.88C699.192,99.05,700.894,91.378,705.474,88.733ZM695.12,152.525q-.911-.328-1.785-.67c-10.1-3.969-15.895-9.278-15.895-14.568s5.793-10.6,15.895-14.568a89.442,89.442,0,0,1,17.545-4.694q-1.415,2.265-2.765,4.6A136.121,136.121,0,0,0,695.12,152.525Zm14.65,34.389a8.47,8.47,0,0,1-4.3-1.072c-4.58-2.645-6.282-10.317-4.668-21.048a89.482,89.482,0,0,1,4.707-17.543q1.256,2.361,2.6,4.7c2.507,4.343,5.2,8.523,7.991,12.426a122.238,122.238,0,0,0,11.4,13.779C720.8,183.821,714.567,186.914,709.769,186.914Zm51.771-1.072a8.473,8.473,0,0,1-4.3,1.072c-5.3,0-12.348-3.771-19.852-10.619a97.437,97.437,0,0,1-9.26-9.783q2.675.092,5.375.095a136.163,136.163,0,0,0,32.388-3.693c.114.634.22,1.264.313,1.88C767.822,175.526,766.121,183.2,761.54,185.842Zm12.139-33.987a89.441,89.441,0,0,1-17.545,4.694q1.414-2.265,2.765-4.6a136.137,136.137,0,0,0,13-29.9c.607.218,1.205.44,1.785.668,10.1,3.969,15.895,9.278,15.895,14.568S783.78,147.887,773.679,151.855Z" transform="translate(-669.211 -79.431)"/><path class="br-e" d="M765.232,154.323A10.866,10.866,0,1,0,776.1,165.189,10.878,10.878,0,0,0,765.232,154.323Z" transform="translate(-700.935 -107.332)"/></g></g></g></g></svg>