<svg xmlns="http://www.w3.org/2000/svg" xmlns:xlink="http://www.w3.org/1999/xlink" width="152" height="167.142" viewBox="0 0 152 167.142"><defs><style>.ba-a{fill:none;}.ba-b{fill:url(#ba-a);}.ba-c{opacity:0.5;}.ba-d{clip-path:url(#ba-d);}.ba-e{fill:#b50d31;}.ba-f{filter:url(#ba-b);}</style><linearGradient id="ba-a" x1="1" y1="1" x2="0.087" gradientUnits="objectBoundingBox"><stop offset="0" stop-color="#cf2f4c"/><stop offset="1" stop-color="#e797a5"/></linearGradient><filter id="ba-b" x="0" y="0" width="152" height="167.142" filterUnits="userSpaceOnUse"><feOffset dy="2" input="SourceAlpha"/><feGaussianBlur stdDeviation="4" result="ba-c"/><feFlood flood-color="#3c4b64" flood-opacity="0.349"/><feComposite operator="in" in2="ba-c"/><feComposite in="SourceGraphic"/></filter><clipPath id="ba-d"><path class="ba-a" d="M463.47,44.208,414.529,15.951a15.061,15.061,0,0,0-15.059,0L350.53,44.208A15.1,15.1,0,0,0,343,57.249v56.512a15.1,15.1,0,0,0,7.53,13.042l48.94,28.256a15.061,15.061,0,0,0,15.059,0L463.47,126.8A15.1,15.1,0,0,0,471,113.761V57.249A15.1,15.1,0,0,0,463.47,44.208Z" transform="translate(-343 -13.934)"/></clipPath></defs><g transform="translate(-331 -3.934)"><g class="ba-f" transform="matrix(1, 0, 0, 1, 331, 3.93)"><path class="ba-b" d="M463.47,44.208,414.529,15.951a15.061,15.061,0,0,0-15.059,0L350.53,44.208A15.1,15.1,0,0,0,343,57.249v56.512a15.1,15.1,0,0,0,7.53,13.042l48.94,28.256a15.061,15.061,0,0,0,15.059,0L463.47,126.8A15.1,15.1,0,0,0,471,113.761V57.249A15.1,15.1,0,0,0,463.47,44.208Z" transform="translate(-331 -3.93)"/></g><g class="ba-c" transform="translate(343 13.934)"><g class="ba-d"><g transform="translate(-10.944 37.622)"><path class="ba-e" d="M402.987,155.075h17.906l-8.65-23.207Z" transform="translate(-354.404 -95.492)"/><path class="ba-e" d="M436.792,93.917,383.887,74.148a4.017,4.017,0,0,0-2.812,0L328.169,93.917a4.017,4.017,0,0,0-2.586,4.217l7.586,66.709a4.018,4.018,0,0,0,2.089,3.085l45.318,24.38a4.017,4.017,0,0,0,3.807,0l45.319-24.38a4.02,4.02,0,0,0,2.089-3.085l7.587-66.709A4.017,4.017,0,0,0,436.792,93.917ZM402.529,161.6l-5.99-16.071H369.334L362.924,161.6H349.948l26.439-66.292h14.3L415.393,161.6Z" transform="translate(-325.558 -73.894)"/></g></g></g></g></svg>