<svg xmlns="http://www.w3.org/2000/svg" xmlns:xlink="http://www.w3.org/1999/xlink" width="152" height="167.142" viewBox="0 0 152 167.142"><defs><style>.bv-a{fill:none;}.bv-b{fill:url(#bv-a);}.bv-c{opacity:0.5;}.bv-d{clip-path:url(#bv-d);}.bv-e{fill:#0ca378;}.bv-f{filter:url(#bv-b);}</style><linearGradient id="bv-a" x1="0.852" y1="1.012" x2="0.278" y2="0.177" gradientUnits="objectBoundingBox"><stop offset="0" stop-color="#8ddec9"/><stop offset="1" stop-color="#1bbd93"/></linearGradient><filter id="bv-b" x="0" y="0" width="152" height="167.142" filterUnits="userSpaceOnUse"><feOffset dy="2" input="SourceAlpha"/><feGaussianBlur stdDeviation="4" result="bv-c"/><feFlood flood-color="#3c4b64" flood-opacity="0.349"/><feComposite operator="in" in2="bv-c"/><feComposite in="SourceGraphic"/></filter><clipPath id="bv-d"><path class="bv-a" d="M146.47,44.208,97.529,15.951a15.061,15.061,0,0,0-15.059,0L33.53,44.208A15.1,15.1,0,0,0,26,57.249v56.512A15.1,15.1,0,0,0,33.53,126.8l48.94,28.256a15.061,15.061,0,0,0,15.059,0L146.47,126.8A15.1,15.1,0,0,0,154,113.761V57.249A15.1,15.1,0,0,0,146.47,44.208Z" transform="translate(-26 -13.934)"/></clipPath></defs><g transform="translate(-14 -3.934)"><g class="bv-f" transform="matrix(1, 0, 0, 1, 14, 3.93)"><path class="bv-b" d="M146.47,44.208,97.529,15.951a15.061,15.061,0,0,0-15.059,0L33.53,44.208A15.1,15.1,0,0,0,26,57.249v56.512A15.1,15.1,0,0,0,33.53,126.8l48.94,28.256a15.061,15.061,0,0,0,15.059,0L146.47,126.8A15.1,15.1,0,0,0,154,113.761V57.249A15.1,15.1,0,0,0,146.47,44.208Z" transform="translate(-14 -3.93)"/></g><g class="bv-c" transform="translate(26 13.934)"><g class="bv-d"><path class="bv-e" d="M168.8,60.945h17.65l-50.165,92.9h-9.289l-52.023-92.9H92.623l39.132,74.2Zm-37.275,55.971L102.144,60.945H117.7l13.934,26.011,11.5-26.011h16.373Z" transform="translate(-44.244 -31.448)"/></g></g></g></svg>