<svg xmlns="http://www.w3.org/2000/svg" xmlns:xlink="http://www.w3.org/1999/xlink" width="152" height="167.142" viewBox="0 0 152 167.142"><defs><style>.bb-a{fill:none;}.bb-b{fill:url(#bb-a);}.bb-c{opacity:0.5;}.bb-d{clip-path:url(#bb-d);}.bb-e{fill:#53057c;}.bb-f{filter:url(#bb-b);}</style><linearGradient id="bb-a" x1="0.981" y1="1" x2="0.238" y2="0.114" gradientUnits="objectBoundingBox"><stop offset="0" stop-color="#910ac3"/><stop offset="1" stop-color="#c884e1"/></linearGradient><filter id="bb-b" x="0" y="0" width="152" height="167.142" filterUnits="userSpaceOnUse"><feOffset dy="2" input="SourceAlpha"/><feGaussianBlur stdDeviation="4" result="bb-c"/><feFlood flood-color="#3c4b64" flood-opacity="0.349"/><feComposite operator="in" in2="bb-c"/><feComposite in="SourceGraphic"/></filter><clipPath id="bb-d"><path class="bb-a" d="M146.47,44.208,97.529,15.951a15.061,15.061,0,0,0-15.059,0L33.53,44.208A15.1,15.1,0,0,0,26,57.249v56.512A15.1,15.1,0,0,0,33.53,126.8l48.94,28.256a15.061,15.061,0,0,0,15.059,0L146.47,126.8A15.1,15.1,0,0,0,154,113.761V57.249A15.1,15.1,0,0,0,146.47,44.208Z" transform="translate(-26 -13.934)"/></clipPath></defs><g transform="translate(-14 -3.934)"><g class="bb-f" transform="matrix(1, 0, 0, 1, 14, 3.93)"><path class="bb-b" d="M146.47,44.208,97.529,15.951a15.061,15.061,0,0,0-15.059,0L33.53,44.208A15.1,15.1,0,0,0,26,57.249v56.512A15.1,15.1,0,0,0,33.53,126.8l48.94,28.256a15.061,15.061,0,0,0,15.059,0L146.47,126.8A15.1,15.1,0,0,0,154,113.761V57.249A15.1,15.1,0,0,0,146.47,44.208Z" transform="translate(-14 -3.93)"/></g><g class="bb-c" transform="translate(26 13.934)"><g class="bb-d"><g transform="translate(-4.7 22.907)"><path class="bb-e" d="M121.318,52.5a6.628,6.628,0,0,1,2.115,4.917v83.006a6.624,6.624,0,0,1-2.115,4.917,7.038,7.038,0,0,1-5.088,2.058H33.681a7.033,7.033,0,0,1-5.088-2.058,6.618,6.618,0,0,1-2.115-4.917V57.416A6.621,6.621,0,0,1,28.593,52.5a7.033,7.033,0,0,1,5.088-2.058H116.23A7.038,7.038,0,0,1,121.318,52.5ZM85.931,130.475a19.128,19.128,0,0,0,19.208-19.093,18.948,18.948,0,0,0-2.458-9.49,18.369,18.369,0,0,0-6.689-6.861,18.365,18.365,0,0,0,2.687-5.144,19.241,19.241,0,0,0-4.631-19.608,18.432,18.432,0,0,0-13.606-5.66H48.43v65.856Zm2.744-46.648a8.2,8.2,0,0,1-8.232,8.232H59.407V75.595H80.443a8.2,8.2,0,0,1,8.232,8.232Zm-2.744,19.322a7.937,7.937,0,0,1,5.831,2.4,7.806,7.806,0,0,1,2.4,5.717,8.2,8.2,0,0,1-8.232,8.232H59.407v-16.35Z" transform="translate(-26.478 -50.441)"/></g></g></g></g></svg>