<?xml version="1.0" encoding="UTF-8"?>
<svg width="642px" height="115px" viewBox="0 0 642 115" version="1.1" xmlns="http://www.w3.org/2000/svg" xmlns:xlink="http://www.w3.org/1999/xlink">
    <title>bootstrap react</title>
    <g id="Page-1" stroke="none" stroke-width="1" fill="none" fill-rule="evenodd">
        <g id="coreui-react" fill-rule="nonzero">
            <g id="Group" transform="translate(467.000000, 34.000000)" fill="#00A1FF">
                <path d="M21.773,45.1513 L13.0054,24.415 C12.9773373,24.2979333 12.8698281,24.2174906 12.7496,24.2236 L2.7652,24.2236 C2.69475245,24.2135891 2.62369877,24.237295 2.57337454,24.2875996 C2.52305032,24.3379041 2.4993166,24.4089485 2.5093,24.4794 L2.5093,45.0224 C2.53459717,45.1987396 2.47538235,45.3766974 2.34947389,45.5027239 C2.22356544,45.6287504 2.04566327,45.6881319 1.8693,45.663 L0.653,45.663 C0.476589839,45.6883511 0.298552941,45.6290413 0.172589735,45.50296 C0.0466265297,45.3768787 -0.012516381,45.1987863 0.013,45.0224 L0.013,1.5024 C-0.0122179538,1.32612792 0.0470474615,1.14827197 0.172959717,1.02235972 C0.298871972,0.896447461 0.476727918,0.837182046 0.653,0.8624 L13.1974,0.8624 C16.1281032,0.74920564 18.9602017,1.93106009 20.9411,4.0939 C22.9798993,6.46044574 24.0336632,9.51866228 23.8854,12.6388 C23.9835788,15.3431579 23.197155,18.0057643 21.6454,20.2228 C20.1922835,22.2243311 18.0067705,23.570183 15.5654,23.9669 C15.3945,24.0528 15.3515,24.1583 15.4375,24.2862 L24.1416,44.8946 L24.2055,45.1505 C24.2055,45.4923 24.0136,45.6622 23.6298,45.6622 L22.4775,45.6622 C22.1528017,45.6752238 21.8615029,45.4639753 21.773,45.1513 L21.773,45.1513 Z M2.5093,3.3583 L2.5093,21.8544 C2.49893028,21.9250266 2.52249209,21.9964056 2.5728695,22.0469799 C2.62324692,22.0975542 2.69453353,22.1213942 2.7652,22.1113 L13.0689,22.1113 C15.3612663,22.1903156 17.5686468,21.2390647 19.0855,19.5185 C20.6827947,17.6170393 21.5052939,15.1837099 21.3892,12.7031 C21.5150151,10.1776784 20.7061936,7.69439687 19.1172,5.7275 C17.6052957,3.97811261 15.3793166,3.01202377 13.0689,3.1025 L2.7652,3.1025 C2.69475245,3.09248906 2.62369877,3.11619501 2.57337454,3.16649957 C2.52305032,3.21680413 2.4993166,3.28784854 2.5093,3.3583 L2.5093,3.3583 Z" id="Shape"></path>
                <path d="M61.0816,3.1025 L41.05,3.1025 C40.9795524,3.09248906 40.9084988,3.11619501 40.8581745,3.16649957 C40.8078503,3.21680413 40.7841166,3.28784854 40.7941,3.3583 L40.7941,21.8544 C40.7837303,21.9250266 40.8072921,21.9964056 40.8576695,22.0469799 C40.9080469,22.0975542 40.9793335,22.1213942 41.05,22.1113 L54.8737,22.1113 C55.0500023,22.0861776 55.2278528,22.1454497 55.3538356,22.2713145 C55.4798185,22.3971794 55.5392572,22.5749742 55.5143,22.7513 L55.5143,23.7113 C55.5393882,23.8876539 55.4799923,24.0655292 55.3539768,24.1914267 C55.2279612,24.3173243 55.0500303,24.3765534 54.8737,24.3513 L41.05,24.3513 C40.9795326,24.3412816 40.9084578,24.3649997 40.8581288,24.4153288 C40.8077997,24.4656578 40.7840816,24.5367326 40.7941,24.6072 L40.7941,43.1669 C40.7839064,43.2374048 40.8075671,43.3085873 40.8579399,43.3589601 C40.9083127,43.4093329 40.9794952,43.4329936 41.05,43.4228 L61.0817,43.4228 C61.258056,43.3979377 61.4358458,43.4573829 61.5617814,43.5833186 C61.6877171,43.7092542 61.7471623,43.887044 61.7223,44.0634 L61.7223,45.0224 C61.7474674,45.1988215 61.6881221,45.3767985 61.5621103,45.5028103 C61.4360985,45.6288221 61.2581215,45.6881674 61.0817,45.663 L38.938,45.663 C38.7616086,45.6882633 38.5836257,45.6289248 38.4576844,45.5028654 C38.3317431,45.3768061 38.2725714,45.1987676 38.298,45.0224 L38.298,1.5024 C38.2728258,1.32613727 38.3321055,1.1483082 38.4580069,1.02240687 C38.5839082,0.896505541 38.7617373,0.837225789 38.938,0.8624 L61.0816,0.8624 C61.257893,0.837321148 61.4357167,0.896607568 61.5616886,1.02246155 C61.6876606,1.14831553 61.7471136,1.3260836 61.7222,1.5024 L61.7222,2.4624 C61.7473232,2.63876984 61.687943,2.81667553 61.5619226,2.94259756 C61.4359022,3.06851959 61.2579502,3.12776095 61.0816,3.1025 Z" id="Path"></path>
                <path d="M98.8023,45.1513 L96.3707,36.3193 C96.322975,36.1875451 96.1894495,36.1072629 96.0507,36.1269 L79.2828,36.1269 C79.1439204,36.1066183 79.0100168,36.1871279 78.9628,36.3193 L76.5946,45.0869 C76.5520318,45.4362827 76.2419134,45.6902042 75.891,45.663 L74.6747,45.663 C74.4939136,45.6764886 74.3170051,45.6058728 74.1952,45.4716 C74.0840813,45.3254307 74.0484266,45.1354082 74.099,44.9589 L86.13,1.3749 C86.1963,1.04742876 86.5021585,0.825148151 86.8341,0.8632 L88.4341,0.8632 C88.7659635,0.825444376 89.0716423,1.04759438 89.1382,1.3749 L101.2982,44.9589 L101.3626,45.1513 C101.3626,45.4931 101.1488,45.663 100.7226,45.663 L99.5063,45.663 C99.1742904,45.7013927 98.8682526,45.4789502 98.8023,45.1513 Z M79.6988,33.9189 C79.7566689,33.9806679 79.8377626,34.0153757 79.9224,34.0146127 L95.4107,34.0146127 C95.4953055,34.0152167 95.576338,33.980535 95.6343,33.9189 C95.6988,33.8544 95.7085,33.8017 95.6666,33.7589 L87.7945,4.831 C87.7515,4.746 87.7085,4.7031 87.6666,4.7031 C87.6247,4.7031 87.5806,4.746 87.5386,4.831 L79.6666,33.7587 C79.6236,33.8017 79.6343,33.8544 79.6988,33.9189 Z" id="Shape"></path>
                <path d="M116.357,42.9111 C114.08386,40.5998623 112.877794,37.4452139 113.0293,34.207 L113.0293,12.19 C112.895115,8.98654036 114.114549,5.87437188 116.3893,3.6148 C118.763319,1.38594197 121.936019,0.208906204 125.1893,0.3501 C128.457087,0.201098542 131.648781,1.36496151 134.0536,3.5825 C136.339298,5.84815739 137.559884,8.9750007 137.4136,12.19 L137.4136,12.8306 C137.438767,13.0070215 137.379422,13.1849985 137.25341,13.3110103 C137.127399,13.4370221 136.949421,13.4963674 136.773,13.4712 L135.493,13.5347 C135.0658,13.5347 134.852467,13.3426333 134.853,12.9585 L134.853,12.1265 C134.964219,9.55392516 134.002395,7.05064107 132.1972,5.2144 C128.180225,1.71556921 122.198075,1.71556921 118.1811,5.2144 C116.375386,7.05033366 115.413349,9.55379471 115.5249,12.1265 L115.5249,34.3994 C115.413179,36.9721331 116.375241,39.4756597 118.1811,41.3115 C122.198628,44.808853 128.179672,44.808853 132.1972,41.3115 C134.00254,39.4753522 134.964389,36.9720026 134.853,34.3994 L134.853,33.6308 C134.853,33.247 135.066333,33.0552667 135.493,33.0556 L136.773,33.1191 C136.949302,33.0939776 137.127153,33.1532497 137.253136,33.2791145 C137.379118,33.4049794 137.438557,33.5827742 137.4136,33.7591 L137.4136,34.27 C137.555926,37.4941493 136.336653,40.6296772 134.0536,42.9107 C128.957341,47.2621609 121.453559,47.2621609 116.3573,42.9107 L116.357,42.9111 Z" id="Path"></path>
                <path d="M174.1929,1.5029 L174.1929,2.4629 C174.218162,2.63918144 174.158911,2.81706428 174.032987,2.94298747 C173.907064,3.06891067 173.729181,3.12816173 173.5529,3.1029 L162.8009,3.1029 C162.730459,3.09288046 162.659409,3.11658769 162.609098,3.16689832 C162.558788,3.21720895 162.53508,3.28825904 162.5451,3.3587 L162.5451,45.0224 C162.570275,45.1988413 162.510917,45.3768395 162.384881,45.5028561 C162.258845,45.6288727 162.080837,45.6882024 161.9044,45.663 L160.689,45.663 C160.51259,45.6883511 160.334553,45.6290413 160.20859,45.50296 C160.082627,45.3768787 160.023484,45.1987863 160.049,45.0224 L160.049,3.3583 C160.05881,3.28788595 160.035019,3.21694814 159.984738,3.16668685 C159.934457,3.11642557 159.86351,3.09266271 159.7931,3.1025 L149.6172,3.1025 C149.4409,3.1278494 149.262963,3.06862707 149.137018,2.94268197 C149.011073,2.81673687 148.951851,2.63880016 148.9772,2.4625 L148.9772,1.5025 C148.952026,1.32623727 149.011306,1.1484082 149.137207,1.02250687 C149.263108,0.896605541 149.440937,0.837325789 149.6172,0.8625 L173.5533,0.8625 C173.72956,0.837523272 173.907298,0.896942752 174.033099,1.02290095 C174.1589,1.14885915 174.218097,1.32667165 174.1929,1.5029 Z" id="Path"></path>
            </g>
            <g id="Group" fill="#3C4B64">
                <path d="M96.59,25.0577 L57.59,2.541 C53.8771871,0.397406461 49.3028129,0.397406461 45.59,2.541 L6.59,25.0576 C2.88223016,27.2062789 0.596891654,31.1646376 0.59,35.45 L0.59,80.4833 C0.596804386,84.7686597 2.88217097,88.7270289 6.59,90.8756 L45.59,113.3923 C49.3028129,115.535894 53.8771871,115.535894 57.59,113.3923 L96.59,90.8756 C100.297799,88.7269989 102.583155,84.7686487 102.59,80.4833 L102.59,35.45 C102.583093,31.1646678 100.297754,27.206346 96.59,25.0577 Z M94.59,80.4833 C94.59,81.9123618 93.8276038,83.2328691 92.59,83.9474 L53.59,106.4641 C52.3523625,107.178507 50.8276375,107.178507 49.59,106.4641 L10.59,83.9474 C9.35239619,83.2328691 8.59,81.9123618 8.59,80.4833 L8.59,35.45 C8.59,34.0209025 9.35236525,32.7003488 10.59,31.9858 L49.59,9.4692 C50.8276043,8.75466882 52.3523957,8.75466882 53.59,9.4692 L92.59,31.9858 C93.8276347,32.7003488 94.59,34.0209025 94.59,35.45 L94.59,80.4833 Z" id="Shape"></path>
                <path d="M74.612,71.0046 L71.746,71.0046 C71.0731519,71.0046119 70.411173,71.1743113 69.8213,71.498 L52.5406,80.9833 L32.59,69.4648 L32.59,46.4872 L52.54,34.9687 L69.8293,44.4236 C70.41777,44.7454874 71.0777479,44.9141958 71.7485,44.9142 L74.6117,44.9142 C75.7162695,44.9142 76.6117,44.0187695 76.6117,42.9142 L76.6117,40.2024 C76.6117,39.4713907 76.2129914,38.7985844 75.5717,38.4477 L56.3833,27.9521 C53.9307893,26.6182494 50.9618553,26.6523198 48.5406,28.0421 L28.59,39.56 C26.1183249,40.9928349 24.5948565,43.6317488 24.59,46.4887 L24.59,69.4647 C24.59,72.3228593 26.1147614,74.9639204 28.59,76.393 L48.54,87.9116 C50.9619497,89.3001739 53.9307385,89.3334456 56.3832,87.9995 L75.5732,77.4683 C76.2132016,77.1170775 76.6109885,76.4450406 76.611,75.715 L76.611,73.005 C76.6117,71.9006647 75.7163352,71.0051521 74.612,71.0046 Z" id="Path"></path>
            </g>
            <path d="M134.9295,81 C139.165167,81 142.62575,79.91925 145.31125,77.75775 C147.99675,75.59625 149.3395,72.4413333 149.3395,68.293 C149.3395,63.2713333 147.418167,59.6688333 143.5755,57.4855 C143.400833,57.3545 143.422667,57.2235 143.641,57.0925 C147.003333,55.1711667 148.6845,52.049 148.6845,47.726 C148.6845,43.4903333 147.396333,40.3354167 144.82,38.26125 C142.243667,36.1870833 138.619333,35.15 133.947,35.15 L133.947,35.15 L120.2575,35.15 C120.039167,35.15 119.853583,35.2264167 119.70075,35.37925 C119.547917,35.5320833 119.4715,35.7176667 119.4715,35.936 L119.4715,35.936 L119.4715,80.214 C119.4715,80.4323333 119.547917,80.6179167 119.70075,80.77075 C119.853583,80.9235833 120.039167,81 120.2575,81 L120.2575,81 L134.9295,81 Z M134.0125,54.014 L129.0345,54.014 C128.816167,54.014 128.707,53.9048333 128.707,53.6865 L128.707,53.6865 L128.707,43.403 C128.707,43.1846667 128.816167,43.0755 129.0345,43.0755 L129.0345,43.0755 L134.0125,43.0755 C135.802833,43.0755 137.18925,43.5558333 138.17175,44.5165 C139.15425,45.4771667 139.6455,46.8308333 139.6455,48.5775 C139.6455,50.2805 139.143333,51.6123333 138.139,52.573 C137.134667,53.5336667 135.759167,54.014 134.0125,54.014 L134.0125,54.014 Z M134.5365,73.009 L129.0345,73.009 C128.816167,73.009 128.707,72.8998333 128.707,72.6815 L128.707,72.6815 L128.707,61.4155 C128.707,61.1971667 128.816167,61.088 129.0345,61.088 L129.0345,61.088 L134.5365,61.088 C136.283167,61.088 137.64775,61.6229167 138.63025,62.69275 C139.61275,63.7625833 140.104,65.2363333 140.104,67.114 C140.104,68.9916667 139.61275,70.4435833 138.63025,71.46975 C137.64775,72.4959167 136.283167,73.009 134.5365,73.009 L134.5365,73.009 Z M171.260954,81.5895 C174.273954,81.5895 176.937621,80.9781667 179.251954,79.7555 C181.566287,78.5328333 183.356621,76.808 184.622954,74.581 C185.889287,72.354 186.522454,69.7558333 186.522454,66.7865 L186.522454,66.7865 L186.522454,49.3635 C186.522454,46.4378333 185.889287,43.8615 184.622954,41.6345 C183.356621,39.4075 181.566287,37.6826667 179.251954,36.46 C176.937621,35.2373333 174.273954,34.626 171.260954,34.626 C168.247954,34.626 165.595204,35.2373333 163.302704,36.46 C161.010204,37.6826667 159.230787,39.4075 157.964454,41.6345 C156.698121,43.8615 156.064954,46.4378333 156.064954,49.3635 L156.064954,49.3635 L156.064954,66.7865 C156.064954,69.7558333 156.698121,72.354 157.964454,74.581 C159.230787,76.808 161.010204,78.5328333 163.302704,79.7555 C165.595204,80.9781667 168.247954,81.5895 171.260954,81.5895 Z M171.260954,73.664 C169.470621,73.664 168.029621,73.0635833 166.937954,71.86275 C165.846287,70.6619167 165.300454,69.1008333 165.300454,67.1795 L165.300454,67.1795 L165.300454,49.1015 C165.300454,47.1365 165.846287,45.5535833 166.937954,44.35275 C168.029621,43.1519167 169.470621,42.5515 171.260954,42.5515 C173.094954,42.5515 174.557787,43.1519167 175.649454,44.35275 C176.741121,45.5535833 177.286954,47.1365 177.286954,49.1015 L177.286954,49.1015 L177.286954,67.1795 C177.286954,69.1008333 176.741121,70.6619167 175.649454,71.86275 C174.557787,73.0635833 173.094954,73.664 171.260954,73.664 Z M208.771408,81.5895 C211.784408,81.5895 214.448075,80.9781667 216.762408,79.7555 C219.076741,78.5328333 220.867075,76.808 222.133408,74.581 C223.399741,72.354 224.032908,69.7558333 224.032908,66.7865 L224.032908,66.7865 L224.032908,49.3635 C224.032908,46.4378333 223.399741,43.8615 222.133408,41.6345 C220.867075,39.4075 219.076741,37.6826667 216.762408,36.46 C214.448075,35.2373333 211.784408,34.626 208.771408,34.626 C205.758408,34.626 203.105658,35.2373333 200.813158,36.46 C198.520658,37.6826667 196.741241,39.4075 195.474908,41.6345 C194.208575,43.8615 193.575408,46.4378333 193.575408,49.3635 L193.575408,49.3635 L193.575408,66.7865 C193.575408,69.7558333 194.208575,72.354 195.474908,74.581 C196.741241,76.808 198.520658,78.5328333 200.813158,79.7555 C203.105658,80.9781667 205.758408,81.5895 208.771408,81.5895 Z M208.771408,73.664 C206.981075,73.664 205.540075,73.0635833 204.448408,71.86275 C203.356741,70.6619167 202.810908,69.1008333 202.810908,67.1795 L202.810908,67.1795 L202.810908,49.1015 C202.810908,47.1365 203.356741,45.5535833 204.448408,44.35275 C205.540075,43.1519167 206.981075,42.5515 208.771408,42.5515 C210.605408,42.5515 212.068241,43.1519167 213.159908,44.35275 C214.251575,45.5535833 214.797408,47.1365 214.797408,49.1015 L214.797408,49.1015 L214.797408,67.1795 C214.797408,69.1008333 214.251575,70.6619167 213.159908,71.86275 C212.068241,73.0635833 210.605408,73.664 208.771408,73.664 Z M249.032862,81 C249.251195,81 249.436779,80.9235833 249.589612,80.77075 C249.742445,80.6179167 249.818862,80.4323333 249.818862,80.214 L249.818862,80.214 L249.818862,43.4685 C249.818862,43.2501667 249.928029,43.141 250.146362,43.141 L250.146362,43.141 L260.102362,43.141 C260.320695,43.141 260.506279,43.0645833 260.659112,42.91175 C260.811945,42.7589167 260.888362,42.5733333 260.888362,42.355 L260.888362,42.355 L260.888362,35.936 C260.888362,35.7176667 260.811945,35.5320833 260.659112,35.37925 C260.506279,35.2264167 260.320695,35.15 260.102362,35.15 L260.102362,35.15 L230.627362,35.15 C230.409029,35.15 230.223445,35.2264167 230.070612,35.37925 C229.917779,35.5320833 229.841362,35.7176667 229.841362,35.936 L229.841362,35.936 L229.841362,42.355 C229.841362,42.5733333 229.917779,42.7589167 230.070612,42.91175 C230.223445,43.0645833 230.409029,43.141 230.627362,43.141 L230.627362,43.141 L240.255862,43.141 C240.474195,43.141 240.583362,43.2501667 240.583362,43.4685 L240.583362,43.4685 L240.583362,80.214 C240.583362,80.4323333 240.659779,80.6179167 240.812612,80.77075 C240.965445,80.9235833 241.151029,81 241.369362,81 L241.369362,81 L249.032862,81 Z M281.303316,81.524 C285.757316,81.524 289.327066,80.3559167 292.012566,78.01975 C294.698066,75.6835833 296.040816,72.5286667 296.040816,68.555 C296.040816,66.328 295.560483,64.4285 294.599816,62.8565 C293.639149,61.2845 292.449233,59.9854167 291.030066,58.95925 C289.610899,57.9330833 287.634983,56.7213333 285.102316,55.324 L285.102316,55.324 L283.726816,54.538 C281.499816,53.4463333 279.840483,52.5620833 278.748816,51.88525 C277.657149,51.2084167 276.849316,50.4988333 276.325316,49.7565 C275.801316,49.0141667 275.539316,48.1408333 275.539316,47.1365 C275.539316,45.6955 275.986899,44.5710833 276.882066,43.76325 C277.777233,42.9554167 279.010816,42.5515 280.582816,42.5515 C282.460483,42.5515 283.945149,43.0755 285.036816,44.1235 C286.128483,45.1715 286.674316,46.4815 286.674316,48.0535 L286.674316,48.0535 L286.674316,49.2325 C286.674316,49.4508333 286.750733,49.6364167 286.903566,49.78925 C287.056399,49.9420833 287.241983,50.0185 287.460316,50.0185 L287.460316,50.0185 L294.992816,50.0185 C295.211149,50.0185 295.396733,49.9420833 295.549566,49.78925 C295.702399,49.6364167 295.778816,49.4508333 295.778816,49.2325 L295.778816,49.2325 L295.778816,47.9225 C295.778816,45.3025 295.145649,42.9881667 293.879316,40.9795 C292.612983,38.9708333 290.844483,37.40975 288.573816,36.29625 C286.303149,35.18275 283.704983,34.626 280.779316,34.626 C277.984649,34.626 275.495649,35.1390833 273.312316,36.16525 C271.128983,37.1914167 269.436899,38.65425 268.236066,40.55375 C267.035233,42.45325 266.434816,44.6693333 266.434816,47.202 C266.434816,49.7346667 267.024316,51.8961667 268.203316,53.6865 C269.382316,55.4768333 270.801483,56.9396667 272.460816,58.075 C274.120149,59.2103333 276.259816,60.433 278.879816,61.743 C281.019483,62.8346667 282.602399,63.6970833 283.628566,64.33025 C284.654733,64.9634167 285.451649,65.64025 286.019316,66.36075 C286.586983,67.08125 286.870816,67.9436667 286.870816,68.948 C286.870816,70.3016667 286.423233,71.4151667 285.528066,72.2885 C284.632899,73.1618333 283.333816,73.5985 281.630816,73.5985 C279.709483,73.5985 278.181149,73.0854167 277.045816,72.05925 C275.910483,71.0330833 275.342816,69.7558333 275.342816,68.2275 L275.342816,68.2275 L275.342816,66.983 C275.342816,66.7646667 275.266399,66.5790833 275.113566,66.42625 C274.960733,66.2734167 274.775149,66.197 274.556816,66.197 L274.556816,66.197 L267.024316,66.197 C266.805983,66.197 266.620399,66.2734167 266.467566,66.42625 C266.314733,66.5790833 266.238316,66.7646667 266.238316,66.983 L266.238316,66.983 L266.238316,68.686 C266.238316,71.2186667 266.860566,73.4565833 268.105066,75.39975 C269.349566,77.3429167 271.107149,78.8494167 273.377816,79.91925 C275.648483,80.9890833 278.290316,81.524 281.303316,81.524 Z M320.25477,81 C320.473103,81 320.658687,80.9235833 320.81152,80.77075 C320.964353,80.6179167 321.04077,80.4323333 321.04077,80.214 L321.04077,80.214 L321.04077,43.4685 C321.04077,43.2501667 321.149937,43.141 321.36827,43.141 L321.36827,43.141 L331.32427,43.141 C331.542603,43.141 331.728187,43.0645833 331.88102,42.91175 C332.033853,42.7589167 332.11027,42.5733333 332.11027,42.355 L332.11027,42.355 L332.11027,35.936 C332.11027,35.7176667 332.033853,35.5320833 331.88102,35.37925 C331.728187,35.2264167 331.542603,35.15 331.32427,35.15 L331.32427,35.15 L301.84927,35.15 C301.630937,35.15 301.445353,35.2264167 301.29252,35.37925 C301.139687,35.5320833 301.06327,35.7176667 301.06327,35.936 L301.06327,35.936 L301.06327,42.355 C301.06327,42.5733333 301.139687,42.7589167 301.29252,42.91175 C301.445353,43.0645833 301.630937,43.141 301.84927,43.141 L301.84927,43.141 L311.47777,43.141 C311.696103,43.141 311.80527,43.2501667 311.80527,43.4685 L311.80527,43.4685 L311.80527,80.214 C311.80527,80.4323333 311.881687,80.6179167 312.03452,80.77075 C312.187353,80.9235833 312.372937,81 312.59127,81 L312.59127,81 L320.25477,81 Z M347.416224,81 C347.634557,81 347.820141,80.9235833 347.972974,80.77075 C348.125807,80.6179167 348.202224,80.4323333 348.202224,80.214 L348.202224,80.214 L348.202224,62.3325 C348.202224,62.1141667 348.311391,62.005 348.529724,62.005 L348.529724,62.005 L352.656224,62.005 C352.787224,62.005 352.896391,62.0923333 352.983724,62.267 L352.983724,62.267 L359.599224,80.345 C359.730224,80.7816667 360.035891,81 360.516224,81 L360.516224,81 L368.507224,81 C368.987557,81 369.227724,80.8035 369.227724,80.4105 C369.227724,80.2795 369.205891,80.1703333 369.162224,80.083 L369.162224,80.083 L361.695224,61.2845 C361.607891,61.0661667 361.673391,60.9133333 361.891724,60.826 C364.118724,59.8216667 365.843557,58.2933333 367.066224,56.241 C368.288891,54.1886667 368.900224,51.7651667 368.900224,48.9705 C368.900224,46.2631667 368.354391,43.8615 367.262724,41.7655 C366.171057,39.6695 364.620891,38.0429167 362.612224,36.88575 C360.603557,35.7285833 358.311057,35.15 355.734724,35.15 L355.734724,35.15 L339.752724,35.15 C339.534391,35.15 339.348807,35.2264167 339.195974,35.37925 C339.043141,35.5320833 338.966724,35.7176667 338.966724,35.936 L338.966724,35.936 L338.966724,80.214 C338.966724,80.4323333 339.043141,80.6179167 339.195974,80.77075 C339.348807,80.9235833 339.534391,81 339.752724,81 L339.752724,81 L347.416224,81 Z M354.228224,54.931 L348.529724,54.931 C348.311391,54.931 348.202224,54.8218333 348.202224,54.6035 L348.202224,54.6035 L348.202224,43.403 C348.202224,43.1846667 348.311391,43.0755 348.529724,43.0755 L348.529724,43.0755 L354.228224,43.0755 C355.843891,43.0755 357.153891,43.6104167 358.158224,44.68025 C359.162557,45.7500833 359.664724,47.202 359.664724,49.036 C359.664724,50.8263333 359.162557,52.2564167 358.158224,53.32625 C357.153891,54.3960833 355.843891,54.931 354.228224,54.931 L354.228224,54.931 Z M383.420178,81 C383.856845,81 384.140678,80.7816667 384.271678,80.345 L384.271678,80.345 L385.778178,73.926 C385.821845,73.7513333 385.931011,73.664 386.105678,73.664 L386.105678,73.664 L398.354178,73.664 C398.528845,73.664 398.638011,73.7513333 398.681678,73.926 L398.681678,73.926 L400.188178,80.345 C400.319178,80.7816667 400.624845,81 401.105178,81 L401.105178,81 L409.096178,81 C409.576511,81 409.816678,80.8035 409.816678,80.4105 L409.816678,80.4105 L409.751178,80.1485 L397.961178,35.805 C397.830178,35.3683333 397.524511,35.15 397.044178,35.15 L397.044178,35.15 L387.546678,35.15 C387.066345,35.15 386.760678,35.3683333 386.629678,35.805 L386.629678,35.805 L374.839678,80.1485 C374.708678,80.7161667 374.927011,81 375.494678,81 L375.494678,81 L383.420178,81 Z M396.520178,66.5245 L387.874178,66.5245 C387.786845,66.5245 387.699511,66.49175 387.612178,66.42625 C387.524845,66.36075 387.503011,66.2625 387.546678,66.1315 L387.546678,66.1315 L391.935178,47.1365 C391.978845,46.9618333 392.044345,46.8745 392.131678,46.8745 C392.219011,46.8745 392.284511,46.9618333 392.328178,47.1365 L392.328178,47.1365 L396.847678,66.1315 C396.891345,66.2625 396.869511,66.36075 396.782178,66.42625 C396.694845,66.49175 396.607511,66.5245 396.520178,66.5245 L396.520178,66.5245 Z M424.598632,81 C424.816965,81 425.002549,80.9235833 425.155382,80.77075 C425.308215,80.6179167 425.384632,80.4323333 425.384632,80.214 L425.384632,80.214 L425.384632,63.184 C425.384632,62.9656667 425.493799,62.8565 425.712132,62.8565 L425.712132,62.8565 L432.786132,62.8565 C435.406132,62.8565 437.731382,62.2888333 439.761882,61.1535 C441.792382,60.0181667 443.364382,58.4134167 444.477882,56.33925 C445.591382,54.2650833 446.148132,51.8743333 446.148132,49.167 C446.148132,46.416 445.591382,43.9706667 444.477882,41.831 C443.364382,39.6913333 441.792382,38.032 439.761882,36.853 C437.731382,35.674 435.406132,35.0845 432.786132,35.0845 L432.786132,35.0845 L416.935132,35.0845 C416.716799,35.0845 416.531215,35.1609167 416.378382,35.31375 C416.225549,35.4665833 416.149132,35.6521667 416.149132,35.8705 L416.149132,35.8705 L416.149132,80.214 C416.149132,80.4323333 416.225549,80.6179167 416.378382,80.77075 C416.531215,80.9235833 416.716799,81 416.935132,81 L416.935132,81 L424.598632,81 Z M431.279632,55.5205 L425.712132,55.5205 C425.493799,55.5205 425.384632,55.4113333 425.384632,55.193 L425.384632,55.193 L425.384632,43.403 C425.384632,43.1846667 425.493799,43.0755 425.712132,43.0755 L425.712132,43.0755 L431.279632,43.0755 C432.982632,43.0755 434.347215,43.6431667 435.373382,44.7785 C436.399549,45.9138333 436.912632,47.4421667 436.912632,49.3635 C436.912632,51.2411667 436.399549,52.73675 435.373382,53.85025 C434.347215,54.96375 432.982632,55.5205 431.279632,55.5205 L431.279632,55.5205 Z" id="BOOTSTRAP" fill="#3C4B64"></path>
        </g>
    </g>
</svg>