<?xml version="1.0" encoding="utf-8"?>
<!-- Generator: Adobe Illustrator 17.0.0, SVG Export Plug-In . SVG Version: 6.00 Build 0)  -->
<!DOCTYPE svg PUBLIC "-//W3C//DTD SVG 1.1//EN" "http://www.w3.org/Graphics/SVG/1.1/DTD/svg11.dtd">
<svg version="1.1" id="Warstwa_1" xmlns="http://www.w3.org/2000/svg" xmlns:xlink="http://www.w3.org/1999/xlink" x="0px" y="0px"
	 width="173.21px" height="200px" viewBox="0 0 173.21 200" enable-background="new 0 0 173.21 200" xml:space="preserve">
<path fill="#FFFFFF" d="M86.603,0L0,50v100l86.603,50l86.603-50V50L86.603,0z M86.603,133.333l28.868-16.667l28.867,16.667
	l-57.735,33.333l-57.735-33.333V66.667l57.735-33.333l57.735,33.333L115.47,83.333L86.603,66.667L57.735,83.333v33.333
	L86.603,133.333z"/>
<polygon opacity="0.04" stroke="#FFFFFF" stroke-miterlimit="10" points="0,50 86.603,100 86.603,0 "/>
<polygon opacity="0.04" stroke="#FFFFFF" stroke-miterlimit="10" points="0,150 86.603,200 86.603,100 "/>
<polygon opacity="0.08" stroke="#FFFFFF" stroke-miterlimit="10" points="86.603,100 173.205,150 173.205,50 "/>
<polygon opacity="0" stroke="#FFFFFF" stroke-miterlimit="10" points="86.603,100 0,50 0,150 "/>
<polygon opacity="0.08" stroke="#FFFFFF" stroke-miterlimit="10" points="173.205,150 86.603,100 86.603,200 "/>
<polygon opacity="0.08" stroke="#FFFFFF" stroke-miterlimit="10" points="173.205,50 86.603,0 86.603,100 "/>
</svg>
