<?xml version="1.0" encoding="utf-8"?>
<!-- Generator: Adobe Illustrator 17.0.0, SVG Export Plug-In . SVG Version: 6.00 Build 0)  -->
<!DOCTYPE svg PUBLIC "-//W3C//DTD SVG 1.1//EN" "http://www.w3.org/Graphics/SVG/1.1/DTD/svg11.dtd">
<svg version="1.1" id="Warstwa_1" xmlns="http://www.w3.org/2000/svg" xmlns:xlink="http://www.w3.org/1999/xlink" x="0px" y="0px"
	 width="527.843px" height="200px" viewBox="0 0 527.843 200" enable-background="new 0 0 527.843 200" xml:space="preserve">
<g id="Warstwa_1_1_">
	<g>
		<path fill="#FFFFFF" d="M241.51,135.32h39.083v14.985h-57.24V52.7h18.158L241.51,135.32L241.51,135.32z"/>
		<path fill="#FFFFFF" d="M354.707,52.7v14.445h-43.268v27.068h34.088v13.972h-34.088v27.607h43.268v14.513h-61.56V52.7H354.707z"/>
		<path fill="#FFFFFF" d="M456.227,150.305h-14.04c-1.575,0-2.869-0.394-3.881-1.181c-1.013-0.787-1.745-1.766-2.194-2.937
			l-7.29-19.912h-40.433l-7.29,19.912c-0.36,1.036-1.069,1.981-2.126,2.835c-1.058,0.855-2.352,1.283-3.881,1.283h-14.107
			l38.34-97.605h18.562L456.227,150.305z M393.047,113.45h31.117l-11.88-32.467c-0.54-1.44-1.137-3.139-1.789-5.097
			s-1.294-4.083-1.924-6.378c-0.631,2.295-1.248,4.433-1.855,6.413c-0.608,1.98-1.205,3.712-1.789,5.197L393.047,113.45z"/>
		<path fill="#FFFFFF" d="M527.843,52.7v14.445h-43.268v28.89h36.518v14.513h-36.518v39.757h-18.292V52.7H527.843z"/>
	</g>
</g>
<g id="Warstwa_3">
	<path fill="#FFFFFF" d="M86.603,0L0,50v100l86.603,50l86.603-50V50L86.603,0z M86.603,133.333l28.868-16.667l28.867,16.667
		l-57.735,33.333l-57.735-33.333V66.666l57.735-33.333l57.735,33.333L115.47,83.333L86.603,66.666L57.735,83.333v33.333
		L86.603,133.333z"/>
	<polygon opacity="0.04" stroke="#FFFFFF" stroke-miterlimit="10" enable-background="new    " points="0,50 86.603,100 86.603,0 	
		"/>
	<polygon opacity="0.04" stroke="#FFFFFF" stroke-miterlimit="10" enable-background="new    " points="0,150 86.603,200 
		86.603,100 	"/>
	<polygon opacity="0.08" stroke="#FFFFFF" stroke-miterlimit="10" enable-background="new    " points="86.603,100 173.205,150 
		173.205,50 	"/>
	<polygon fill-opacity="0" points="86.603,100 0,50 0,150 	"/>
	<polygon opacity="0.08" stroke="#FFFFFF" stroke-miterlimit="10" enable-background="new    " points="173.205,150 86.603,100 
		86.603,200 	"/>
	<polygon opacity="0.08" stroke="#FFFFFF" stroke-miterlimit="10" enable-background="new    " points="173.205,50 86.603,0 
		86.603,100 	"/>
</g>
</svg>
