<?xml version="1.0" standalone="no"?>
<!DOCTYPE svg PUBLIC "-//W3C//DTD SVG 1.1//EN" "http://www.w3.org/Graphics/SVG/1.1/DTD/svg11.dtd" >
<svg xmlns="http://www.w3.org/2000/svg">
<metadata>Generated by IcoMoon</metadata>
<defs>
<font id="CoreUI-Icons-Linear" horiz-adv-x="1024">
<font-face units-per-em="1024" ascent="960" descent="-64" />
<missing-glyph horiz-adv-x="1024" />
<glyph unicode="&#x20;" horiz-adv-x="512" d="" />
<glyph unicode="&#xe900;" glyph-name="account-logout" d="M154.31 415.932l549.19 0.002v64h-549.19l150.106 150.108-45.256 45.252-227.362-227.362 227.362-227.362 45.256 45.256-150.106 150.106zM320 928v-64h608v-832h-608v-64h672v960h-672z" />
<glyph unicode="&#xe901;" glyph-name="action-redo" d="M723.348-30.996l-269.246 269.25 45.254 45.254 223.992-223.992 223.992 223.992 45.256-45.254-269.248-269.25zM723.348-30.992l-269.246 269.246 45.254 45.254 223.992-223.992 223.992 223.992 45.256-45.254-269.248-269.246zM755.35 14.294h-64v552.188c0 163.684-133.166 296.852-296.85 296.852-166.458 0-296.852-126.212-296.852-287.334h-64c0 96.048 37.7 185.138 106.158 250.858 67.49 64.8 157.942 100.476 254.694 100.476 198.974 0 360.85-161.876 360.85-360.852z" />
<glyph unicode="&#xe902;" glyph-name="action-undo" d="M991.95 567.15c0 146.12-87.302 272.236-212.486 328.924q-4 1.8-8.040 3.524-8.092 3.43-16.38 6.47-4.142 1.522-8.334 2.94-8.38 2.842-16.936 5.28c-29.568 8.704-63.536 13.712-98.675 13.712s-69.107-5.008-101.232-14.349l2.557 0.637q-8.556-2.436-16.938-5.28-4.188-1.42-8.332-2.94-8.286-3.038-16.38-6.47-4.046-1.712-8.042-3.524c-125.184-56.688-212.484-182.8-212.484-328.924v0-474.966l-191.99 191.99-45.258-45.254 269.25-269.246 269.246 269.246-45.254 45.254-192-192v474.974c0 145.782 105.628 267.356 244.372 292.2 15.778 2.956 33.931 4.646 52.479 4.646s36.701-1.69 54.313-4.926l-1.834 0.28c138.742-24.85 244.372-146.424 244.372-292.2h64z" />
<glyph unicode="&#xe903;" glyph-name="align-center" d="M32 832h960v-64h-960v64zM192 656h640v-64h-640v64zM32 480h960v-64h-960v64zM192 304h640v-64h-640v64zM32 128h960v-64h-960v64z" />
<glyph unicode="&#xe904;" glyph-name="align-left" d="M32 832h960v-64h-960v64zM32 656h656v-64h-656v64zM32 480h960v-64h-960v64zM32 304h656v-64h-656v64zM32 128h960v-64h-960v64z" />
<glyph unicode="&#xe905;" glyph-name="align-right" d="M32 832h960v-64h-960v64zM336 656h656v-64h-656v64zM32 480h960v-64h-960v64zM336 304h656v-64h-656v64zM32 128h960v-64h-960v64z" />
<glyph unicode="&#xe906;" glyph-name="aperture" d="M851.788 786.35c-86.732 87.356-206.885 141.43-339.668 141.43-264.323 0-478.6-214.277-478.6-478.6 0-132.783 54.074-252.936 141.402-339.64l0.028-0.028c86.483-85.865 205.629-138.932 337.17-138.932 264.323 0 478.6 214.277 478.6 478.6 0 131.541-53.067 250.687-138.96 337.198l0.028-0.028zM420.674 287.566l-91.718 159.72 92.376 160.686h185.116l91.822-158.822-92.4-161.584zM680.376 607.966h215.44c20.326-47.246 32.146-102.243 32.146-160.001 0-69.069-16.904-134.191-46.799-191.453l1.087 2.288zM862.070 671.966h-403.944l107.65 187.256c124.892-16.494 230.736-86.41 295.315-185.645l0.979-1.605zM493.572 862.044l-201.506-350.516-107.97 188.020c72.503 94.341 183.176 156.246 308.505 162.458l0.971 0.038zM145.296 638.6l201.576-351.034h-215.82c-20.41 47.33-32.28 102.433-32.28 160.309 0 69.687 17.21 135.355 47.611 192.985l-1.087-2.26zM164.878 223.57h404.4l-106.986-187.084c-125.304 16.122-231.599 86.052-296.437 185.482l-0.977 1.598zM534.514 33.872l200.822 351.17 108.336-187.386c-72.225-94.756-182.789-157.102-308.127-163.744l-1.031-0.044z" />
<glyph unicode="&#xe907;" glyph-name="arrow-bottom" d="M727.954 285.246l-191.996-191.994v834.488h-64v-834.484l-191.992 191.99-45.254-45.254 269.246-269.246 269.25 269.246-45.254 45.254z" />
<glyph unicode="&#xe908;" glyph-name="arrow-circle-bottom" d="M512 928c-265.096 0-480-214.904-480-480s214.904-480 480-480 480 214.904 480 480-214.904 480-480 480zM806.156 153.844c-74.967-74.749-178.417-120.968-292.662-120.968-228.925 0-414.506 185.581-414.506 414.506s185.581 414.506 414.506 414.506c228.925 0 414.506-185.581 414.506-414.506 0-58.246-12.014-113.687-33.699-163.978l1.032 2.69c-22.046-51.416-52.135-95.309-89.168-132.24l-0.010-0.010zM544.224 331.038v372.962h-64v-372.962l-150.106 150.104-45.254-45.254 227.36-227.36 227.362 227.36-45.254 45.254-150.108-150.104z" />
<glyph unicode="&#xe909;" glyph-name="arrow-circle-left" d="M511.726 927.916c-265.098 0-480-214.902-480-480s214.902-480 480-480 480 214.904 480 480-214.904 480-480 480zM805.882 153.76c-74.966-74.745-178.413-120.961-292.654-120.961-228.925 0-414.506 185.581-414.506 414.506s185.581 414.506 414.506 414.506c228.925 0 414.506-185.581 414.506-414.506 0-58.253-12.017-113.7-33.706-163.996l1.033 2.691c-22.050-51.411-52.137-95.3-89.168-132.231l-0.010-0.009zM544.952 630.026l-45.256 45.254-227.362-227.362 227.362-227.362 45.256 45.254-150.108 150.108h374.88v64h-374.88l150.108 150.108z" />
<glyph unicode="&#xe90a;" glyph-name="arrow-circle-right" d="M512.224 927.916c-265.096 0-480-214.902-480-480s214.904-480 480-480 480 214.904 480 480-214.902 480-480 480zM806.382 153.76c-74.964-74.742-178.407-120.956-292.644-120.956-228.919 0-414.494 185.575-414.494 414.494s185.575 414.494 414.494 414.494c228.919 0 414.494-185.575 414.494-414.494 0-58.25-12.016-113.694-33.704-163.988l1.032 2.69c-22.050-51.411-52.137-95.3-89.168-132.231l-0.010-0.009zM478.998 630.026l150.108-150.108h-373.106v-64h373.106l-150.108-150.108 45.256-45.254 227.362 227.362-227.362 227.362-45.256-45.254z" />
<glyph unicode="&#xe90b;" glyph-name="arrow-circle-top" d="M512 928c-265.096 0-480-214.904-480-480s214.904-480 480-480 480 214.904 480 480-214.904 480-480 480zM806.156 153.844c-74.967-74.749-178.417-120.968-292.662-120.968-228.925 0-414.506 185.581-414.506 414.506s185.581 414.506 414.506 414.506c228.925 0 414.506-185.581 414.506-414.506 0-58.246-12.014-113.687-33.699-163.978l1.032 2.69c-22.046-51.416-52.135-95.309-89.168-132.24l-0.010-0.010zM284.638 477.946l45.256-45.254 150.106 150.104v-374.796h64v374.796l150.106-150.104 45.256 45.254-227.362 227.36-227.362-227.36z" />
<glyph unicode="&#xe90c;" glyph-name="arrow-left" d="M991.662 488.132h-834.482l191.99 191.992-45.254 45.252-269.246-269.246 269.246-269.246 45.254 45.254-191.994 191.994h834.486v64z" />
<glyph unicode="&#xe90d;" glyph-name="arrow-right" d="M719.746 725.876l-45.254-45.252 191.994-191.996-834.486-0.002v-64h834.48l-191.988-191.988 45.254-45.254 269.25 269.246-269.25 269.246z" />
<glyph unicode="&#xe90e;" glyph-name="arrow-thick-bottom" d="M511.488-29.272l-479.362 480.672v76.552l287.874 0.014v400.034h384v-400.014l288.030 0.014-0.072-77.376zM109.986 463.956l401.6-402.684 403.196 402.728-274.782-0.018v400.018h-256v-400.030z" />
<glyph unicode="&#xe90f;" glyph-name="arrow-thick-left" d="M591.94-32.030l-77.376 0.072-479.898 480.472 480.668 479.36h76.554l0.016-287.874h400.034v-384h-400.014zM125.2 448.424l402.728-403.2-0.008 274.776h400.018v256h-400.030l-0.016 274.014z" />
<glyph unicode="&#xe910;" glyph-name="arrow-thick-right" d="M508.6-31.876h-76.55l-0.016 287.876h-400.034v384h400.014l-0.014 288.030 77.376-0.072 479.896-480.47zM96 320h400.030l0.014-274.014 402.684 401.6-402.728 403.196 0.018-274.782h-400.018z" />
<glyph unicode="&#xe911;" glyph-name="arrow-thick-top" d="M704-32h-384v400.014l-288.030-0.014 0.072 77.376 480.47 479.896 479.364-480.672v-76.556l-287.876-0.008zM384 32h256v400.032l274.014 0.012-401.59 402.684-403.206-402.728 274.782 0.018z" />
<glyph unicode="&#xe912;" glyph-name="arrow-top" d="M785.476 657.222l-269.246 269.25-269.248-269.25 45.256-45.254 191.994 191.996v-835.964h64v835.958l191.988-191.99 45.256 45.254z" />
<glyph unicode="&#xe913;" glyph-name="audio" d="M512.848 558.014c-61.856 0-112-50.144-112-112s50.144-112 112-112c61.856 0 112 50.144 112 112v0c-0.072 61.827-50.173 111.928-111.993 112h-0.007zM512.848 398.014c-26.51 0-48 21.49-48 48s21.49 48 48 48c26.51 0 48-21.49 48-48v0c0-26.51-21.49-48-48-48v0zM671.546 609.546c42.757-41.429 69.297-99.38 69.297-163.529 0-62.668-25.328-119.42-66.305-160.579l0.008 0.008 45.254-45.234c52.563 52.718 85.063 125.464 85.063 205.801 0 81.82-33.712 155.767-88.003 208.708l-0.061 0.059zM307.046 652.956c-53.24-52.83-86.198-126.034-86.198-206.935 0-79.917 32.161-152.322 84.246-204.98l-0.026 0.026 45.234 45.234c-40.465 41.062-65.452 97.472-65.452 159.718 0 63.231 25.785 120.439 67.413 161.685l0.017 0.017zM221.526 738.474l-45.4 45.4c-0.19-0.188-0.386-0.372-0.576-0.562-86.32-86.315-139.71-205.56-139.71-337.276 0-131.018 52.826-249.698 138.341-335.902l-0.031 0.032 45.4 45.4c-73.98 74.503-119.702 177.149-119.702 290.474 0 114.308 46.519 217.751 121.658 292.43l0.021 0.020zM850.138 783.304c-0.8 0.8-1.634 1.588-2.446 2.388l-45.4-45.4c76.269-74.873 123.54-179.060 123.54-294.287 0-113.742-46.060-216.726-120.544-291.318l0.005 0.005 45.4-45.4c85.983 86.261 139.146 205.281 139.146 336.719 0 131.717-53.389 250.964-139.708 337.281v0z" />
<glyph unicode="&#xe914;" glyph-name="audio-spectrum" d="M32 640h64v-384h-64v384zM752 640h64v-384h-64v384zM208 784h64v-656h-64v656zM576 768h64v-640h-64v640zM928 768h64v-640h-64v640zM384 928h64v-960h-64v960z" />
<glyph unicode="&#xe915;" glyph-name="badge" d="M640.226 38.9l-128.226 89.1-128-88v151.5h-64v-223.5h74.666l117.116 79.836 116.014-79.836h76.43v223.5h-64v-152.6zM830.774 651.172l1.226 100.828-86.654 47.134-51.856 81.040-96.108 4.388-85.426 44.254-85.428-44.254-96.11-4.388-51.854-81.040-86.564-47.134 1.136-100.828-44.2-85.314 42.626-83.574 0.438-98.284 85.85-51.684 42.15-76.316h112l80.014-46.484 79.986 46.484h112l41.692 76.1 86.308 51.9 0.388 98.338 42.578 83.524zM768.462 497.852l-0.374-79.234-69.42-39.678-33.074-58.4-84.162 0.17-69.536-38.224-68.648 37.448-86.448 0.466-31.182 58.326-69.71 39.892-0.416 79.2-34.584 67.812 35.528 68.58 3.518 77.030 64.942 41.56 41.562 64.95 77.030 3.518 68.468 35.468 68.466-35.468 77.030-3.518 41.562-64.95 64.948-41.562 3.518-77.038 35.53-68.584z" />
<glyph unicode="&#xe916;" glyph-name="ban" d="M851.412 787.412c-86.863 86.863-206.863 140.589-339.412 140.589-265.097 0-480-214.903-480-480 0-132.548 53.726-252.548 140.588-339.411v0c86.863-86.863 206.863-140.589 339.412-140.589 265.097 0 480 214.903 480 480 0 132.548-53.726 252.548-140.588 339.411v0zM512 864c0.109 0 0.237 0 0.366 0 103.723 0 198.541-38.125 271.205-101.127l-0.515 0.437-586.366-586.366c-62.565 72.149-100.69 166.967-100.69 270.69 0 0.129 0 0.257 0 0.386v-0.020c0 229.382 186.618 416 416 416zM512 32c-0.107 0-0.232 0-0.358 0-103.226 0-197.631 37.764-270.155 100.229l0.541-0.455 586.2 586.2c62.009-71.983 99.772-166.387 99.772-269.612 0-0.127 0-0.255 0-0.382v0.020c0-229.382-186.618-416-416-416z" />
<glyph unicode="&#xe917;" glyph-name="bar-chart" d="M272 128h176c26.497 0.032 47.968 21.503 48 47.997v416.003c-0.032 26.497-21.503 47.968-47.997 48h-176.003c-26.497-0.032-47.968-21.503-48-47.997v-416.003c0.032-26.497 21.503-47.968 47.997-48h0.003zM288 576h144v-384h-144zM848 928h-176c-26.497-0.032-47.968-21.503-48-47.997v-704.003c0.032-26.497 21.503-47.968 47.997-48h176.003c26.497 0.032 47.968 21.503 48 47.997v704.003c-0.032 26.497-21.503 47.968-47.997 48h-0.003zM832 192h-144v672h144zM96 928h-64v-960h960v64h-896v896z" />
<glyph unicode="&#xe918;" glyph-name="basket-loaded" d="M352 224c-70.692 0-128-57.308-128-128s57.308-128 128-128c70.692 0 128 57.308 128 128v0c-0.082 70.659-57.34 127.918-127.992 128h-0.008zM352 32c-35.346 0-64 28.654-64 64s28.654 64 64 64c35.346 0 64-28.654 64-64v0c-0.041-35.33-28.67-63.959-63.996-64h-0.004zM800 224c-70.692 0-128-57.308-128-128s57.308-128 128-128c70.692 0 128 57.308 128 128v0c-0.082 70.659-57.34 127.918-127.992 128h-0.008zM800 32c-35.346 0-64 28.654-64 64s28.654 64 64 64c35.346 0 64-28.654 64-64v0c-0.041-35.33-28.67-63.959-63.996-64h-0.004zM320 688v-64h608v-43.118l-71.526-228.882h-556.612l-79.998 576h-187.864v-64h132.138l79.998-576h659.39l88.474 283.118v116.882h-672zM509.544 811.494c29.911 32.332 72.56 52.506 119.922 52.506 49.838 0 94.459-22.34 124.394-57.552l0.193-0.232 45.876-54.216h83.836l-80.854 95.556c-41.943 49.347-104.063 80.449-173.447 80.449-65.936 0-125.312-28.088-166.816-72.951l-0.137-0.15-94.982-102.904h87.098z" />
<glyph unicode="&#xe919;" glyph-name="battery-empty" d="M809 752h-729.028c-26.497-0.031-47.969-21.503-48-47.997v-528.003c0.031-26.497 21.503-47.969 47.997-48h729.031c26.497 0.032 47.968 21.503 48 47.997v528.003c-0.032 26.497-21.503 47.968-47.997 48h-0.003zM793 192h-697.028v496h697.028zM928 592v-304h64v304h-64z" />
<glyph unicode="&#xe91a;" glyph-name="battery-full" d="M928 592h64v-304h-64v304zM814 752h-734.028c-26.497-0.031-47.969-21.503-48-47.997v-528.003c0.031-26.497 21.503-47.969 47.997-48h734.031c26.497 0.032 47.968 21.503 48 47.997v528.003c-0.032 26.497-21.503 47.968-47.997 48h-0.003zM798 192h-702.028v496h702.028zM220 624h64v-368h-64v368zM414 624h64v-368h-64v368zM599.334 624h64v-368h-64v368z" />
<glyph unicode="&#xe91b;" glyph-name="beaker" d="M912 251.056c0 0.014 0 0.031 0 0.048 0 10.164-3.172 19.587-8.581 27.333l0.103-0.155-215.522 312.696v127.022h80c26.497 0.032 47.968 21.503 48 47.997v162.003h-608v-162c0.031-26.497 21.503-47.969 47.997-48h79.837v-129.242l-215.282-310.426c-5.351-7.613-8.552-17.075-8.552-27.284 0-0.023 0-0.046 0-0.069v0.004-234.818c0.033-26.496 21.504-47.967 47.997-48l704.093-0.16c26.51 0 48 21.49 48 48 0 0.006 0 0.011 0 0.017v-0.001zM399.834 568.738v213.262h-127.834v82h480v-82h-128v-210.94l128.93-187.060h-481.212zM176 32.16v213.818l51.334 74.022h569.706l50.96-73.942 0.074-214.058z" />
<glyph unicode="&#xe91c;" glyph-name="bell" d="M903.342 262.862l-87.342 161.248v167.89c0 167.626-136.374 304-304 304s-304-136.374-304-304v-167.89l-87.342-161.246c-3.648-6.608-5.795-14.485-5.795-22.864 0-26.51 21.49-48 48-48 0 0 0.001 0 0.001 0h173.87c-0.476-5.272-0.734-10.6-0.734-16 0-97.202 78.798-176 176-176s176 78.798 176 176v0c0 5.4-0.258 10.728-0.734 16h173.87c26.507 0.003 47.994 21.492 47.994 48 0 8.378-2.146 16.255-5.919 23.11l0.125-0.248zM624 176c0-0.027 0-0.059 0-0.091 0-61.856-50.144-112-112-112s-112 50.144-112 112c0 5.677 0.422 11.256 1.238 16.706l-0.076-0.615h221.676c0.734-4.804 1.156-10.35 1.162-15.994v-0.006zM189.726 256l82.274 151.89v184.11c0 132.548 107.452 240 240 240s240-107.452 240-240v0-184.11l82.274-151.89z" />
<glyph unicode="&#xe91d;" glyph-name="bluetooth" d="M798.926 241.388l-307.484 202.676 307.44 198.4 0.014 61.618-334.264 223.93-64.632-0.076v-423.6l-208 137.104v-76.654l182.288-120.154-182.288-117.632v-76.166l208 134.222v-417.056h68.746l330.28 209.958zM464 851.4l265.254-177.702-265.254-171.172zM464 40.82v344.68l266.2-175.46z" />
<glyph unicode="&#xe91e;" glyph-name="bold" d="M32 928v-960h960v960zM928 32h-832v832h832zM640 160c0.007 0 0.016 0 0.025 0 88.356 0 159.982 71.626 159.982 159.982 0 72.985-48.873 134.555-115.678 153.768l-1.129 0.278c22.901 27.471 36.804 63.142 36.804 102.060 0 88.317-71.595 159.912-159.912 159.912-0.032 0-0.065 0-0.097 0h-335.995v-64h80v-448h-80v-64zM416 224v192h176c53.019 0 96-42.981 96-96s-42.981-96-96-96v0zM512 672c53.019 0 96-42.981 96-96s-42.981-96-96-96v0h-96v192h96z" />
<glyph unicode="&#xe91f;" glyph-name="bolt" d="M662.928 576l154 352h-521.17l-162-576h242.042l-79.060-384h117.702l536.47 608zM385.558 32h-10.298l79.058 384h-236.076l126 448h374.83l-154-352h244.018z" />
<glyph unicode="&#xe920;" glyph-name="book" d="M203.334 160h724.666v768h-726.666c-66.921-0.223-121.111-54.413-121.334-121.313v-707.187h0.022c0-0.302-0.022-0.6-0.022-0.906 0-70.8 55.564-130.6 121.334-130.6h726.666v64.006h-726.666c-30.006 0-57.334 31.742-57.334 66.6 0 33.28 27.172 61.4 59.334 61.4zM720 863.334v-345.632l-96.8 84.98-95.2-84.482v345.134zM464 864v-432h63.282l96.15 85.318 97.178-85.318h63.39v432h80v-640h-591.842l-0.158 640zM201.334 864h6.666l0.15-640h-4.824c-21.827-0.005-42.287-5.857-59.899-16.075l0.573 0.307v597.936c0 0.054 0 0.119 0 0.183 0 31.728 25.631 57.47 57.317 57.649h0.017z" />
<glyph unicode="&#xe921;" glyph-name="bookmark" d="M848-32h-70.5l-265.484 229.62-265.082-229.62h-70.934v960h672zM240 864v-817.334l271.984 235.6 272.016-235.266v817z" />
<glyph unicode="&#xe922;" glyph-name="box" d="M640 472h-256v136h-352v-592c0.032-26.497 21.503-47.968 47.997-48h864.003c26.497 0.032 47.968 21.503 48 47.997v592.003h-352zM704 544h224v-512h-832v512h224v-136h384zM944 928h-864c-26.497-0.032-47.968-21.503-48-47.997v-210.003h960v210c-0.032 26.497-21.503 47.968-47.997 48h-0.003zM928 734h-832v130h832z" />
<glyph unicode="&#xe923;" glyph-name="briefcase" d="M942 735.538h-206v191.462h-448v-191.462h-206c-27.344-0.036-49.501-22.194-49.536-49.535v-668.067c0.036-27.343 22.193-49.5 49.532-49.536h860.004c27.344 0.036 49.501 22.194 49.536 49.535v668.065c-0.035 27.344-22.192 49.502-49.532 49.538h-0.004zM352 863h320v-127.462h-320zM924.464 668.462v-160.572l-106.354-106.352h-272.574v93.462h-67.072v-93.462h-272.574l-106.354 106.352v160.572zM99.536 35.472v377.564l78.572-78.574h300.356v-94.462h67.072v94.462h300.356l78.572 78.574v-377.564z" />
<glyph unicode="&#xe924;" glyph-name="british-pound" d="M480 432h144v64h-144v106.706c0 39.378 31.922 71.3 71.3 71.3s71.3-31.922 71.3-71.3h64c0 74.724-60.576 135.3-135.3 135.3s-135.3-60.576-135.3-135.3v0-106.706h-96v-64h96v-159.87h-96v-64h368v64h-208zM512.072 928c-265.096 0-480-214.904-480-480s214.904-480 480-480 480 214.904 480 480-214.904 480-480 480zM806.228 153.844c-74.968-74.756-178.422-120.979-292.672-120.979-228.925 0-414.506 185.581-414.506 414.506s185.581 414.506 414.506 414.506c228.925 0 414.506-185.581 414.506-414.506 0-58.242-12.012-113.679-33.694-163.968l1.032 2.691c-22.044-51.416-52.131-95.309-89.163-132.241l-0.009-0.009z" />
<glyph unicode="&#xe925;" glyph-name="broken" d="M576-34.996h64v256h256v64h-320v-320zM325.568 605.004h122.432v320h-64v-256h-256v-64h197.568zM157.416 87.858l-2.558 2.558c-36.368 36.366-58.862 86.606-58.862 142.1s22.494 105.734 58.862 142.1l150.4 150.4h-90.514l-105.144-105.152c-47.947-47.947-77.602-114.185-77.602-187.349s29.656-139.402 77.602-187.349l2.556-2.558c47.981-47.875 114.209-77.48 187.352-77.48s139.371 29.604 187.357 77.484l9.135 9.135v90.51l-54.4-54.4c-36.39-36.308-86.619-58.76-142.092-58.76s-105.702 22.452-142.096 58.764l0.004-0.004zM914.4 844.844l-2.556 2.556c-103.306 103.308-271.4 103.304-374.704 0l-9.14-9.138v-90.51l54.4 54.4c36.391 36.31 86.621 58.763 142.095 58.763s105.705-22.453 142.099-58.767l2.554-2.554c36.368-36.366 58.862-86.606 58.862-142.1s-22.494-105.734-58.862-142.1l-150.4-150.4h90.506l105.146 105.152c47.947 47.947 77.602 114.185 77.602 187.349s-29.656 139.402-77.602 187.349v0z" />
<glyph unicode="&#xe926;" glyph-name="browser" d="M944 832h-864c-26.497-0.032-47.968-21.503-48-47.997v-768.003c0.032-26.497 21.503-47.968 47.997-48h864.003c26.497 0.032 47.968 21.503 48 47.997v768.003c-0.032 26.497-21.503 47.968-47.997 48h-0.003zM96 768h192v-144h-192zM928 32h-832v528h832zM928 624h-576v144h576z" />
<glyph unicode="&#xe927;" glyph-name="brush" d="M965.298 897.94v0c-17.691 18.099-42.35 29.322-69.631 29.322-23.534 0-45.118-8.352-61.948-22.254l0.165 0.132-463.068-383.74c-3.438 0.154-6.872 0.26-10.294 0.26-0.108 0-0.235 0-0.363 0-100.605 0-185.975-65.229-216.125-155.702l-0.464-1.608-106.97-327.124c-1.683-4.981-2.654-10.717-2.654-16.68 0-29.63 23.977-53.66 53.588-53.746h0.008c6.008 0.005 11.785 0.989 17.181 2.801l-0.381-0.111 327.124 106.966c92.081 30.612 157.31 115.981 157.31 216.585 0 0.126 0 0.253 0 0.379v-0.020c0 5.036-0.19 10.096-0.524 15.15l381.986 460.116c13.928 16.643 22.386 38.279 22.386 61.89 0 26.209-10.422 49.985-27.348 67.407l0.023-0.023zM411.572 137.292l-307.828-100.66 100.656 307.826c22.030 66.261 83.462 113.2 155.857 113.2 0.093 0 0.185 0 0.278 0h-0.014c4.542 0 9.116-0.2 13.684-0.57l150-150c0.376-4.562 0.568-9.136 0.568-13.684 0-0.078 0-0.17 0-0.262 0-72.393-46.939-133.824-112.043-155.516l-1.157-0.334zM921 809.546l-366.234-441.128-121.566 121.564 441.518 365.884c5.65 4.714 12.988 7.576 20.995 7.576 18.159 0 32.88-14.721 32.88-32.88 0-8.016-2.869-15.362-7.635-21.068l0.042 0.052z" />
<glyph unicode="&#xe928;" glyph-name="bug" d="M832 537.2l160.048 57.41-0.048 141.4-64-0.024 0.034-96.346-132.578-47.556-91.456-0.012v61.928c0 0.055 0 0.121 0 0.186 0 46.879-16.704 89.856-44.484 123.305l0.256-0.317 86.258 86.826h85.678v64h-112.308l-107.98-108.688c-28.851 18.009-63.889 28.688-101.42 28.688-36.782 0-71.169-10.257-100.457-28.066l0.857 0.484-106.112 107.682-112.318-0.1 0.060-64 85.496 0.076 84.054-85.296c-28.344-33.394-45.58-76.991-45.58-124.613 0-0.059 0-0.118 0-0.176v0.009-61.988l-86.47-0.012-133.6 47.588v96.344h-64v-141.484l160.070-57.020 0.016-169.428h-160.016v-64h160.020v-16.022c0-0.095 0-0.208 0-0.321 0-39.347 7.113-77.034 20.123-111.843l-0.723 2.206-179.42-69.144v-140.876h64v96.952l143.458 55.284c57.177-92.068 157.742-152.457 272.411-152.457 88.632 0 168.837 36.078 226.73 94.35l0.017 0.017c17.144 17.174 32.369 36.273 45.32 56.942l0.79 1.352 143.274-55.454v-96.986h64v140.842l-179.228 69.358c12.18 32.41 19.23 69.868 19.23 108.973 0 0.431-0.001 0.863-0.003 1.294v-0.067 15.6h160v64h-160zM380 654c0 71.797 58.203 130 130 130s130-58.203 130-130v0-61.938l-260-0.040zM256.022 287.98l-0.022 240.020h223.936v-494.286c-126.022 15.59-223.914 123.668-223.914 254.266zM768 288.326c0-0.003 0-0.006 0-0.009 0-130.239-97.042-237.814-222.763-254.361l-1.301-0.14v494.184l224.064 0.072z" />
<glyph unicode="&#xe929;" glyph-name="bullhorn" d="M858.018 927.99l-507.148-239.99h-318.87v-423.466l104.382-296.534h229.31l-93.12 256h71.694l518.112-256.144h129.472l0.166 960.134zM320 288h-112.052l0.122-73.898 66.238-182.102h-92.6l-85.708 243.468v348.532h224zM384.25 632.99l351.75 166.456v-697.718l-351.75 173.898zM927.862 31.856h-50.526l-77.336 38.232v759.642l72.4 34.26h55.6z" />
<glyph unicode="&#xe92a;" glyph-name="calculator" d="M944 880h-864c-26.497-0.032-47.968-21.503-48-47.997v-768.003c0.032-26.497 21.503-47.968 47.997-48h864.003c26.497 0.032 47.968 21.503 48 47.997v768.003c-0.032 26.497-21.503 47.968-47.997 48h-0.003zM928 80h-832v736h832zM304 480h64v80h80v64h-80v80h-64v-80h-80v-64h80v-80zM392.568 389.822l-56.568-56.568-56.568 56.568-45.254-45.254 56.568-56.568-56.568-56.568 45.254-45.254 56.568 56.568 56.568-56.568 45.254 45.254-56.568 56.568 56.568 56.568-45.254 45.254zM576 624h224v-64h-224v64zM576 384h224v-64h-224v64zM576 256h224v-64h-224v64z" />
<glyph unicode="&#xe92b;" glyph-name="calendar" d="M944 784h-176v112h-64v-112h-384v112h-64v-112h-176c-26.497-0.032-47.968-21.503-48-47.997v-672.003c0.032-26.497 21.503-47.968 47.997-48h864.003c26.497 0.032 47.968 21.503 48 47.997v672.003c-0.032 26.497-21.503 47.968-47.997 48h-0.003zM928 80h-832v640h160v-80h64v80h384v-80h64v80h160zM224 528h64v-64h-64v64zM400 528h64v-64h-64v64zM560 528h64v-64h-64v64zM736 528h64v-64h-64v64zM224 384h64v-64h-64v64zM400 384h64v-64h-64v64zM560 384h64v-64h-64v64zM736 384h64v-64h-64v64zM224 240h64v-64h-64v64zM400 240h64v-64h-64v64zM560 240h64v-64h-64v64zM736 240h64v-64h-64v64z" />
<glyph unicode="&#xe92c;" glyph-name="camera" d="M943.986 736h-178.4l-32.484 93.504c-8.97 25.236-32.639 42.984-60.456 43h-322.164c-0.004 0-0.009 0-0.014 0-27.962 0-51.734-17.937-60.438-42.933l-0.136-0.449-31.694-93.122h-178.2c-26.497-0.031-47.969-21.503-48-47.997v-624.003c0.031-26.497 21.503-47.969 47.997-48h863.989c26.497 0.031 47.969 21.503 48 47.997v624.003c-0.031 26.497-21.503 47.969-47.997 48h-0.003zM927.986 80h-831.972v592h208.024l46.444 136.5h322.162l47.42-136.5h207.922zM512 624c-125.921 0-228-102.079-228-228s102.079-228 228-228c125.921 0 228 102.079 228 228v0c-0.148 125.861-102.138 227.852-227.985 228h-0.015zM512 232c-90.575 0-164 73.425-164 164s73.425 164 164 164c90.575 0 164-73.425 164-164v0c-0.106-90.532-73.468-163.894-163.99-164h-0.010z" />
<glyph unicode="&#xe92d;" glyph-name="caret-bottom" d="M512.572 63.286l-479.906 539.618v69.096h959.334v-72.9zM113.784 608l398.932-448.574 401.368 448.574z" />
<glyph unicode="&#xe92e;" glyph-name="caret-left" d="M784-32h-72.9l-535.816 479.428 539.622 479.906h69.094zM271.426 447.284l448.574-401.368v800.3z" />
<glyph unicode="&#xe92f;" glyph-name="caret-right" d="M360.9-32h-72.9v959.334h69.094l539.622-479.906zM352 846.216v-800.3l448.574 401.368z" />
<glyph unicode="&#xe930;" glyph-name="caret-top" d="M991.988 224.012h-959.332v72.898l479.428 535.816 479.904-539.618zM110.574 288.012h800.298l-398.934 448.574z" />
<glyph unicode="&#xe931;" glyph-name="cart" d="M320 768v-64h608v-126.69l-71-225.31h-557.136l-80 576.078h-187.864v-64h132.136l80-576.078h659.8l88.064 279.466v200.534h-672zM353.968 223.39c-70.659-0.083-127.917-57.341-128-127.992v-0.008c0-70.692 57.308-128 128-128s128 57.308 128 128v0 0c-0.082 70.659-57.34 127.918-127.992 128h-0.008zM353.968 31.39c-35.346 0-64 28.654-64 64s28.654 64 64 64c35.346 0 64-28.654 64-64v0c-0.043-35.329-28.671-63.957-63.996-64h-0.004zM801.968 223.39c-70.659-0.083-127.917-57.341-128-127.992v-0.008c0-70.692 57.308-128 128-128s128 57.308 128 128v0 0c-0.082 70.659-57.34 127.918-127.992 128h-0.008zM801.968 31.39c-35.346 0-64 28.654-64 64s28.654 64 64 64c35.346 0 64-28.654 64-64v0c-0.043-35.329-28.671-63.957-63.996-64h-0.004z" />
<glyph unicode="&#xe932;" glyph-name="chart" d="M248 688h-176c-22.081-0.026-39.974-17.919-40-39.997v-640.003c0.026-22.081 17.919-39.974 39.997-40h176.003c22.081 0.026 39.974 17.919 40 39.997v640.003c-0.026 22.081-17.919 39.974-39.997 40h-0.003zM224 32h-128v592h128zM600 480h-176c-22.081-0.026-39.974-17.919-40-39.997v-432.003c0.026-22.081 17.919-39.974 39.997-40h176.003c22.081 0.026 39.974 17.919 40 39.997v432.003c-0.026 22.081-17.919 39.974-39.997 40h-0.003zM576 32h-128v384h128zM952 928h-176c-22.081-0.026-39.974-17.919-40-39.997v-880.003c0.026-22.081 17.919-39.974 39.997-40h176.003c22.081 0.026 39.974 17.919 40 39.997v880.003c-0.026 22.081-17.919 39.974-39.997 40h-0.003zM928 32h-128v832h128z" />
<glyph unicode="&#xe933;" glyph-name="chat" d="M944.166 671.82h-608.166c-26.497-0.031-47.969-21.503-48-47.997v-415.823c0.032-26.497 21.503-47.968 47.997-48h464.003l110.118-192h82.048v655.82c-0.031 26.497-21.503 47.969-47.997 48h-0.003zM928.166 68.968l-90.068 155.032h-486.098v383.82h576.166zM96 324.914v538.906h575.666v-127.82h64v143.82c-0.031 26.497-21.503 47.969-47.997 48h-607.669c-26.497-0.031-47.969-21.503-48-47.997v-655.823h82.040l109.96 192v48h-48z" />
<glyph unicode="&#xe934;" glyph-name="check" d="M395.822 54.146l-14.76 15.028-7.878 7.8-172.4 172.4 0.104 0.11-167.328 167.332 195.24 195.226 167.13-167.13 398.534 398.546 195.226-195.228-421.064-421.278zM290.892 249.782l104.918-104.92 0.2 0.2 0.108-0.106 104.622 104.62 22.518 22.736 375.924 375.918-104.718 104.718-398.544-398.548-167.12 167.136-104.718-104.72 166.918-166.926z" />
<glyph unicode="&#xe935;" glyph-name="chevron-bottom" d="M512.89 91.276l-22.842 22.626-171.616 171.618 0.108 0.106-285.8 285.8 194.26 194.238 285.8-285.8 285.8 285.8 194.22-194.244-308.31-308.528zM512.676 181.784l0.108-0.106 103.672 103.67 22.69 22.906 263.166 263.166-103.736 103.736-285.8-285.8-285.8 285.8-103.722-103.736 285.694-285.906z" />
<glyph unicode="&#xe936;" glyph-name="chevron-left" d="M588.466-30.254l-478.81 478.806 22.52 22.734 171 171 0.11-0.108 285.18 285.194 193.828-193.826-284.988-284.988 284.988-284.988zM303.574 344.934l22.534-22.318 262.358-262.362 103.318 103.316-284.984 284.988 284.984 284.988-103.318 103.318-388.516-388.306z" />
<glyph unicode="&#xe937;" glyph-name="chevron-right" d="M365.638-31.856l-194.536 194.54 286.35 286.35-286.35 286.35 194.536 194.54 480.988-480.774-22.626-22.852-171.8-171.8-0.11 0.108zM261.612 162.684l104.026-104.028 390.594 390.378-104.254 104.256-22.616 22.4-263.724 263.722-104.026-104.028 286.35-286.35z" />
<glyph unicode="&#xe938;" glyph-name="chevron-top" d="M798.916 117.742l-285.972 285.97-285.972-285.97-194.34 194.338 480.304 480.52 10.964-11.062 11.78-11.668 171.814-171.818-0.11-0.106 285.87-285.866zM123.142 312.080l103.83-103.83 285.972 285.974 285.972-285.974 103.83 103.83-389.906 389.908-103.732-103.736-22.622-22.836z" />
<glyph unicode="&#xe939;" glyph-name="circle-check" d="M850.144 786.144c-86.411 86.411-205.786 139.857-337.644 139.857-263.716 0-477.501-213.784-477.501-477.501 0-131.858 53.446-251.233 139.857-337.644v0c86.411-86.411 205.786-139.857 337.644-139.857 263.716 0 477.501 213.784 477.501 477.501 0 131.858-53.446 251.233-139.857 337.644v0zM512.5 35c-228 0-413.5 185.496-413.5 413.5s185.496 413.5 413.5 413.5 413.5-185.496 413.5-413.5-185.496-413.5-413.5-413.5zM440.54 348.384l-146.826 146.824-45.254-45.254 192.080-192.080 335 334.998-45.256 45.254-289.744-289.742z" />
<glyph unicode="&#xe93a;" glyph-name="circle-x" d="M991.93 446.73c0.001 0.396 0.002 0.865 0.002 1.335 0 127.567-50.245 243.399-132.025 328.784l0.163-0.171q-4.12 4.326-8.358 8.564c-86.633 86.633-206.315 140.216-338.512 140.216s-251.88-53.584-338.512-140.217v0q-4.238-4.24-8.358-8.564c-81.616-85.214-131.86-201.045-131.86-328.611 0-0.47 0.001-0.94 0.002-1.409v0.073c-0.001-0.398-0.002-0.868-0.002-1.339 0-127.566 50.245-243.398 132.023-328.783l-0.164 0.172q4.118-4.322 8.358-8.564c86.633-86.633 206.315-140.216 338.512-140.216s251.88 53.584 338.512 140.217v0q4.24 4.24 8.358 8.564c81.617 85.214 131.862 201.046 131.862 328.613 0 0.469-0.001 0.938-0.002 1.407v-0.072zM719.472 87.026c-15.142-8.934-33.026-17.732-51.578-25.222l-2.774-0.99q-4.706-1.86-9.468-3.6-9.526-3.494-19.26-6.532-4.866-1.514-9.784-2.916-9.834-2.8-19.86-5.122c-28.105-6.761-60.373-10.638-93.547-10.638s-65.442 3.877-96.376 11.203l2.829-0.565q-10.026 2.322-19.862 5.122-4.916 1.4-9.784 2.916-9.732 3.036-19.258 6.532-4.764 1.746-9.47 3.6c-21.325 8.48-39.208 17.278-56.308 27.269l1.958-1.057q-4.344 2.502-8.618 5.1c-120.598 73.925-199.835 205.009-199.835 354.6s79.237 280.675 198.030 353.57l1.805 1.030q4.274 2.6 8.618 5.1 17.366 10 35.752 18.334 13.776 6.238 28.068 11.486 9.522 3.494 19.258 6.53 4.87 1.518 9.784 2.918 9.834 2.8 19.862 5.12c28.105 6.761 60.373 10.638 93.547 10.638s65.442-3.877 96.376-11.203l-2.829 0.565q10.022-2.318 19.86-5.12 4.918-1.4 9.784-2.918 9.734-3.032 19.26-6.53 14.286-5.242 28.068-11.486 18.366-8.316 35.752-18.334 4.342-2.498 8.618-5.1c120.598-73.925 199.835-205.009 199.835-354.6s-79.237-280.675-198.030-353.57l-1.805-1.030q-4.274-2.598-8.618-5.1zM719.324 607.6l-45.254 45.254-160.87-160.87-161.038 161.040-45.256-45.254 161.040-161.040-160.868-160.87 45.254-45.254 160.868 160.868 161.040-161.038 45.256 45.254-161.040 161.040 160.868 160.87z" />
<glyph unicode="&#xe93b;" glyph-name="clipboard" d="M864 848h-112v-64h96v-752h-672v752h96v64h-112c-26.497-0.032-47.968-21.503-48-47.997v-784.003c0.032-26.497 21.503-47.968 47.997-48h704.003c26.497 0.032 47.968 21.503 48 47.997v784.003c-0.032 26.497-21.503 47.968-47.997 48h-0.003zM384 680h256c26.497 0.032 47.968 21.503 48 47.997v200.003h-352v-200c0.032-26.497 21.503-47.968 47.997-48h0.003zM400 864h224v-120h-224z" />
<glyph unicode="&#xe93c;" glyph-name="clock" d="M852.53 785.558c-86.809 86.993-206.833 140.813-339.428 140.813-264.821 0-479.5-214.679-479.5-479.5 0-132.594 53.819-252.618 140.803-339.418l0.008-0.008c86.735-86.552 206.462-140.073 338.688-140.073 264.821 0 479.5 214.679 479.5 479.5 0 132.226-53.521 251.952-140.080 338.695l0.008-0.008zM513.47 31c-229.106 0-415.5 186.4-415.5 415.5s186.394 415.5 415.5 415.5 415.5-186.4 415.5-415.5-186.392-415.5-415.5-415.5zM544 768h-64v-356.22l231.226-109.898 27.474 57.806-194.7 92.534v315.778z" />
<glyph unicode="&#xe93d;" glyph-name="cloud" d="M765.52 96h-493.52c-61.464 0-122.742 25.45-168.122 69.824-46.442 45.414-72.018 104.7-72.018 166.938 0.049 61.507 25.469 117.066 66.359 156.787l0.053 0.051c33.423 32.685 76.25 55.885 124.047 65.165l1.541 0.249v4.986c0 158.8 129.2 288 288 288s288-129.2 288-288v-2.906c111.432-15.878 192-107.458 192-224.332 0-62.54-22.75-121.44-64.062-165.854-40.246-43.657-97.718-70.909-161.555-70.909-0.254 0-0.508 0-0.762 0.001h0.039zM511.86 784c-123.654-0.145-223.856-100.347-224-223.986v-62.824l-29.728-2.118c-91-6.478-162.272-77.774-162.272-162.31 0-92.032 82.308-172.762 176.14-172.762h493.52c91.030 0 162.34 75.886 162.34 172.762 0 93.132-67.462 161.582-160.4 162.758l-31.6 0.4v64.080c-0.145 123.654-100.347 223.856-223.986 224h-0.014z" />
<glyph unicode="&#xe93e;" glyph-name="cloud-download" d="M544 92.864v451.136h-64v-451.136l-103.764 103.762-45.256-45.252 181.020-181.022 181.020 181.022-45.256 45.252-103.764-103.762zM800 640c0 158.8-129.2 288-288 288s-288-129.2-288-288c-106.039 0-192-85.961-192-192s85.961-192 192-192v0h160v64h-160c-70.692 0-128 57.308-128 128s57.308 128 128 128v0h64v64c0 123.712 100.288 224 224 224s224-100.288 224-224v0-64h64c70.692 0 128-57.308 128-128s-57.308-128-128-128v0h-160v-64h160c106.039 0 192 85.961 192 192s-85.961 192-192 192v0z" />
<glyph unicode="&#xe93f;" glyph-name="cloud-upload" d="M692.462 390.508l-180.384 180.384-180.384-180.384 45.254-45.254 103.13 103.13v-480.384h64v480.384l103.13-103.13 45.254 45.254zM800 637.094v2.906c0 158.8-129.2 288-288 288s-288-129.2-288-288v-4.982c-49.338-9.531-92.165-32.732-125.633-65.462l0.045 0.044c-40.943-39.772-66.363-95.331-66.412-156.829v-0.009c0-62.238 25.576-121.524 72.020-166.938 45.38-44.374 106.656-69.824 168.12-69.824h127.86v64h-127.86c-93.832 0-176.14 80.73-176.14 172.762 0 84.536 71.28 155.832 162.274 162.31l29.726 2.118v62.81c0 123.712 100.288 224 224 224s224-100.288 224-224v0-64.080l31.6-0.4c92.944-1.176 160.4-69.626 160.4-162.758 0-96.876-71.308-172.762-162.34-172.762h-141.66v-64h141.66c0.215-0.001 0.469-0.001 0.723-0.001 63.838 0 121.31 27.252 161.419 70.757l0.138 0.152c41.31 44.414 64.060 103.314 64.060 165.854 0 116.874-80.568 208.454-192 224.332z" />
<glyph unicode="&#xe940;" glyph-name="cloudy" d="M799.334 430.25v7.626c0 158.8-129.2 288-288 288-4.4 0-8.782-0.114-13.138-0.312-15.799 114.897-113.335 202.448-231.319 202.448-128.891 0-233.378-104.487-233.378-233.378 0-113.955 81.674-208.834 189.678-229.293l1.454-0.229c-0.844-8.968-1.296-18.050-1.296-27.236v-7.626c-109.865-20.288-191.984-115.346-191.984-229.584 0-128.815 104.413-233.242 233.222-233.266h493.52c128.822 0.010 233.248 104.443 233.248 233.266 0 114.246-82.131 209.309-190.569 229.367l-1.437 0.221zM97.5 694.624c0 0.004 0 0.008 0 0.013 0 93.532 75.822 169.354 169.354 169.354 86.155 0 157.284-64.334 167.968-147.582l0.088-0.844c-93.363-26.517-166.247-96.294-196.58-185.714l-0.6-2.038c-80.114 14.474-140.11 83.619-140.23 166.799v0.013zM758.092 31.4h-493.518c-93.466 0.002-169.235 75.772-169.235 169.238 0 90.723 71.386 164.773 161.051 169.043l0.383 0.015 30.554 1.38v66.8c0 123.712 100.288 224 224 224s224-100.288 224-224v0-66.8l30.554-1.38c90.049-4.285 161.435-78.335 161.435-169.058 0-93.466-75.768-169.236-169.234-169.238v0z" />
<glyph unicode="&#xe941;" glyph-name="code" d="M777.368 723.644l-50.52-39.288 183.728-236.244-183.84-236.472 50.528-39.28 214.382 275.76-214.278 275.524zM246.742 723.646l-214.388-275.632 214.274-275.652 50.53 39.276-183.734 236.364 183.834 236.352-50.516 39.292zM356.884-32h65.94l238.234 960h-65.94l-238.234-960z" />
<glyph unicode="&#xe942;" glyph-name="cog" d="M510 624c-97.202 0-176-78.798-176-176s78.798-176 176-176c97.202 0 176 78.798 176 176v0c-0.114 97.156-78.844 175.886-175.989 176h-0.011zM510 336c-61.856 0-112 50.144-112 112s50.144 112 112 112c61.856 0 112-50.144 112-112v0c-0.073-61.827-50.174-111.927-111.993-112h-0.007zM949.084 315.366l-63.532 52.304c5.371 24.146 8.448 51.879 8.448 80.33s-3.077 56.184-8.917 82.884l0.469-2.554 63.532 52.302c8.951 7.369 14.615 18.45 14.615 30.855 0 7.378-2.004 14.288-5.496 20.215l0.102-0.186-65.226 112.974c-7.011 12.053-19.867 20.026-34.584 20.026-5.065 0-9.909-0.944-14.366-2.666l0.272 0.093-77.122-28.894c-38.761 35.127-85.172 62.606-136.366 79.604l-2.712 0.78-13.526 81.15c-3.216 19.071-19.607 33.418-39.35 33.418-0.036 0-0.072 0-0.108 0h-130.438c-0.031 0-0.068 0-0.105 0-19.744 0-36.137-14.35-39.318-33.19l-0.033-0.234-13.522-81.144c-53.906-17.778-100.319-45.257-139.405-80.674l0.325 0.29-77.134 28.898c-4.181 1.626-9.020 2.568-14.079 2.568-14.72 0-27.577-7.975-34.487-19.84l-0.102-0.19-65.224-112.974c-3.39-5.74-5.393-12.648-5.393-20.024 0-12.404 5.664-23.484 14.546-30.797l0.069-0.055 63.532-52.304c-5.371-24.146-8.448-51.879-8.448-80.33s3.077-56.184 8.917-82.884l-0.469 2.554-63.532-52.302c-8.952-7.368-14.616-18.449-14.616-30.853 0-7.378 2.004-14.288 5.497-20.215l-0.102 0.186 65.226-112.976c7.011-12.053 19.867-20.026 34.584-20.026 5.065 0 9.909 0.944 14.366 2.666l-0.272-0.093 77.122 28.894c38.761-35.127 85.174-62.606 136.368-79.604l2.712-0.78 13.526-81.15c3.216-19.071 19.607-33.418 39.35-33.418 0.035 0 0.071 0 0.106 0h130.439c0.031 0 0.068 0 0.105 0 19.744 0 36.137 14.35 39.318 33.19l0.033 0.234 13.526 81.144c53.906 17.778 100.319 45.257 139.405 80.674l-0.325-0.29 77.13-28.898c4.181-1.626 9.020-2.568 14.080-2.568 14.72 0 27.577 7.975 34.486 19.84l0.102 0.19 65.222 112.97c3.391 5.741 5.395 12.65 5.395 20.028 0 12.404-5.664 23.485-14.546 30.797l-0.069 0.055zM847.82 201.122l-96.22 36.048-14.568-14.668c-38.981-39.282-88.054-68.494-143.008-83.427l-2.242-0.519-20-5.272-16.89-101.284h-89.784l-16.88 101.284-20 5.272c-57.195 15.452-106.268 44.664-145.23 83.926l-0.020 0.020-14.568 14.668-96.23-36.048-44.892 77.756 79.256 65.246-5.4 19.944c-7.074 25.171-11.14 54.076-11.14 83.932s4.066 58.761 11.675 86.193l-0.535-2.261 5.4 19.942-79.256 65.25 44.892 77.754 96.22-36.048 14.568 14.668c38.981 39.282 88.054 68.494 143.008 83.427l2.242 0.519 20 5.272 16.89 101.284h89.784l16.88-101.284 20-5.272c57.195-15.452 106.268-44.664 145.23-83.926l0.020-0.020 14.568-14.668 96.22 36.048 44.892-77.754-79.256-65.25 5.4-19.942c7.074-25.171 11.14-54.076 11.14-83.932s-4.066-58.761-11.675-86.193l0.535 2.261-5.4-19.944 79.256-65.246z" />
<glyph unicode="&#xe943;" glyph-name="collapse-down" d="M32 32h960v-64h-960v64zM32 928v-256h960v256zM928 736h-832v128h832zM832 576h-640v-75.72l319.846-338.728 320.154 334.606zM512.154 254.448l-243.198 257.552h489.626z" />
<glyph unicode="&#xe944;" glyph-name="collapse-left" d="M32 928h64v-960h-64v960zM736 928v-960h256v960zM928 32h-128v832h128zM225.552 448.154l334.606-320.154h79.842v640h-75.72zM576 201.418l-257.552 246.428 257.552 243.198z" />
<glyph unicode="&#xe945;" glyph-name="collapse-right" d="M928 928h64v-960h-64v960zM32-32h256v960h-256zM96 864h128v-832h-128zM384 768v-640h75.72l338.728 319.846-334.606 320.154zM448 204.956v489.626l257.552-246.428z" />
<glyph unicode="&#xe946;" glyph-name="collapse-up" d="M32 928h960v-64h-960v64zM32-32h960v256h-960zM96 160h832v-128h-832zM512.152 734.448l-320.152-334.606v-79.842h640v75.72zM265.418 384l246.43 257.552 243.196-257.552z" />
<glyph unicode="&#xe947;" glyph-name="command" d="M832 288h-96v320h96c88.366 0 160 71.634 160 160s-71.634 160-160 160c-88.366 0-160-71.634-160-160v0-96h-320v96c0 88.366-71.634 160-160 160s-160-71.634-160-160c0-88.366 71.634-160 160-160v0h96v-320h-96c-88.366 0-160-71.634-160-160s71.634-160 160-160c88.366 0 160 71.634 160 160v0 96h320v-96c0-88.366 71.634-160 160-160s160 71.634 160 160c0 88.366-71.634 160-160 160v0zM736 768c0 53.019 42.981 96 96 96s96-42.981 96-96c0-53.019-42.981-96-96-96v0h-96zM192 672c-53.019 0-96 42.981-96 96s42.981 96 96 96c53.019 0 96-42.981 96-96v0-96zM288 128c0-53.019-42.981-96-96-96s-96 42.981-96 96c0 53.019 42.981 96 96 96v0h96zM352 288v320h320v-320zM832 32c-52.994 0.063-95.937 43.006-96 95.994v96.006h96c53.019 0 96-42.981 96-96s-42.981-96-96-96v0z" />
<glyph unicode="&#xe948;" glyph-name="comment-square" d="M992-38h-94.458l-139.044 256h-678.498c-26.497 0.031-47.969 21.503-48 47.997v608.003c0.032 26.497 21.503 47.968 47.997 48h864.003c26.497-0.032 47.968-21.503 48-47.997v-0.003zM96 282h700.568l131.432-241.984v817.984h-832z" />
<glyph unicode="&#xe949;" glyph-name="compass" d="M512.058 928c-265.098 0-480-214.904-480-480s214.902-480 480-480 480 214.904 480 480-214.904 480-480 480zM806.214 153.844c-67.821-68.032-159.129-112.616-260.728-120.554l-1.43-0.090v126.8h-64v-126.8c-203.941 15.99-365.641 177.064-382.517 379.29l-0.101 1.51h126.562v64h-126.872c15.1 205.521 177.613 368.68 381.488 384.709l1.44 0.091v-126.8h64v126.8c205.322-16.107 367.843-179.273 382.852-383.437l0.080-1.363h-126.988v-64h126.676c-8.458-102.269-52.891-192.801-120.451-260.145l-0.011-0.011zM602.896 539.542l-238.176 119.29c-6.26 3.203-13.657 5.080-21.491 5.080-26.51 0-48-21.49-48-48 0-7.822 1.871-15.206 5.189-21.731l-0.126 0.273 119.138-238.38 238.102-118.848c6.246-3.185 13.622-5.051 21.434-5.051 26.51 0 48 21.49 48 48 0 7.827-1.873 15.216-5.196 21.744l0.126-0.273zM467.128 403.8l-88.11 176.296 176.182-88.238 88-175.95z" />
<glyph unicode="&#xe94a;" glyph-name="contrast" d="M512 928c-265.096 0-480-214.904-480-480s214.904-480 480-480 480 214.904 480 480-214.904 480-480 480zM96 448q0 19.824 1.842 39.338l370.158-207.216v-106.654l-366.222 205.014c-3.676 20.864-5.778 44.886-5.778 69.398 0 0.042 0 0.084 0 0.126v-0.006zM140.6 635.618l327.4-183.488v-98.662l-358.362 200.614c5.824 22.012 12.324 40.585 20.057 58.502l-1.029-2.678q5.534 13.094 11.934 25.712zM468 861.698v-160.786l-179.294 98.186c51.063 33.009 111.973 55.363 177.463 62.439l1.831 0.161zM233.042 756.612l234.958-128.668v-102.448l-294.172 164.866c13.887 19.207 28.332 36.122 44.015 51.799l0.001 0.001q7.44 7.438 15.198 14.45zM217.842 153.844c-37.043 36.941-67.131 80.834-88.145 129.558l-1.033 2.692c-0.728 1.718-1.4 3.448-2.114 5.172l341.45-191.144v-65.82c-98.453 10.615-185.109 54.29-250.145 119.531l-0.011 0.011zM806.154 153.844c-70.586-70.804-166.616-116.208-273.209-121.33l-0.945-0.036v831.044c221.058-10.772 396.209-192.621 396.209-415.378 0-114.959-46.648-219.022-122.047-294.294l-0.005-0.005z" />
<glyph unicode="&#xe94b;" glyph-name="copywriting" d="M32 832h960v-64h-960v64zM32 320h960v-64h-960v64zM32 640h656v-64h-656v64zM32 128.012h768v-64h-768v64zM928 128h64v-64h-64v64z" />
<glyph unicode="&#xe94c;" glyph-name="credit-card" d="M944 784h-864c-26.497-0.032-47.968-21.503-48-47.997v-640.003c0.032-26.497 21.503-47.968 47.997-48h864.003c26.497 0.032 47.968 21.503 48 47.997v640.003c-0.032 26.497-21.503 47.968-47.997 48h-0.003zM928 720v-128h-832v128zM96 112v352h832v-352zM176 304h128v-64h-128v64zM368 304h128v-64h-128v64z" />
<glyph unicode="&#xe94d;" glyph-name="crop" d="M992 882.744v45.256h-45.256l-80-80h-690.744v80h-64v-80h-80v-64h80v-736h736v-80h64v80h80v64h-80v690.744zM176 784h626.744l-626.744-626.744zM848 112h-626.744l626.744 626.744z" />
<glyph unicode="&#xe94e;" glyph-name="cursor" d="M680.644-32h-74l-211.946 326.056-330.698 132.278v74l786.894 369.354c4.978 2.392 10.823 3.789 16.994 3.789 22.091 0 40-17.909 40-40 0-3.631-0.484-7.149-1.391-10.494l0.065 0.28zM139.496 465.066l297.8-119.122 196.946-303 197.31 746.96z" />
<glyph unicode="&#xe94f;" glyph-name="cursor-move" d="M806.824 628.822l-45.254-45.254 103.764-103.764h-321.334v321.332l103.764-103.762 45.256 45.252-181.020 181.022-181.020-181.022 45.256-45.252 103.764 103.762v-321.332h-322.942l103.766 103.764-45.254 45.254-181.022-181.018 181.020-181.018 45.256 45.254-103.766 103.764h322.942v-322.94l-103.764 103.762-45.256-45.252 181.020-181.022 181.020 181.022-45.256 45.252-103.764-103.762v322.94h321.334l-103.766-103.764 45.256-45.254 181.018 181.018-181.018 181.018z" />
<glyph unicode="&#xe950;" glyph-name="dashboard" d="M864 934h-704c-70.692 0-128-57.308-128-128v0-704c0-70.692 57.308-128 128-128v0h704c70.692 0 128 57.308 128 128v0 704c0 70.692-57.308 128-128 128v0zM160 38c-35.33 0.041-63.959 28.67-64 63.996v704.004c0.041 35.33 28.67 63.959 63.996 64h240.004v-832zM928 102c-0.041-35.33-28.67-63.959-63.996-64h-400.004v271.334h464zM464 373.334v496.666h400c35.33-0.041 63.959-28.67 64-63.996v-432.67z" />
<glyph unicode="&#xe951;" glyph-name="data-transfer-download" d="M32 32h960v-64h-960v64zM790.626 361.374l-45.252 45.252-185.374-185.372v706.746h-64v-706.746l-185.374 185.372-45.252-45.252 262.626-262.628 262.626 262.628z" />
<glyph unicode="&#xe952;" glyph-name="data-transfer-upload" d="M32 928h960v-64h-960v64zM758.626 534.626l-262.626 262.628-262.626-262.628 45.252-45.252 185.374 185.372v-706.746h64v706.746l185.374-185.372 45.252 45.252z" />
<glyph unicode="&#xe953;" glyph-name="delete" d="M454.626 233.374l169.374 169.372 169.374-169.372 45.252 45.252-169.372 169.374 169.372 169.374-45.252 45.252-169.374-169.372-169.374 169.372-45.252-45.252 169.372-169.374-169.372-169.374 45.252-45.252zM944 832h-554.712c-13.704-0.023-26.063-5.764-34.821-14.964l-0.019-0.020-322.448-340.262v-57.508l322.448-340.262c8.777-9.22 21.136-14.961 34.836-14.984h554.716c26.497 0.032 47.968 21.503 48 47.997v672.003c-0.032 26.497-21.503 47.968-47.997 48h-0.003zM928 128h-531.832l-300.168 316.754v6.492l300.168 316.754h531.832z" />
<glyph unicode="&#xe954;" glyph-name="dial" d="M851.556 675.058c-86.772 86.771-206.647 140.441-339.056 140.441-264.82 0-479.499-214.679-479.5-479.498v0h64c0 229.108 186.4 415.5 415.5 415.5s415.5-186.392 415.5-415.5h64c0.001 0.387 0.002 0.845 0.002 1.303 0 132-53.691 251.461-140.425 337.734l-0.021 0.021zM512.5 630c-160.458 0-291-130.542-291-291s130.542-291 291-291 291 130.542 291 291-130.542 291-291 291zM512.5 112c-0.001 0-0.003 0-0.004 0-125.369 0-227 101.631-227 227 0 113.963 83.98 208.311 193.431 224.535l1.239 0.151v-213.436h64v213.53c111.005-16.081 195.331-110.583 195.331-224.78 0-125.368-101.63-226.998-226.997-227v0z" />
<glyph unicode="&#xe955;" glyph-name="document" d="M461.254 928h-365.254v-960h832v493.254zM480 818.746l338.746-338.746h-338.746zM160 32v832h256v-448h448v-384zM272 736h64v-64h-64v64zM272 608h64v-64h-64v64zM272 480h64v-64h-64v64zM272 320h496v-64h-496v64zM272 192h496v-64h-496v64z" />
<glyph unicode="&#xe956;" glyph-name="dollar" d="M512 928c-265.096 0-480-214.904-480-480s214.904-480 480-480 480 214.904 480 480-214.904 480-480 480zM806.156 153.844c-74.967-74.749-178.417-120.968-292.662-120.968-228.925 0-414.506 185.581-414.506 414.506s185.581 414.506 414.506 414.506c228.925 0 414.506-185.581 414.506-414.506 0-58.246-12.014-113.687-33.699-163.978l1.032 2.69c-22.046-51.416-52.135-95.309-89.168-132.24l-0.010-0.010zM584 480h-160c-39.765 0-72 32.235-72 72s32.235 72 72 72v0h264v64h-144.638v96h-64v-96h-55.362c-75.111 0-136-60.889-136-136s60.889-136 136-136v0h160c39.765 0 72-32.235 72-72s-32.235-72-72-72v0h-264v-64h159.362v-96h64v96h40.638c75.111 0 136 60.889 136 136s-60.889 136-136 136v0z" />
<glyph unicode="&#xe957;" glyph-name="double-quote-sans-left" d="M32 128h76.8l355.2 338.286v461.714h-432zM96 864h304v-370.286l-304-289.524zM560 928v-800h76.8l355.2 338.286v461.714zM928 493.714l-304-289.524v659.81h304z" />
<glyph unicode="&#xe958;" glyph-name="double-quote-sans-right" d="M915.2 928l-355.2-338.286v-461.714h432v800zM928 192h-304v370.286l304 289.514zM32 589.714v-461.714h432v800h-76.8zM400 192h-304v370.286l304 289.514z" />
<glyph unicode="&#xe959;" glyph-name="double-quote-serif-left" d="M20 631.254v-455.254c0.031-26.497 21.503-47.969 47.997-48h336.003c26.497 0.031 47.969 21.503 48 47.997v336.003c-0.031 26.497-21.503 47.969-47.997 48h-172.745l220.742 220.744v141.256h-141.252zM388 858v-50.746l-224-224v-87.254h224v-304h-304v412.744l253.258 253.256zM980 922h-141.252l-290.748-290.746v-455.254c0.031-26.497 21.503-47.969 47.997-48h336.003c26.497 0.031 47.969 21.503 48 47.997v336.003c-0.031 26.497-21.503 47.969-47.997 48h-172.745l220.742 220.744zM916 807.254l-224-224v-87.254h224v-304h-304v412.744l253.258 253.256h50.742z" />
<glyph unicode="&#xe95a;" glyph-name="double-quote-serif-right" d="M944 928h-336c-26.497-0.031-47.969-21.503-48-47.997v-336.003c0.031-26.497 21.503-47.969 47.997-48h176.003v-2.746l-224-224v-141.254h141.254l290.746 290.746v461.254c-0.031 26.497-21.503 47.969-47.997 48h-0.003zM928 445.254l-253.254-253.254h-50.746v50.746l224 224v93.254h-224v304h304zM416 928h-336c-26.497-0.031-47.969-21.503-48-47.997v-336.003c0.031-26.497 21.503-47.969 47.997-48h176.003v-2.746l-224-224v-141.254h141.254l290.746 290.746v461.254c-0.031 26.497-21.503 47.969-47.997 48h-0.003zM400 445.254l-253.254-253.254h-50.746v50.746l224 224v93.254h-224v304h304z" />
<glyph unicode="&#xe95b;" glyph-name="drop" d="M789.266 518.674l-250.316 390.978c-5.778 8.924-15.684 14.746-26.95 14.746s-21.172-5.822-26.874-14.621l-0.076-0.125-250.322-390.982c-41.557-55.858-66.529-126.199-66.529-202.373 0-0.315 0-0.63 0.001-0.945v0.049c0-189.57 154.226-343.8 343.8-343.8s343.8 154.226 343.8 343.8c0.001 0.267 0.001 0.584 0.001 0.9 0 76.175-24.975 146.517-67.182 203.284l0.647-0.911zM512 35.6c-154.28 0-279.8 125.516-279.8 279.8-0.001 0.226-0.001 0.492-0.001 0.759 0 62.283 20.517 119.773 55.162 166.082l-0.519-0.725q0.638 0.864 1.216 1.768l223.942 349.766 223.934-349.768q0.576-0.906 1.216-1.768c34.13-45.584 54.651-103.078 54.651-165.365 0-0.263 0-0.527-0.001-0.79v0.041c0-154.282-125.52-279.8-279.8-279.8z" />
<glyph unicode="&#xe95c;" glyph-name="eject" d="M32-32h960v256h-960zM96 160h832v-128h-832zM512 927.742l-480-531.43v-76.312h960v76.312zM107.122 384l404.878 448.258 404.878-448.258z" />
<glyph unicode="&#xe95d;" glyph-name="elevator" d="M192 322.732l335.848-353 336.152 348.688v81.58h-672zM792.050 336l-263.898-273.736-260.438 273.736zM528.152 926.264l-336.152-348.684v-81.58h672v77.268zM263.95 560l263.898 273.736 260.438-273.736z" />
<glyph unicode="&#xe95e;" glyph-name="ellipses" d="M160 592c-70.692 0-128-57.308-128-128s57.308-128 128-128c70.692 0 128 57.308 128 128v0c-0.082 70.659-57.34 127.918-127.992 128h-0.008zM160 400c-35.346 0-64 28.654-64 64s28.654 64 64 64c35.346 0 64-28.654 64-64v0c-0.041-35.33-28.67-63.959-63.996-64h-0.004zM864 592c-70.692 0-128-57.308-128-128s57.308-128 128-128c70.692 0 128 57.308 128 128v0c-0.082 70.659-57.34 127.918-127.992 128h-0.008zM864 400c-35.346 0-64 28.654-64 64s28.654 64 64 64c35.346 0 64-28.654 64-64v0c-0.041-35.33-28.67-63.959-63.996-64h-0.004zM512 592c-70.692 0-128-57.308-128-128s57.308-128 128-128c70.692 0 128 57.308 128 128v0c-0.082 70.659-57.34 127.918-127.992 128h-0.008zM512 400c-35.346 0-64 28.654-64 64s28.654 64 64 64c35.346 0 64-28.654 64-64v0c-0.041-35.33-28.67-63.959-63.996-64h-0.004z" />
<glyph unicode="&#xe95f;" glyph-name="energy" d="M640 544v384h-64.2l-447.048-608h271.248v-352h63.6l450 576zM255.248 384l320.752 436.222v-340.222h206.4l-318.4-407.542v311.542z" />
<glyph unicode="&#xe960;" glyph-name="envelope-closed" d="M32 736v-768h960v768zM96 672h832v-32l-416-312-416 312zM96 560l277.334-208-277.334-208zM928 32h-832v32l330.666 248 46.934-35.2c10.58-7.942 23.932-12.719 38.4-12.719s27.82 4.776 38.566 12.838l-0.166-0.12 46.932 35.2 330.668-248zM928 144l-277.334 208 277.334 208z" />
<glyph unicode="&#xe961;" glyph-name="envelope-letter" d="M800 665.6v190.4c-0.026 22.081-17.919 39.974-39.997 40h-496.003c-22.081-0.026-39.974-17.919-40-39.997v-190.403l-192-137.132v-528.468h960v528.468zM800 586.952l107.36-76.686-107.36-70.186zM288 832h448v-433.766l-114.332-74.756-93.156 48.304-101.528-49.014-138.984 84.382zM224 586.962v-140.962l-106.668 64.77zM96 448.85l262.288-159.25-262.288-126.618zM928 64h-832v27.914l431.488 208.304 400.512-207.672zM928 164.638l-241.108 125.020 241.108 157.646z" />
<glyph unicode="&#xe962;" glyph-name="envelope-open" d="M549.2 908.754c-10.33 7.452-23.243 11.919-37.2 11.919s-26.87-4.467-37.389-12.049l0.189 0.13-442.8-316.286v-624.468h960v624.468zM512 856.676l396.858-283.476-285.99-222.43-110.868 71.272-110.868-71.272-285.99 222.43zM928 32h-832v46.53l416 267.428 416-267.428zM96 507.016l248.060-192.936-248.060-159.466zM679.94 314.080l248.060 192.936v-352.4z" />
<glyph unicode="&#xe963;" glyph-name="equalizer" d="M192 667.95v260.050h-64v-260.050c-55.649-14.725-96.002-64.625-96.002-123.95s40.353-109.225 95.109-123.749l0.893-0.201v-452.050h64v452.050c55.649 14.725 96.002 64.625 96.002 123.95s-40.353 109.225-95.109 123.749l-0.893 0.201zM160 480c-35.346 0-64 28.654-64 64s28.654 64 64 64c35.346 0 64-28.654 64-64v0c-0.041-35.33-28.67-63.959-63.996-64h-0.004zM544 379.95v548.050h-64v-548.050c-55.649-14.725-96.002-64.625-96.002-123.95s40.353-109.225 95.109-123.749l0.893-0.201v-164.050h64v164.050c55.649 14.725 96.002 64.625 96.002 123.95s-40.353 109.225-95.109 123.749l-0.893 0.201zM512 192c-35.346 0-64 28.654-64 64s28.654 64 64 64c35.346 0 64-28.654 64-64v0c-0.041-35.33-28.67-63.959-63.996-64h-0.004zM896 795.95v132.050h-64v-132.050c-55.649-14.725-96.002-64.625-96.002-123.95s40.353-109.225 95.109-123.749l0.893-0.201v-580.050h64v580.050c55.649 14.725 96.002 64.625 96.002 123.95s-40.353 109.225-95.109 123.749l-0.893 0.201zM864 608c-35.346 0-64 28.654-64 64s28.654 64 64 64c35.346 0 64-28.654 64-64v0c-0.041-35.33-28.67-63.959-63.996-64h-0.004z" />
<glyph unicode="&#xe964;" glyph-name="euro" d="M508 928c-265.096 0-480-214.904-480-480s214.904-480 480-480 480 214.904 480 480-214.904 480-480 480zM802.156 153.844c-74.967-74.749-178.417-120.968-292.662-120.968-228.925 0-414.506 185.581-414.506 414.506s185.581 414.506 414.506 414.506c228.925 0 414.506-185.581 414.506-414.506 0-58.246-12.014-113.687-33.699-163.978l1.032 2.69c-22.046-51.416-52.135-95.309-89.168-132.24l-0.010-0.010zM295.238 544h-87.238v-64h70.068c-1.825-12.020-2.868-25.888-2.868-40s1.043-27.98 3.055-41.533l-0.187 1.533h-70.068v-64h87.238c42.526-103.944 142.828-175.867 259.945-176h100.817v64h-100.8c-81.113 0.058-151.766 44.783-188.7 110.904l-0.562 1.096h226.062v64h-249.072c-2.371 12.027-3.728 25.855-3.728 40s1.357 27.973 3.947 41.362l-0.219-1.362h249.072v64h-226.062c37.496 67.217 108.149 111.942 189.254 112h100.808v64h-100.8c-117.133-0.133-217.435-72.056-259.284-174.13l-0.678-1.87z" />
<glyph unicode="&#xe965;" glyph-name="excerpt" d="M32 272h960v-64h-960v64zM32 655.334h960v-64h-960v64zM32 464h656v-64h-656v64zM32 848h768v-64h-768v64zM32 80h64v-64h-64v64zM480 80h64v-64h-64v64zM256 80h64v-64h-64v64z" />
<glyph unicode="&#xe966;" glyph-name="expand-down" d="M32 928h960v-64h-960v64zM32-32h960v256h-960zM96 160h832v-128h-832zM832 768h-640v-75.72l319.846-338.728 320.154 334.606zM512.154 446.448l-243.198 257.552h489.626z" />
<glyph unicode="&#xe967;" glyph-name="expand-left" d="M928 928h64v-960h-64v960zM32-32h256v960h-256zM96 864h128v-832h-128zM417.552 448.154l334.606-320.154h79.842v640h-75.72zM768 201.418l-257.552 246.428 257.552 243.198z" />
<glyph unicode="&#xe968;" glyph-name="expand-right" d="M32 928h64v-960h-64v960zM736 928v-960h256v960zM928 32h-128v832h128zM192 768v-640h75.72l338.728 319.846-334.606 320.154zM256 204.956v489.626l257.552-246.428z" />
<glyph unicode="&#xe969;" glyph-name="expand-up" d="M32 26h960v-64h-960v64zM32 922v-256h960v256zM928 730h-832v128h832zM512.154 536.446l-320.154-334.604v-79.842h640v75.72zM265.418 186l246.428 257.552 243.198-257.552z" />
<glyph unicode="&#xe96a;" glyph-name="external-link" d="M800 32h-704v720h384v64h-448v-848h832v448h-64v-384zM608 928v-64h274.746l-505.372-505.374 45.252-45.252 505.374 505.372v-274.746h64v384h-384z" />
<glyph unicode="&#xe96b;" glyph-name="eye" d="M477.076 498.924h69.848v-69.848h-69.848v69.848zM512 670.618c-114.112 0-206.618-92.506-206.618-206.618s92.506-206.618 206.618-206.618c114.112 0 206.618 92.506 206.618 206.618v0c-0.133 114.058-92.56 206.485-206.605 206.618h-0.013zM512 321.382c-78.766 0-142.618 63.852-142.618 142.618s63.852 142.618 142.618 142.618c78.766 0 142.618-63.852 142.618-142.618v0c-0.092-78.729-63.889-142.526-142.609-142.618h-0.009zM794.444 698.272l-0.436 0.444c-155.5 155.498-408.516 155.498-564.016 0l-197.992-205.824v-57.784l197.992-205.824c72.222-72.063 171.911-116.624 282.008-116.624s209.786 44.561 282.015 116.631l-0.007-0.007 198 205.824v57.784zM928 460.892l-179.458-186.566c-130.494-130.26-342.59-130.26-473.084 0l-179.458 186.566v6.216l179.458 186.564c130.494 130.26 342.6 130.26 473.084 0l179.458-186.564z" />
<glyph unicode="&#xe96c;" glyph-name="eyedropper" d="M936 872l-8 8c-30.711 30.711-73.137 49.706-120 49.706s-89.29-18.995-120-49.706l-122.49-122.49-103.748 104.164-45.344-45.164 104.224-104.642-400-400c-54.434-54.147-88.121-129.104-88.121-211.929 0-0.287 0-0.574 0.001-0.861v0.044-82.922c0.026-26.607 21.587-48.17 48.191-48.2h66.747c0.24-0.001 0.525-0.001 0.809-0.001 82.826 0 157.783 33.688 211.918 88.11l407.613 407.613 111.69-112.136 45.342 45.164-111.82 112.268 122.988 122.982c30.711 30.711 49.705 73.137 49.705 120s-18.995 89.289-49.705 120v0zM314.952 101.376c-42.629-42.855-101.642-69.377-166.849-69.377-0.226 0-0.452 0-0.678 0.001h-50.899v67.128c-0.001 0.191-0.001 0.417-0.001 0.643 0 65.206 26.521 124.218 69.365 166.837l37.392 37.392h314.294zM580.61 367.034v0.966h-313.328l298.518 298.524 156.832-157.462zM890.746 677.254l-122.896-122.894-157.176 157.8 122.58 122.58c19.029 19.128 45.371 30.966 74.477 30.966 0.094 0 0.189 0 0.283 0h-0.015c0.082 0 0.179 0 0.276 0 29.098 0 55.431-11.836 74.448-30.956l8.005-8.005c19.129-19.129 30.96-45.555 30.96-74.745s-11.831-55.616-30.96-74.745v0z" />
<glyph unicode="&#xe96d;" glyph-name="file" d="M477.254 928h-397.254v-960h864v493.254zM496 818.746l338.746-338.746h-338.746zM144 32v832h288v-448h448v-384z" />
<glyph unicode="&#xe96e;" glyph-name="fire" d="M573.876-32h-184.2c-0.197 0-0.43-0.001-0.663-0.001-83.643 0-159.508 33.303-215.058 87.374l0.069-0.067c-56.089 53.977-91.386 129.215-92.884 212.703l-0.004 0.277q-0.068 3.672-0.070 7.4c0 180.668 108.414 276.17 204.066 360.43 22.734 20.026 44.2 38.942 63.77 58.506 28.176 28.176 43.846 55.274 40.574 80-5.476 41.378-43.548 64.778-43.548 64.778l41.092 82.2 26.33-8.776c37.442-12.482 199.174-90.686 247.558-219.042 23.98-63.616 17.080-128.542-20.508-192.98-11.232-19.256-22.6-37.932-33.6-56-82.714-135.852-148.050-243.158-55.658-430.662zM416 848c16-16 36.342-49.24 37.4-70.162 2.2-43.734-17.728-86.958-59.238-128.464-21-21-44.24-41.474-66.718-61.276-89.66-78.98-182.372-160.652-182.372-312.4q0-3.116 0.060-6.2c2.44-130.964 112.146-237.498 244.542-237.498h83.556c-75.744 192.116-0.458 315.744 78.904 446.088 10.842 17.8 22.056 36.222 32.986 54.958 27.786 47.636 33 92.828 15.902 138.158-27.008 71.648-129.34 146.372-185.022 176.796zM677.102-32h-21.75l-8.566 18.634c-44.256 96.282-56.75 186-38.19 274.26 16.274 77.4 53.612 145.62 97.116 220.424l19.086 32.816 29.114-24.364c14.5-12.134 142.322-121 165.412-205.658 0.578-2.116 1.134-4.248 1.668-6.37 4.766-18.112 7.503-38.905 7.503-60.337 0-57.775-19.888-110.904-53.192-152.916l0.391 0.511c-46.23-59.257-117.646-97.001-197.878-97.001-0.251 0-0.502 0-0.753 0.001h0.039zM741.582 415.14c-71.104-126.932-108.302-230.4-45.228-382.172 52.634 5.433 98.168 32.017 128.568 70.985l0.312 0.415c24.45 30.799 39.226 70.238 39.226 113.129 0 15.867-2.022 31.261-5.823 45.94l0.279-1.269q-0.634 2.526-1.332 5.084c-11.946 43.806-73.384 108.232-116.002 147.888z" />
<glyph unicode="&#xe96f;" glyph-name="flag" d="M32 928h64v-960h-64v960zM992 768h-352v112c-0.031 26.497-21.503 47.969-47.997 48h-432.003v-544h224v-112c0.031-26.497 21.503-47.969 47.997-48h560.003v75.722l-166.082 196.278 166.082 196.278zM224 864h352v-416h-352zM742.082 496l176-208h-470.082v96h144c26.497 0.031 47.969 21.503 48 47.997v272.003h278.082z" />
<glyph unicode="&#xe970;" glyph-name="flash" d="M880 635.706l-298.8 43.2 232.698 249.094h-371.098l-234.8-276.238v-151.106l266.542-42.086-151.904-142.97-100.014 100.4h-78.624v-447.888l448-1.558v78.664l-95.944 96.31 383.944 356.518zM816 525.954l-412.068-382.634 112.068-112.5-308 1.068v308.112l113.2-113.634 292.258 275.064-341.458 53.914v72.894l200.4 235.762h194.126l-215.726-230.908 365.2-52.8z" />
<glyph unicode="&#xe971;" glyph-name="folder" d="M944 704h-405.334l-41.026 98.462c-7.389 17.489-24.398 29.538-44.222 29.538-0.029 0-0.059 0-0.088 0h-373.329c-26.497-0.032-47.968-21.503-48-47.997v-768.003c0.032-26.497 21.503-47.968 47.997-48h864.003c26.497 0.032 47.968 21.503 48 47.997v640.003c-0.032 26.497-21.503 47.968-47.997 48h-0.003zM442.666 768l53.334-128h432v-96h-832v224zM96 32v448h832v-448z" />
<glyph unicode="&#xe972;" glyph-name="fork" d="M880 776c0 0.002 0 0.003 0 0.005 0 83.947-68.053 152-152 152s-152-68.053-152-152c0-75.474 55.007-138.099 127.118-149.973l0.882-0.12v-69.912c-0.063-52.994-43.006-95.937-95.994-96h-304.006v167.418c69.085 15.262 120 75.982 120 148.593 0 83.947-68.053 152-152 152s-152-68.053-152-152c0-72.611 50.915-133.331 118.99-148.406l1.010-0.188v-358.836c-69.085-15.262-120-75.982-120-148.593 0-83.947 68.053-152 152-152s152 68.053 152 152c0 72.611-50.915 133.331-118.99 148.406l-1.010 0.188v127.418h304c88.324 0.104 159.897 71.676 160 159.99v73.388c65.011 18.245 111.902 76.944 112 146.611v0.011zM184 776c0 48.601 39.399 88 88 88s88-39.399 88-88c0-48.601-39.399-88-88-88v0c-48.579 0.056-87.944 39.421-88 87.995v0.005zM360 120c0-48.601-39.399-88-88-88s-88 39.399-88 88c0 48.601 39.399 88 88 88v0c48.579-0.056 87.944-39.421 88-87.995v-0.005zM728 688c-48.601 0-88 39.399-88 88s39.399 88 88 88c48.601 0 88-39.399 88-88v0c-0.056-48.579-39.421-87.944-87.995-88h-0.005z" />
<glyph unicode="&#xe973;" glyph-name="fullscreen-enter" d="M416 864v64h-384v-384h64v274.746l321.374-321.372 45.252 45.252-321.372 321.374h274.746zM928 352v-274.746l-329.374 329.372-45.252-45.252 329.372-329.374h-274.746v-64h384v384h-64z" />
<glyph unicode="&#xe974;" glyph-name="fullscreen-exit" d="M408 872v-274.746l-330.746 330.746h-45.254v-45.256l330.746-330.744h-274.746v-64h384v384h-64zM992-32v45.254l-338.746 338.746h274.746v64h-384v-384h64v274.746l338.746-338.746h45.254z" />
<glyph unicode="&#xe975;" glyph-name="globe" d="M850.704 787.704c-86.845 87.685-207.27 141.976-340.376 141.976-264.544 0-479-214.456-479-479 0-133.106 54.292-253.531 141.938-340.338l0.038-0.038c86.845-87.685 207.27-141.976 340.376-141.976 264.544 0 479 214.456 479 479 0 133.106-54.292 253.531-141.938 340.338l-0.038 0.038zM925.97 478h-190.37c-3 112.8-23.474 218.318-58.434 299.706-10.702 25.154-22.383 46.622-35.83 66.814l0.93-1.484c156.426-51.846 271.868-194.396 283.704-365.036zM512 18c-37.144 0-75.912 56.66-106.362 127.552-31.060 72.31-49.578 166.586-53.038 268.448h318.8c-3.458-101.862-21.976-196.138-53.036-268.448-30.452-70.892-69.22-127.552-106.364-127.552zM352.416 478c2.924 104.156 21.554 200.72 53.222 274.448 30.45 70.892 69.218 127.552 106.362 127.552s75.912-56.66 106.362-127.552c31.668-73.728 50.298-170.292 53.222-274.448zM381.734 843.036c-12.517-18.708-24.198-40.176-33.893-62.7l-1.007-2.63c-34.96-81.388-55.434-186.906-58.434-299.706h-190.37c11.836 170.64 127.278 313.19 283.704 365.036zM98.49 414h190.074c3.558-110.546 23.93-213.762 58.27-293.706 10.702-25.154 22.383-46.622 35.83-66.814l-0.93 1.484c-154.59 51.236-269.148 191.062-283.244 359.036zM642.266 54.964c12.517 18.708 24.198 40.176 33.893 62.7l1.007 2.63c34.34 79.944 54.712 183.16 58.27 293.706h190.074c-14.096-167.974-128.654-307.8-283.244-359.036z" />
<glyph unicode="&#xe976;" glyph-name="graph" d="M864 880c-0.016 0-0.036 0-0.055 0-70.663 0-127.946-57.283-127.946-127.946 0-45.192 23.43-84.912 58.806-107.675l0.507-0.305-83.524-292.334c-2.578 0.156-5.17 0.26-7.788 0.26-0.041 0-0.090 0-0.139 0-28.743 0-55.261-9.525-76.571-25.59l0.324 0.234-154.308 128.59c4.25 12.195 6.704 26.252 6.704 40.882 0 70.692-57.308 128-128 128s-128-57.308-128-128c0-35.849 14.738-68.256 38.485-91.493l0.023-0.022-90.584-181.176c-3.934 0.366-7.908 0.576-11.934 0.576-0.049 0-0.106 0-0.164 0-70.783 0-128.164-57.381-128.164-128.164s57.381-128.164 128.164-128.164c70.783 0 128.164 57.381 128.164 128.164 0 43.625-21.796 82.159-55.093 105.307l-0.421 0.277 85.6 171.178c10.18-2.919 21.873-4.598 33.957-4.598 33.178 0 63.401 12.654 86.105 33.399l-0.099-0.089 149.4-124.504c-7.225-15.534-11.44-33.722-11.44-52.893 0-70.692 57.308-128 128-128s128 57.308 128 128c0 45.203-23.432 84.934-58.812 107.708l-0.507 0.305 83.52 292.334c2.578-0.156 5.17-0.26 7.788-0.26 70.692 0 128 57.308 128 128s-57.308 128-128 128v0zM160 32c-35.346 0-64 28.654-64 64s28.654 64 64 64c35.346 0 64-28.654 64-64v0c-0.041-35.33-28.67-63.959-63.996-64h-0.004zM352 432c-35.346 0-64 28.654-64 64s28.654 64 64 64c35.346 0 64-28.654 64-64v0c-0.041-35.33-28.67-63.959-63.996-64h-0.004zM704 160c-35.346 0-64 28.654-64 64s28.654 64 64 64c35.346 0 64-28.654 64-64v0c-0.041-35.33-28.67-63.959-63.996-64h-0.004zM864 688c-35.346 0-64 28.654-64 64s28.654 64 64 64c35.346 0 64-28.654 64-64v0c-0.041-35.33-28.67-63.959-63.996-64h-0.004z" />
<glyph unicode="&#xe977;" glyph-name="grid-four-up" d="M32 928h64v-64h-64v64zM336 928h64v-64h-64v64zM624 928h64v-64h-64v64zM928 928h64v-64h-64v64zM336 623.334h63.334v-63.334h-63.334v63.334zM624 623.334h64v-64h-64v64zM928.666 623.334h63.334v-63.334h-63.334v63.334zM336 336h64v-64h-64v64zM624 336h64v-64h-64v64zM928 336h64v-64h-64v64zM336 32h64v-64h-64v64zM624 32h64v-64h-64v64zM928 32h64v-64h-64v64zM32 624h64v-64h-64v64zM32 336h64v-64h-64v64zM32 32h64v-64h-64v64z" />
<glyph unicode="&#xe978;" glyph-name="grid-three-up" d="M32 704h224v224h-224zM96 864h96v-96h-96zM768 928v-224h224v224zM928 768h-96v96h96zM32 336h224v224h-224zM96 496h96v-96h-96zM400 336h224v224h-224zM464 496h96v-96h-96zM400-32h224v224h-224zM464 128h96v-96h-96zM400 704h224v224h-224zM464 864h96v-96h-96zM768 336h224v224h-224zM832 496h96v-96h-96zM32-32h224v224h-224zM96 128h96v-96h-96zM768-32h224v224h-224zM832 128h96v-96h-96z" />
<glyph unicode="&#xe979;" glyph-name="grid-two-up" d="M32-32h416v416h-416zM96 320h288v-288h-288zM32 512h416v416h-416zM96 864h288v-288h-288zM576-32h416v416h-416zM640 320h288v-288h-288zM576 928v-416h416v416zM928 576h-288v288h288z" />
<glyph unicode="&#xe97a;" glyph-name="hard-drive" d="M112 896v-896c0-17.673 14.327-32 32-32v0h768c17.673 0 32 14.327 32 32v0 896c0 17.673-14.327 32-32 32v0h-768c-17.673 0-32-14.327-32-32v0zM880 864v-544h-704v544zM176 32v224h704v-224zM729.076 180.77h69.848v-69.848h-69.848v69.848zM576 180.77h69.848v-69.848h-69.848v69.848zM536 736v64c-110.405-0.128-199.871-89.595-200-199.987v-0.013h64c0.088 75.076 60.925 135.912 135.992 136h0.008zM536 400c110.405 0.128 199.871 89.595 200 199.987v0.013h-64c-0.088-75.076-60.925-135.912-135.992-136h-0.008z" />
<glyph unicode="&#xe97b;" glyph-name="header" d="M32 928v-960h960v960zM928 32h-832v832h832zM448 224h-64v192h256v-192h-64v-64h256v64h-64v448h64v64h-256v-64h64v-192h-256v192h64v64h-256v-64h64v-448h-64v-64h256v64z" />
<glyph unicode="&#xe97c;" glyph-name="headphones" d="M816 608h-32v48c0 149.982-122.018 272-272 272s-272-122.014-272-272v-48h-32c-97.156-0.114-175.886-78.844-176-175.989v-160.011c0.114-97.156 78.844-175.886 175.989-176h48.011c26.497 0.031 47.969 21.503 48 47.997v512.003c0 114.875 93.125 208 208 208s208-93.125 208-208v0-512c0.031-26.497 21.503-47.969 47.997-48h48.003c97.156 0.114 175.886 78.844 176 175.989v160.011c-0.114 97.156-78.844 175.886-175.989 176h-0.011zM240 160h-32c-61.827 0.072-111.928 50.173-112 111.993v160.007c0.072 61.827 50.173 111.928 111.993 112h32.007v-384zM928 272c-0.072-61.827-50.173-111.928-111.993-112h-32.007v384h32c61.827-0.072 111.928-50.173 112-111.993v-0.007z" />
<glyph unicode="&#xe97d;" glyph-name="heart" d="M513.6 18.75l-0.45 0.45-0.448-0.45-375.868 375.85 0.45 0.45-31.062 31.070c-46.327 46.327-74.98 110.327-74.98 181.019s28.654 134.692 74.98 181.019l13.82 13.82c46.358 46.258 110.348 74.862 181.019 74.862s134.661-28.604 181.024-74.867l31.057-31.059 31.058 31.064c46.358 46.258 110.348 74.863 181.019 74.863s134.661-28.605 181.024-74.868l13.815-13.815c46.257-46.359 74.86-110.349 74.86-181.019s-28.604-134.66-74.865-181.024l-31.053-31.057 0.45-0.45zM513.15 109.708l0.45-0.45 285.34 285.342-0.448 0.45 76.308 76.324c34.745 34.745 56.236 82.745 56.236 135.765s-21.491 101.020-56.236 135.765l-13.82 13.82c-34.77 34.692-82.762 56.143-135.765 56.143s-100.995-21.452-135.769-56.147l-76.304-76.32-76.316 76.318c-34.769 34.691-82.762 56.143-135.764 56.143s-100.994-21.452-135.767-56.147l-13.819-13.817c-34.745-34.745-56.236-82.745-56.236-135.765s21.491-101.020 56.236-135.765l76.324-76.31-0.45-0.45 285.344-285.35z" />
<glyph unicode="&#xe97e;" glyph-name="home" d="M939.332 527.1l-397.176 365.402c-12.070 11.132-28.258 17.957-46.040 17.957-18.782 0-35.785-7.615-48.091-19.925l-384.024-384.024v-538.51h352v336h192v-336h352v540.084zM896 32h-224v272c0 35.346-28.654 64-64 64v0h-192c-35.346 0-64-28.654-64-64v0-272h-224v448l365.288 365.286c0.724 0.724 1.724 1.172 2.828 1.172 1.046 0 1.998-0.401 2.71-1.058l-0.003 0.003 397.176-365.402z" />
<glyph unicode="&#xe97f;" glyph-name="image" d="M128 832v-864h864v864zM928 768v-275.36l-129.538 129.54-138.462-138.458-200 200-268-268v352.278zM928 215.716l-222.744 222.75 93.2 93.2 129.544-129.532zM192 32v293.2l268 268 468-468v-93.2z" />
<glyph unicode="&#xe980;" glyph-name="inbox" d="M64 928v-960h896v960zM896 352h-211.778l-64-128h-216.444l-64 128h-211.778v320h768zM896 864v-128h-768v128zM128 32v256h172.222l64-128h295.556l64 128h172.222v-256z" />
<glyph unicode="&#xe981;" glyph-name="infinity" d="M926.4 622.4c-40.536 40.535-96.535 65.606-158.39 65.606s-117.854-25.071-158.39-65.606l-97.14-97.136-97.146 97.136c-40.536 40.535-96.535 65.607-158.391 65.607-123.712 0-224-100.288-224-224s100.288-224 224-224c61.855 0 117.855 25.072 158.391 65.607l97.136 97.138 97.14-97.138c40.537-40.537 96.538-65.61 158.395-65.61 123.713 0 224.003 100.29 224.003 224.003 0 61.856-25.072 117.856-65.608 158.393v0zM370.080 350.866c-28.954-28.953-68.953-46.861-113.135-46.861-88.366 0-160 71.634-160 160s71.634 160 160 160c44.182 0 84.181-17.908 113.135-46.861l110.4-110.4v-5.492zM881.136 350.866c-28.954-28.954-68.954-46.862-113.136-46.862s-84.182 17.908-113.136 46.862l-110.4 110.4v5.488l110.4 110.4c28.955 28.953 68.954 46.86 113.136 46.86 88.368 0 160.004-71.636 160.004-160.004 0-44.186-17.911-84.189-46.868-113.144v0z" />
<glyph unicode="&#xe982;" glyph-name="info" d="M512 768.004h69.848v-69.848h-69.848v69.848zM32 928v-960h960v960zM928 32h-832v832h832zM448.512 554.326c5.414 12.869 17.918 21.74 32.494 21.74 19.415 0 35.154-15.739 35.154-35.154 0-3.56-0.529-6.997-1.513-10.235l0.065 0.249-71.34-242.554c-2.582-8.459-4.068-18.181-4.068-28.25 0-55.293 44.822-100.118 100.114-100.122v0c36.7 0.073 68.773 19.815 86.245 49.242l0.255 0.464 30.2 51.826-55.292 32.23-30.2-51.83c-6.395-10.781-17.963-17.902-31.196-17.932h-0.004c-19.949 0-36.122 16.172-36.122 36.122 0 3.633 0.536 7.14 1.534 10.448l-0.066-0.256 71.34 242.554c2.569 8.396 4.048 18.047 4.048 28.043 0 54.761-44.393 99.154-99.154 99.154-41.071 0-76.31-24.971-91.362-60.559l-0.244-0.651-23.436-56.468 59.114-24.532z" />
<glyph unicode="&#xe983;" glyph-name="italic" d="M32 928v-960h960v960zM928 32h-832v832h832zM624 224.004h-88.884l84 448h100.884v64h-320v-64h88.884l-84-448h-100.884v-64h320v64z" />
<glyph unicode="&#xe984;" glyph-name="justify-center" d="M32 832.004h960v-64h-960v64zM32 656.004h960v-64h-960v64zM32 480.004h960v-64h-960v64zM32 304.004h960v-64h-960v64zM192 128.004h640v-64h-640v64z" />
<glyph unicode="&#xe985;" glyph-name="justify-left" d="M32 832.004h960v-64h-960v64zM32 656.004h960v-64h-960v64zM32 480.004h960v-64h-960v64zM32 304.004h960v-64h-960v64zM32 128.004h640v-64h-640v64z" />
<glyph unicode="&#xe986;" glyph-name="justify-right" d="M32 832.004h960v-64h-960v64zM32 656.004h960v-64h-960v64zM32 480.004h960v-64h-960v64zM32 304.004h960v-64h-960v64zM352 128.004h640v-64h-640v64z" />
<glyph unicode="&#xe987;" glyph-name="key" d="M672 928c-176.448 0-320-143.55-320-320 0-0.073 0-0.16 0-0.247 0-30.816 4.36-60.614 12.498-88.811l-0.558 2.257-331.94-331.942v-221.258h256v96h80v96h77.254l139.946 139.946c25.942-7.584 55.743-11.946 86.563-11.946 0.083 0 0.166 0 0.249 0h-0.013c176.448 0 320 143.552 320 320s-143.552 320-320 320zM672 352c-0.080 0-0.174 0-0.268 0-30.391 0-59.543 5.308-86.578 15.048l1.78-0.56-19 6.694-149.188-149.182h-114.746v-96h-80v-96h-128v130.75l341.182 341.182-6.696 19c-9.224 25.345-14.558 54.602-14.558 85.104 0 141.405 114.631 256.036 256.036 256.036s256.036-114.631 256.036-256.036c0-141.392-114.611-256.016-255.998-256.036h-0.002zM688 752c-70.692 0-128-57.308-128-128s57.308-128 128-128c70.692 0 128 57.308 128 128v0c-0.082 70.659-57.34 127.918-127.992 128h-0.008zM688 560c-35.346 0-64 28.654-64 64s28.654 64 64 64c35.346 0 64-28.654 64-64v0c-0.042-35.329-28.671-63.958-63.996-64h-0.004z" />
<glyph unicode="&#xe988;" glyph-name="laptop" d="M144 96h736c26.497 0.032 47.968 21.503 48 47.997v480.003c-0.031 26.497-21.503 47.969-47.997 48h-736.003c-26.497-0.031-47.969-21.503-48-47.997v-480.003c0.032-26.497 21.503-47.968 47.997-48h0.003zM160 608h704v-448h-704zM32 32.004h960v-64h-960v64z" />
<glyph unicode="&#xe989;" glyph-name="layers" d="M975.876 635.784l-448 256c-4.56 2.651-10.035 4.216-15.876 4.216s-11.316-1.565-16.029-4.298l0.153 0.082-448-256c-9.707-5.618-16.132-15.953-16.132-27.789 0-12.143 6.763-22.706 16.728-28.128l0.168-0.084 448-240c4.373-2.389 9.578-3.793 15.112-3.793s10.739 1.405 15.28 3.877l-0.168-0.084 448 240c10.133 5.506 16.896 16.069 16.896 28.211 0 11.836-6.426 22.171-15.979 27.707l-0.154 0.082zM512 404.302l-381.92 204.6 381.92 218.242 381.92-218.242zM64 482.922v-73.044l432.578-237.918c4.45-2.492 9.764-3.96 15.422-3.96s10.972 1.468 15.584 4.043l-0.162-0.083 432.578 237.918v73.044l-448-246.4zM64 307.2v-72.53l432.942-230.904c4.359-2.372 9.546-3.766 15.058-3.766s10.699 1.394 15.227 3.85l-0.169-0.084 432.942 230.902v72.532l-448-238.934z" />
<glyph unicode="&#xe98a;" glyph-name="lightbulb" d="M524.444 928c-196.044 0-355.556-159.498-355.556-355.55 0-0.080 0-0.173 0-0.267 0-111.614 51.516-211.197 132.068-276.266l0.674-0.527v-111.39c0.139-119.238 96.762-215.861 215.987-216h13.645c119.237 0.14 215.86 96.763 216 215.986v111.404c81.223 65.595 132.738 165.174 132.738 276.786 0 0.096 0 0.193 0 0.289v-0.014c0 196.052-159.502 355.55-355.556 355.55zM365.63 272h317.63v-80h-317.63zM531.26 32h-13.632c-63.746 0.082-118.302 39.337-140.896 94.981l-0.366 1.019h296.158c-22.961-56.663-77.518-95.918-141.254-96h-0.010zM696.368 336.974l-1.33-0.974h-341.186l-1.33 0.974c-72.724 53.773-119.419 139.147-119.634 235.437v0.035c0 160.768 130.792 291.554 291.556 291.554s291.556-130.786 291.556-291.55c-0.211-96.325-46.906-181.7-118.836-234.91l-0.796-0.562z" />
<glyph unicode="&#xe98b;" glyph-name="link-intact" d="M924.784 859.534c-41.946 41.853-99.845 67.734-163.789 67.734s-121.842-25.88-163.793-67.738l-171.526-171.53h90.508l126.274 126.28c30.336 30.335 72.245 49.098 118.536 49.098 92.584 0 167.638-75.054 167.638-167.638 0-46.293-18.764-88.203-49.102-118.54l-199.982-199.98c-30.356-30.29-72.258-49.020-118.534-49.020s-88.178 18.73-118.537 49.023l0.003-0.003c-22.361 22.219-38.422 50.753-45.284 82.702l-0.196 1.090-51.2-51.2c35.18-86.049 118.247-145.573 215.217-145.573 63.942 0 121.84 25.882 163.787 67.741l199.978 199.976c41.854 41.947 67.735 99.846 67.735 163.79s-25.88 121.842-67.737 163.792l0.004-0.004zM387.166 82.088c-30.552-30.553-72.761-49.451-119.383-49.451-93.242 0-168.83 75.588-168.83 168.83 0 46.62 18.896 88.827 49.447 119.379l202.028 202.024c30.356 30.29 72.258 49.020 118.534 49.020 46.27 0 88.167-18.725 118.525-49.011l1.701-1.701c21.323-21.212 36.917-48.165 44.268-78.345l0.234-1.137 50.612 50.6c-12.272 28.825-29.098 53.43-49.84 74.108l-1.71 1.71c-41.946 41.855-99.845 67.737-163.789 67.737s-121.844-25.882-163.793-67.741l-202.018-202.010c-42.133-42.133-68.193-100.34-68.193-164.633 0-128.587 104.24-232.827 232.827-232.827 64.294 0 122.501 26.060 164.634 68.194l171.18 171.166h-90.518z" />
<glyph unicode="&#xe98c;" glyph-name="list" d="M416 800h528v-64h-528v64zM208 896c-70.692 0-128-57.308-128-128s57.308-128 128-128c70.692 0 128 57.308 128 128v0c-0.082 70.659-57.34 127.918-127.992 128h-0.008zM208 704c-35.346 0-64 28.654-64 64s28.654 64 64 64c35.346 0 64-28.654 64-64v0c-0.041-35.33-28.67-63.959-63.996-64h-0.004zM416 480h528v-64h-528v64zM208 576c-70.692 0-128-57.308-128-128s57.308-128 128-128c70.692 0 128 57.308 128 128v0c-0.082 70.659-57.34 127.918-127.992 128h-0.008zM208 384c-35.346 0-64 28.654-64 64s28.654 64 64 64c35.346 0 64-28.654 64-64v0c-0.041-35.33-28.67-63.959-63.996-64h-0.004zM416 160h528v-64h-528v64zM208 256c-70.692 0-128-57.308-128-128s57.308-128 128-128c70.692 0 128 57.308 128 128v0c-0.082 70.659-57.34 127.918-127.992 128h-0.008zM208 64c-35.346 0-64 28.654-64 64s28.654 64 64 64c35.346 0 64-28.654 64-64v0c-0.041-35.33-28.67-63.959-63.996-64h-0.004z" />
<glyph unicode="&#xe98d;" glyph-name="list-rich" d="M32 672h240v240h-240zM96 848h112v-112h-112zM32 320h240v240h-240zM96 496h112v-112h-112zM32-32h240v240h-240zM96 144h112v-112h-112zM352 912.004h640v-64h-640v64zM352 736.004h512v-64h-512v64zM352 560.004h640v-64h-640v64zM352 384.004h512v-64h-512v64zM352 32.004h512v-64h-512v64zM352 208.004h640v-64h-640v64z" />
<glyph unicode="&#xe98e;" glyph-name="location-pin" d="M511.8 910c-188.786 0-342.374-153.588-342.374-342.372-0.001-0.266-0.001-0.582-0.001-0.898 0-75.856 24.867-145.905 66.894-202.438l-0.645 0.908 235.818-368.336c8.595-13.342 23.375-22.052 40.19-22.052 0.039 0 0.077 0 0.116 0h-0.006c0.034 0 0.074 0 0.114 0 16.816 0 31.597 8.711 40.078 21.866l0.113 0.188 235.824 368.334c41.381 55.624 66.247 125.67 66.247 201.525 0 0.317 0 0.634-0.001 0.95v-0.049c0 188.786-153.588 342.374-342.368 342.374zM735.8 402.358l-0.638-0.864-223.362-348.894-224.016 349.758c-33.953 45.349-54.367 102.546-54.367 164.51 0 0.267 0 0.535 0.001 0.802v-0.042c0.008 153.496 124.884 278.372 278.382 278.372s278.372-124.876 278.372-278.372c0.001-0.223 0.001-0.488 0.001-0.752 0-61.968-20.416-119.167-54.889-165.239l0.516 0.721zM512 695.628c-70.692 0-128-57.308-128-128s57.308-128 128-128c70.692 0 128 57.308 128 128v0c-0.082 70.659-57.34 127.918-127.992 128h-0.008zM512 503.628c-35.346 0-64 28.654-64 64s28.654 64 64 64c35.346 0 64-28.654 64-64v0c-0.041-35.33-28.67-63.959-63.996-64h-0.004z" />
<glyph unicode="&#xe98f;" glyph-name="lock-locked" d="M768 560v112c0 141.385-114.615 256-256 256s-256-114.615-256-256v0-112h-80v-264c0-180.858 147.14-328 328-328s328 147.142 328 328v264zM320 672c0 106.039 85.961 192 192 192s192-85.961 192-192v0-112h-384zM768 296c0-145.57-118.43-264-264-264s-264 118.434-264 264v200h528z" />
<glyph unicode="&#xe990;" glyph-name="lock-unlocked" d="M784 560v112c0 0.001 0 0.003 0 0.004 0 141.385-114.615 256-256 256-69.775 0-133.030-27.915-179.206-73.185l0.042 0.041 44.8-45.71c34.6 33.917 82.037 54.849 134.364 54.849 106.038 0 192-85.961 192-191.999v0-112h-528v-264c0-180.858 147.14-328 328-328s328 147.142 328 328v264zM784 296c0-145.57-118.43-264-264-264s-264 118.434-264 264v200h528z" />
<glyph unicode="&#xe991;" glyph-name="loop" d="M928 512v-50.262c0-160.010-130.178-290.188-290.2-290.188h-485l93.824 93.824-45.252 45.254-166.626-166.628 166.628-166.626 45.252 45.254-84.92 84.922h476.094c195.302 0 354.2 158.888 354.2 354.188v114.262zM96 370.266c0 160.012 130.178 290.2 290.2 290.2h485l-93.824-93.824 45.252-45.254 166.626 166.612-166.628 166.632-45.252-45.254 84.92-84.922h-476.094c-195.312 0-354.2-158.888-354.2-354.19v-114.266l64 64z" />
<glyph unicode="&#xe992;" glyph-name="loop-circular" d="M80 799.39v-64h163.362l-97.988-97.99c-149.754-149.752-151.052-392.572-3.95-543.972l45.252 45.252c-56.181 58.112-90.802 137.375-90.802 224.723 0 89.331 36.21 170.205 94.754 228.745l95.526 95.526v-158.438h64v270.154zM878.626 274.6c149.754 149.76 151.052 392.58 3.95 543.98l-45.252-45.252c56.181-58.112 90.802-137.374 90.802-224.722 0-89.331-36.21-170.204-94.754-228.743l-97.372-97.372v159.67h-64v-270.16h270.154v64h-162.13z" />
<glyph unicode="&#xe993;" glyph-name="loop-square" d="M784 96.004h-544v354.746l89.374-89.372 45.252 45.254-166.626 166.626-166.626-166.626 45.252-45.254 89.374 89.372v-418.746h672v192h-64v-128zM240 800.004h544v-354.746l-89.374 89.374-45.252-45.254 166.626-166.628 166.626 166.628-45.252 45.254-89.374-89.374v418.746h-672v-192h64v128z" />
<glyph unicode="&#xe994;" glyph-name="magnifying-glass" d="M959.2 160.574l-162.168 162.168-124.736 51.534c39.848 56.063 63.704 125.915 63.704 201.339 0 0.136 0 0.271 0 0.407v-0.021c0 194.094-157.906 352-352 352s-352-157.902-352-352 157.906-352 352-352c0.118 0 0.259 0 0.399 0 76.068 0 146.469 24.262 203.888 65.47l-1.049-0.716 51.4-124.4 162.162-162.172c20.269-20.269 48.27-32.806 79.2-32.806 61.859 0 112.006 50.147 112.006 112.006 0 30.93-12.537 58.931-32.806 79.2v0zM96 576c0 158.8 129.2 288 288 288s288-129.2 288-288-129.2-288-288-288-288 129.2-288 288zM913.942 47.436c-8.693-8.673-20.691-14.036-33.942-14.036s-25.249 5.363-33.943 14.037l-153.143 153.143-47.788 115.67 115.674-47.786 153.146-153.144c8.672-8.693 14.034-20.69 14.034-33.94 0-13.252-5.364-25.251-14.039-33.945l0.001 0.001z" />
<glyph unicode="&#xe995;" glyph-name="map" d="M960.93 777.956l-297.73 83.28-298.6-84.114-277.682 78.774c-3.271 0.964-7.030 1.519-10.918 1.519-22.091 0-39.999-17.908-40-39.999v0-681.2c0.070-21.821 14.629-40.222 34.557-46.092l0.341-0.086 293.634-83.3 298.73 84.15 281.962-78.872c3.23-0.939 6.94-1.479 10.776-1.479 22.091 0 40 17.909 40 40 0 0.002 0 0.005 0 0.007v0 681.186c-0.057 21.888-14.706 40.338-34.73 46.142l-0.34 0.084zM69.454 794.326v0l0.068-0.020zM330 83.068l-230 65.248v637.344l230-65.26zM631.23 148.362l-237.23-66.824v637.378l237.23 66.824zM932 82.18l-236.77 66.22v637.422l236.77-66.222z" />
<glyph unicode="&#xe996;" glyph-name="media-pause" d="M32 928v-960h960v960zM928 32h-832v832h832zM464 752h-224v-576h224zM400 240h-96v448h96zM784 752h-224v-576h224zM720 240h-96v448h96z" />
<glyph unicode="&#xe997;" glyph-name="media-play" d="M777.866 455.872l-373.422 280.128h-72.8v-560h69.274zM395.636 662.6l275.226-206.462-275.226-204.338zM32 928v-960h960v960zM928 32h-832v832h832z" />
<glyph unicode="&#xe998;" glyph-name="media-record" d="M32 928v-960h960v960zM928 32h-832v832h832zM504 208c128.13 0 232 103.87 232 232s-103.87 232-232 232c-128.13 0-232-103.87-232-232v0c0.149-128.070 103.93-231.851 231.986-232h0.014zM504 608c92.784 0 168-75.216 168-168s-75.216-168-168-168c-92.784 0-168 75.216-168 168v0c0.114 92.738 75.262 167.886 167.989 168h0.011z" />
<glyph unicode="&#xe999;" glyph-name="media-skip-backward" d="M519.274 224v149.082l198.726-149.082h66v448h-63.246l-201.48-149.586v149.586h-63.248l-301.528-223.862 298.774-224.138zM720 591.736v-289.226l-193.772 145.362zM455.274 591.736v-289.228l-193.772 145.364zM32 928v-960h960v960zM928 32h-832v832h832z" />
<glyph unicode="&#xe99a;" glyph-name="media-skip-forward" d="M32 928v-960h960v960zM928 32h-832v832h832zM472.726 373.59v-149.59h63.248l301.528 223.872-298.774 224.128h-66v-149.076l-198.728 149.076h-66v-448h63.246zM536.726 593.5l193.772-145.362-193.772-143.864zM272 593.5l193.772-145.36-193.772-143.866z" />
<glyph unicode="&#xe99b;" glyph-name="media-step-backward" d="M32 928v-960h960v960zM928 32h-832v832h832zM288 672.004h64v-448h-64v448zM752 224v448h-63.248l-256.752-190.618v-66.834l254-190.548zM496 449.186l192 142.55v-289.228l-192 144.036z" />
<glyph unicode="&#xe99c;" glyph-name="media-step-forward" d="M32 928v-960h960v960zM928 32h-832v832h832zM672 672.004h64v-448h-64v448zM592 414.628v66.834l-254 190.538h-66v-448h63.248zM336 593.5l192-144.034v-2.642l-192-142.55z" />
<glyph unicode="&#xe99d;" glyph-name="media-stop" d="M32 928v-960h960v960zM928 32h-832v832h832zM728 664h-432v-432h432zM664 296h-304v304h304z" />
<glyph unicode="&#xe99e;" glyph-name="medical-cross" d="M688-32h-352v304h-304v352h304v304h352v-304h304v-352h-304zM400 32h224v304h304v224h-304v304h-224v-304h-304v-224h304z" />
<glyph unicode="&#xe99f;" glyph-name="menu" d="M32 928v-256h960v256zM928 736h-832v128h832zM32 320h960v256h-960zM96 512h832v-128h-832zM32-32h960v256h-960zM96 160h832v-128h-832z" />
<glyph unicode="&#xe9a0;" glyph-name="microphone" d="M544 304c105.989 0.124 191.876 86.011 192 191.988v240.012c0 106.039-85.961 192-192 192s-192-85.961-192-192v0-240c0.124-105.989 86.011-191.876 191.988-192h0.012zM416 736c0 70.692 57.308 128 128 128s128-57.308 128-128v0-240c0-70.692-57.308-128-128-128s-128 57.308-128 128v0zM832 640v-144c0-158.8-129.2-288-288-288s-288 129.2-288 288v144h-64v-144c0-183.304 140.848-334.306 320-350.53v-113.47h-144v-64h352v64h-144v113.474c179.152 16.224 320 167.226 320 350.526v144z" />
<glyph unicode="&#xe9a1;" glyph-name="minus" d="M512 928c-265.096 0-480-214.898-480-480s214.904-480 480-480 480 214.908 480 480-214.904 480-480 480zM806.156 153.848c-74.967-74.749-178.417-120.968-292.662-120.968-228.925 0-414.506 185.581-414.506 414.506s185.581 414.506 414.506 414.506c228.925 0 414.506-185.581 414.506-414.506 0-58.246-12.014-113.687-33.699-163.978l1.032 2.69c-22.046-51.416-52.135-95.309-89.168-132.24l-0.010-0.010zM256 480.004h512v-64h-512v64z" />
<glyph unicode="&#xe9a2;" glyph-name="monitor" d="M944 928h-864c-26.497-0.031-47.969-21.503-48-47.997v-672.003c0.032-26.497 21.503-47.968 47.997-48h400.003v-128h-160v-64h384v64h-160v128h400c26.497 0.032 47.968 21.503 48 47.997v672.003c-0.031 26.497-21.503 47.969-47.997 48h-0.003zM928 864v-384h-832v384zM96 224v192h832v-192zM800 352.004h64v-64h-64v64z" />
<glyph unicode="&#xe9a3;" glyph-name="moon" d="M536.558-32c-135.148 0-261.956 52.382-357.068 147.49s-147.49 221.924-147.49 357.074c0 0.032 0 0.071 0 0.109 0 195.397 111.082 364.849 273.542 448.651l2.824 1.324c6.456 3.361 14.097 5.332 22.199 5.332 26.996 0 48.88-21.884 48.88-48.88 0-5.127-0.789-10.070-2.253-14.714l0.094 0.346c-12.493-38.936-19.694-83.727-19.694-130.2 0-121.743 49.417-231.944 129.286-311.639l0.008-0.008c79.283-79.856 189.118-129.287 310.498-129.287 0.277 0 0.553 0 0.829 0.001h-0.043c0.099 0 0.217 0 0.335 0 46.479 0 91.277 7.2 133.338 20.546l-3.119-0.854c4.3 1.371 9.245 2.162 14.375 2.162 26.995 0 48.878-21.883 48.878-48.878 0-8.105-1.973-15.748-5.464-22.478l0.128 0.272c-85.127-165.286-254.582-276.37-449.982-276.37-0.036 0-0.072 0-0.108 0h0.006zM306.62 848.438c-127.139-78.311-210.622-216.753-210.622-374.694 0-0.415 0.001-0.829 0.002-1.244v0.064c0-242.926 197.632-440.564 440.558-440.564 0.351-0.001 0.766-0.002 1.182-0.002 157.941 0 296.383 83.482 373.608 208.728l1.086 1.893c-34.265-8.278-73.605-13.026-114.053-13.026-0.073 0-0.145 0-0.218 0h0.011c-0.283-0.001-0.619-0.001-0.954-0.001-139 0-264.78 56.597-355.553 148.004l-0.028 0.029c-91.461 91.293-148.043 217.503-148.043 356.928 0 40.385 4.747 79.662 13.714 117.302l-0.689-3.43z" />
<glyph unicode="&#xe9a4;" glyph-name="move" d="M807.020 628.826l-45.254-45.252 103.764-103.764h-321.334v321.332l103.764-103.764 45.254 45.254-181.018 181.022-181.018-181.022 45.254-45.254 103.764 103.764v-321.332h-322.94l103.764 103.764-45.254 45.252-181.022-181.016 181.022-181.020 45.254 45.254-103.764 103.766h322.94v-322.942l-103.764 103.764-45.254-45.254 181.018-181.022 181.018 181.022-45.254 45.254-103.764-103.764v322.942h321.334l-103.764-103.766 45.254-45.254 181.018 181.020-181.018 181.016z" />
<glyph unicode="&#xe9a5;" glyph-name="musical-note" d="M320 773.312v-453.312h-112c-97.202 0-176-78.798-176-176s78.798-176 176-176c97.202 0 176 78.798 176 176v0 354.698l544 128.842v-179.54h-112c-97.202 0-176-78.798-176-176s78.798-176 176-176c97.202 0 176 78.798 176 176v0 660.47zM320 224v-80c0-61.856-50.144-112-112-112s-112 50.144-112 112c0 61.856 50.144 112 112 112v0h112zM928 272c0-61.856-50.144-112-112-112s-112 50.144-112 112c0 61.856 50.144 112 112 112v0h112v-112zM928 693.308l-544-128.838v158.228l544 128.842v-158.228z" />
<glyph unicode="&#xe9a6;" glyph-name="note" d="M816.186 32h-720v736h480l64 64h-560c-26.497-0.031-47.969-21.503-48-47.997v-768.003c0.031-26.497 21.503-47.969 47.997-48h752.003c26.497 0.032 47.968 21.503 48 47.997v544.003l-64-64zM956.67 893.372c-21.764 21.715-51.806 35.143-84.983 35.143s-63.219-13.428-84.985-35.146l-405.328-405.328-39.846-168.142-0.288-1.34c-0.398-1.973-0.626-4.24-0.626-6.561 0-19.154 15.528-34.682 34.682-34.682 2.315 0 4.577 0.227 6.765 0.659l-0.22-0.036 169.496 40.136 405.334 405.324c21.718 21.764 35.148 51.807 35.148 84.986s-13.43 63.222-35.15 84.988l0.002-0.002zM911.416 768.66l-392.498-392.494-104.13-24.678 24.674 104.134 392.496 392.494c10.167 10.168 24.214 16.457 39.729 16.457 31.030 0 56.185-25.155 56.185-56.185 0-15.515-6.288-29.561-16.456-39.728v0z" />
<glyph unicode="&#xe9a7;" glyph-name="options" d="M512 672c70.692 0 128 57.308 128 128s-57.308 128-128 128c-70.692 0-128-57.308-128-128v0c0.082-70.659 57.34-127.918 127.992-128h0.008zM512 864c35.346 0 64-28.654 64-64s-28.654-64-64-64c-35.346 0-64 28.654-64 64v0c0.041 35.33 28.67 63.959 63.996 64h0.004zM512 224c-70.692 0-128-57.308-128-128s57.308-128 128-128c70.692 0 128 57.308 128 128v0c-0.082 70.659-57.34 127.918-127.992 128h-0.008zM512 32c-35.346 0-64 28.654-64 64s28.654 64 64 64c35.346 0 64-28.654 64-64v0c-0.041-35.33-28.67-63.959-63.996-64h-0.004zM512 576c-70.692 0-128-57.308-128-128s57.308-128 128-128c70.692 0 128 57.308 128 128v0c-0.082 70.659-57.34 127.918-127.992 128h-0.008zM512 384c-35.346 0-64 28.654-64 64s28.654 64 64 64c35.346 0 64-28.654 64-64v0c-0.041-35.33-28.67-63.959-63.996-64h-0.004z" />
<glyph unicode="&#xe9a8;" glyph-name="paperclip" d="M313.456 14.544c-150.22 0.001-271.998 121.779-271.998 272 0 75.11 30.444 143.11 79.666 192.332l393.2 393.2 45.256-45.254-393.2-393.2c-37.368-37.594-60.466-89.41-60.466-146.621 0-114.875 93.125-208 208-208 57.21 0 109.025 23.097 146.63 60.475l415.824 415.824c25.894 26.031 41.9 61.919 41.9 101.546 0 79.529-64.471 144-144 144-39.627 0-75.515-16.006-101.552-41.906l-415.83-415.826c-14.477-14.477-23.432-34.477-23.432-56.569 0-44.183 35.818-80.001 80.001-80.001 22.092 0 42.092 8.954 56.569 23.432l359.266 359.264 45.254-45.254-359.266-359.264c-26.031-25.894-61.919-41.9-101.546-41.9-79.529 0-144 64.471-144 144 0 39.627 16.006 75.515 41.906 101.552l415.828 415.826c37.665 37.79 89.766 61.172 147.328 61.172 114.875 0 208-93.125 208-208 0-57.561-23.381-109.661-61.164-147.32l-415.829-415.839c-48.951-49.212-116.716-79.669-191.594-79.669-0.264 0-0.527 0-0.791 0.001h0.041z" />
<glyph unicode="&#xe9a9;" glyph-name="pencil" d="M939.922 875.922c-32.151 32.151-76.567 52.036-125.627 52.036s-93.476-19.886-125.627-52.036l-545-545-96.336-284.004c-1.708-4.812-2.695-10.362-2.695-16.142 0-13.791 5.619-26.27 14.692-35.273l0.177-0.177c8.996-9.060 21.453-14.672 35.222-14.684h0.002c5.801 0.005 11.37 0.989 16.553 2.797l-0.353-0.107 284.012 96.344 545 545c32.151 32.151 52.036 76.567 52.036 125.627s-19.886 93.476-52.036 125.627v0zM360.232 135.488l-243.268-82.524 82.524 243.268 417.512 417.514 160.746-160.746zM894.666 669.922l-71.666-71.668-160.746 160.746 71.67 71.668c20.538 20.386 48.83 32.984 80.064 32.984 62.775 0 113.664-50.889 113.664-113.664 0-31.235-12.599-59.528-32.993-80.073l0.007 0.007z" />
<glyph unicode="&#xe9aa;" glyph-name="people" d="M924.896 327.4l-128.688 84.2 49.548 90.836c11.461 21.323 18.209 46.652 18.244 73.553v144.011c0 0.152 0.001 0.331 0.001 0.511 0 114.81-93.072 207.882-207.882 207.882-54.643 0-104.362-21.083-141.466-55.558l0.13 0.119 43.496-46.954c25.59 23.714 59.968 38.263 97.744 38.263 79.517 0 143.978-64.461 143.978-143.978 0-0.1 0-0.2 0-0.3v0.016-144c-0.007-15.672-3.863-30.442-10.674-43.418l0.246 0.514-77.834-142.696 178.116-116.548c23.111-15.288 38.146-41.165 38.146-70.554 0-0.101 0-0.201-0.001-0.301v0.016-107.012h-144v-64h208v171.012c0 0.115 0.001 0.251 0.001 0.387 0 51.666-26.452 97.153-66.552 123.658l-0.553 0.343zM636.896 263.4l-128.686 84.2 49.546 90.836c11.461 21.323 18.209 46.652 18.244 73.553v144.011c-0.089 114.931-93.188 208.087-208.089 208.268h-0.017c-114.634 0-207.894-93.43-207.894-208.268v-144c-0.001-0.219-0.002-0.479-0.002-0.738 0-26.635 6.674-51.71 18.441-73.646l-0.409 0.834 49.816-91.328-127.936-83.722c-40.654-26.83-67.11-72.305-67.11-123.961 0-0.084 0-0.168 0-0.253v0.013l-1-171.2h672.2v171.012c0 0.115 0.001 0.251 0.001 0.387 0 51.666-26.452 97.153-66.552 123.658l-0.553 0.343zM640 32h-543.814l0.62 107.012c0 0.086 0 0.187 0 0.288 0 29.389 15.035 55.266 37.833 70.359l0.313 0.195 177.366 116.058-78.102 143.184c-6.44 12.373-10.217 27.019-10.217 42.547 0 0.126 0 0.251 0.001 0.377v-0.019 144c0 79.529 64.471 144 144 144s144-64.471 144-144v0-144c-0.007-15.672-3.863-30.442-10.674-43.418l0.246 0.514-77.832-142.696 178.114-116.548c23.111-15.288 38.146-41.165 38.146-70.554 0-0.101 0-0.201-0.001-0.301v0.016z" />
<glyph unicode="&#xe9ab;" glyph-name="person" d="M626.036-32h-216.138l-33.65 256h-80.976l-11.186 268.482c-0.093 2.118-0.146 4.601-0.146 7.097 0 77.518 51.117 143.097 121.482 164.869l1.222 0.326-14.214 42.644c-1.562 4.525-2.464 9.74-2.464 15.165 0 0.005 0 0.010 0 0.015v-0.001 69.402c0 75.111 60.889 136 136 136s136-60.889 136-136v0-69.4c0-0.006 0-0.012 0-0.019 0-5.426-0.902-10.641-2.564-15.504l0.1 0.337-15.892-47.674c64.063-26.172 108.383-88.005 108.383-160.19 0-2.485-0.053-4.958-0.157-7.417l0.012 0.351-11.186-268.484h-80.976zM466.036 32h103.862l33.65 256h75.724l8.632 207.146c0.060 1.344 0.094 2.92 0.094 4.505 0 53.548-38.845 98.024-89.893 106.786l-0.643 0.091-37.016 6.102 37.52 112.564v66.806c0 39.765-32.235 72-72 72s-72-32.235-72-72v0-66.8l38.376-115.124-41.942-2.232c-57.278-3.376-102.45-50.651-102.45-108.477 0-1.483 0.030-2.959 0.089-4.428l-0.007 0.211 8.63-207.15h75.724z" />
<glyph unicode="&#xe9ac;" glyph-name="phone" d="M768 928h-496c-35.33-0.041-63.959-28.67-64-63.996v-832.004c0.042-35.329 28.671-63.958 63.996-64h496.004c35.329 0.042 63.958 28.671 64 63.996v832.004c-0.041 35.33-28.67 63.959-63.996 64h-0.004zM768 864v-64h-496v64zM768 736l0.022-448h-496.022v448zM768 32h-496v192h496.032v-192zM496 160.004h64v-64h-64v64z" />
<glyph unicode="&#xe9ad;" glyph-name="pie-chart" d="M226.356 171.9c-70.805 70.883-114.594 168.766-114.594 276.876 0 216.376 175.408 391.784 391.784 391.784 73.361 0 142.013-20.163 200.716-55.251l-1.788 0.991 46.512 46.5c-69.462 45.048-154.399 71.831-245.591 71.831-251.705 0-455.752-204.047-455.752-455.752 0-125.837 51-239.763 133.457-322.236v0c82.519-82.463 196.489-133.464 322.37-133.464 90.789 0 175.382 26.529 246.45 72.258l-1.806-1.088-46.624 46.624c-150.048-87.974-346.542-67.668-475.134 60.926zM953.466 262.4c23.463 55.094 37.102 119.183 37.102 186.458s-13.639 131.364-38.303 189.653l1.201-3.195c-1.77 4.272-3.612 8.502-5.494 12.71-25.517 56.355-59.178 104.503-100.112 145.368l-22.632 22.634-367.168-367.168 367.168-367.168 22.626 22.628c40.263 40.201 73.483 87.44 97.659 139.718l1.245 3c2.308 5.078 4.564 10.188 6.708 15.362zM824.352 724.64c63.524-73.593 102.216-170.169 102.216-275.782s-38.693-202.19-102.676-276.327l0.46 0.545-275.782 275.784z" />
<glyph unicode="&#xe9ae;" glyph-name="pin" d="M955.6 679.612l-212 212c-22.485 22.472-53.541 36.371-87.843 36.371-68.629 0-124.264-55.635-124.264-124.264 0-28.126 9.345-54.070 25.099-74.897l-0.226 0.312-9.826-11.066-195.308-85.8-85.214 46.052c-6.594 3.622-14.45 5.752-22.803 5.752-13.741 0-26.136-5.765-34.897-15.009l-0.020-0.022-83.098-88.012c-8.169-8.555-13.196-20.17-13.196-32.96 0-13.271 5.412-25.277 14.15-33.932l203.364-203.364-297.518-297.516v-45.258h45.254l297.516 297.52 202.43-202.43c8.67-8.718 20.674-14.114 33.937-14.114 12.616 0 24.091 4.881 32.641 12.858l-0.028-0.026 88.85 82.256c9.486 8.787 15.404 21.31 15.404 35.215 0 8.421-2.171 16.335-5.983 23.213l0.125-0.246-46.688 85.716 84.262 181.038 17.2 20.636c19.756-13.838 44.292-22.113 70.76-22.113 68.631 0 124.268 55.637 124.268 124.268 0 34.291-13.889 65.338-36.349 87.822l0.001-0.001zM910.344 549.152c-10.902-10.903-25.964-17.646-42.6-17.646s-31.698 6.743-42.6 17.646l-33.77 33.77-66.16-79.354-101.4-217.868 56.174-103.13-68.418-63.338-429.17 429.168 64 67.778 101.938-55.086 236.772 104.016 58.354 65.726-30.316 30.318c-10.594 10.848-17.129 25.701-17.129 42.079 0 33.275 26.975 60.25 60.25 60.25 16.379 0 31.231-6.535 42.091-17.141l-0.012 0.011 212-212c10.901-10.903 17.644-25.964 17.644-42.6s-6.742-31.697-17.644-42.6v0z" />
<glyph unicode="&#xe9af;" glyph-name="play-circle" d="M369.454 736v-544h68.414l366.18 271.868-362.758 272.132zM433.454 268.434v393.442l263.588-197.738zM512 928c-265.096 0-480-214.898-480-480s214.904-480 480-480 480 214.908 480 480-214.904 480-480 480zM806.156 153.848c-74.967-74.749-178.417-120.968-292.662-120.968-228.925 0-414.506 185.581-414.506 414.506s185.581 414.506 414.506 414.506c228.925 0 414.506-185.581 414.506-414.506 0-58.246-12.014-113.687-33.699-163.978l1.032 2.69c-22.046-51.416-52.135-95.309-89.168-132.24l-0.010-0.010z" />
<glyph unicode="&#xe9b0;" glyph-name="plus" d="M512 928c-265.096 0-480-214.898-480-480s214.904-480 480-480 480 214.908 480 480-214.904 480-480 480zM806.156 153.848c-74.967-74.749-178.417-120.968-292.662-120.968-228.925 0-414.506 185.581-414.506 414.506s185.581 414.506 414.506 414.506c228.925 0 414.506-185.581 414.506-414.506 0-58.246-12.014-113.687-33.699-163.978l1.032 2.69c-22.046-51.416-52.135-95.309-89.168-132.24l-0.010-0.010zM544 704.004h-64v-224h-224v-64h224v-224h64v224h224v64h-224v224z" />
<glyph unicode="&#xe9b1;" glyph-name="power-standby" d="M624 784.672v-66.94c139.352-46.89 240-178.772 240-333.732 0-194.094-157.906-352-352-352s-352 157.91-352 352c0 154.956 100.648 286.838 240 333.728v66.944c-175.156-49.024-304-210.072-304-400.672 0-229.382 186.618-416 416-416s416 186.618 416 416c0 190.6-128.844 351.648-304 400.672zM480 928.004h64v-544h-64v544z" />
<glyph unicode="&#xe9b2;" glyph-name="print" d="M293.98 416l-40-192h-1.168l-12.8-64h0.634l-40-192h622.708l-93.334 448zM279.354 32l66.666 320h331.96l66.666-320zM336 864.004h352v-144h64v208h-480v-208h64v144zM32 640.004v-480h142.746l12.798 64h-91.544v352h832v-352h-91.544l12.798-64h142.746v480h-960z" />
<glyph unicode="&#xe9b3;" glyph-name="project" d="M208 784.004h272v-64h-272v64zM320 592.004h272v-64h-272v64zM432 400.004h272v-64h-272v64zM544 208.004h272v-64h-272v64zM32 928.004h64v-960h-64v960zM928 928.004h64v-960h-64v960z" />
<glyph unicode="&#xe9b4;" glyph-name="pulse" d="M586.234-31.996h-85.026l-151.36 847.62-132.542-559.62h-82.29l-48 192h-55.016v64h104.984l38.608-154.428 135.102 570.428h84.098l150.084-840.46 84.89 424.46h362.234v-64h-309.766l-96-480z" />
<glyph unicode="&#xe9b5;" glyph-name="puzzle" d="M985.53 460.364l-1.22 1.158-109.91 98.924 32.814 26.816c14.571 12.032 26.794 26.268 36.315 42.297l0.409 0.743c36.296 62.882 25.734 140.082-26.288 192.104s-129.222 62.584-192.1 26.286c-16.773-9.93-31.010-22.154-42.824-36.454l-0.218-0.272-26.818-32.816-100.080 111.134c-8.686 8.686-20.686 14.059-33.941 14.059s-25.255-5.373-33.941-14.059l-131.21-131.21 2.378-47.4 66.212-54.1c8.781-7.211 16.156-15.739 21.919-25.343l0.245-0.441c21.614-37.442 15.138-83.6-16.114-114.85s-77.4-37.726-114.85-16.114c-10.046 6.006-18.574 13.38-25.649 21.993l-0.135 0.169-54.104 66.212-47.4 2.38-142.528-142.528c-8.686-8.686-14.059-20.686-14.059-33.941s5.373-25.255 14.059-33.941l350.726-350.728c28.974-28.91 68.967-46.787 113.136-46.787s84.162 17.877 113.139 46.79l362.037 362.035c8.673 8.693 14.037 20.691 14.037 33.942s-5.363 25.249-14.037 33.943l0.001-0.001zM578.236 75.698c-17.385-17.346-41.381-28.072-67.882-28.072s-50.497 10.726-67.884 28.074l-339.408 339.41 106.188 106.19 32.022-39.18c12.031-14.57 26.267-26.793 42.297-36.312l0.743-0.408c62.882-36.3 140.084-25.734 192.1 26.288s62.584 129.22 26.288 192.098c-9.929 16.773-22.152 31.010-36.45 42.824l-0.272 0.218-39.178 32.012 94.25 94.25 112.026-124.49 48.566 1.16 50.124 61.342c7.209 8.778 15.734 16.15 25.335 21.911l0.441 0.245c37.44 21.612 83.6 15.14 114.852-16.114s37.726-77.4 16.11-114.854c-6.006-10.042-13.378-18.567-21.987-25.641l-0.169-0.135-61.348-50.114-1.158-48.564 124.492-112.036z" />
</font>
</defs>
</svg>
