<?xml version="1.0" encoding="utf-8"?>
<!-- Generator: Adobe Illustrator 17.0.0, SVG Export Plug-In . SVG Version: 6.00 Build 0)  -->
<!DOCTYPE svg PUBLIC "-//W3C//DTD SVG 1.1//EN" "http://www.w3.org/Graphics/SVG/1.1/DTD/svg11.dtd">
<svg version="1.1" xmlns="http://www.w3.org/2000/svg" xmlns:xlink="http://www.w3.org/1999/xlink" x="0px" y="0px"
	 width="699.494px" height="200px" viewBox="0 0 699.494 200" enable-background="new 0 0 699.494 200" xml:space="preserve">
<g id="Warstwa_2">
</g>
<g id="Warstwa_1">
	<g>
		<path fill="#FFFFFF" d="M268.172,136.939c4.095,0,7.662-0.371,10.699-1.113c3.038-0.743,5.929-1.766,8.674-3.071v-17.753h-12.217
			c-1.171,0-2.093-0.326-2.768-0.979c-0.675-0.652-1.013-1.451-1.013-2.396v-10.26h32.468v39.487
			c-2.476,1.801-5.052,3.365-7.729,4.691c-2.678,1.328-5.535,2.419-8.572,3.274c-3.038,0.855-6.289,1.496-9.754,1.924
			c-3.466,0.427-7.2,0.641-11.205,0.641c-7.11,0-13.658-1.237-19.642-3.712c-5.985-2.475-11.161-5.917-15.525-10.328
			c-4.365-4.41-7.774-9.675-10.226-15.795c-2.453-6.12-3.679-12.802-3.679-20.048c0-7.334,1.192-14.062,3.578-20.182
			c2.384-6.12,5.771-11.384,10.159-15.795c4.387-4.41,9.708-7.83,15.963-10.26c6.254-2.43,13.274-3.645,21.06-3.645
			c7.965,0,14.861,1.181,20.689,3.544c5.827,2.362,10.766,5.434,14.816,9.213l-5.265,8.235c-1.036,1.665-2.408,2.498-4.118,2.498
			c-1.08,0-2.183-0.36-3.308-1.08c-1.44-0.854-2.914-1.71-4.421-2.565c-1.508-0.854-3.173-1.597-4.995-2.228
			c-1.822-0.63-3.871-1.147-6.143-1.553c-2.273-0.405-4.894-0.607-7.864-0.607c-4.815,0-9.169,0.81-13.061,2.43
			c-3.893,1.62-7.212,3.938-9.957,6.952c-2.745,3.016-4.86,6.638-6.345,10.868c-1.485,4.23-2.228,8.956-2.228,14.175
			c0,5.626,0.787,10.631,2.362,15.019c1.575,4.387,3.78,8.089,6.615,11.104c2.835,3.016,6.21,5.322,10.125,6.919
			C259.262,136.141,263.537,136.939,268.172,136.939z"/>
		<path fill="#FFFFFF" d="M382.517,52.7v14.445h-43.268v27.068h34.088v13.972h-34.088v27.607h43.268v14.513h-61.561V52.7H382.517z"
			/>
		<path fill="#FFFFFF" d="M409.785,52.801c0.54,0.068,1.023,0.203,1.451,0.405c0.428,0.202,0.844,0.496,1.249,0.877
			c0.405,0.383,0.854,0.889,1.35,1.519l51.232,65.272c-0.18-1.575-0.304-3.115-0.371-4.624c-0.067-1.507-0.102-2.913-0.102-4.219
			V52.7h15.998v97.605h-9.383c-1.44,0-2.632-0.225-3.577-0.675c-0.945-0.45-1.868-1.259-2.768-2.43l-51.03-65.002
			c0.135,1.44,0.236,2.869,0.304,4.286s0.102,2.711,0.102,3.881v59.94h-15.997V52.7h9.517
			C408.57,52.7,409.245,52.733,409.785,52.801z"/>
		<path fill="#FFFFFF" d="M520.755,150.305h-18.226V52.7h18.226V150.305z"/>
		<path fill="#FFFFFF" d="M581.977,135.657c3.511,0,6.649-0.584,9.417-1.755c2.768-1.17,5.106-2.812,7.02-4.928
			c1.912-2.115,3.375-4.68,4.388-7.695c1.013-3.014,1.519-6.389,1.519-10.125V52.7h18.157v58.455c0,5.805-0.935,11.171-2.801,16.099
			c-1.868,4.928-4.557,9.18-8.066,12.757c-3.51,3.578-7.763,6.368-12.758,8.37s-10.62,3.004-16.875,3.004s-11.88-1.002-16.875-3.004
			s-9.236-4.792-12.724-8.37c-3.487-3.577-6.165-7.83-8.032-12.757c-1.868-4.927-2.802-10.294-2.802-16.099V52.7h18.158v58.388
			c0,3.735,0.506,7.11,1.519,10.125c1.013,3.015,2.464,5.592,4.354,7.729c1.891,2.138,4.219,3.792,6.986,4.961
			C575.328,135.073,578.467,135.657,581.977,135.657z"/>
		<path fill="#FFFFFF" d="M693.284,70.452c-0.496,0.99-1.07,1.688-1.722,2.093c-0.653,0.405-1.429,0.607-2.329,0.607
			s-1.913-0.348-3.037-1.046c-1.125-0.697-2.453-1.474-3.982-2.329c-1.53-0.854-3.319-1.631-5.366-2.329
			c-2.049-0.697-4.467-1.046-7.257-1.046c-2.521,0-4.714,0.304-6.581,0.911s-3.442,1.451-4.725,2.531s-2.239,2.374-2.869,3.881
			c-0.631,1.508-0.944,3.162-0.944,4.961c0,2.295,0.641,4.208,1.923,5.738c1.283,1.53,2.981,2.835,5.097,3.915
			c2.114,1.08,4.522,2.048,7.223,2.902c2.7,0.855,5.456,1.767,8.269,2.734c2.812,0.968,5.568,2.092,8.269,3.375
			c2.7,1.282,5.107,2.902,7.223,4.86c2.114,1.958,3.813,4.354,5.097,7.189c1.282,2.835,1.924,6.277,1.924,10.327
			c0,4.411-0.755,8.539-2.262,12.386c-1.508,3.848-3.713,7.201-6.615,10.058c-2.902,2.858-6.446,5.108-10.631,6.75
			c-4.186,1.642-8.978,2.464-14.378,2.464c-3.104,0-6.165-0.304-9.18-0.911c-3.016-0.608-5.906-1.474-8.674-2.599
			c-2.768-1.124-5.355-2.474-7.763-4.05c-2.407-1.575-4.556-3.33-6.446-5.265l5.266-8.708c0.494-0.629,1.09-1.158,1.788-1.586
			c0.697-0.427,1.474-0.642,2.329-0.642c1.124,0,2.339,0.462,3.645,1.384c1.305,0.923,2.846,1.947,4.624,3.071
			c1.777,1.125,3.87,2.149,6.277,3.071c2.407,0.923,5.299,1.384,8.674,1.384c5.175,0,9.181-1.226,12.016-3.679
			c2.835-2.452,4.252-5.974,4.252-10.564c0-2.565-0.641-4.657-1.924-6.277c-1.282-1.62-2.981-2.98-5.096-4.083
			c-2.116-1.103-4.522-2.036-7.223-2.801c-2.7-0.765-5.445-1.597-8.235-2.498c-2.79-0.9-5.535-1.98-8.234-3.24
			c-2.7-1.259-5.108-2.902-7.223-4.927c-2.116-2.025-3.814-4.557-5.097-7.594c-1.282-3.038-1.924-6.784-1.924-11.239
			c0-3.554,0.709-7.02,2.127-10.395c1.417-3.375,3.486-6.367,6.21-8.978c2.722-2.609,6.063-4.702,10.023-6.277
			c3.959-1.575,8.481-2.363,13.567-2.363c5.76,0,11.07,0.901,15.93,2.7c4.86,1.8,9,4.32,12.42,7.56L693.284,70.452z"/>
	</g>
</g>
<g id="Warstwa_3">
	<path fill="#FFFFFF" d="M86.603,0L0,50v100l86.603,50l86.603-50V50L86.603,0z M86.603,133.333l28.868-16.667l28.867,16.667
		l-57.735,33.333l-57.735-33.333V66.666l57.735-33.333l57.735,33.333L115.47,83.333L86.603,66.666L57.735,83.333v33.333
		L86.603,133.333z"/>
	<polygon opacity="0.04" stroke="#FFFFFF" stroke-miterlimit="10" points="0,50 86.603,100 86.603,0 	"/>
	<polygon opacity="0.04" stroke="#FFFFFF" stroke-miterlimit="10" points="0,150 86.603,200 86.603,100 	"/>
	<polygon opacity="0.08" stroke="#FFFFFF" stroke-miterlimit="10" points="86.603,100 173.205,150 173.205,50 	"/>
	<polygon opacity="0" stroke="#FFFFFF" stroke-miterlimit="10" points="86.603,100 0,50 0,150 	"/>
	<polygon opacity="0.08" stroke="#FFFFFF" stroke-miterlimit="10" points="173.205,150 86.603,100 86.603,200 	"/>
	<polygon opacity="0.08" stroke="#FFFFFF" stroke-miterlimit="10" points="173.205,50 86.603,0 86.603,100 	"/>
</g>
</svg>
