<?xml version="1.0" encoding="utf-8"?>
<!-- Generator: Adobe Illustrator 17.0.0, SVG Export Plug-In . SVG Version: 6.00 Build 0)  -->
<!DOCTYPE svg PUBLIC "-//W3C//DTD SVG 1.1//EN" "http://www.w3.org/Graphics/SVG/1.1/DTD/svg11.dtd">
<svg version="1.1" xmlns="http://www.w3.org/2000/svg" xmlns:xlink="http://www.w3.org/1999/xlink" x="0px" y="0px"
	 width="758.962px" height="200px" viewBox="0 0 758.962 200" enable-background="new 0 0 758.962 200" xml:space="preserve">
<g id="Warstwa_2">
</g>
<g id="Warstwa_1">
	<g>
		<path fill="#FFFFFF" d="M275.665,70.452c-0.496,0.99-1.069,1.688-1.721,2.093c-0.653,0.405-1.429,0.607-2.329,0.607
			c-0.901,0-1.914-0.348-3.038-1.046c-1.125-0.697-2.453-1.474-3.982-2.329c-1.53-0.854-3.319-1.631-5.366-2.329
			c-2.048-0.697-4.467-1.046-7.256-1.046c-2.521,0-4.714,0.304-6.582,0.911c-1.868,0.607-3.442,1.451-4.725,2.531
			c-1.283,1.08-2.239,2.374-2.869,3.881c-0.63,1.508-0.945,3.162-0.945,4.961c0,2.295,0.641,4.208,1.924,5.738
			c1.282,1.53,2.98,2.835,5.096,3.915c2.115,1.08,4.522,2.048,7.223,2.902c2.7,0.855,5.456,1.767,8.269,2.734
			c2.812,0.968,5.569,2.092,8.269,3.375c2.7,1.282,5.107,2.902,7.223,4.86c2.115,1.958,3.814,4.354,5.096,7.189
			c1.283,2.835,1.924,6.277,1.924,10.327c0,4.411-0.754,8.539-2.261,12.386c-1.508,3.848-3.712,7.201-6.615,10.058
			c-2.903,2.858-6.446,5.108-10.631,6.75s-8.978,2.464-14.377,2.464c-3.105,0-6.166-0.304-9.18-0.911
			c-3.015-0.608-5.906-1.474-8.674-2.599c-2.768-1.124-5.355-2.474-7.762-4.05c-2.408-1.575-4.557-3.33-6.446-5.265l5.265-8.708
			c0.495-0.629,1.091-1.158,1.789-1.586c0.697-0.427,1.473-0.642,2.329-0.642c1.125,0,2.339,0.462,3.645,1.384
			c1.305,0.923,2.846,1.947,4.624,3.071c1.777,1.125,3.87,2.149,6.278,3.071c2.407,0.923,5.299,1.384,8.674,1.384
			c5.174,0,9.18-1.226,12.015-3.679c2.835-2.452,4.252-5.974,4.252-10.564c0-2.565-0.641-4.657-1.923-6.277
			c-1.283-1.62-2.982-2.98-5.097-4.083c-2.116-1.103-4.522-2.036-7.222-2.801c-2.7-0.765-5.445-1.597-8.235-2.498
			c-2.791-0.9-5.535-1.98-8.235-3.24c-2.7-1.259-5.108-2.902-7.222-4.927c-2.116-2.025-3.814-4.557-5.097-7.594
			c-1.282-3.038-1.923-6.784-1.923-11.239c0-3.554,0.708-7.02,2.126-10.395s3.487-6.367,6.21-8.978
			c2.722-2.609,6.063-4.702,10.024-6.277c3.959-1.575,8.482-2.363,13.567-2.363c5.76,0,11.07,0.901,15.93,2.7
			c4.86,1.8,9,4.32,12.42,7.56L275.665,70.452z"/>
		<path fill="#FFFFFF" d="M316.232,150.305h-18.225V52.7h18.225V150.305z"/>
		<path fill="#FFFFFF" d="M389.3,114.293c0.651,1.552,1.293,3.117,1.924,4.691c0.63-1.62,1.282-3.217,1.957-4.792
			c0.676-1.575,1.395-3.082,2.16-4.522l28.891-54.068c0.359-0.675,0.73-1.215,1.113-1.62c0.382-0.405,0.81-0.697,1.282-0.878
			c0.473-0.179,1.001-0.292,1.587-0.337c0.584-0.044,1.282-0.067,2.092-0.067h13.703v97.605h-15.998V87.26
			c0-1.17,0.034-2.452,0.102-3.848c0.067-1.394,0.169-2.812,0.304-4.252l-29.497,55.35c-0.676,1.26-1.553,2.239-2.633,2.936
			c-1.08,0.698-2.341,1.046-3.78,1.046h-2.497c-1.441,0-2.7-0.348-3.78-1.046c-1.08-0.697-1.958-1.676-2.633-2.936l-29.902-55.553
			c0.18,1.485,0.304,2.937,0.371,4.354s0.102,2.734,0.102,3.949v63.045h-15.998V52.7h13.703c0.81,0,1.507,0.023,2.093,0.067
			c0.584,0.045,1.113,0.158,1.586,0.337c0.473,0.181,0.911,0.473,1.316,0.878c0.404,0.405,0.786,0.945,1.147,1.62l29.16,54.203
			C387.938,111.246,388.646,112.741,389.3,114.293z"/>
		<path fill="#FFFFFF" d="M482.482,115.947v34.357h-18.157V52.7h31.792c6.524,0,12.172,0.766,16.942,2.295
			c4.77,1.53,8.708,3.668,11.812,6.413c3.105,2.745,5.4,6.031,6.885,9.855c1.485,3.825,2.228,8.01,2.228,12.555
			c0,4.725-0.787,9.057-2.362,12.994c-1.575,3.938-3.938,7.324-7.087,10.159c-3.15,2.835-7.088,5.041-11.812,6.615
			c-4.726,1.576-10.261,2.363-16.605,2.363H482.482z M482.482,101.772h13.635c3.33,0,6.232-0.416,8.708-1.249
			c2.474-0.832,4.522-2.025,6.143-3.578c1.619-1.552,2.835-3.442,3.645-5.67s1.215-4.713,1.215-7.458
			c0-2.609-0.405-4.972-1.215-7.088c-0.81-2.114-2.025-3.915-3.645-5.4c-1.62-1.485-3.669-2.621-6.143-3.409
			c-2.476-0.787-5.378-1.181-8.708-1.181h-13.635V101.772z"/>
		<path fill="#FFFFFF" d="M566.25,135.32h39.082v14.985h-57.239V52.7h18.157V135.32z"/>
		<path fill="#FFFFFF" d="M638.34,150.305h-18.226V52.7h18.226V150.305z"/>
		<path fill="#FFFFFF" d="M753.899,101.502c0,4.366-0.45,8.539-1.35,12.521c-0.901,3.982-2.194,7.707-3.882,11.171
			c-1.688,3.465-3.746,6.648-6.176,9.551c-2.431,2.902-5.198,5.457-8.303,7.661l24.772,27h-14.985c-2.16,0-4.106-0.293-5.839-0.877
			c-1.732-0.585-3.318-1.666-4.759-3.24l-14.31-15.795c-2.295,0.631-4.646,1.102-7.054,1.417c-2.408,0.314-4.917,0.473-7.526,0.473
			c-7.381,0-14.119-1.249-20.216-3.746c-6.099-2.498-11.318-5.974-15.66-10.429c-4.344-4.455-7.707-9.73-10.092-15.829
			c-2.386-6.097-3.577-12.724-3.577-19.879c0-7.155,1.191-13.78,3.577-19.878c2.385-6.097,5.748-11.374,10.092-15.829
			c4.342-4.455,9.562-7.932,15.66-10.429c6.097-2.497,12.835-3.746,20.216-3.746c7.38,0,14.107,1.26,20.183,3.78
			c6.075,2.521,11.272,5.997,15.593,10.429c4.319,4.433,7.672,9.698,10.058,15.795C752.706,87.722,753.899,94.347,753.899,101.502z
			 M735.27,101.502c0-5.354-0.709-10.159-2.126-14.411c-1.418-4.252-3.454-7.864-6.109-10.833c-2.655-2.97-5.884-5.242-9.687-6.818
			c-3.803-1.574-8.089-2.362-12.858-2.362c-4.771,0-9.068,0.788-12.893,2.362c-3.825,1.576-7.077,3.848-9.754,6.818
			c-2.678,2.97-4.736,6.581-6.176,10.833c-1.44,4.252-2.16,9.057-2.16,14.411c0,5.356,0.72,10.159,2.16,14.412
			c1.439,4.252,3.498,7.853,6.176,10.8c2.677,2.948,5.929,5.209,9.754,6.784c3.824,1.576,8.122,2.363,12.893,2.363
			c4.77,0,9.056-0.787,12.858-2.363c3.803-1.575,7.031-3.836,9.687-6.784c2.655-2.947,4.691-6.547,6.109-10.8
			C734.561,111.661,735.27,106.858,735.27,101.502z"/>
	</g>
</g>
<g id="Warstwa_3">
	<path fill="#FFFFFF" d="M86.603,0L0,50v100l86.603,50l86.603-50V50L86.603,0z M86.603,133.333l28.868-16.667l28.867,16.667
		l-57.735,33.333l-57.735-33.333V66.666l57.735-33.333l57.735,33.333L115.47,83.333L86.603,66.666L57.735,83.333v33.333
		L86.603,133.333z"/>
	<polygon opacity="0.04" stroke="#FFFFFF" stroke-miterlimit="10" points="0,50 86.603,100 86.603,0 	"/>
	<polygon opacity="0.04" stroke="#FFFFFF" stroke-miterlimit="10" points="0,150 86.603,200 86.603,100 	"/>
	<polygon opacity="0.08" stroke="#FFFFFF" stroke-miterlimit="10" points="86.603,100 173.205,150 173.205,50 	"/>
	<polygon opacity="0" stroke="#FFFFFF" stroke-miterlimit="10" points="86.603,100 0,50 0,150 	"/>
	<polygon opacity="0.08" stroke="#FFFFFF" stroke-miterlimit="10" points="173.205,150 86.603,100 86.603,200 	"/>
	<polygon opacity="0.08" stroke="#FFFFFF" stroke-miterlimit="10" points="173.205,50 86.603,0 86.603,100 	"/>
</g>
</svg>
